<?xml version="1.0" ?><svg viewBox="0 0 64 64" xmlns="http://www.w3.org/2000/svg"><defs><style>.cls-1{isolation:isolate;}.cls-2{fill:#4489c8;}.cls-3{fill:#fff;}.cls-4{fill:#4465c8;}</style></defs><title/><g data-name="32-vk" id="_32-vk"><g class="cls-1"><path class="cls-2" d="M41.42,31.81,52,37.57c2.2,2.47,4.62,5.76,2.28,6.08L43.7,37.89C46,37.57,43.62,34.28,41.42,31.81Z"/><polygon class="cls-2" points="47.64 44.59 37.05 38.83 43.7 37.89 54.29 43.65 47.64 44.59"/><path class="cls-2" d="M36.39,38.72a1.13,1.13,0,0,0,.66.11l10.59,5.76a1.12,1.12,0,0,1-.66-.11Z"/><path class="cls-2" d="M44.23,17.75A.64.64,0,0,0,44,17l10.59,5.76a.64.64,0,0,1,.23.8,73.86,73.86,0,0,1-4.91,10.33A1.35,1.35,0,0,0,50,35.48c.5.51,1.22,1.25,2,2.09L41.42,31.81c-.75-.84-1.47-1.58-2-2.09a1.37,1.37,0,0,1-.13-1.64A73.86,73.86,0,0,0,44.23,17.75Z"/><path class="cls-3" d="M44,17l10.59,5.76a.53.53,0,0,0-.33-.05L43.67,16.9A.53.53,0,0,1,44,17Z"/><path class="cls-3" d="M47,44.48,36.39,38.72a1.64,1.64,0,0,1-.26-.2,19,19,0,0,0-3.9-3.31L42.82,41a19,19,0,0,1,3.9,3.31A1.28,1.28,0,0,0,47,44.48Z"/><path class="cls-2" d="M30.85,34.83a2.34,2.34,0,0,1,1.38.38L42.82,41a2.34,2.34,0,0,0-1.38-.38Z"/><path class="cls-2" d="M30.69,34.86l.16,0,10.59,5.76h0L30.89,34.84l10.55,5.75a.76.76,0,0,0-.16,0Z"/><path class="cls-2" d="M30.69,34.86h0l10.59,5.76h0L30.69,34.86Z"/><path class="cls-2" d="M29.5,38.69c-.06-1.35.05-3.44,1.19-3.83l10.59,5.76C40.14,41,40,43.1,40.09,44.45Z"/><path class="cls-2" d="M28.34,40.25a1.54,1.54,0,0,0,1.16-1.56l10.59,5.76A1.55,1.55,0,0,1,38.93,46c-1,.22-2.42.45-2.92.52L25.47,40.8,36,46.53h0L25.39,40.77C25.86,40.71,27.27,40.48,28.34,40.25Z"/><path class="cls-2" d="M25.33,40.78h.06L36,46.53h0Z"/><polygon class="cls-3" points="47.62 23.59 37.04 17.83 43.67 16.9 54.26 22.66 47.62 23.59"/><path class="cls-3" d="M47,24.09,36.45,18.33a.77.77,0,0,1,.59-.5l10.58,5.76A.77.77,0,0,0,47,24.09Z"/><path class="cls-3" d="M40.78,33.89,30.19,28.13a.63.63,0,0,0,.23.08,1.22,1.22,0,0,0,.33,0c2.26-.32,5-7.95,5.7-9.89L47,24.09C46.38,26,43.6,33.66,41.34,34A1.22,1.22,0,0,1,41,34,.63.63,0,0,1,40.78,33.89Z"/><path class="cls-2" d="M20.51,39.75a8.66,8.66,0,0,0,4.82,1l10.59,5.76a8.66,8.66,0,0,1-4.82-1Z"/><path class="cls-2" d="M30.19,28.13C28.78,27.36,30,22.32,30,21l10.59,5.76c0,1.33-1.2,6.37.21,7.14Z"/><path class="cls-2" d="M30,21c0-1.15-.19-2.47-1.12-3l10.59,5.76c.93.51,1.1,1.83,1.12,3h0L30,21Z"/><path class="cls-3" d="M31.66,35.12,21.07,29.36a1.84,1.84,0,0,0,.71.23l10.59,5.76A1.79,1.79,0,0,1,31.66,35.12Z"/><path class="cls-3" d="M28.86,18l10.59,5.76a1.48,1.48,0,0,0-.29-.12,9.2,9.2,0,0,0-3.4,0L25.17,17.87a9.2,9.2,0,0,1,3.4,0A1.48,1.48,0,0,1,28.86,18Z"/><path class="cls-3" d="M21.18,20.32l10.59,5.76c1.91,1,2.31,9,.6,9.27L21.78,29.59C23.49,29.36,23.09,21.35,21.18,20.32Z"/><path class="cls-2" d="M20.64,20.21a.93.93,0,0,1,.54.11l10.59,5.76a.85.85,0,0,0-.54-.1h0L20.64,20.21Z"/><path class="cls-2" d="M20.53,20.21h.11L31.23,26h-.11Z"/><path class="cls-3" d="M31.12,26,20.53,20.21c-.24-.13,1.22-1.34,1.33-1.4a10.32,10.32,0,0,1,3.31-.94l10.59,5.76a10.32,10.32,0,0,0-3.31.94C32.34,24.63,30.88,25.84,31.12,26Z"/><path class="cls-2" d="M31.66,35.12,21.07,29.36c-2.28-1.24-4.57-6.95-5.16-8.53l10.58,5.76C27.08,28.17,29.37,33.88,31.66,35.12Z"/><polygon class="cls-3" points="19.97 27.08 9.38 21.32 15.33 20.49 25.91 26.25 19.97 27.08"/><path class="cls-2" d="M15.66,20.55l10.59,5.76a.51.51,0,0,1,.24.28L15.91,20.83A.53.53,0,0,0,15.66,20.55Z"/><path class="cls-3" d="M15.66,20.55l10.59,5.76a.48.48,0,0,0-.33-.06L15.33,20.49A.47.47,0,0,1,15.66,20.55Z"/><path class="cls-3" d="M31.08,45.49,20.5,39.73a18,18,0,0,1-5.3-5.09A40.88,40.88,0,0,1,8.78,22.29a.79.79,0,0,1,.6-1L20,27.08a.78.78,0,0,0-.6,1A40.88,40.88,0,0,0,25.79,40.4,18.08,18.08,0,0,0,31.08,45.49Z"/><path class="cls-2" d="M53.47,5.84c4.79-.67,8.68,3,8.67,8.15L62.07,48.8c0,5.17-3.91,9.91-8.7,10.59L21.12,63.92c-4.8.67-8.68-3-8.67-8.15L12.52,21c0-5.17,3.9-9.91,8.7-10.59Zm.82,37.81c3.13-.44-2.27-6.17-4.25-8.17a1.35,1.35,0,0,1-.13-1.64,73.86,73.86,0,0,0,4.91-10.33.58.58,0,0,0-.56-.85l-6.64.93a.77.77,0,0,0-.58.5C46.38,26,43.6,33.66,41.34,34A1.22,1.22,0,0,1,41,34c-1.77-.34-.4-5.83-.44-7.22s-.22-2.73-1.41-3.1a9.2,9.2,0,0,0-3.4,0,10.32,10.32,0,0,0-3.31.94c-.12.07-1.84,1.49-1.22,1.41,2.36-.34,3,9.12,1.14,9.37-2.5-.23-5.22-7-5.88-8.76a.52.52,0,0,0-.57-.34l-6,.83a.78.78,0,0,0-.6,1A40.88,40.88,0,0,0,25.79,40.4c2.67,3.46,5.46,6.48,10.18,6.13.48-.06,1.89-.29,3-.52a1.55,1.55,0,0,0,1.16-1.56c-.06-1.35,0-3.44,1.19-3.83a.76.76,0,0,1,.16,0c1.46-.21,4.28,2.63,5.28,3.69a1.06,1.06,0,0,0,.92.31l6.65-.94"/><path class="cls-3" d="M35.76,23.63a9.2,9.2,0,0,1,3.4,0c1.19.37,1.38,1.84,1.41,3.1S39.24,33.63,41,34a1.22,1.22,0,0,0,.33,0c2.26-.32,5-7.95,5.7-9.89a.77.77,0,0,1,.58-.5l6.64-.93a.58.58,0,0,1,.56.85,73.86,73.86,0,0,1-4.91,10.33A1.35,1.35,0,0,0,50,35.48c2,2,7.38,7.73,4.25,8.17l-6.65.94a1.06,1.06,0,0,1-.92-.31c-1-1.06-3.82-3.9-5.28-3.69a.76.76,0,0,0-.16,0C40.14,41,40,43.1,40.09,44.45A1.55,1.55,0,0,1,38.93,46c-1.07.23-2.48.46-2.87.51-4.81.36-7.6-2.66-10.27-6.12a40.88,40.88,0,0,1-6.42-12.35.78.78,0,0,1,.6-1l6-.83a.52.52,0,0,1,.57.34c.66,1.74,3.38,8.53,5.88,8.76,1.86-.25,1.22-9.71-1.14-9.37-.62.08,1.1-1.34,1.22-1.41A10.32,10.32,0,0,1,35.76,23.63Z"/><path class="cls-4" d="M47.52.88a7.44,7.44,0,0,0-4.64-.8L10.63,4.61C5.83,5.29,1.94,10,1.93,15.2L1.86,50a8.12,8.12,0,0,0,4,7.35l10.59,5.76a8.12,8.12,0,0,1-4-7.35L12.52,21c0-5.17,3.9-9.91,8.7-10.59L53.47,5.84a7.44,7.44,0,0,1,4.64.8Z"/></g></g></svg>