<?xml version="1.0" ?><svg viewBox="0 0 64 64" xmlns="http://www.w3.org/2000/svg"><defs><style>.cls-1{isolation:isolate;}.cls-2{fill:#00d332;}.cls-3{fill:#fff;}.cls-4{fill:#009932;}</style></defs><title/><g data-name="9-wechat" id="_9-wechat"><g class="cls-1"><path class="cls-2" d="M52.62,50,42,44.25a.26.26,0,0,0,.15,0,.39.39,0,0,0,.31-.41l10.59,5.76a.39.39,0,0,1-.32.41A.22.22,0,0,1,52.62,50Z"/><polygon class="cls-2" points="53.08 49.62 42.49 43.86 42.19 40.62 52.78 46.38 53.08 49.62"/><path class="cls-2" d="M42.19,40.62a11.91,11.91,0,0,0,4.34-8.77l10.59,5.76a12,12,0,0,1-4.34,8.77Z"/><polygon class="cls-2" points="49.45 48.57 38.86 42.81 42.03 44.25 52.62 50.01 49.45 48.57"/><path class="cls-2" d="M34.55,44.14a14.7,14.7,0,0,0,4.31-1.33l10.59,5.76a14.67,14.67,0,0,1-4.32,1.33Z"/><path class="cls-2" d="M32,44.25a13.42,13.42,0,0,0,2.59-.11L45.13,49.9a13.38,13.38,0,0,1-2.59.11l-1.23-.67L40,48.63l-1.36-.74-1.39-.76Z"/><path class="cls-2" d="M46.53,31.85a8.62,8.62,0,0,0-4.65-7.76l10.59,5.76a8.64,8.64,0,0,1,4.65,7.76Z"/><path class="cls-3" d="M48.51,36.48,37.92,30.72a1.16,1.16,0,0,0,.74.13l10.59,5.76A1.15,1.15,0,0,1,48.51,36.48Z"/><path class="cls-3" d="M39.42,28,50,33.72a1.33,1.33,0,0,1,.65,1.19,1.73,1.73,0,0,1-1.4,1.7L38.66,30.85a1.72,1.72,0,0,0,1.4-1.7A1.3,1.3,0,0,0,39.42,28Z"/><path class="cls-2" d="M39.17,27.87a1.06,1.06,0,0,1,.25.09L50,33.72a.85.85,0,0,0-.24-.09Z"/><path class="cls-2" d="M38.67,27.84a1,1,0,0,1,.5,0l10.59,5.76a1.05,1.05,0,0,0-.5,0Z"/><path class="cls-2" d="M37.92,30.72a1.3,1.3,0,0,1-.65-1.18L47.86,35.3a1.31,1.31,0,0,0,.65,1.18Z"/><path class="cls-2" d="M49.26,33.6a1.23,1.23,0,0,1,1.39,1.31,1.73,1.73,0,0,1-1.4,1.7,1.23,1.23,0,0,1-1.39-1.31A1.73,1.73,0,0,1,49.26,33.6Z"/><path class="cls-2" d="M37.27,29.54a1.73,1.73,0,0,1,1.4-1.7L49.26,33.6a1.73,1.73,0,0,0-1.4,1.7Z"/><path class="cls-2" d="M27.26,43A11,11,0,0,0,32,44.25L42.54,50a11.05,11.05,0,0,1-4.7-1.29Z"/><path class="cls-3" d="M40.44,37.61,29.85,31.85a1.18,1.18,0,0,0,.75.13l10.58,5.76A1.16,1.16,0,0,1,40.44,37.61Z"/><path class="cls-3" d="M31.35,29.1l10.59,5.76A1.28,1.28,0,0,1,42.58,36a1.72,1.72,0,0,1-1.4,1.7L30.6,32a1.73,1.73,0,0,0,1.4-1.7A1.31,1.31,0,0,0,31.35,29.1Z"/><path class="cls-2" d="M31.11,29a1.22,1.22,0,0,1,.24.1l10.59,5.76a1.09,1.09,0,0,0-.25-.1Z"/><path class="cls-2" d="M30.6,29a1.44,1.44,0,0,1,.51,0l10.58,5.76a1.18,1.18,0,0,0-.5,0Z"/><path class="cls-2" d="M29.85,31.85a1.29,1.29,0,0,1-.64-1.17l10.58,5.76a1.29,1.29,0,0,0,.65,1.17Z"/><path class="cls-2" d="M29.21,30.68A1.73,1.73,0,0,1,30.6,29l10.59,5.76a1.75,1.75,0,0,0-1.4,1.71Z"/><path class="cls-3" d="M57.12,37.61a12,12,0,0,1-4.34,8.77l.3,3.24a.39.39,0,0,1-.32.41.22.22,0,0,1-.14,0l-3.17-1.44a14.67,14.67,0,0,1-4.32,1.33c-6.6.93-12-3.07-11.94-8.93s5.38-11.37,12-12.3S57.13,31.73,57.12,37.61Zm-15.94.13a1.72,1.72,0,0,0,1.4-1.7,1.23,1.23,0,0,0-1.39-1.31,1.75,1.75,0,0,0-1.4,1.71,1.23,1.23,0,0,0,1.39,1.3m8.07-1.13a1.73,1.73,0,0,0,1.4-1.7,1.23,1.23,0,0,0-1.39-1.31,1.73,1.73,0,0,0-1.4,1.7,1.23,1.23,0,0,0,1.39,1.31"/><path class="cls-2" d="M41.19,34.73A1.23,1.23,0,0,1,42.58,36a1.72,1.72,0,0,1-1.4,1.7,1.23,1.23,0,0,1-1.39-1.3A1.75,1.75,0,0,1,41.19,34.73Z"/><path class="cls-3" d="M37.84,48.72,27.26,43a8.62,8.62,0,0,1-4.65-7.75c0-5.87,5.37-11.37,12-12.3a11.74,11.74,0,0,1,7.29,1.18l10.59,5.76a11.75,11.75,0,0,0-7.3-1.18c-6.6.93-12,6.43-12,12.3A8.66,8.66,0,0,0,37.84,48.72Z"/><path class="cls-2" d="M20.36,38.54a12.3,12.3,0,0,0,1.42-.28L32.37,44c-.09,0-.63.17-1.42.28Z"/><path class="cls-2" d="M35.38,21.5A10.55,10.55,0,0,0,29.89,14l10.59,5.76A10.53,10.53,0,0,1,46,27.26Z"/><path class="cls-2" d="M16.43,38.29a8.71,8.71,0,0,0,3.93.25L31,44.3A8.75,8.75,0,0,1,27,44.05Z"/><path class="cls-2" d="M32.37,44,21.78,38.26a10.38,10.38,0,0,1-.42-2.88c0-6.59,5.95-12.79,13.23-13.81.27,0,.53-.05.79-.07L46,27.26c-.26,0-.52,0-.78.07C37.9,28.35,32,34.55,32,41.14A10.08,10.08,0,0,0,32.37,44Z"/><path class="cls-3" d="M35.5,28.36,24.92,22.6a1.57,1.57,0,0,0,1,.17L36.5,28.53A1.6,1.6,0,0,1,35.5,28.36Z"/><path class="cls-3" d="M26.91,18.93,37.5,24.69a1.73,1.73,0,0,1,.86,1.57,2.3,2.3,0,0,1-1.86,2.27L25.91,22.77a2.32,2.32,0,0,0,1.87-2.27A1.74,1.74,0,0,0,26.91,18.93Z"/><path class="cls-2" d="M35.5,28.36,24.92,22.6A1.74,1.74,0,0,1,24.05,21a2.32,2.32,0,0,1,1.87-2.27,1.51,1.51,0,0,1,1,.17L37.5,24.69a1.51,1.51,0,0,0-1-.17,2.3,2.3,0,0,0-1.87,2.26A1.74,1.74,0,0,0,35.5,28.36Z"/><ellipse class="cls-2" cx="36.5" cy="26.52" rx="2.09" ry="1.79" transform="translate(-4.24 45.91) rotate(-61.45)"/><polygon class="cls-2" points="22.45 46.83 11.87 41.07 16.43 38.29 27.01 44.05 22.45 46.83"/><path class="cls-2" d="M22.16,46.85,11.58,41.09a.41.41,0,0,0,.16,0,.35.35,0,0,0,.13,0l10.59,5.76-.13.05A.47.47,0,0,1,22.16,46.85Z"/><path class="cls-3" d="M22.16,46.85,11.58,41.09a.3.3,0,0,1-.14-.31L22,46.54A.31.31,0,0,0,22.16,46.85Z"/><polygon class="cls-3" points="22.02 46.54 11.44 40.78 11.96 36.62 22.55 42.38 22.02 46.54"/><path class="cls-3" d="M25.71,29.74,15.12,24a1.67,1.67,0,0,0,1,.17l10.59,5.76A1.67,1.67,0,0,1,25.71,29.74Z"/><path class="cls-3" d="M17.12,20.3l10.59,5.76a1.75,1.75,0,0,1,.86,1.58,2.32,2.32,0,0,1-1.86,2.27L16.12,24.15A2.32,2.32,0,0,0,18,21.88,1.75,1.75,0,0,0,17.12,20.3Z"/><path class="cls-3" d="M29.89,14l10.59,5.76a14,14,0,0,0-8.66-1.41L21.24,12.56A14,14,0,0,1,29.89,14Z"/><path class="cls-2" d="M16.8,20.17a1.79,1.79,0,0,1,.32.13l10.59,5.76a1.89,1.89,0,0,0-.33-.13Z"/><path class="cls-2" d="M16.13,20.13a1.87,1.87,0,0,1,.67,0l10.58,5.76a1.64,1.64,0,0,0-.67,0Z"/><path class="cls-2" d="M15.12,24a1.75,1.75,0,0,1-.86-1.58l10.59,5.76a1.75,1.75,0,0,0,.86,1.58Z"/><ellipse class="cls-2" cx="26.71" cy="27.9" rx="2.09" ry="1.79" transform="translate(-10.56 38.03) rotate(-61.45)"/><path class="cls-2" d="M14.26,22.4a2.31,2.31,0,0,1,1.87-2.27l10.58,5.76a2.32,2.32,0,0,0-1.86,2.27Z"/><path class="cls-3" d="M22.55,42.38,12,36.62a10.5,10.5,0,0,1-5.08-9.14c0-7.13,6.44-13.8,14.36-14.92l10.58,5.76c-7.92,1.12-14.34,7.79-14.35,14.92A10.5,10.5,0,0,0,22.55,42.38Z"/><path class="cls-3" d="M31.82,18.32c7.17-1,13.1,2.9,14.14,8.94-.26,0-.52,0-.78.07C37.9,28.35,32,34.55,32,41.14A10.08,10.08,0,0,0,32.37,44c-.09,0-.63.17-1.42.28A8.75,8.75,0,0,1,27,44.05l-4.55,2.78-.13.05a.29.29,0,0,1-.31-.34l.53-4.16a10.5,10.5,0,0,1-5.08-9.14C17.48,26.11,23.9,19.44,31.82,18.32ZM26.71,29.91a2.32,2.32,0,0,0,1.86-2.27,1.65,1.65,0,0,0-1.86-1.75,2.32,2.32,0,0,0-1.86,2.27,1.65,1.65,0,0,0,1.86,1.75m9.79-1.38a2.3,2.3,0,0,0,1.86-2.27,1.63,1.63,0,0,0-1.85-1.74,2.3,2.3,0,0,0-1.87,2.26,1.64,1.64,0,0,0,1.86,1.75"/><path class="cls-4" d="M47.52.88a7.45,7.45,0,0,0-4.64-.8L10.63,4.61c-4.8.68-8.69,5.41-8.7,10.6L1.87,50a8.11,8.11,0,0,0,4,7.35l10.58,5.76a8.14,8.14,0,0,1-4-7.35L12.52,21c0-5.18,3.9-9.91,8.7-10.59L53.47,5.84a7.42,7.42,0,0,1,4.63.8Z"/><path class="cls-2" d="M53.47,5.84c4.79-.67,8.67,3,8.66,8.15l-.06,34.8c0,5.18-3.91,9.92-8.7,10.6L21.12,63.92c-4.8.67-8.67-3-8.67-8.15L12.52,21c0-5.18,3.9-9.91,8.7-10.59ZM31,44.3c.79-.11,1.33-.27,1.42-.28A10.08,10.08,0,0,1,32,41.14c0-6.59,5.95-12.79,13.23-13.81.26,0,.52,0,.78-.07-1-6-7-9.94-14.14-8.94-7.92,1.12-14.34,7.79-14.35,14.92a10.5,10.5,0,0,0,5.08,9.14L22,46.54a.29.29,0,0,0,.31.34l.13-.05L27,44.05A8.75,8.75,0,0,0,31,44.3m21.83,2.08a12,12,0,0,0,4.34-8.77c0-5.88-5.34-9.87-11.95-8.94s-12,6.43-12,12.3,5.34,9.86,11.94,8.93a14.67,14.67,0,0,0,4.32-1.33L52.62,50a.22.22,0,0,0,.14,0,.39.39,0,0,0,.32-.41l-.3-3.24"/></g></g></svg>