<?xml version="1.0" ?><svg viewBox="0 0 64 64" xmlns="http://www.w3.org/2000/svg"><defs><style>.cls-1{isolation:isolate;}.cls-2{fill:#8459a8;}.cls-3{fill:#70498f;}.cls-4{fill:#fff;}.cls-5{fill:#793d76;}</style></defs><title/><g data-name="24-meetme" id="_24-meetme"><g class="cls-1"><path class="cls-2" d="M54.83,31.14,44.25,25.38v-.05l10.59,5.76Z"/><path class="cls-3" d="M28,53.24,17.4,47.48a15.4,15.4,0,0,0,9,1.34C36.25,47.43,44.29,37.65,44.3,27l10.59,5.76c0,10.67-8.06,20.45-18,21.84A15.42,15.42,0,0,1,28,53.24Z"/><path class="cls-4" d="M38,26.14,48.6,31.9a1.55,1.55,0,0,1,.66,1.82L38.67,28A1.55,1.55,0,0,0,38,26.14Z"/><path class="cls-2" d="M37.65,26a1.66,1.66,0,0,1,.37.14L48.6,31.9a1.42,1.42,0,0,0-.36-.14Z"/><path class="cls-2" d="M37.2,26a1.7,1.7,0,0,1,.45,0l10.59,5.76a1.42,1.42,0,0,0-.46,0Z"/><path class="cls-4" d="M27.86,43.31,17.27,37.55a11.39,11.39,0,0,0,7,.91,18.49,18.49,0,0,0,3.89-1c5.23-1.87,9.45-5.7,10.52-9.52l10.59,5.76c-1.07,3.82-5.3,7.65-10.52,9.52a18.73,18.73,0,0,1-3.9,1A11.37,11.37,0,0,1,27.86,43.31Z"/><path class="cls-2" d="M35.7,27.39A1.9,1.9,0,0,1,37.2,26l10.58,5.76a1.9,1.9,0,0,0-1.49,1.39Z"/><path class="cls-3" d="M51.21,21.5,62.1,31.74l0,17.05c0,5.18-3.9,9.92-8.69,10.6L26,63.23l-6.63-6.45L28,53.24a15.42,15.42,0,0,0,9,1.34c9.89-1.39,17.93-11.17,18-21.84v-.46c0-.14,0-.18,0-.23,0-.52,0-.62,0-.71s0-.14,0-.2,0-.17,0-.23A17.61,17.61,0,0,0,51.21,21.5Z"/><polygon class="cls-2" points="62.09 31.74 51.51 25.98 40.66 15.78 51.25 21.54 62.09 31.74"/><path class="cls-3" d="M54.89,32.74,44.3,27a1.77,1.77,0,0,0,0-.23v-.23a1.17,1.17,0,0,0,0-.23c0-.52,0-.62,0-.71a1.56,1.56,0,0,1,0-.2c0-.11,0-.17,0-.23a17.53,17.53,0,0,0-3.61-9.41L51.21,21.5a17.61,17.61,0,0,1,3.61,9.41c0,.06,0,.12,0,.23s0,.11,0,.2,0,.19,0,.71c0,.05,0,.09,0,.23v.46Z"/><path class="cls-2" d="M27.54,34.29c4.55-1.63,7.56-4.71,8.16-6.9l10.59,5.76c-.61,2.19-3.61,5.27-8.16,6.9Z"/><path class="cls-2" d="M24.65,35.06a16.84,16.84,0,0,0,2.89-.77l10.59,5.76a18.18,18.18,0,0,1-2.9.77Z"/><path class="cls-2" d="M24.24,35.12l.41-.06,10.58,5.76-.4.06L29.54,38l-2.75-1.49-1.31-.72Z"/><path class="cls-2" d="M36,11.82l10.59,5.76a15.1,15.1,0,0,1,4.66,4L40.66,15.78A15.12,15.12,0,0,0,36,11.82Z"/><path class="cls-4" d="M39.59,30.11,29,24.35a1.79,1.79,0,0,0,1.11.19A2.6,2.6,0,0,0,32.22,22a1.94,1.94,0,0,0-1-1.78L41.84,26a2,2,0,0,1,1,1.78,2.6,2.6,0,0,1-2.1,2.55A1.84,1.84,0,0,1,39.59,30.11Z"/><path class="cls-2" d="M30.89,20.06a1.94,1.94,0,0,1,.36.15L41.84,26a2,2,0,0,0-.37-.15Z"/><path class="cls-2" d="M30.13,20a1.92,1.92,0,0,1,.76,0l10.58,5.76a1.87,1.87,0,0,0-.75,0Z"/><path class="cls-2" d="M29,24.35a1.93,1.93,0,0,1-1-1.77l10.58,5.76a2,2,0,0,0,1,1.77Z"/><path class="cls-2" d="M28,22.58A2.6,2.6,0,0,1,30.13,20l10.59,5.76a2.59,2.59,0,0,0-2.1,2.56Z"/><path class="cls-2" d="M18.93,34.49a8.82,8.82,0,0,0,5.31.63l10.59,5.76a8.82,8.82,0,0,1-5.31-.63Z"/><path class="cls-2" d="M17.27,37.55a4,4,0,0,1-.49-.3L27.36,43a5.09,5.09,0,0,0,.5.3Z"/><polygon class="cls-2" points="19.27 56.82 8.68 51.06 17.39 47.48 27.98 53.24 19.27 56.82"/><polygon class="cls-3" points="19.38 56.78 8.79 51.02 17.39 47.48 27.98 53.24 19.38 56.78"/><path class="cls-4" d="M29.52,40.25,18.93,34.49a3.34,3.34,0,0,1-1.11-.93,1.3,1.3,0,0,0-.43-.38L28,38.94a1.4,1.4,0,0,1,.43.38A3.24,3.24,0,0,0,29.52,40.25Z"/><path class="cls-2" d="M16.78,37.25a5.74,5.74,0,0,1-1.48-1.38l10.59,5.76A5.69,5.69,0,0,0,27.36,43l-5.29-2.88-2.75-1.49-.66-.36-1.28-.7C17.2,37.49,17,37.36,16.78,37.25Z"/><path class="cls-4" d="M30.29,33.42,19.7,27.66a1.82,1.82,0,0,0,1.12.2,2.61,2.61,0,0,0,2.1-2.56,2,2,0,0,0-1-1.77l10.58,5.76a2,2,0,0,1,1,1.77,2.62,2.62,0,0,1-2.11,2.56A1.79,1.79,0,0,1,30.29,33.42Z"/><path class="cls-2" d="M16.57,33a1.29,1.29,0,0,1,.82.14L28,38.94a1.32,1.32,0,0,0-.83-.14Z"/><path class="cls-2" d="M21.58,23.38a1.31,1.31,0,0,1,.37.15l10.58,5.76a1.14,1.14,0,0,0-.36-.15Z"/><path class="cls-2" d="M15.67,33.48a1.63,1.63,0,0,1,.9-.44L27.15,38.8a1.69,1.69,0,0,0-.9.44Z"/><path class="cls-2" d="M28.41,39.32c.91,1.25,3.27,2,6.42,1.56a16.43,16.43,0,0,0,3.3-.83c4.55-1.63,7.55-4.71,8.16-6.9a1.9,1.9,0,0,1,1.49-1.39,1.42,1.42,0,0,1,.46,0,1.5,1.5,0,0,1,1,2c-1.07,3.82-5.3,7.65-10.52,9.52a18.73,18.73,0,0,1-3.9,1c-4,.56-7.32-.36-9-2.59a1.85,1.85,0,0,1,.36-2.39,1.69,1.69,0,0,1,.9-.44A1.29,1.29,0,0,1,28.41,39.32Z"/><path class="cls-2" d="M15.3,35.87a1.85,1.85,0,0,1,.37-2.39l10.58,5.76a1.85,1.85,0,0,0-.36,2.39L20.6,38.75,19.21,38l-.68-.37-1.34-.73-.65-.35A7.77,7.77,0,0,1,15.3,35.87Z"/><path class="cls-2" d="M20.83,23.33a1.87,1.87,0,0,1,.75.05l10.59,5.76a1.92,1.92,0,0,0-.76-.05Z"/><path class="cls-2" d="M19.7,27.66a2,2,0,0,1-1-1.77l10.59,5.76a1.94,1.94,0,0,0,1,1.77Z"/><path class="cls-2" d="M33.51,31.06a2.62,2.62,0,0,1-2.11,2.56,1.84,1.84,0,0,1-2.08-2,2.61,2.61,0,0,1,2.09-2.56A1.86,1.86,0,0,1,33.51,31.06Z"/><path class="cls-2" d="M18.73,25.89a2.61,2.61,0,0,1,2.1-2.56l10.58,5.76a2.61,2.61,0,0,0-2.09,2.56Z"/><path class="cls-4" d="M54.89,32.43v.31c0,10.67-8.06,20.45-18,21.84a15.42,15.42,0,0,1-9-1.34l-8.71,3.58,2-10a18.61,18.61,0,0,1-2.21-9C19.1,27.1,27.13,17.32,37,15.93a15.06,15.06,0,0,1,14.23,5.61,17.54,17.54,0,0,1,3.56,9.36,1.37,1.37,0,0,1,0,.19c0,.11,0,.16,0,.21s0,.23,0,.33,0,.28,0,.33a1,1,0,0,0,0,.22Zm-5.63,1.29a1.5,1.5,0,0,0-1-2,1.42,1.42,0,0,0-.46,0,1.9,1.9,0,0,0-1.49,1.39c-.61,2.19-3.61,5.27-8.16,6.9a16.43,16.43,0,0,1-3.3.83c-3.15.44-5.51-.31-6.42-1.56a1.29,1.29,0,0,0-1.26-.52,1.69,1.69,0,0,0-.9.44,1.85,1.85,0,0,0-.36,2.39c1.63,2.23,5,3.15,9,2.59a18.73,18.73,0,0,0,3.9-1c5.22-1.87,9.45-5.7,10.52-9.52m-8.54-7.94a2.59,2.59,0,0,0-2.1,2.56,1.85,1.85,0,0,0,2.09,2,2.6,2.6,0,0,0,2.1-2.55,1.85,1.85,0,0,0-2.09-2m-9.31,3.31a2.61,2.61,0,0,0-2.09,2.56,1.84,1.84,0,0,0,2.08,2,2.62,2.62,0,0,0,2.11-2.56,1.86,1.86,0,0,0-2.1-2"/><path class="cls-2" d="M42.81,27.75a2.6,2.6,0,0,1-2.1,2.55,1.85,1.85,0,0,1-2.09-2,2.59,2.59,0,0,1,2.1-2.56A1.85,1.85,0,0,1,42.81,27.75Z"/><polygon class="cls-4" points="19.27 56.82 8.68 51.06 10.7 41.05 21.29 46.81 19.27 56.82"/><polygon class="cls-3" points="26.01 63.23 15.42 57.47 8.79 51.02 19.38 56.78 26.01 63.23"/><path class="cls-4" d="M26.43,10.17A15.36,15.36,0,0,1,36,11.82l10.59,5.76A15.36,15.36,0,0,0,37,15.93C27.13,17.32,19.1,27.1,19.08,37.77a18.61,18.61,0,0,0,2.21,9L10.7,41.05a18.61,18.61,0,0,1-2.21-9C8.51,21.34,16.54,11.56,26.43,10.17Z"/><path class="cls-2" d="M53.47,5.84c4.79-.67,8.67,3,8.66,8.15l0,17.75L51.25,21.54A15.06,15.06,0,0,0,37,15.93C27.13,17.32,19.1,27.1,19.08,37.77a18.61,18.61,0,0,0,2.21,9l-2,10L28,53.24l-8.6,3.54L26,63.23l-4.89.69c-4.79.67-8.67-3-8.66-8.15L12.52,21c0-5.18,3.91-9.91,8.7-10.59Z"/><path class="cls-5" d="M47.52.88a7.44,7.44,0,0,0-4.64-.8L10.63,4.61C5.84,5.29,2,10,1.94,15.21L1.87,50a8.12,8.12,0,0,0,4,7.35l10.59,5.76a8.11,8.11,0,0,1-4-7.35L12.52,21c0-5.18,3.91-9.91,8.7-10.59L53.47,5.84a7.42,7.42,0,0,1,4.63.8Z"/></g></g></svg>