<?xml version="1.0" ?><svg viewBox="0 0 64 64" xmlns="http://www.w3.org/2000/svg"><defs><style>.cls-1{isolation:isolate;}.cls-2{fill:#fff;}.cls-3{fill:#c31e31;}.cls-4{fill:#939598;}</style></defs><title/><g data-name="4-pinterest" id="_4-pinterest"><g class="cls-1"><path class="cls-2" d="M26.66,51.88c11.65-1.64,21.11-13.16,21.13-25.72l10.59,5.76c0,12.56-9.49,24.08-21.13,25.72Z"/><path class="cls-3" d="M39.42,23.81,50,29.57a16.17,16.17,0,0,1,.3,3.48L39.72,27.3A16.21,16.21,0,0,0,39.42,23.81Z"/><path class="cls-3" d="M39.42,23.81c-.06-.28-.13-.56-.2-.83l10.59,5.76c.07.27.14.55.2.83Z"/><path class="cls-2" d="M20.8,51.81a18.81,18.81,0,0,0,5.86.07l10.59,5.76a19.12,19.12,0,0,1-5.86-.07Z"/><polygon class="cls-3" points="31.41 57.57 20.82 51.81 22.64 47.42 33.23 53.18 31.41 57.57"/><path class="cls-3" d="M33.06,40.85c3.62-1.81,6.55-7.76,6.66-13.55l9.35,5.08,1.24.67c-.11,5.8-3,11.75-6.66,13.56a10.78,10.78,0,0,1-3.3,1.1,6,6,0,0,1-3.07-.32c-.14-.06-.91-.42-1.56-.77L25.13,40.86c.65.35,1.43.71,1.56.77a6,6,0,0,0,3.07.32A10.78,10.78,0,0,0,33.06,40.85Z"/><polygon class="cls-2" points="29.86 57.23 19.27 51.47 18.61 48.33 29.2 54.09 29.86 57.23"/><path class="cls-3" d="M29.86,57.23,19.27,51.47c.51.14,1,.24,1.55.34l10.59,5.76C30.89,57.47,30.37,57.37,29.86,57.23Z"/><path class="cls-2" d="M35.72,46.62,25.13,40.86c-.52-.28-.95-.56-.93-.68l10.59,5.76C34.77,46.06,35.2,46.34,35.72,46.62Z"/><path class="cls-3" d="M33.23,53.18,22.64,47.42c0-.18.76-3.66,1.56-7.24l10.59,5.76C34,49.52,33.27,53,33.23,53.18Z"/><path class="cls-2" d="M18.09,51.12a17.64,17.64,0,0,0,2.71.69l10.59,5.76a17.35,17.35,0,0,1-2.71-.69Z"/><path class="cls-2" d="M36.71,43.84,26.12,38.08a5.46,5.46,0,0,0,3.42.57,8.37,8.37,0,0,0,2.55-.83c2.07-1,3.82-5.37,3.91-10.06,0-2.36-.86-6.33-3.79-7.93l10.58,5.76c2.94,1.6,3.84,5.57,3.79,7.93-.09,4.69-1.83,9-3.91,10.06a8.32,8.32,0,0,1-2.54.83A5.53,5.53,0,0,1,36.71,43.84Z"/><path class="cls-3" d="M26.12,38.08a4.27,4.27,0,0,1-1-.78l10.59,5.76a4,4,0,0,0,1,.78Z"/><path class="cls-2" d="M47.79,26.16c0-7.71-3.53-14-9-17.38l10.59,5.75c5.43,3.36,9,9.68,9,17.39Z"/><path class="cls-3" d="M35.81,17.48,46.4,23.24a10.71,10.71,0,0,1,3.41,5.5L39.22,23A10.71,10.71,0,0,0,35.81,17.48Z"/><polygon class="cls-3" points="35.67 43.06 25.08 37.3 24.96 37.19 35.55 42.95 35.67 43.06"/><path class="cls-3" d="M35.81,17.48q-.42-.35-.87-.66l10.59,5.76c.3.21.59.42.87.66l-7.55-4.11-1.52-.83-1.17-.63C36.06,17.61,35.91,17.55,35.81,17.48Z"/><path class="cls-3" d="M34.14,16.33l10.59,5.76c.28.15.54.32.8.49L34.94,16.82C34.68,16.65,34.42,16.48,34.14,16.33Z"/><path class="cls-3" d="M34.14,16.33l-.1-.06L44.62,22l.11.06L42.8,21l-6.38-3.47Z"/><path class="cls-2" d="M15.4,49.94a16.5,16.5,0,0,0,2.69,1.18l10.59,5.76A16.61,16.61,0,0,1,26,55.7Z"/><path class="cls-2" d="M38.83,8.78c-.27-.17-.54-.33-.82-.48L48.6,14.06l.82.47-5.3-2.88-1.38-.75-1.36-.74-.67-.36-.64-.35C39.7,9.25,39.2,9,38.83,8.78Z"/><path class="cls-3" d="M35.55,43,25,37.19c.93-4.43,1.72-8.8,1.44-9.7L37,33.25C37.27,34.15,36.48,38.52,35.55,43Z"/><path class="cls-3" d="M26.4,27.49a3.12,3.12,0,0,0-1.2-2.11l10.59,5.76A3.16,3.16,0,0,1,37,33.25Z"/><polygon class="cls-2" points="29.2 54.09 18.61 48.33 21.43 32.2 32.02 37.96 29.2 54.09"/><polygon class="cls-3" points="28.59 45.43 18 39.67 18.86 36.8 29.45 42.55 28.59 45.43"/><path class="cls-3" d="M16.48,39.22a3.75,3.75,0,0,0,1.52.45l10.59,5.76A3.7,3.7,0,0,1,27.07,45Z"/><path class="cls-3" d="M18.86,36.79A11.51,11.51,0,0,1,17,33.71l10.59,5.76a11.51,11.51,0,0,0,1.84,3.08C26.27,40.83,21.64,39.11,18.86,36.79Z"/><path class="cls-2" d="M34,16.27,44.62,22A12.22,12.22,0,0,0,41.89,21a10.67,10.67,0,0,0-4.29-.23L27,15a10.67,10.67,0,0,1,4.29.23A12.3,12.3,0,0,1,34,16.27Z"/><path class="cls-2" d="M25.2,25.38l10.59,5.76a1.44,1.44,0,0,0-.94-.16,3.37,3.37,0,0,0-1.58.78c-3.11,2.45-1.35,6-1.25,6.2L21.43,32.2c-.09-.19-1.85-3.75,1.25-6.2a3.47,3.47,0,0,1,1.58-.78A1.51,1.51,0,0,1,25.2,25.38Z"/><path class="cls-3" d="M30.44,19.23a5.78,5.78,0,0,1,1.77.6l10.58,5.76A5.63,5.63,0,0,0,41,25a12.18,12.18,0,0,0-3.76,0A11.68,11.68,0,0,0,29,30.12c-2,3.14-2.6,6.26-1.39,9.35L17,33.71c-1.21-3.09-.57-6.21,1.4-9.35a11.64,11.64,0,0,1,8.27-5.18A12.12,12.12,0,0,1,30.44,19.23Z"/><path class="cls-3" d="M26.74,6.36A18.12,18.12,0,0,1,38,8.3L48.6,14.06a18.12,18.12,0,0,0-11.27-1.94Z"/><path class="cls-2" d="M27.07,45,16.48,39.22c-2.26-1.23-3-4.69-3.16-7.37a16.1,16.1,0,0,1,2.61-9.13A16.28,16.28,0,0,1,27,15L37.6,20.73c-4.18.58-8.36,3.41-11.09,7.75a16.09,16.09,0,0,0-2.6,9.13C24,40.29,24.8,43.75,27.07,45Z"/><path class="cls-2" d="M37.6,20.73a10.67,10.67,0,0,1,4.29.23c5.47,1.44,8.53,5.86,8.42,12.09-.11,5.8-3,11.75-6.66,13.56a10.78,10.78,0,0,1-3.3,1.1,6,6,0,0,1-3.07-.32c-.24-.1-2.55-1.18-2.49-1.45-.8,3.58-1.52,7.06-1.56,7.24l-1.82,4.39c-.52-.1-1-.2-1.55-.34l-.66-3.14L32,38c-.1-.19-1.86-3.75,1.25-6.2A3.37,3.37,0,0,1,34.85,31c1.74-.25,2.12,2.14,2.14,2.27.28.9-.51,5.27-1.44,9.7l.12.11a5.14,5.14,0,0,0,4.46,1.35,8.32,8.32,0,0,0,2.54-.83c2.08-1,3.82-5.37,3.91-10.06.06-2.78-1.21-7.8-5.55-8.53a12.18,12.18,0,0,0-3.76,0A11.68,11.68,0,0,0,29,30.12c-2.62,4.18-2.88,8.34.45,12.43l-.86,2.88c-3.46-.29-4.52-4.61-4.68-7.82a16.09,16.09,0,0,1,2.6-9.13C29.24,24.14,33.42,21.31,37.6,20.73Z"/><path class="cls-3" d="M11.56,15.45A24,24,0,0,1,26.74,6.36l10.59,5.76a24,24,0,0,0-15.18,9.09Z"/><path class="cls-3" d="M5.62,32.09a27,27,0,0,1,5.94-16.64l10.59,5.76a27,27,0,0,0-5.94,16.64c0,8.09,3.89,14.65,9.78,17.85L15.4,49.94C9.51,46.74,5.61,40.18,5.62,32.09Z"/><path class="cls-2" d="M53.47,5.84c4.79-.67,8.67,3,8.66,8.15l-.06,34.8c0,5.18-3.91,9.92-8.7,10.6L21.12,63.92c-4.8.67-8.67-3-8.67-8.15L12.52,21c0-5.17,3.9-9.91,8.7-10.59ZM37.25,57.64C48.89,56,58.36,44.48,58.38,31.92S49,10.48,37.33,12.12,16.23,25.28,16.21,37.85s9.39,21.43,21,19.79"/><path class="cls-3" d="M37.33,12.12C49,10.48,58.4,19.35,58.38,31.92S48.89,56,37.25,57.64s-21.07-7.23-21-19.79S25.69,13.76,37.33,12.12Zm13,20.93c.11-6.23-3-10.65-8.42-12.09a10.67,10.67,0,0,0-4.29-.23c-4.18.58-8.36,3.41-11.09,7.75a16.09,16.09,0,0,0-2.6,9.13c.16,3.21,1.22,7.53,4.68,7.82l.86-2.88c-3.33-4.09-3.07-8.25-.45-12.43a11.68,11.68,0,0,1,8.27-5.18A12.18,12.18,0,0,1,41,25c4.34.73,5.61,5.75,5.55,8.53-.09,4.69-1.83,9-3.91,10.06a8.32,8.32,0,0,1-2.54.83,5.14,5.14,0,0,1-4.46-1.35L35.55,43c.93-4.43,1.72-8.8,1.44-9.7,0-.13-.4-2.52-2.14-2.27a3.37,3.37,0,0,0-1.58.78c-3.11,2.45-1.35,6-1.25,6.2L29.2,54.09l.66,3.14c.51.14,1,.24,1.55.34l1.82-4.39c0-.18.76-3.66,1.56-7.24-.06.27,2.25,1.35,2.49,1.45a6,6,0,0,0,3.07.32,10.78,10.78,0,0,0,3.3-1.1c3.62-1.81,6.55-7.76,6.66-13.56"/><path class="cls-4" d="M47.51.88a7.42,7.42,0,0,0-4.63-.8L10.63,4.61c-4.8.68-8.69,5.42-8.7,10.6L1.87,50a8.12,8.12,0,0,0,4,7.35l10.59,5.76a8.12,8.12,0,0,1-4-7.35L12.52,21c0-5.17,3.9-9.91,8.7-10.59L53.47,5.84a7.42,7.42,0,0,1,4.63.8Z"/></g></g></svg>