<?xml version="1.0" ?><svg viewBox="0 0 64 64" xmlns="http://www.w3.org/2000/svg" xmlns:xlink="http://www.w3.org/1999/xlink"><defs><style>.cls-1{isolation:isolate;}.cls-2{fill:#ef4136;}.cls-3{fill:#fff;}.cls-4{fill:url(#linear-gradient);}.cls-5{fill:#be1e2d;}</style><linearGradient gradientUnits="userSpaceOnUse" id="linear-gradient" x1="57.73" x2="19.95" y1="7.75" y2="57.91"><stop offset="0" stop-color="#ffa22e"/><stop offset="0.33" stop-color="#fb622d"/><stop offset="0.64" stop-color="#f82f2d"/><stop offset="0.87" stop-color="#f60f2c"/><stop offset="1" stop-color="#f5032c"/></linearGradient></defs><title/><g data-name="20-reddit" id="_20-reddit"><g class="cls-1"><path class="cls-2" d="M41.05,31a4.6,4.6,0,0,0,2.56-4l10.58,5.76a4.57,4.57,0,0,1-2.56,4Z"/><path class="cls-2" d="M43.61,27a3.28,3.28,0,0,0-1.68-2.94l10.59,5.76a3.25,3.25,0,0,1,1.67,2.94Z"/><path class="cls-2" d="M27.76,49.57,17.17,43.81a15.49,15.49,0,0,0,9.51,1.46C34.62,44.15,41.11,38.21,41.12,32A9.59,9.59,0,0,0,41.05,31l10.58,5.76a7.68,7.68,0,0,1,.08,1.06c0,6.18-6.5,12.12-14.45,13.24A15.46,15.46,0,0,1,27.76,49.57Z"/><path class="cls-3" d="M32.73,37.32l10.59,5.76a.54.54,0,0,1,.16.14.73.73,0,0,1-.12,1L32.77,38.42a.65.65,0,0,0,0-1.1Z"/><path class="cls-2" d="M32.4,37.27a.53.53,0,0,1,.33,0l10.59,5.76A.53.53,0,0,0,43,43Z"/><path class="cls-2" d="M32,37.46a.66.66,0,0,1,.37-.19L43,43a.72.72,0,0,0-.38.19Z"/><path class="cls-3" d="M41.93,24.06l10.59,5.76a3.5,3.5,0,0,0-2.2-.36,4.5,4.5,0,0,0-2.48,1.23L37.26,24.93a4.47,4.47,0,0,1,2.48-1.23A3.54,3.54,0,0,1,41.93,24.06Z"/><path class="cls-2" d="M36.26,24.31l10.59,5.76a11,11,0,0,1,1,.62L37.26,24.93A11.18,11.18,0,0,0,36.26,24.31Z"/><path class="cls-3" d="M41.54,39.14,31,33.38a2.13,2.13,0,0,0,1.33.23l10.58,5.76A2.1,2.1,0,0,1,41.54,39.14Z"/><path class="cls-3" d="M33.61,28.48,44.2,34.24a2.33,2.33,0,0,1,1.15,2.11,3.08,3.08,0,0,1-2.49,3L32.28,33.61a3.07,3.07,0,0,0,2.48-3A2.34,2.34,0,0,0,33.61,28.48Z"/><path class="cls-2" d="M33.18,28.31a2,2,0,0,1,.43.17L44.2,34.24a2.3,2.3,0,0,0-.43-.18Z"/><path class="cls-3" d="M31.59,46.14,21,40.38a9.54,9.54,0,0,0,5.68.7,11.19,11.19,0,0,0,6.09-2.66l10.59,5.76a11.23,11.23,0,0,1-6.09,2.66A9.62,9.62,0,0,1,31.59,46.14Z"/><path class="cls-2" d="M26.89,39.72A9.82,9.82,0,0,0,32,37.46l10.58,5.76a9.75,9.75,0,0,1-5.13,2.26Z"/><path class="cls-2" d="M26.69,39.75l.2,0,10.59,5.76-.21,0Z"/><path class="cls-2" d="M32.29,28.25a2.19,2.19,0,0,1,.89.06l10.59,5.75a2.44,2.44,0,0,0-.9-.05Z"/><path class="cls-2" d="M37.57,17.47a3.46,3.46,0,0,0,2.8-3.4L51,19.83a3.47,3.47,0,0,1-2.8,3.4Z"/><path class="cls-2" d="M31,33.38a2.33,2.33,0,0,1-1.15-2.1L40.39,37a2.33,2.33,0,0,0,1.15,2.1Z"/><path class="cls-2" d="M36.57,17.41a2.38,2.38,0,0,0,1,.06l10.59,5.76a2.38,2.38,0,0,1-1-.06Z"/><path class="cls-2" d="M42.87,34a2.2,2.2,0,0,1,2.48,2.34,3.08,3.08,0,0,1-2.49,3A2.19,2.19,0,0,1,40.39,37,3.08,3.08,0,0,1,42.87,34Z"/><path class="cls-2" d="M29.8,31.28a3.09,3.09,0,0,1,2.49-3L42.87,34a3.08,3.08,0,0,0-2.48,3Z"/><path class="cls-2" d="M36.11,17.22a2.34,2.34,0,0,0,.46.19l10.59,5.76a2.72,2.72,0,0,1-.47-.19Z"/><path class="cls-2" d="M40.37,14.07a2.63,2.63,0,0,0-1.29-2.37l10.58,5.76A2.64,2.64,0,0,1,51,19.83Z"/><path class="cls-2" d="M21.69,39.16a8.4,8.4,0,0,0,5,.59l10.58,5.76a8.43,8.43,0,0,1-5-.59Z"/><path class="cls-3" d="M46.68,23,36.09,17.21a2.61,2.61,0,0,1-1.3-2.36l10.59,5.76A2.61,2.61,0,0,0,46.68,23Z"/><path class="cls-3" d="M32.27,44.92,21.69,39.16a3.79,3.79,0,0,1-.34-.2l0,0L31.9,44.69l0,0Z"/><path class="cls-2" d="M21,40.38l-.4-.25,10.59,5.76a3.89,3.89,0,0,0,.4.25Z"/><path class="cls-3" d="M39.08,11.7l10.58,5.76a2.4,2.4,0,0,0-1.49-.25,3.34,3.34,0,0,0-2.46,2L35.13,13.41a3.32,3.32,0,0,1,2.46-2A2.41,2.41,0,0,1,39.08,11.7Z"/><path class="cls-2" d="M21,38.87a.63.63,0,0,1,.33.06L31.9,44.69a.58.58,0,0,0-.34-.06Z"/><path class="cls-2" d="M20.48,39.21a.76.76,0,0,1,.5-.34l10.58,5.76a.74.74,0,0,0-.49.34Z"/><path class="cls-2" d="M20.6,40.13a.67.67,0,0,1-.12-.92L31.07,45a.66.66,0,0,0,.12.92L25.89,43l-.69-.38-1.38-.74-.67-.37-1.31-.72C21.47,40.6,21,40.35,20.6,40.13Z"/><path class="cls-2" d="M43,43a.51.51,0,0,1,.49.19.73.73,0,0,1-.12,1,11.23,11.23,0,0,1-6.09,2.66,8.94,8.94,0,0,1-6.08-1,.66.66,0,0,1-.12-.92.74.74,0,0,1,.49-.34.51.51,0,0,1,.38.09,7.89,7.89,0,0,0,5.33.79,10,10,0,0,0,5.34-2.29A.72.72,0,0,1,43,43Z"/><path class="cls-3" d="M36.26,24.31l10.59,5.76a15.39,15.39,0,0,0-8.76-1.54L27.5,22.77A15.39,15.39,0,0,1,36.26,24.31Z"/><path class="cls-3" d="M30.38,40.71,19.79,35a2.11,2.11,0,0,0,1.33.23,3.08,3.08,0,0,0,2.48-3,2.32,2.32,0,0,0-1.15-2.1L33,35.81a2.32,2.32,0,0,1,1.15,2.1,3.1,3.1,0,0,1-2.49,3A2.1,2.1,0,0,1,30.38,40.71Z"/><path class="cls-2" d="M22,29.87a2.3,2.3,0,0,1,.43.18L33,35.81a2.3,2.3,0,0,0-.43-.18Z"/><path class="cls-2" d="M21.13,29.82a2.4,2.4,0,0,1,.89.05l10.59,5.76a2.44,2.44,0,0,0-.9-.05Z"/><polygon class="cls-2" points="38.09 28.52 27.5 22.77 29.08 14.12 39.66 19.88 38.09 28.52"/><polygon class="cls-2" points="39.66 19.88 29.08 14.12 34.8 14.74 45.39 20.5 39.66 19.88"/><path class="cls-2" d="M19.79,35a2.33,2.33,0,0,1-1.15-2.1l10.59,5.76a2.33,2.33,0,0,0,1.15,2.1Z"/><path class="cls-2" d="M18.64,32.85a3.09,3.09,0,0,1,2.49-3l10.58,5.76a3.06,3.06,0,0,0-2.48,3Z"/><path class="cls-3" d="M27.76,49.57,17.17,43.81a8.72,8.72,0,0,1-4.89-7.73A10.28,10.28,0,0,1,12.35,35l10.59,5.76a8.15,8.15,0,0,0-.07,1.08A8.7,8.7,0,0,0,27.76,49.57Z"/><path class="cls-3" d="M26.75,33.65,16.16,27.89a19.16,19.16,0,0,1,10.07-4.95l10.59,5.75A19.17,19.17,0,0,0,26.75,33.65Z"/><path class="cls-3" d="M22.06,40.44,11.47,34.68a3.22,3.22,0,0,1-1.66-2.93,4.6,4.6,0,0,1,3.88-4.39,3.5,3.5,0,0,1,2.2.37l10.59,5.76a3.5,3.5,0,0,0-2.2-.37,4.62,4.62,0,0,0-3.89,4.39A3.25,3.25,0,0,0,22.06,40.44Z"/><path class="cls-3" d="M54.19,32.76a4.57,4.57,0,0,1-2.56,4,7.68,7.68,0,0,1,.08,1.06c0,6.18-6.5,12.12-14.45,13.24s-14.4-3-14.39-9.19a8.15,8.15,0,0,1,.07-1.08,3.23,3.23,0,0,1-2.55-3.25,4.62,4.62,0,0,1,3.89-4.39,3.49,3.49,0,0,1,2.47.53,19.17,19.17,0,0,1,10.07-5l1.75-9.6a.92.92,0,0,1,.28-.47.74.74,0,0,1,.34-.15h.14l6.38.7a3.34,3.34,0,0,1,2.46-2A2.46,2.46,0,0,1,51,19.83a3.47,3.47,0,0,1-2.8,3.4,2.46,2.46,0,0,1-2.78-2.62l-5.72-.73-1.57,8.65a14.65,14.65,0,0,1,9.75,2.16,4.5,4.5,0,0,1,2.48-1.23A3.26,3.26,0,0,1,54.19,32.76ZM43.36,44.18a.73.73,0,0,0,.12-1A.51.51,0,0,0,43,43a.72.72,0,0,0-.38.19,10,10,0,0,1-5.34,2.29,7.89,7.89,0,0,1-5.33-.79.51.51,0,0,0-.38-.09.74.74,0,0,0-.49.34.66.66,0,0,0,.12.92,8.94,8.94,0,0,0,6.08,1,11.23,11.23,0,0,0,6.09-2.66M29.23,38.61a2.19,2.19,0,0,0,2.47,2.33,3.1,3.1,0,0,0,2.49-3,2.19,2.19,0,0,0-2.48-2.33,3.06,3.06,0,0,0-2.48,3m13.63.76a3.08,3.08,0,0,0,2.49-3A2.2,2.2,0,0,0,42.87,34a3.08,3.08,0,0,0-2.48,3,2.19,2.19,0,0,0,2.47,2.33"/><polygon class="cls-3" points="39.33 18.47 28.74 12.71 35.13 13.41 45.72 19.17 39.33 18.47"/><path class="cls-3" d="M38.85,18.62,28.26,12.86a.74.74,0,0,1,.34-.15.33.33,0,0,1,.14,0l10.59,5.76h-.14A.74.74,0,0,0,38.85,18.62Z"/><polygon class="cls-3" points="36.82 28.7 26.23 22.93 27.99 13.34 38.57 19.09 36.82 28.7"/><path class="cls-3" d="M38.57,19.09,28,13.33a.84.84,0,0,1,.27-.47l10.59,5.76A.92.92,0,0,0,38.57,19.09Z"/><path class="cls-2" d="M15.89,27.73l10.59,5.76.27.16L16.16,27.89Z"/><path class="cls-2" d="M22.06,40.44,11.47,34.68a3.69,3.69,0,0,0,.88.32l10.59,5.76A3.54,3.54,0,0,1,22.06,40.44Z"/><path class="cls-4" d="M53.47,5.84c4.79-.67,8.67,3,8.66,8.15l-.07,34.8c0,5.19-3.9,9.92-8.69,10.6L21.12,63.92c-4.79.67-8.67-3-8.66-8.15L12.52,21c0-5.17,3.91-9.91,8.7-10.59ZM51.63,36.73a4.57,4.57,0,0,0,2.56-4,3.26,3.26,0,0,0-3.87-3.3,4.5,4.5,0,0,0-2.48,1.23,14.65,14.65,0,0,0-9.75-2.16l1.57-8.65,5.73.62a2.48,2.48,0,0,0,2.77,2.73,3.47,3.47,0,0,0,2.8-3.4,2.46,2.46,0,0,0-2.79-2.62,3.34,3.34,0,0,0-2.46,2l-6.38-.7h-.14a.74.74,0,0,0-.34.15.92.92,0,0,0-.28.47l-1.75,9.6a19.17,19.17,0,0,0-10.07,5,3.49,3.49,0,0,0-2.47-.53,4.62,4.62,0,0,0-3.89,4.39,3.23,3.23,0,0,0,2.55,3.25,8.15,8.15,0,0,0-.07,1.08c0,6.19,6.45,10.3,14.39,9.19S51.69,44,51.71,37.79a7.68,7.68,0,0,0-.08-1.06"/><path class="cls-2" d="M34.19,37.91a3.1,3.1,0,0,1-2.49,3,2.19,2.19,0,0,1-2.47-2.33,3.06,3.06,0,0,1,2.48-3A2.19,2.19,0,0,1,34.19,37.91Z"/><path class="cls-5" d="M47.51.88a7.41,7.41,0,0,0-4.63-.8L10.63,4.61C5.84,5.29,2,10,1.94,15.21L1.87,50a8.12,8.12,0,0,0,4,7.35l10.58,5.76a8.12,8.12,0,0,1-4-7.35L12.52,21c0-5.17,3.91-9.91,8.7-10.59L53.47,5.84a7.42,7.42,0,0,1,4.63.8Z"/></g></g></svg>