<?xml version="1.0" ?><svg viewBox="0 0 64 64" xmlns="http://www.w3.org/2000/svg"><defs><style>.cls-1{isolation:isolate;}.cls-2{fill:#0061a9;}.cls-3{fill:#fff;}.cls-4{fill:#003b95;}</style></defs><title/><g data-name="13-myspace" id="_13-myspace"><g class="cls-1"><polygon class="cls-2" points="52.18 49.52 41.59 43.76 41.62 29.32 52.21 35.09 52.18 49.52"/><polygon class="cls-2" points="37.7 51.55 27.12 45.79 41.59 43.76 52.18 49.52 37.7 51.55"/><path class="cls-2" d="M38.71,24,49.3,29.78a5.87,5.87,0,0,1,2.91,5.3L41.62,29.33A5.87,5.87,0,0,0,38.71,24Z"/><path class="cls-3" d="M38.71,24,49.3,29.78A5.38,5.38,0,0,0,46,29.2L35.37,23.44A5.35,5.35,0,0,1,38.71,24Z"/><polygon class="cls-3" points="37.7 51.55 27.12 45.79 27.13 38.38 37.72 44.14 37.7 51.55"/><polygon class="cls-3" points="37.72 44.14 27.13 38.38 29.19 38.09 39.78 43.85 37.72 44.14"/><polygon class="cls-3" points="44.01 29.48 33.42 23.72 35.37 23.44 45.95 29.2 44.01 29.48"/><polygon class="cls-3" points="39.78 43.85 29.19 38.09 29.21 27.26 39.8 33.02 39.78 43.85"/><path class="cls-2" d="M39.57,16.15a4.82,4.82,0,0,0-2.39-4.37l10.58,5.76a4.81,4.81,0,0,1,2.4,4.37A6.4,6.4,0,0,1,45,28.22a4.5,4.5,0,0,1-2.77-.47L31.64,22a4.39,4.39,0,0,0,2.76.47A6.4,6.4,0,0,0,39.57,16.15Z"/><path class="cls-3" d="M29.1,26.18a7.06,7.06,0,0,1,4.32-2.46L44,29.48a7.06,7.06,0,0,0-4.32,2.46Z"/><path class="cls-3" d="M29.21,27.26a4.83,4.83,0,0,0-.11-1.08l10.59,5.76A5.42,5.42,0,0,1,39.8,33Z"/><path class="cls-3" d="M37.18,11.78l10.58,5.76A4.37,4.37,0,0,0,45,17.07L34.42,11.31A4.41,4.41,0,0,1,37.18,11.78Z"/><polygon class="cls-2" points="28.93 45.37 18.34 39.61 27.13 38.38 37.72 44.14 28.93 45.37"/><path class="cls-2" d="M29.1,26.18A4.18,4.18,0,0,0,27,23.29l10.59,5.76a4.18,4.18,0,0,1,2.07,2.89Z"/><path class="cls-3" d="M42.22,27.75,31.64,22a4.83,4.83,0,0,1-2.4-4.38,6.4,6.4,0,0,1,5.18-6.3L45,17.07a6.4,6.4,0,0,0-5.18,6.3A4.84,4.84,0,0,0,42.22,27.75Z"/><path class="cls-3" d="M45,17.07c2.85-.4,5.16,1.77,5.15,4.84A6.4,6.4,0,0,1,45,28.22c-2.86.4-5.17-1.77-5.16-4.85A6.4,6.4,0,0,1,45,17.07Z"/><path class="cls-3" d="M27,23.29l10.59,5.76a4,4,0,0,0-2.51-.44L24.53,22.85A4,4,0,0,1,27,23.29Z"/><polygon class="cls-3" points="28.93 45.37 18.34 39.61 18.36 33.57 28.94 39.33 28.93 45.37"/><polygon class="cls-3" points="28.94 39.33 18.36 33.57 19.36 33.43 29.95 39.19 28.94 39.33"/><polygon class="cls-3" points="33.66 28.82 23.07 23.06 24.53 22.85 35.11 28.61 33.66 28.82"/><path class="cls-2" d="M28,17.2a3.93,3.93,0,0,0-2-3.56L36.65,19.4a4,4,0,0,1,2,3.56,5.22,5.22,0,0,1-4.21,5.13,3.54,3.54,0,0,1-2.25-.39L21.55,21.94a3.54,3.54,0,0,0,2.25.39A5.22,5.22,0,0,0,28,17.2Z"/><polygon class="cls-3" points="29.95 39.19 19.36 33.43 19.37 25.88 29.96 31.64 29.95 39.19"/><path class="cls-3" d="M35.11,28.61a4,4,0,0,1,4.58,3.33A5.42,5.42,0,0,1,39.8,33l0,10.83-2.06.29-8.79,1.23v-6l1-.14V31.64c0-.11,0-.23,0-.34a5.44,5.44,0,0,1,3.71-2.48Z"/><path class="cls-3" d="M19.37,25.88c0-.11,0-.23,0-.34L30,31.3c0,.11,0,.23,0,.34Z"/><path class="cls-3" d="M19.36,25.54a5.44,5.44,0,0,1,3.71-2.48l10.59,5.76A5.44,5.44,0,0,0,30,31.3Z"/><path class="cls-3" d="M26.06,13.64,36.65,19.4A3.68,3.68,0,0,0,34.4,19L23.82,13.25A3.66,3.66,0,0,1,26.06,13.64Z"/><polygon class="cls-2" points="22.37 40.26 11.78 34.5 18.36 33.57 28.94 39.33 22.37 40.26"/><path class="cls-2" d="M17.85,23.1l10.59,5.76A3,3,0,0,1,30,31.3L19.36,25.54A3,3,0,0,0,17.85,23.1Z"/><path class="cls-3" d="M17.85,23.1l10.59,5.76a2.86,2.86,0,0,0-1.75-.3L16.1,22.8A2.84,2.84,0,0,1,17.85,23.1Z"/><ellipse class="cls-3" cx="34.39" cy="23.55" rx="4.72" ry="4.04" transform="translate(-2.73 42.51) rotate(-61.45)"/><path class="cls-3" d="M32.14,27.7,21.55,21.94a3.93,3.93,0,0,1-1.95-3.56,5.23,5.23,0,0,1,4.22-5.13L34.4,19a5.22,5.22,0,0,0-4.21,5.13A3.94,3.94,0,0,0,32.14,27.7Z"/><polygon class="cls-3" points="25.67 28.7 15.09 22.95 16.1 22.8 26.68 28.56 25.67 28.7"/><polygon class="cls-3" points="22.37 40.26 11.78 34.5 11.8 26.95 22.39 32.71 22.37 40.26"/><path class="cls-2" d="M18.34,19.11a2.54,2.54,0,0,0-1.27-2.32l10.59,5.76a2.55,2.55,0,0,1,1.27,2.32,3.4,3.4,0,0,1-2.75,3.35A2.35,2.35,0,0,1,24.71,28L14.12,22.21a2.35,2.35,0,0,0,1.47.25A3.4,3.4,0,0,0,18.34,19.11Z"/><path class="cls-3" d="M26.69,28.56A2.86,2.86,0,0,1,30,31.3c0,.11,0,.23,0,.34v7.55l-1,.14-6.57.93V32.71a4.09,4.09,0,0,1,3.29-4Z"/><path class="cls-3" d="M22.38,32.71,11.8,27a4.08,4.08,0,0,1,3.29-4L25.67,28.7A4.09,4.09,0,0,0,22.38,32.71Z"/><path class="cls-3" d="M17.07,16.79l10.59,5.76a2.33,2.33,0,0,0-1.47-.25L15.6,16.54A2.33,2.33,0,0,1,17.07,16.79Z"/><ellipse class="cls-3" cx="26.19" cy="25.26" rx="3.09" ry="2.64" transform="translate(-8.52 36.19) rotate(-61.45)"/><path class="cls-3" d="M24.71,28,14.12,22.21a2.58,2.58,0,0,1-1.27-2.32,3.42,3.42,0,0,1,2.75-3.35L26.19,22.3a3.4,3.4,0,0,0-2.75,3.35A2.58,2.58,0,0,0,24.71,28Z"/><path class="cls-2" d="M53.47,5.84c4.8-.67,8.67,3,8.66,8.15l-.06,34.8c0,5.18-3.9,9.92-8.7,10.6L21.12,63.92c-4.79.67-8.67-3-8.67-8.15L12.52,21c0-5.19,3.91-9.93,8.7-10.6ZM52.18,49.52l0-14.44c0-3.73-2.8-6.36-6.26-5.88L44,29.48a7.06,7.06,0,0,0-4.32,2.46,4,4,0,0,0-4.58-3.33l-1.45.21A5.44,5.44,0,0,0,30,31.3a2.86,2.86,0,0,0-3.26-2.74l-1,.14a4.09,4.09,0,0,0-3.29,4v7.55l6.57-.93v6l8.79-1.23v7.41l14.47-2M45,17.07a6.4,6.4,0,0,0-5.18,6.3c0,3.08,2.3,5.25,5.16,4.85a6.4,6.4,0,0,0,5.17-6.31c0-3.07-2.3-5.24-5.15-4.84M34.4,19a5.22,5.22,0,0,0-4.21,5.13,3.71,3.71,0,0,0,4.2,3.95A5.22,5.22,0,0,0,38.6,23,3.72,3.72,0,0,0,34.4,19M26.19,22.3a3.4,3.4,0,0,0-2.75,3.35,2.42,2.42,0,0,0,2.74,2.57,3.4,3.4,0,0,0,2.75-3.35,2.42,2.42,0,0,0-2.74-2.57"/><path class="cls-3" d="M46,29.2c3.46-.48,6.26,2.15,6.26,5.88l0,14.44-14.47,2V44.14l2.06-.29L39.8,33a5.42,5.42,0,0,0-.11-1.08A7.06,7.06,0,0,1,44,29.48Z"/><path class="cls-4" d="M47.52.88a7.44,7.44,0,0,0-4.64-.8L10.63,4.61c-4.79.68-8.69,5.42-8.7,10.6L1.87,50a8.11,8.11,0,0,0,4,7.35l10.59,5.76a8.13,8.13,0,0,1-4-7.35L12.52,21c0-5.19,3.91-9.93,8.7-10.6L53.47,5.84a7.45,7.45,0,0,1,4.64.8Z"/></g></g></svg>