<?xml version="1.0" ?><svg viewBox="0 0 64 64" xmlns="http://www.w3.org/2000/svg"><defs><style>.cls-1{isolation:isolate;}.cls-2{fill:#001934;}.cls-3{fill:#fff;}.cls-4{fill:#13304e;}</style></defs><title/><g data-name="21-tumblr" id="_21-tumblr"><g class="cls-1"><path class="cls-2" d="M46.94,49.23,36.35,43.47a.77.77,0,0,0,.18-.72l10.58,5.76A.74.74,0,0,1,46.94,49.23Z"/><polygon class="cls-2" points="47.12 48.51 36.53 42.75 35 38.01 45.59 43.77 47.12 48.51"/><path class="cls-2" d="M35,38a.52.52,0,0,0-.25-.32l10.58,5.76a.53.53,0,0,1,.26.32C42.41,42,37.3,40.8,35,38Z"/><path class="cls-2" d="M29.19,46.83c4.37-.61,6.46-2.54,7.16-3.36l10.59,5.76c-.7.82-2.79,2.75-7.16,3.36Z"/><path class="cls-3" d="M41,44,30.37,38.23a2.69,2.69,0,0,0,1.68.24,6.83,6.83,0,0,0,2.15-.76.7.7,0,0,1,.23-.08.45.45,0,0,1,.32.06l10.58,5.76a.44.44,0,0,0-.32-.06.65.65,0,0,0-.22.08,6.83,6.83,0,0,1-2.15.76A2.73,2.73,0,0,1,41,44Z"/><path class="cls-2" d="M30.37,38.23a2.38,2.38,0,0,1-.43-.3l10.59,5.76A2.32,2.32,0,0,0,41,44Z"/><path class="cls-2" d="M24.39,46.16a7.58,7.58,0,0,0,4.8.67l10.59,5.76a7.57,7.57,0,0,1-4.8-.67Z"/><path class="cls-2" d="M29.94,37.93A2.63,2.63,0,0,1,29.21,36L39.8,41.76a2.59,2.59,0,0,0,.73,1.93h0L29.94,37.93Z"/><path class="cls-2" d="M45.4,31.4,34.81,25.64a.78.78,0,0,0,.63-.76L46,30.64A.78.78,0,0,1,45.4,31.4Z"/><polygon class="cls-2" points="46.02 30.64 35.44 24.88 35.45 18.85 46.04 24.61 46.02 30.64"/><polygon class="cls-3" points="39.83 24.82 29.24 19.06 34.83 18.27 45.41 24.04 39.83 24.82"/><path class="cls-2" d="M35.16,18.33l10.59,5.76a.6.6,0,0,1,.29.52L35.45,18.85A.6.6,0,0,0,35.16,18.33Z"/><path class="cls-3" d="M35.16,18.33l10.59,5.76a.63.63,0,0,0-.34-.06L34.82,18.28A.55.55,0,0,1,35.16,18.33Z"/><polygon class="cls-2" points="39.8 41.76 29.21 36 29.23 26.43 39.82 32.18 39.8 41.76"/><polygon class="cls-2" points="39.82 32.18 29.23 26.43 34.81 25.64 45.4 31.4 39.82 32.18"/><path class="cls-3" d="M35,51.92,24.39,46.16c-3.87-2.1-3.86-7.76-3.86-8.15l10.59,5.76C31.12,44.16,31.11,49.82,35,51.92Z"/><polygon class="cls-3" points="31.12 43.77 20.53 38.01 20.55 27.64 31.14 33.4 31.12 43.77"/><polygon class="cls-2" points="39.83 24.82 29.24 19.06 29.26 10.69 39.85 16.45 39.83 24.82"/><polygon class="cls-2" points="27.42 33.93 16.83 28.17 20.55 27.64 31.14 33.4 27.42 33.93"/><polygon class="cls-3" points="34.24 17.24 23.66 11.48 29.26 10.69 39.85 16.45 34.24 17.24"/><polygon class="cls-3" points="27.42 33.93 16.83 28.17 16.84 22.52 27.43 28.28 27.42 33.93"/><path class="cls-3" d="M39.85,16.45l0,8.37L45.41,24a.56.56,0,0,1,.63.58l0,6a.78.78,0,0,1-.62.76l-5.58.78,0,9.58a2.59,2.59,0,0,0,.73,1.93,2.54,2.54,0,0,0,2.11.54,6.83,6.83,0,0,0,2.15-.76.65.65,0,0,1,.22-.08.52.52,0,0,1,.58.38l1.52,4.74a.74.74,0,0,1-.17.72c-.7.82-2.79,2.75-7.16,3.36-8.68,1.22-8.66-8.32-8.66-8.82l0-10.37-3.72.53V28.28a.77.77,0,0,1,.37-.65c5.3-3.44,5.86-7.23,5.82-9.62a.78.78,0,0,1,.62-.77Z"/><path class="cls-3" d="M27.43,28.28,16.84,22.52a.77.77,0,0,1,.37-.65c5.3-3.44,5.87-7.23,5.83-9.61a.77.77,0,0,1,.62-.78l10.58,5.76a.78.78,0,0,0-.62.77c0,2.39-.52,6.18-5.82,9.62A.77.77,0,0,0,27.43,28.28Z"/><path d="M47.52.88a7.45,7.45,0,0,0-4.64-.8L10.63,4.61c-4.8.68-8.69,5.41-8.7,10.6L1.87,50a8.11,8.11,0,0,0,4,7.35l10.58,5.76a8.14,8.14,0,0,1-4-7.35L12.52,21c0-5.18,3.9-9.91,8.7-10.59L53.47,5.84a7.42,7.42,0,0,1,4.63.8Z"/><path class="cls-4" d="M53.47,5.84c4.79-.67,8.67,3,8.66,8.15l-.06,34.8c0,5.18-3.91,9.92-8.7,10.6L21.12,63.92c-4.8.67-8.67-3-8.67-8.15L12.52,21c0-5.18,3.9-9.91,8.7-10.59ZM46.94,49.23a.74.74,0,0,0,.17-.72l-1.52-4.74a.52.52,0,0,0-.58-.38.65.65,0,0,0-.22.08,6.83,6.83,0,0,1-2.15.76,2.54,2.54,0,0,1-2.11-.54,2.59,2.59,0,0,1-.73-1.93l0-9.58,5.58-.78a.78.78,0,0,0,.62-.76l0-6a.56.56,0,0,0-.63-.58l-5.58.79,0-8.37-5.61.79a.78.78,0,0,0-.62.77c0,2.39-.52,6.18-5.82,9.62a.77.77,0,0,0-.37.65v5.65l3.72-.53,0,10.37c0,.5,0,10,8.66,8.82,4.37-.61,6.46-2.54,7.16-3.36"/></g></g></svg>