<?xml version="1.0" ?><svg viewBox="0 0 64 64" xmlns="http://www.w3.org/2000/svg"><defs><style>.cls-1{isolation:isolate;}.cls-2{fill:#fff;}.cls-3{fill:#27828c;}.cls-4{fill:#939598;}</style></defs><title/><g data-name="30-scribd" id="_30-scribd"><g class="cls-1"><path class="cls-2" d="M39.48,29.54a4.93,4.93,0,0,0-2.1-2.32L48,33a4.93,4.93,0,0,1,2.1,2.32A13,13,0,0,1,51,42L40.42,36.24A13,13,0,0,0,39.48,29.54Z"/><path class="cls-2" d="M27.16,51.48,16.57,45.72A17.07,17.07,0,0,0,27.11,47.8,17.49,17.49,0,0,0,37.5,42.54a11.55,11.55,0,0,0,2.92-6.3L51,42a11.55,11.55,0,0,1-2.92,6.3A17.49,17.49,0,0,1,37.7,53.56,17.07,17.07,0,0,1,27.16,51.48Z"/><path class="cls-3" d="M29.63,48.87,19,43.11a12.91,12.91,0,0,0,8.08,1.35c6.2-.88,8.69-4.57,9.31-6.67a2.78,2.78,0,0,0,.13-.84A1.06,1.06,0,0,0,36,36l10.59,5.76a1.06,1.06,0,0,1,.56,1,3.13,3.13,0,0,1-.13.84c-.62,2.1-3.11,5.79-9.32,6.67A12.89,12.89,0,0,1,29.63,48.87Z"/><path class="cls-2" d="M35.29,35.87A1.12,1.12,0,0,1,36,36l10.59,5.76a1.12,1.12,0,0,0-.71-.12l-.18,0a5.7,5.7,0,0,1-.84.19,5.24,5.24,0,0,1-3.22-.52L31.05,35.57a5.24,5.24,0,0,0,3.22.52,6.14,6.14,0,0,0,.85-.19Z"/><path class="cls-3" d="M37.38,27.22,48,33a4.92,4.92,0,0,0-3.1-.51L34.28,26.71A4.92,4.92,0,0,1,37.38,27.22Z"/><polygon class="cls-2" points="47.01 26.54 36.42 20.78 39.57 15.49 50.16 21.25 47.01 26.54"/><path class="cls-3" d="M41.64,41.33,31.05,35.57A3.82,3.82,0,0,1,29,32.15c0-2.59,2.37-5,5.28-5.44l10.59,5.76c-2.91.41-5.28,2.85-5.28,5.44A3.8,3.8,0,0,0,41.64,41.33Z"/><polygon class="cls-3" points="44.74 24.77 34.15 19.02 35.58 16.74 46.17 22.5 44.74 24.77"/><polygon class="cls-3" points="47.01 26.54 36.42 20.78 34.15 19.02 44.74 24.77 47.01 26.54"/><path class="cls-2" d="M35.7,12.45l10.58,5.76a17.86,17.86,0,0,1,3.88,3L39.57,15.49A18,18,0,0,0,35.7,12.45Z"/><path class="cls-2" d="M35.7,12.45c-.17-.1-.34-.2-.52-.29l10.59,5.76.51.29L39.6,14.58l-2-1.11C37,13.13,36.32,12.8,35.7,12.45Z"/><path class="cls-3" d="M33.32,15.05l10.59,5.76a9.22,9.22,0,0,1,2.26,1.69L35.58,16.74A9.22,9.22,0,0,0,33.32,15.05Z"/><path class="cls-2" d="M29.63,48.87,19,43.11a8.67,8.67,0,0,1-1.84-1.28L27.79,47.6A9,9,0,0,0,29.63,48.87Z"/><polygon class="cls-2" points="27.79 47.59 17.2 41.84 18.75 39.61 29.34 45.37 27.79 47.59"/><polygon class="cls-2" points="29.34 45.37 18.75 39.61 16.28 37.95 26.87 43.71 29.34 45.37"/><path class="cls-3" d="M27.16,51.48,16.57,45.72a18.52,18.52,0,0,1-3.71-2.61l10.59,5.76A18.52,18.52,0,0,0,27.16,51.48Z"/><polygon class="cls-3" points="23.45 48.87 12.86 43.11 16.28 37.95 26.87 43.71 23.45 48.87"/><path class="cls-2" d="M24.72,26.56a4.07,4.07,0,0,0-2.1-3.69l10.59,5.76a4.07,4.07,0,0,1,2.1,3.69,5.78,5.78,0,0,1-4.85,5.53L19.87,32.09l10.59,5.76a4.19,4.19,0,0,1-2.64-.44L17.23,31.65a4.19,4.19,0,0,0,2.64.44A5.78,5.78,0,0,0,24.72,26.56Z"/><path class="cls-2" d="M26.46,13.87a11,11,0,0,1,6.86,1.18l10.59,5.76a11,11,0,0,0-6.86-1.18Z"/><path class="cls-3" d="M35.18,12.16l10.59,5.76a14,14,0,0,0-8.72-1.74L26.47,10.42A14,14,0,0,1,35.18,12.16Z"/><path class="cls-3" d="M22.62,22.87l10.59,5.76a4.43,4.43,0,0,0-2.73-.46,5.29,5.29,0,0,0-.79.17L19.1,22.58a5.29,5.29,0,0,1,.79-.17A4.43,4.43,0,0,1,22.62,22.87Z"/><path class="cls-3" d="M28.93,28.27,18.34,22.51a.94.94,0,0,0,.6.11l.16,0,10.59,5.76-.16,0A.94.94,0,0,1,28.93,28.27Z"/><path class="cls-2" d="M18.34,22.51a1.37,1.37,0,0,1-.21-.15l10.59,5.76a1,1,0,0,0,.21.15Z"/><path class="cls-2" d="M18.13,22.36a1.1,1.1,0,0,1-.25-.37l10.59,5.76a1.1,1.1,0,0,0,.25.37l-5.29-2.88L22,24.49l-2-1.1L19.37,23A12.48,12.48,0,0,1,18.13,22.36Z"/><path class="cls-2" d="M18.94,18.32a10.35,10.35,0,0,1,7.52-4.45l10.59,5.76a10.33,10.33,0,0,0-7.52,4.45Z"/><path class="cls-2" d="M17.89,20.61a8.23,8.23,0,0,1,1.05-2.29l10.59,5.76a8,8,0,0,0-1.05,2.29,3.14,3.14,0,0,0-.11.87,1.19,1.19,0,0,0,.1.51L17.88,22a1.36,1.36,0,0,1-.1-.51A3.14,3.14,0,0,1,17.89,20.61Z"/><path class="cls-3" d="M27.82,37.41,17.23,31.65a5,5,0,0,1-2.15-2.56,15,15,0,0,1-.85-6.94,12.35,12.35,0,0,1,2.68-6.46,15.14,15.14,0,0,1,9.56-5.27l10.58,5.76a15.14,15.14,0,0,0-9.55,5.27,12.45,12.45,0,0,0-2.69,6.46,15,15,0,0,0,.86,6.94A5,5,0,0,0,27.82,37.41Z"/><path class="cls-2" d="M53.47,5.84c4.79-.67,8.67,3,8.66,8.15L62.07,48.8c0,5.17-3.9,9.91-8.7,10.59L21.12,63.92c-4.8.67-8.67-3-8.66-8.15L12.52,21c0-5.17,3.9-9.91,8.7-10.59ZM51,42a13,13,0,0,0-.94-6.7,4.74,4.74,0,0,0-5.2-2.83c-2.91.41-5.28,2.85-5.28,5.44s2.36,4.35,5.27,3.94a5.7,5.7,0,0,0,.84-.19l.18,0a1.08,1.08,0,0,1,1.27,1.08,3.13,3.13,0,0,1-.13.84c-.62,2.1-3.11,5.79-9.32,6.67a12.19,12.19,0,0,1-9.91-2.62l1.55-2.23-2.47-1.66-3.42,5.16c.31.29,6.19,5.82,14.25,4.69A17.49,17.49,0,0,0,48.09,48.3,11.55,11.55,0,0,0,51,42M24.81,27.91a15,15,0,0,0,.86,6.94,4.37,4.37,0,0,0,4.79,3,5.78,5.78,0,0,0,4.85-5.53,4.09,4.09,0,0,0-4.83-4.15,5.29,5.29,0,0,0-.79.17l-.16,0a1.05,1.05,0,0,1-1.16-1.14,3.14,3.14,0,0,1,.11-.87c.58-2.15,2.87-5.94,8.57-6.74a10.59,10.59,0,0,1,9.12,2.87l-1.43,2.28L47,26.54l3.15-5.29c-.28-.31-5.69-6.11-13.11-5.07a15.14,15.14,0,0,0-9.55,5.27,12.45,12.45,0,0,0-2.69,6.46"/><path class="cls-3" d="M44.87,32.47a4.74,4.74,0,0,1,5.2,2.83A13,13,0,0,1,51,42a11.55,11.55,0,0,1-2.92,6.3A17.49,17.49,0,0,1,37.7,53.56c-8.06,1.13-13.94-4.4-14.25-4.69l3.42-5.16,2.47,1.66L27.79,47.6a12.19,12.19,0,0,0,9.91,2.62c6.21-.88,8.7-4.57,9.32-6.67a3.13,3.13,0,0,0,.13-.84,1.08,1.08,0,0,0-1.27-1.08l-.18,0a5.7,5.7,0,0,1-.84.19c-2.91.41-5.28-1.36-5.27-3.94S42,32.88,44.87,32.47Z"/><path class="cls-3" d="M37.05,16.18c7.42-1,12.83,4.76,13.11,5.07L47,26.54l-2.27-1.76,1.43-2.28a10.59,10.59,0,0,0-9.12-2.87c-5.7.8-8,4.59-8.57,6.74a3.14,3.14,0,0,0-.11.87,1.05,1.05,0,0,0,1.16,1.14l.16,0a5.29,5.29,0,0,1,.79-.17,4.09,4.09,0,0,1,4.83,4.15,5.78,5.78,0,0,1-4.85,5.53,4.37,4.37,0,0,1-4.79-3,15,15,0,0,1-.86-6.94,12.45,12.45,0,0,1,2.69-6.46A15.14,15.14,0,0,1,37.05,16.18Z"/><path class="cls-4" d="M47.52.88a7.44,7.44,0,0,0-4.64-.8L10.63,4.61C5.83,5.29,1.94,10,1.93,15.2L1.87,50a8.11,8.11,0,0,0,4,7.35l10.59,5.76a8.11,8.11,0,0,1-4-7.35L12.52,21c0-5.17,3.9-9.91,8.7-10.59L53.47,5.84a7.44,7.44,0,0,1,4.64.8Z"/></g></g></svg>