<?xml version="1.0" ?><svg viewBox="0 0 64 64" xmlns="http://www.w3.org/2000/svg"><defs><style>.cls-1{isolation:isolate;}.cls-2{fill:#ffed3c;}.cls-3{fill:#ffa73c;}</style></defs><title/><g data-name="18-yy" id="_18-yy"><g class="cls-1"><path class="cls-2" d="M46,18.1l10.59,5.76a1.72,1.72,0,0,1,.19,2.33L46.15,20.43A1.72,1.72,0,0,0,46,18.1Z"/><path class="cls-2" d="M46,18.1,45.8,18l10.59,5.76.16.1h0c-.38-.22-.78-.42-1.16-.63l-2.07-1.12-3.45-1.88L46,18.1Z"/><polygon class="cls-2" points="45.86 41.77 35.27 36.02 46.16 20.43 56.74 26.19 45.86 41.77"/><path d="M45.8,18l10.59,5.76a1.35,1.35,0,0,0-.83-.15,1.82,1.82,0,0,0-1.2.77L43.78,18.62A1.75,1.75,0,0,1,45,17.86,1.32,1.32,0,0,1,45.8,18Z"/><path class="cls-2" d="M34.08,36.78A1.74,1.74,0,0,0,35.27,36l10.59,5.76a1.79,1.79,0,0,1-1.19.77,1.29,1.29,0,0,1-.82-.14L33.26,36.64A1.31,1.31,0,0,0,34.08,36.78Z"/><polygon points="47.96 33.55 37.37 27.79 43.78 18.62 54.36 24.38 47.96 33.55"/><polygon points="43.48 39.96 32.89 34.2 35.36 30.68 45.94 36.44 43.48 39.96"/><path d="M43.85,42.4,33.26,36.64l-.17-.11a1.73,1.73,0,0,1-.2-2.33L43.48,40a1.72,1.72,0,0,0,.2,2.33Z"/><polygon class="cls-2" points="47.96 33.55 37.37 27.79 30.63 20.44 41.22 26.2 47.96 33.55"/><path class="cls-2" d="M30.63,20.44a1.44,1.44,0,0,0-.34-.27l10.59,5.76a1.44,1.44,0,0,1,.34.27C38,24.47,33.47,22.67,30.63,20.44Z"/><polygon points="45.94 36.44 35.36 30.68 28.3 22.98 38.88 28.73 45.94 36.44"/><path d="M30.29,20.17l10.59,5.76a1.39,1.39,0,0,0-.83-.14L29.46,20A1.39,1.39,0,0,1,30.29,20.17Z"/><path d="M38.88,28.73,28.3,23a1.8,1.8,0,0,1,.14-2.39,1.72,1.72,0,0,1,1-.56l10.59,5.76a1.72,1.72,0,0,0-1,.56A1.8,1.8,0,0,0,38.88,28.73Z"/><path d="M40.05,25.79a1.31,1.31,0,0,1,1.17.41L48,33.55l6.4-9.17a1.82,1.82,0,0,1,1.2-.77,1.35,1.35,0,0,1,1,.25,1.72,1.72,0,0,1,.19,2.33L45.86,41.77a1.79,1.79,0,0,1-1.19.77,1.31,1.31,0,0,1-1-.25,1.72,1.72,0,0,1-.2-2.33l2.46-3.52-7.06-7.71A1.8,1.8,0,0,1,39,26.35,1.72,1.72,0,0,1,40.05,25.79Z"/><path class="cls-2" d="M25,21.05l10.59,5.76a1.73,1.73,0,0,1,.2,2.33L25.17,23.38A1.72,1.72,0,0,0,25,21.05Z"/><path class="cls-2" d="M25,21.05l-.16-.1L35.4,26.71l.16.1L25,21.05Z"/><polygon class="cls-2" points="24.87 44.72 14.29 38.96 25.17 23.38 35.76 29.14 24.87 44.72"/><path d="M24.81,21,35.4,26.71a1.32,1.32,0,0,0-.83-.15,1.8,1.8,0,0,0-1.19.77L22.79,21.57A1.82,1.82,0,0,1,24,20.8,1.3,1.3,0,0,1,24.81,21Z"/><path class="cls-2" d="M13.09,39.73a1.78,1.78,0,0,0,1.2-.77l10.58,5.76a1.74,1.74,0,0,1-1.19.77,1.27,1.27,0,0,1-.81-.14L12.28,39.59A1.27,1.27,0,0,0,13.09,39.73Z"/><polygon points="26.97 36.5 16.39 30.74 22.79 21.57 33.38 27.33 26.97 36.5"/><polygon points="22.5 42.91 11.91 37.15 14.37 33.63 24.96 39.39 22.5 42.91"/><path d="M22.87,45.35,12.28,39.59l-.17-.11a1.71,1.71,0,0,1-.2-2.33L22.5,42.91a1.72,1.72,0,0,0,.19,2.33Z"/><polygon class="cls-2" points="26.97 36.5 16.39 30.74 9.64 23.39 20.23 29.15 26.97 36.5"/><path class="cls-2" d="M9.64,23.39a1.4,1.4,0,0,0-.33-.27l10.58,5.76a1.27,1.27,0,0,1,.34.27C17.05,27.42,12.49,25.62,9.64,23.39Z"/><polygon points="24.96 39.39 14.37 33.63 7.31 25.92 17.9 31.68 24.96 39.39"/><path d="M9.31,23.12l10.58,5.76a1.36,1.36,0,0,0-.82-.14L8.48,23A1.39,1.39,0,0,1,9.31,23.12Z"/><path d="M17.9,31.68,7.31,25.92a1.8,1.8,0,0,1,.15-2.38,1.72,1.72,0,0,1,1-.56l10.59,5.76a1.74,1.74,0,0,0-1,.56A1.79,1.79,0,0,0,17.9,31.68Z"/><path d="M19.07,28.74a1.28,1.28,0,0,1,1.16.41L27,36.5l6.41-9.17a1.8,1.8,0,0,1,1.19-.77,1.31,1.31,0,0,1,1,.25,1.73,1.73,0,0,1,.2,2.33L24.87,44.72a1.74,1.74,0,0,1-1.19.77,1.31,1.31,0,0,1-1-.25,1.72,1.72,0,0,1-.19-2.33L25,39.39,17.9,31.68A1.79,1.79,0,0,1,18,29.3,1.74,1.74,0,0,1,19.07,28.74Z"/><path class="cls-3" d="M47.52.88a7.44,7.44,0,0,0-4.64-.8L10.63,4.61C5.84,5.29,2,10,1.94,15.21L1.87,50a8.12,8.12,0,0,0,4,7.35l10.59,5.76a8.11,8.11,0,0,1-4-7.35L12.52,21c0-5.18,3.91-9.91,8.7-10.59L53.47,5.84a7.42,7.42,0,0,1,4.63.8Z"/><path class="cls-2" d="M53.47,5.84c4.79-.67,8.67,3,8.66,8.15l-.07,34.8c0,5.18-3.9,9.92-8.69,10.6L21.12,63.92c-4.79.67-8.67-3-8.66-8.15L12.52,21c0-5.18,3.91-9.91,8.7-10.59ZM35.76,29.14a1.73,1.73,0,0,0-.2-2.33,1.31,1.31,0,0,0-1-.25,1.8,1.8,0,0,0-1.19.77L27,36.5l-6.74-7.35a1.28,1.28,0,0,0-1.16-.41,1.74,1.74,0,0,0-1,.56,1.79,1.79,0,0,0-.14,2.38L25,39.39,22.5,42.91a1.72,1.72,0,0,0,.19,2.33,1.31,1.31,0,0,0,1,.25,1.74,1.74,0,0,0,1.19-.77L35.76,29.14m21-2.95a1.72,1.72,0,0,0-.19-2.33,1.35,1.35,0,0,0-1-.25,1.82,1.82,0,0,0-1.2.77L48,33.55,41.22,26.2a1.31,1.31,0,0,0-1.17-.41,1.72,1.72,0,0,0-1,.56,1.8,1.8,0,0,0-.15,2.38l7.06,7.71L43.48,40a1.72,1.72,0,0,0,.2,2.33,1.31,1.31,0,0,0,1,.25,1.79,1.79,0,0,0,1.19-.77L56.74,26.19"/></g></g></svg>