<?xml version="1.0" ?><svg viewBox="0 0 64 64" xmlns="http://www.w3.org/2000/svg"><defs><style>.cls-1{isolation:isolate;}.cls-2{fill:#1fc1c0;}.cls-3{fill:#fff;}.cls-4{fill:#1f9baa;}</style></defs><title/><g data-name="29-tagged" id="_29-tagged"><g class="cls-1"><path class="cls-2" d="M53.49,44.26,42.9,38.5A3.21,3.21,0,0,0,44.15,36l10.59,5.76A3.24,3.24,0,0,1,53.49,44.26Z"/><polygon class="cls-2" points="54.74 41.76 44.15 36 44.17 24.66 54.76 30.42 54.74 41.76"/><polygon class="cls-3" points="48.66 29.93 38.08 24.17 42.93 23.49 53.52 29.25 48.66 29.93"/><path class="cls-2" d="M43.59,23.61l10.59,5.76a1.14,1.14,0,0,1,.58,1.05L44.17,24.66A1.14,1.14,0,0,0,43.59,23.61Z"/><path class="cls-3" d="M43.59,23.61l10.59,5.76a1,1,0,0,0-.66-.12L42.93,23.49A1,1,0,0,1,43.59,23.61Z"/><polygon class="cls-2" points="38.5 55.69 27.91 49.93 42.9 38.5 53.49 44.26 38.5 55.69"/><path class="cls-2" d="M36,56,25.42,50.28a2.23,2.23,0,0,0,1.25.18,2.66,2.66,0,0,0,1.24-.53L38.5,55.69a2.71,2.71,0,0,1-1.24.53A2.23,2.23,0,0,1,36,56Z"/><path class="cls-2" d="M43.5,15.59a1.93,1.93,0,0,0-.46-.35L53.62,21a1.8,1.8,0,0,1,.47.35.75.75,0,0,1-.46,1.2L43.05,16.79A.75.75,0,0,0,43.5,15.59Z"/><path class="cls-3" d="M43,15.24,53.62,21,53.53,21,42.94,15.19Z"/><polygon class="cls-2" points="33.46 54.8 22.87 49.05 25.42 50.28 36.01 56.04 33.46 54.8"/><polygon class="cls-3" points="33.46 54.8 22.87 49.05 31.41 29.54 42 35.3 33.46 54.8"/><path class="cls-3" d="M42,35.3,31.41,29.54a9,9,0,0,1,6.67-5.37l10.58,5.76A8.94,8.94,0,0,0,42,35.3Z"/><path class="cls-3" d="M53.52,29.25a1.1,1.1,0,0,1,1.24,1.17l0,11.34a3.24,3.24,0,0,1-1.25,2.5l-15,11.43a2.71,2.71,0,0,1-1.24.53A2.23,2.23,0,0,1,36,56L33.46,54.8,42,35.3a8.94,8.94,0,0,1,6.66-5.37Z"/><path class="cls-2" d="M17,46a1.49,1.49,0,0,0,1.11-.9l10.59,5.76a1.49,1.49,0,0,1-1.11.9Z"/><path class="cls-2" d="M27,51.66,16.36,45.9A1.11,1.11,0,0,0,17,46l10.59,5.76A1.11,1.11,0,0,1,27,51.66Z"/><polygon class="cls-2" points="28.68 50.85 18.09 45.09 24.73 29.93 35.32 35.69 28.68 50.85"/><path class="cls-2" d="M23.85,26.58l10.58,5.76a2.55,2.55,0,0,1,.89,3.35L24.73,29.93A2.56,2.56,0,0,0,23.85,26.58Z"/><path class="cls-3" d="M23.85,26.58l10.58,5.76a2.12,2.12,0,0,0-1.32-.22L22.52,26.36A2.17,2.17,0,0,1,23.85,26.58Z"/><polygon class="cls-2" points="21.06 48.81 10.47 43.05 16.36 45.9 26.95 51.66 21.06 48.81"/><path class="cls-2" d="M10.47,43.05l.6.34,4.69,2.54,5.3,2.88-.08,0L10.39,43A.2.2,0,0,0,10.47,43.05Z"/><polygon class="cls-3" points="28.31 32.79 17.72 27.03 22.52 26.36 33.11 32.12 28.31 32.79"/><polygon class="cls-3" points="38.58 13.72 27.99 7.96 42.94 15.19 53.53 20.95 38.58 13.72"/><path class="cls-3" d="M21,48.77,10.39,43a2.3,2.3,0,0,1-1.15-2.1l10.58,5.76A2.33,2.33,0,0,0,21,48.77Z"/><path class="cls-3" d="M37.34,13.54,26.75,7.78A2.2,2.2,0,0,1,28,8l10.59,5.76A2.2,2.2,0,0,0,37.34,13.54Z"/><path class="cls-3" d="M26.65,32.51,16.06,26.75a2.64,2.64,0,0,0,1.66.28l10.59,5.76A2.64,2.64,0,0,1,26.65,32.51Z"/><path class="cls-3" d="M36.09,14.07,25.5,8.31a2.74,2.74,0,0,1,1.25-.53l10.59,5.76A2.74,2.74,0,0,0,36.09,14.07Z"/><polygon class="cls-2" points="28.46 26.08 17.87 20.32 43.05 16.79 53.63 22.55 28.46 26.08"/><path class="cls-2" d="M14.64,23.8a3.94,3.94,0,0,1,3.23-3.48l9.35,5.09,1.24.67a3.93,3.93,0,0,0-3.23,3.48L14.64,23.8l10.59,5.76a3,3,0,0,0,1.42,2.95L16.06,26.75A3,3,0,0,1,14.64,23.8Z"/><polygon class="cls-3" points="19.82 46.67 9.24 40.91 9.27 22.24 19.86 28 19.82 46.67"/><polygon class="cls-3" points="21.1 25.51 10.51 19.75 25.5 8.31 36.09 14.07 21.1 25.51"/><path class="cls-3" d="M37.34,13.54a2.2,2.2,0,0,1,1.24.18l15,7.23a2,2,0,0,1,.56.4.75.75,0,0,1-.46,1.2L28.46,26.08a3.93,3.93,0,0,0-3.23,3.48,2.77,2.77,0,0,0,3.08,3.23l4.8-.67c1.85-.26,3,1.67,2.21,3.57L28.68,50.85a1.49,1.49,0,0,1-1.11.9,1.11,1.11,0,0,1-.62-.09l-5.89-2.85a2.31,2.31,0,0,1-1.24-2.14l0-18.67a3.16,3.16,0,0,1,1.24-2.49l15-11.44A2.74,2.74,0,0,1,37.34,13.54Z"/><path class="cls-3" d="M19.86,28,9.27,22.24a3.16,3.16,0,0,1,1.24-2.49L21.1,25.51A3.16,3.16,0,0,0,19.86,28Z"/><path class="cls-4" d="M47.52.88a7.44,7.44,0,0,0-4.64-.8L10.63,4.61C5.83,5.29,1.94,10,1.93,15.2L1.87,50a8.11,8.11,0,0,0,4,7.35l10.59,5.76a8.11,8.11,0,0,1-4-7.35L12.52,21c0-5.17,3.9-9.91,8.7-10.59L53.47,5.84a7.44,7.44,0,0,1,4.64.8Z"/><path class="cls-2" d="M53.47,5.84c4.79-.67,8.67,3,8.66,8.15L62.07,48.8c0,5.17-3.9,9.91-8.7,10.59L21.12,63.92c-4.8.67-8.67-3-8.66-8.15L12.52,21c0-5.17,3.9-9.91,8.7-10.59ZM27.57,51.75a1.49,1.49,0,0,0,1.11-.9l6.64-15.16c.84-1.9-.36-3.83-2.21-3.57l-4.8.67a2.77,2.77,0,0,1-3.08-3.23,3.93,3.93,0,0,1,3.23-3.48l25.17-3.53a.75.75,0,0,0,.46-1.2,2,2,0,0,0-.56-.4l-15-7.23a2.2,2.2,0,0,0-1.24-.18,2.74,2.74,0,0,0-1.25.53l-15,11.44A3.16,3.16,0,0,0,19.86,28l0,18.67a2.31,2.31,0,0,0,1.24,2.14L27,51.66a1.11,1.11,0,0,0,.62.09m27.17-10,0-11.34a1.1,1.1,0,0,0-1.24-1.17l-4.86.68A8.94,8.94,0,0,0,42,35.3L33.46,54.8,36,56a2.23,2.23,0,0,0,1.25.18,2.71,2.71,0,0,0,1.24-.53l15-11.43a3.24,3.24,0,0,0,1.25-2.5"/></g></g></svg>