<?xml version="1.0" ?><svg viewBox="0 0 64 64" xmlns="http://www.w3.org/2000/svg" xmlns:xlink="http://www.w3.org/1999/xlink"><defs><style>.cls-1{isolation:isolate;}.cls-2{fill:#ed1c24;}.cls-3{fill:#fff;}.cls-4{fill:#dc1c21;}.cls-5{fill:url(#linear-gradient);}.cls-6{fill:#bd1c24;}</style><linearGradient gradientUnits="userSpaceOnUse" id="linear-gradient" x1="15.67" x2="70.48" y1="9.23" y2="74.26"><stop offset="0" stop-color="#f5362e"/><stop offset="1" stop-color="#cc161c"/></linearGradient></defs><title/><g data-name="28-yelp" id="_28-yelp"><g class="cls-1"><polygon class="cls-2" points="57.68 37.79 47.1 32.03 48.66 29.77 59.25 35.53 57.68 37.79"/><polygon class="cls-3" points="56.25 36.72 45.66 30.96 47.23 28.7 57.82 34.46 56.25 36.72"/><path class="cls-2" d="M48.66,29.77a3.16,3.16,0,0,0,.5-2.54L59.75,33a3.2,3.2,0,0,1-.5,2.54Z"/><path class="cls-3" d="M45.56,31.09a.64.64,0,0,0,.1-.13l10.59,5.76a1.47,1.47,0,0,1-.1.13Z"/><path class="cls-2" d="M49.16,27.23a2.24,2.24,0,0,0-1-1.42L58.7,31.57a2.27,2.27,0,0,1,1,1.42Z"/><polygon class="cls-4" points="54.39 32.53 43.8 26.77 46.92 27.56 57.51 33.32 54.39 32.53"/><path class="cls-3" d="M47.07,27.62l10.58,5.76a.73.73,0,0,1,.17,1.08L47.23,28.7A.74.74,0,0,0,47.07,27.62Z"/><path class="cls-4" d="M47.07,27.62l10.58,5.76a.35.35,0,0,0-.14-.06L46.92,27.56A.47.47,0,0,1,47.07,27.62Z"/><path class="cls-2" d="M54.31,38.86,43.72,33.1a2.21,2.21,0,0,0,1.38.23,3,3,0,0,0,2-1.3l10.58,5.76a3,3,0,0,1-2,1.3A2.2,2.2,0,0,1,54.31,38.86Z"/><polygon class="cls-4" points="55.05 36.76 44.46 31 42.9 27.94 53.49 33.7 55.05 36.76"/><path class="cls-3" d="M45.56,31.09l10.59,5.76a.81.81,0,0,1-.46.23.61.61,0,0,1-.4-.07L44.71,31.25a.59.59,0,0,0,.39.07A.78.78,0,0,0,45.56,31.09Z"/><path class="cls-4" d="M55.29,37,44.71,31.25a.55.55,0,0,1-.25-.25L55,36.76A.67.67,0,0,0,55.29,37Z"/><path class="cls-3" d="M54.31,38.86,43.72,33.1a2,2,0,0,1-.42-.3l10.59,5.76A3.19,3.19,0,0,0,54.31,38.86Z"/><path class="cls-2" d="M58.7,31.57,48.11,25.81A3.18,3.18,0,0,0,49,24.6,2.9,2.9,0,0,0,48.93,22L59.52,27.8a2.94,2.94,0,0,1,.07,2.56A3.29,3.29,0,0,1,58.7,31.57Z"/><path class="cls-3" d="M57.45,30.16,46.87,24.4a.83.83,0,0,0,.44-1.14L57.9,29A.83.83,0,0,1,57.45,30.16Z"/><path class="cls-2" d="M51.14,40.92,40.55,35.16l.28,0A3,3,0,0,0,42.71,34a3.45,3.45,0,0,0,.59-1.18l10.59,5.76a3.63,3.63,0,0,1-.59,1.18,3,3,0,0,1-1.89,1.16Z"/><path class="cls-3" d="M41.11,33a1.05,1.05,0,0,0,.47-.87l10.58,5.76a1,1,0,0,1-.46.87Z"/><polygon class="cls-2" points="59.52 27.8 48.93 22.04 47.51 19.54 58.1 25.3 59.52 27.8"/><path class="cls-4" d="M54.13,32.51,43.55,26.76a.53.53,0,0,1,.25,0l10.59,5.76A.76.76,0,0,0,54.13,32.51Z"/><path class="cls-4" d="M53.49,33.7,42.9,27.94a.86.86,0,0,1,.65-1.18l10.58,5.75A.87.87,0,0,0,53.49,33.7Z"/><path class="cls-4" d="M54.13,32.51a.76.76,0,0,1,.26,0l3.12.79a.72.72,0,0,1,.31,1.14l-1.57,2.26a.84.84,0,0,1-.56.36.62.62,0,0,1-.65-.32L53.49,33.7A.87.87,0,0,1,54.13,32.51Z"/><polygon class="cls-3" points="54.13 31.17 43.55 25.41 46.87 24.4 57.45 30.16 54.13 31.17"/><path class="cls-3" d="M43.45,25.43l.1,0,10.58,5.76-.09,0h0L43.45,25.43Z"/><polygon class="cls-3" points="57.9 29.02 47.31 23.27 45.9 20.76 56.48 26.52 57.9 29.02"/><polygon class="cls-3" points="52.16 37.92 41.58 32.16 41.58 28.56 52.17 34.32 52.16 37.92"/><path class="cls-3" d="M43.14,25.38a.52.52,0,0,0,.31.05L54,31.19a.49.49,0,0,1-.32-.06Z"/><path class="cls-3" d="M45.68,20.54,56.27,26.3a.56.56,0,0,1,.21.22L45.9,20.76A.58.58,0,0,0,45.68,20.54Z"/><path class="cls-2" d="M46.68,18.71l10.59,5.76a2.07,2.07,0,0,1,.83.83L47.51,19.54A2.07,2.07,0,0,0,46.68,18.71Z"/><path class="cls-3" d="M41.11,33,51.7,38.79a.71.71,0,0,1-.28.09h-.08a3.84,3.84,0,0,1-2-.42L38.72,32.71a3.86,3.86,0,0,0,2,.42h.08A1,1,0,0,0,41.11,33Z"/><path class="cls-4" d="M45.68,20.54,56.27,26.3a.51.51,0,0,0-.32-.05L45.36,20.49A.51.51,0,0,1,45.68,20.54Z"/><path class="cls-2" d="M37.71,34.54a5.56,5.56,0,0,0,2.84.62l10.59,5.76a5.63,5.63,0,0,1-2.85-.62Z"/><path class="cls-3" d="M41.22,27.88l10.59,5.76a.73.73,0,0,1,.36.68L41.58,28.56A.73.73,0,0,0,41.22,27.88Z"/><path class="cls-4" d="M53.72,31.13,43.14,25.38a.72.72,0,0,1-.2-1l10.58,5.76A.72.72,0,0,0,53.72,31.13Z"/><polygon class="cls-4" points="53.52 30.15 42.94 24.39 44.84 20.87 55.43 26.63 53.52 30.15"/><path class="cls-4" d="M56,26.25a.5.5,0,0,1,.53.27L57.9,29a.83.83,0,0,1-.45,1.14l-3.32,1-.09,0c-.49.07-.8-.51-.52-1l1.91-3.52A.7.7,0,0,1,56,26.25Z"/><path class="cls-4" d="M55.43,26.63,44.84,20.87a.7.7,0,0,1,.52-.38L56,26.25A.7.7,0,0,0,55.43,26.63Z"/><polygon class="cls-4" points="48.82 37.01 38.23 31.25 40.25 28.2 50.84 33.96 48.82 37.01"/><polygon class="cls-3" points="46.76 34.1 36.17 28.34 39.74 27.02 50.33 32.78 46.76 34.1"/><path class="cls-4" d="M41.22,27.88l10.59,5.76a.61.61,0,0,0-.4-.07L40.83,27.81A.57.57,0,0,1,41.22,27.88Z"/><path class="cls-4" d="M50.84,34,40.25,28.2a.84.84,0,0,1,.58-.39l10.58,5.76A.84.84,0,0,0,50.84,34Z"/><path class="cls-4" d="M51.41,33.57a.68.68,0,0,1,.76.75v3.6a1,1,0,0,1-.74,1h-.08a3.64,3.64,0,0,1-2.44-.68.93.93,0,0,1-.08-1.2l2-3A.84.84,0,0,1,51.41,33.57Z"/><path class="cls-4" d="M49.31,38.47,38.72,32.71a2.13,2.13,0,0,1-.4-.26.92.92,0,0,1-.09-1.2L48.82,37a.93.93,0,0,0,.08,1.2A2.63,2.63,0,0,0,49.31,38.47Z"/><path class="cls-3" d="M41.67,24.18a.93.93,0,0,0,.16-.56l10.59,5.76a1,1,0,0,1-.16.56Z"/><path class="cls-3" d="M46.68,18.71l10.59,5.76A2.12,2.12,0,0,0,56,24.24a2.78,2.78,0,0,0-1.79,1.09L43.57,19.58a2.75,2.75,0,0,1,1.8-1.1A2.09,2.09,0,0,1,46.68,18.71Z"/><polygon class="cls-2" points="54.16 25.34 43.57 19.57 43.48 16.91 54.07 22.67 54.16 25.34"/><polygon class="cls-3" points="52.42 29.38 41.83 23.62 41.63 17.25 52.21 23.01 52.42 29.38"/><polygon class="cls-4" points="51.32 30.06 40.73 24.3 37.02 19.45 47.6 25.21 51.32 30.06"/><path class="cls-3" d="M41.67,24.18l10.59,5.76a.7.7,0,0,1-.48.32L41.2,24.5A.7.7,0,0,0,41.67,24.18Z"/><path class="cls-3" d="M51.49,30.21,40.91,24.45a.42.42,0,0,0,.29.05l10.58,5.76A.44.44,0,0,1,51.49,30.21Z"/><polygon class="cls-4" points="47.36 30.2 36.77 24.44 39.88 25.78 50.47 31.54 47.36 30.2"/><path class="cls-3" d="M39.94,25.81l10.59,5.75a.67.67,0,0,1-.2,1.22L39.74,27A.66.66,0,0,0,39.94,25.81Z"/><path class="cls-4" d="M51.49,30.21,40.91,24.45a.4.4,0,0,1-.17-.15l10.58,5.76A.47.47,0,0,0,51.49,30.21Z"/><path class="cls-4" d="M39.94,25.81l10.59,5.75-.06,0L39.88,25.78Z"/><polygon class="cls-2" points="47.15 36 36.56 30.25 36.81 30.15 47.4 35.91 47.15 36"/><path class="cls-3" d="M48.29,40.3,37.71,34.54a3.17,3.17,0,0,1-.62-.41,2.94,2.94,0,0,1-.32-3.91L47.35,36a3,3,0,0,0,.32,3.92A4.76,4.76,0,0,0,48.29,40.3Z"/><path class="cls-2" d="M46.54,36.15,36,30.39a2.3,2.3,0,0,0,.6-.15L47.15,36A2.27,2.27,0,0,1,46.54,36.15Z"/><path class="cls-3" d="M46.11,34.06,35.53,28.31a.78.78,0,0,0,.46.08l.18-.05L46.76,34.1a.58.58,0,0,1-.18,0A.69.69,0,0,1,46.11,34.06Z"/><polygon class="cls-2" points="41.62 42.63 31.03 36.88 31.03 36.53 41.62 42.29 41.62 42.63"/><path class="cls-2" d="M41.62,42.29,31,36.53l.31,0c2.39-.33,4.3-2.94,4.62-6.11l10.58,5.76c-.32,3.17-2.23,5.78-4.61,6.11Z"/><path class="cls-3" d="M41.63,17.25a.7.7,0,0,0-.33-.59l10.59,5.76a.67.67,0,0,1,.32.59Z"/><path class="cls-2" d="M42.3,14.82l10.59,5.76a2.39,2.39,0,0,1,1.18,2.09L43.48,16.91A2.39,2.39,0,0,0,42.3,14.82Z"/><path class="cls-4" d="M46.11,34.06,35.53,28.31a.59.59,0,0,1-.31-.64L45.8,33.43A.58.58,0,0,0,46.11,34.06Z"/><path class="cls-3" d="M31.34,34.49c1.54-.21,2.8-2.34,2.8-4.74l10.59,5.76c0,2.4-1.26,4.53-2.8,4.74Z"/><path class="cls-4" d="M47,30.15,36.36,24.39a.82.82,0,0,1,.41.05L47.36,30.2A.74.74,0,0,0,47,30.15Z"/><polygon class="cls-4" points="45.8 33.43 35.22 27.67 35.67 25.01 46.26 30.77 45.8 33.43"/><path class="cls-4" d="M46.25,30.77,35.67,25a.81.81,0,0,1,.69-.62L47,30.15A.81.81,0,0,0,46.25,30.77Z"/><path class="cls-4" d="M47,30.15a.74.74,0,0,1,.41.05l3.11,1.34a.66.66,0,0,1-.14,1.24L46.76,34.1a.58.58,0,0,1-.18,0,.64.64,0,0,1-.78-.71l.45-2.66A.81.81,0,0,1,47,30.15Z"/><path class="cls-4" d="M41.3,16.66l10.59,5.76-.12-.05a3,3,0,0,0-1.18-.06L40,16.55a3,3,0,0,1,1.18.06Z"/><path class="cls-3" d="M30.23,34.29a1.78,1.78,0,0,0,1.11.2l10.59,5.76a1.76,1.76,0,0,1-1.11-.2Z"/><path d="M41.39,38.45,30.81,32.69a1,1,0,0,0,.62.11L42,38.56A1.06,1.06,0,0,1,41.39,38.45Z"/><path class="cls-2" d="M37.33,45.78,26.75,40a2.33,2.33,0,0,0,1.49.26A3.47,3.47,0,0,0,31,36.88l10.59,5.75A3.47,3.47,0,0,1,38.82,46,2.34,2.34,0,0,1,37.33,45.78Z"/><path class="cls-3" d="M38.33,44,27.74,38.19a.84.84,0,0,0,.5.08,1.15,1.15,0,0,0,.93-1.13L39.76,42.9A1.15,1.15,0,0,1,38.83,44,.83.83,0,0,1,38.33,44Z"/><path d="M38.33,44,27.74,38.19a.88.88,0,0,1-.43-.79L37.9,43.16A.89.89,0,0,0,38.33,44Z"/><polygon class="cls-3" points="39.76 42.9 29.17 37.14 29.18 33.18 39.77 38.94 39.76 42.9"/><path d="M40.82,40.05,30.23,34.29a2.82,2.82,0,0,1-1.05-1.11l10.59,5.76A2.69,2.69,0,0,0,40.82,40.05Z"/><path class="cls-3" d="M34.14,29.75A4.2,4.2,0,0,0,32.48,26l10.58,5.75a4.21,4.21,0,0,1,1.67,3.76Z"/><path d="M32.08,27.57l10.59,5.76a2.62,2.62,0,0,1,1,2.33c0,1.48-.74,2.78-1.65,2.9L31.43,32.8c.91-.12,1.65-1.42,1.65-2.9A2.6,2.6,0,0,0,32.08,27.57Z"/><path class="cls-3" d="M44.54,30.23,34,24.47a3.05,3.05,0,0,1,2.41-2.08,3.16,3.16,0,0,1,.32,0l10.58,5.76-.32,0A3.05,3.05,0,0,0,44.54,30.23Z"/><path class="cls-4" d="M47.6,25.21,37,19.45a.89.89,0,0,1,.07-1.08A5,5,0,0,1,40,16.55l10.59,5.76a5,5,0,0,0-2.91,1.82A.89.89,0,0,0,47.6,25.21Z"/><path class="cls-4" d="M50.59,22.31a3,3,0,0,1,1.18.06.64.64,0,0,1,.44.64l.21,6.37a.84.84,0,0,1-.64.88.46.46,0,0,1-.46-.2L47.6,25.21a.89.89,0,0,1,.08-1.08A5,5,0,0,1,50.59,22.31Z"/><polygon class="cls-3" points="47.26 28.12 36.68 22.36 35.53 20.87 46.11 26.63 47.26 28.12"/><path class="cls-2" d="M33.47,24.16l10.59,5.75c.16.1.32.2.48.32L34,24.47A3,3,0,0,0,33.47,24.16Z"/><path class="cls-3" d="M31.44,27.45a1.07,1.07,0,0,1,.64.12l10.59,5.76a1.09,1.09,0,0,0-.64-.12Z"/><path class="cls-3" d="M30.81,32.69a2.63,2.63,0,0,1-1-2.33l10.59,5.76a2.64,2.64,0,0,0,1,2.33Z"/><path class="cls-3" d="M37.33,45.78,26.75,40a2.61,2.61,0,0,1-1.3-2.36L36,43.42A2.6,2.6,0,0,0,37.33,45.78Z"/><polygon class="cls-3" points="36.04 43.42 25.45 37.66 25.45 37.49 36.04 43.25 36.04 43.42"/><polygon class="cls-3" points="39.78 33.48 29.19 27.71 29.19 27.1 39.78 32.86 39.78 33.48"/><path class="cls-3" d="M29.8,30.36c0-1.48.74-2.78,1.64-2.91L42,33.21c-.9.13-1.64,1.43-1.64,2.91Z"/><path class="cls-3" d="M42,33.21c.91-.12,1.64,1,1.64,2.45s-.74,2.78-1.65,2.9-1.63-1-1.63-2.44S41.13,33.34,42,33.21Z"/><path d="M32.48,26l10.58,5.75a1.78,1.78,0,0,0-1.11-.2L31.36,25.79A1.75,1.75,0,0,1,32.48,26Z"/><path class="cls-3" d="M42.3,14.82l10.59,5.76a2.08,2.08,0,0,0-.49-.19,4.75,4.75,0,0,0-1.8-.1,7,7,0,0,0-4.2,2.57,3.09,3.09,0,0,0-.29,3.77L35.53,20.87a3.08,3.08,0,0,1,.28-3.77A7,7,0,0,1,40,14.54a4.75,4.75,0,0,1,1.8.09A2.08,2.08,0,0,1,42.3,14.82Z"/><path d="M39.78,33.47,29.19,27.72a3.12,3.12,0,0,1,2.17-1.93L42,31.55A3.13,3.13,0,0,0,39.78,33.47Z"/><polygon points="37.9 43.16 27.31 37.4 27.33 27.36 37.92 33.12 37.9 43.16"/><path class="cls-3" d="M24.38,36a1.2,1.2,0,0,0,.45-.93l10.59,5.76a1.17,1.17,0,0,1-.46.93Z"/><path class="cls-3" d="M28.76,26.31l10.59,5.76a.87.87,0,0,1,.43.79L29.19,27.1A.87.87,0,0,0,28.76,26.31Z"/><path class="cls-2" d="M33,43.72,22.42,38a2.42,2.42,0,0,0,1.48.26,3.14,3.14,0,0,0,1.55-.73L36,43.25a3.07,3.07,0,0,1-1.56.72A2.38,2.38,0,0,1,33,43.72Z"/><path d="M28.76,26.31l10.59,5.76a.85.85,0,0,0-.5-.09,1.16,1.16,0,0,0-.93,1.14L27.33,27.36a1.16,1.16,0,0,1,.93-1.14A.82.82,0,0,1,28.76,26.31Z"/><polygon class="cls-3" points="35.42 40.83 24.83 35.07 24.85 25.03 35.44 30.79 35.42 40.83"/><polygon points="33.56 41.09 22.97 35.33 22.99 25.29 33.58 31.05 33.56 41.09"/><path class="cls-3" d="M24.38,36,35,41.76a1.05,1.05,0,0,1-.47.21.82.82,0,0,1-.5-.09L23.4,36.12a.85.85,0,0,0,.5.09A1.09,1.09,0,0,0,24.38,36Z"/><path class="cls-3" d="M33.47,24.16l10.59,5.75A3.37,3.37,0,0,0,42,29.54a4.08,4.08,0,0,0-1.68.66L29.69,24.44a4.12,4.12,0,0,1,1.67-.66A3.3,3.3,0,0,1,33.47,24.16Z"/><path d="M34,41.88,23.4,36.12a.87.87,0,0,1-.43-.79l10.59,5.76A.87.87,0,0,0,34,41.88Z"/><path class="cls-3" d="M33,43.72,22.42,38a2.45,2.45,0,0,1-1.06-1.16L32,42.56A2.43,2.43,0,0,0,33,43.72Z"/><polygon class="cls-2" points="37.3 30.71 26.71 24.95 26.71 24.77 37.3 30.53 37.3 30.71"/><path class="cls-3" d="M37.3,30.71,26.71,25a3,3,0,0,1,1.56-.73,2.35,2.35,0,0,1,1.42.22L40.27,30.2A2.4,2.4,0,0,0,38.85,30,3,3,0,0,0,37.3,30.71Z"/><path class="cls-2" d="M25.7,44.39,15.12,38.63a4.17,4.17,0,0,0,2.58.46,5.78,5.78,0,0,0,3.66-2.29L32,42.56a5.77,5.77,0,0,1-3.67,2.29A4.18,4.18,0,0,1,25.7,44.39Z"/><path class="cls-3" d="M19.36,36.3a4.32,4.32,0,0,0,.87-1l10.59,5.76a4.53,4.53,0,0,1-.87,1Z"/><path class="cls-3" d="M18.59,36.81a3.43,3.43,0,0,0,.77-.51L30,42.06a3.88,3.88,0,0,1-.77.5Z"/><path class="cls-3" d="M20.23,35.29a1,1,0,0,0-.16-1.38l10.58,5.76a1,1,0,0,1,.17,1.38Z"/><path class="cls-3" d="M20.07,33.91l-.07,0,10.58,5.76.07,0-5.29-2.88-.7-.38-4-2.17C20.49,34.14,20.24,34,20.07,33.91Z"/><path class="cls-3" d="M20.85,32.24a1.15,1.15,0,0,0,.2-.84l10.59,5.76a1.2,1.2,0,0,1-.2.84Z"/><path class="cls-3" d="M30.73,38.46,20.14,32.7a1.1,1.1,0,0,0,.71-.46L31.44,38A1.1,1.1,0,0,1,30.73,38.46Z"/><path class="cls-3" d="M17.7,37.08a3.25,3.25,0,0,0,.89-.27l10.59,5.75a3,3,0,0,1-.89.28Z"/><path class="cls-3" d="M24.42,24.25,35,30a.89.89,0,0,1,.43.79L24.85,25A.86.86,0,0,0,24.42,24.25Z"/><path class="cls-2" d="M25.42,22.41,36,28.17a2.61,2.61,0,0,1,1.3,2.36L26.71,24.77A2.6,2.6,0,0,0,25.42,22.41Z"/><path class="cls-3" d="M17.36,37.11l.34,0,10.59,5.76-.35,0Z"/><path class="cls-3" d="M21.05,31.4a4.27,4.27,0,0,0-.66-1.74L31,35.42a4.36,4.36,0,0,1,.66,1.74Z"/><path d="M34.51,29.92a.82.82,0,0,1,.93.87l0,10A1.16,1.16,0,0,1,34.49,42a.82.82,0,0,1-.93-.88l0-10A1.15,1.15,0,0,1,34.51,29.92Z"/><path d="M33.58,31.05,23,25.29a1.15,1.15,0,0,1,.93-1.13l10.59,5.76A1.15,1.15,0,0,0,33.58,31.05Z"/><path class="cls-3" d="M16.29,36.89a2.73,2.73,0,0,0,1.07.22l10.58,5.75a2.54,2.54,0,0,1-1.06-.21Z"/><path class="cls-3" d="M16.1,36.79l.19.1,10.59,5.76-.2-.1Z"/><path d="M27.67,40.71,17.08,35a1,1,0,0,0,.62.12,1.64,1.64,0,0,0,1.06-.79,1.06,1.06,0,0,1,.74-.49.8.8,0,0,1,.5.08l10.58,5.76a.83.83,0,0,0-.49-.09,1.09,1.09,0,0,0-.74.5,1.67,1.67,0,0,1-1.06.79A1,1,0,0,1,27.67,40.71Z"/><path class="cls-3" d="M17.08,35a1.36,1.36,0,0,1-.31-.24l10.59,5.76a1.18,1.18,0,0,0,.31.24Z"/><path class="cls-3" d="M20.39,29.66a3.61,3.61,0,0,0-.6-.68l10.58,5.76a3.33,3.33,0,0,1,.61.68l-5.3-2.88-1.38-.76-.69-.37L22.94,31l-.67-.36L21,30A3,3,0,0,1,20.39,29.66Z"/><polygon class="cls-3" points="31.71 33.16 21.13 27.4 21.13 25.56 31.72 31.32 31.71 33.16"/><path class="cls-3" d="M19.79,29a2.94,2.94,0,0,0-.47-.31l10.59,5.76a2.85,2.85,0,0,1,.46.31l-5.29-2.88-1.39-.75L23,30.74,21.67,30l-1.28-.69C20.21,29.22,20,29.1,19.79,29Z"/><path d="M18.56,29.84,29.15,35.6c.75.41.83,1.56.84,1.64L19.4,31.48C19.39,31.4,19.31,30.25,18.56,29.84Z"/><polygon class="cls-3" points="26.76 39.04 16.18 33.28 20.14 32.7 30.73 38.46 26.76 39.04"/><path class="cls-3" d="M16.77,34.71a2.41,2.41,0,0,1-.59-1.43L26.76,39a2.36,2.36,0,0,0,.6,1.43l-5.3-2.88-.69-.38-2.72-1.47L18,35.38A9.89,9.89,0,0,1,16.77,34.71Z"/><path class="cls-3" d="M18.56,29.84,29.15,35.6a1.34,1.34,0,0,0-.85-.13L17.71,29.71A1.34,1.34,0,0,1,18.56,29.84Z"/><polygon points="26.61 37.72 16.02 31.96 19.4 31.48 29.99 37.23 26.61 37.72"/><polygon class="cls-2" points="23.14 44.69 12.56 38.93 13.25 36.75 23.84 42.51 23.14 44.69"/><path class="cls-3" d="M25.7,44.39,15.12,38.63a4.83,4.83,0,0,1-1.87-1.88l10.59,5.76A4.87,4.87,0,0,0,25.7,44.39Z"/><path class="cls-3" d="M26.61,37.72,16,32c0-.1.15-2,1.69-2.25L28.3,35.47C26.75,35.69,26.62,37.62,26.61,37.72Z"/><path d="M26.68,42.55,16.1,36.79a3.94,3.94,0,0,1-1.8-3.59c0-2.39,1.53-4.56,3.42-4.82a2.58,2.58,0,0,1,1.6.29l10.59,5.76a2.6,2.6,0,0,0-1.61-.29c-1.88.26-3.41,2.43-3.41,4.82A4,4,0,0,0,26.68,42.55Z"/><polygon class="cls-3" points="21.4 44.26 10.81 38.51 13.63 29.62 24.22 35.38 21.4 44.26"/><path class="cls-2" d="M19.34,48.11,8.76,42.35a4.89,4.89,0,0,0,3.8-3.42l10.58,5.76A4.86,4.86,0,0,1,19.34,48.11Z"/><polygon class="cls-2" points="18.36 48.25 7.77 42.49 8.76 42.35 19.34 48.11 18.36 48.25"/><polygon points="19.64 43.83 9.05 38.07 9.53 36.6 20.11 42.36 19.64 43.83"/><path class="cls-3" d="M8.76,40.34a2.66,2.66,0,0,0,2.05-1.84L21.4,44.26a2.67,2.67,0,0,1-2,1.84Z"/><path class="cls-3" d="M20.31,26.83,30.9,32.59a4.16,4.16,0,0,0-2.59-.46,5.28,5.28,0,0,0-2.58,1.17L15.14,27.55a5.2,5.2,0,0,1,2.58-1.18A4.13,4.13,0,0,1,20.31,26.83Z"/><polygon class="cls-3" points="18.36 46.24 7.78 40.48 8.76 40.34 19.35 46.1 18.36 46.24"/><path d="M19.35,44.09,8.76,38.33a.34.34,0,0,0,.29-.26l10.59,5.76A.35.35,0,0,1,19.35,44.09Z"/><path class="cls-2" d="M16.87,48,6.28,42.23a2.34,2.34,0,0,0,1.49.26l10.59,5.76A2.33,2.33,0,0,1,16.87,48Z"/><path class="cls-3" d="M7.28,40.4a.82.82,0,0,0,.5.08l10.58,5.76a.74.74,0,0,1-.49-.09Z"/><path class="cls-3" d="M13.63,29.62a.93.93,0,0,0-.37-1.12l10.58,5.76a.92.92,0,0,1,.38,1.12Z"/><path class="cls-2" d="M14.23,26.64,24.82,32.4a2.38,2.38,0,0,1,.91.9L15.14,27.55A2.41,2.41,0,0,0,14.23,26.64Z"/><polygon points="18.37 44.23 7.78 38.47 8.76 38.34 19.35 44.09 18.37 44.23"/><path d="M13.26,28.5l10.58,5.76a.54.54,0,0,0-.19-.08.81.81,0,0,0-.31,0L12.75,28.41a.87.87,0,0,1,.32,0A.77.77,0,0,1,13.26,28.5Z"/><path d="M17.87,46.15,7.28,40.4a.89.89,0,0,1-.43-.79,1.16,1.16,0,0,1,.93-1.14l10.59,5.76a1.16,1.16,0,0,0-.93,1.14A.86.86,0,0,0,17.87,46.15Z"/><polygon points="20.95 39.71 10.36 33.95 11.88 29.19 22.46 34.95 20.95 39.71"/><polygon class="cls-3" points="20.6 34.88 10.02 29.13 10.13 28.76 20.71 34.52 20.6 34.88"/><path d="M22.46,35,11.88,29.19a1.12,1.12,0,0,1,.87-.78l10.59,5.76A1.12,1.12,0,0,0,22.46,35Z"/><polygon class="cls-2" points="20.6 34.88 10.02 29.13 9.62 28.4 20.21 34.16 20.6 34.88"/><path class="cls-3" d="M20.72,34.52,10.13,28.76a3.36,3.36,0,0,1,2.63-2.36,2.47,2.47,0,0,1,.94,0L24.29,32.2a2.68,2.68,0,0,0-.94-.05A3.39,3.39,0,0,0,20.72,34.52Z"/><polygon class="cls-3" points="20.95 39.71 10.36 33.95 7.99 29.59 18.58 35.35 20.95 39.71"/><path class="cls-3" d="M8,29.59a.77.77,0,0,0-.31-.31L18.27,35a.84.84,0,0,1,.31.31C15.4,33.63,10.55,32.15,8,29.59Z"/><path class="cls-2" d="M8.67,27.44,19.26,33.2a2.37,2.37,0,0,1,.95,1L9.62,28.4A2.37,2.37,0,0,0,8.67,27.44Z"/><polygon points="20.11 42.36 9.53 36.6 6.36 30.8 16.95 36.55 20.11 42.36"/><path d="M7.68,29.28,18.27,35a.88.88,0,0,0-.51-.09,1,1,0,0,0-.45.19A1.13,1.13,0,0,0,17,36.55L6.36,30.8a1.14,1.14,0,0,1,.37-1.42.89.89,0,0,1,.45-.19A.86.86,0,0,1,7.68,29.28Z"/><path class="cls-3" d="M58.7,31.57a2.27,2.27,0,0,1,1,1.42,3.2,3.2,0,0,1-.5,2.54l-1.57,2.26a3,3,0,0,1-2,1.3,2.16,2.16,0,0,1-1.8-.53,3.63,3.63,0,0,1-.59,1.18,3,3,0,0,1-1.89,1.16l-.27,0a5.19,5.19,0,0,1-3.47-1A3,3,0,0,1,47.35,36l-.2,0a2.4,2.4,0,0,1-.57.15c-.36,3.17-2.27,5.78-4.65,6.11l-.31,0v.34A3.47,3.47,0,0,1,38.82,46,2.46,2.46,0,0,1,36,43.42v-.17a3.07,3.07,0,0,1-1.56.72A2.35,2.35,0,0,1,32,42.56a5.77,5.77,0,0,1-3.67,2.29,4.36,4.36,0,0,1-4.44-2.34l-.7,2.18a4.86,4.86,0,0,1-3.8,3.42l-1,.14a2.46,2.46,0,0,1-2.78-2.62,3.53,3.53,0,0,1,2.25-3.27l-2.52-4.61a3.45,3.45,0,0,1,1.11-4.25,3,3,0,0,1,1.34-.56,2.37,2.37,0,0,1,2.45,1.22l.39.72.12-.36a3.39,3.39,0,0,1,2.63-2.37,2.68,2.68,0,0,1,.94.05,2.32,2.32,0,0,1,1.44,1.1,5.28,5.28,0,0,1,2.58-1.17,4.15,4.15,0,0,1,3.4,1V31.32a3.46,3.46,0,0,1,2.79-3.41,2.47,2.47,0,0,1,2.79,2.62v.18A3,3,0,0,1,38.85,30a2.4,2.4,0,0,1,1.42.23A4.08,4.08,0,0,1,42,29.54a3.35,3.35,0,0,1,2.59.69,3.05,3.05,0,0,1,2.4-2.08l.32,0-1.15-1.49a3.09,3.09,0,0,1,.29-3.77,7,7,0,0,1,4.2-2.57,4.75,4.75,0,0,1,1.8.1,2.3,2.3,0,0,1,1.67,2.28l.09,2.66A2.78,2.78,0,0,1,56,24.24,2.08,2.08,0,0,1,58.1,25.3l1.42,2.5a2.94,2.94,0,0,1,.07,2.56A3.29,3.29,0,0,1,58.7,31.57ZM24.22,35.38a.9.9,0,0,0-.57-1.2.81.81,0,0,0-.31,0,1.12,1.12,0,0,0-.88.78L21,39.71l-2.37-4.36a.81.81,0,0,0-.82-.4,1,1,0,0,0-.45.19A1.13,1.13,0,0,0,17,36.55l3.16,5.81-.47,1.47a.35.35,0,0,1-.29.26l-1,.14a1.16,1.16,0,0,0-.93,1.14.82.82,0,0,0,.92.87l1-.14a2.67,2.67,0,0,0,2-1.84l2.82-8.88m17.71,4.87c1.54-.21,2.79-2.34,2.8-4.74s-1.24-4.18-2.78-4a3.13,3.13,0,0,0-2.17,1.92v-.61a.83.83,0,0,0-.93-.88,1.16,1.16,0,0,0-.93,1.14l0,10a.82.82,0,0,0,.93.87,1.15,1.15,0,0,0,.93-1.13v-4a2.16,2.16,0,0,0,2.16,1.31M31.44,38a1.2,1.2,0,0,0,.2-.84c-.31-2-1.71-3.25-3.34-3-1.88.26-3.41,2.43-3.41,4.82s1.52,4.14,3.4,3.88a3.74,3.74,0,0,0,2.53-1.79,1,1,0,0,0-.17-1.38.85.85,0,0,0-.56-.13,1.09,1.09,0,0,0-.74.5,1.67,1.67,0,0,1-1.06.79c-.76.11-1.42-.69-1.53-1.79l4-.58a1.1,1.1,0,0,0,.71-.46m20.34-7.74a.84.84,0,0,0,.64-.88L52.21,23a.64.64,0,0,0-.44-.64,3,3,0,0,0-1.18-.06,5,5,0,0,0-2.91,1.82.89.89,0,0,0-.08,1.08l3.72,4.85a.46.46,0,0,0,.46.2m6,4.2a.72.72,0,0,0-.31-1.14l-3.12-.79a.76.76,0,0,0-.26,0,.87.87,0,0,0-.64,1.19L55,36.76a.62.62,0,0,0,.65.32.84.84,0,0,0,.56-.36l1.57-2.26m-.37-4.3A.83.83,0,0,0,57.9,29l-1.42-2.5a.5.5,0,0,0-.53-.27.7.7,0,0,0-.52.38l-1.91,3.52c-.28.53,0,1.11.52,1l.09,0,3.32-1m-22,10.67,0-10a.82.82,0,0,0-.93-.87,1.15,1.15,0,0,0-.93,1.13l0,10a.82.82,0,0,0,.93.88,1.16,1.16,0,0,0,.93-1.14M46.76,34.1l3.57-1.32a.66.66,0,0,0,.14-1.24L47.36,30.2a.74.74,0,0,0-.41-.05.81.81,0,0,0-.7.62l-.45,2.66a.64.64,0,0,0,.78.71.58.58,0,0,0,.18,0m5.4,3.82v-3.6a.68.68,0,0,0-.76-.75.84.84,0,0,0-.57.39l-2,3a.92.92,0,0,0,.08,1.2,3.64,3.64,0,0,0,2.44.68h.08a1,1,0,0,0,.74-1"/><path class="cls-2" d="M20.31,26.83,30.9,32.59a4.55,4.55,0,0,1,.81.57L21.13,27.4A5,5,0,0,0,20.31,26.83Z"/><path class="cls-3" d="M25.42,22.41,36,28.17a2.33,2.33,0,0,0-1.49-.26,3.46,3.46,0,0,0-2.79,3.41L21.13,25.56a3.47,3.47,0,0,1,2.8-3.41A2.36,2.36,0,0,1,25.42,22.41Z"/><path class="cls-3" d="M28.3,35.47c1.55-.21,1.68,1.67,1.69,1.77l-3.38.48C26.62,37.62,26.75,35.69,28.3,35.47Z"/><path d="M31.64,37.16a1.2,1.2,0,0,1-.2.84,1.1,1.1,0,0,1-.71.46l-4,.58c.11,1.1.77,1.9,1.53,1.79A1.67,1.67,0,0,0,29.35,40a1.09,1.09,0,0,1,.74-.5.85.85,0,0,1,.56.13,1,1,0,0,1,.17,1.38,3.74,3.74,0,0,1-2.53,1.79c-1.88.26-3.41-1.47-3.4-3.88s1.53-4.56,3.41-4.82C29.93,33.91,31.33,35.18,31.64,37.16Zm-5,.56L30,37.24c0-.1-.14-2-1.69-1.77s-1.68,2.15-1.69,2.25"/><path class="cls-3" d="M14.23,26.64,24.82,32.4a3.05,3.05,0,0,0-.53-.2L13.7,26.44A2.77,2.77,0,0,1,14.23,26.64Z"/><path class="cls-3" d="M16.87,48,6.28,42.23A2.6,2.6,0,0,1,5,39.87,3.53,3.53,0,0,1,7.24,36.6l10.59,5.76a3.53,3.53,0,0,0-2.25,3.27A2.58,2.58,0,0,0,16.87,48Z"/><path d="M23.34,34.17a.81.81,0,0,1,.31,0,.9.9,0,0,1,.57,1.2L21.4,44.26a2.67,2.67,0,0,1-2,1.84l-1,.14a.82.82,0,0,1-.92-.87,1.16,1.16,0,0,1,.93-1.14l1-.14a.35.35,0,0,0,.29-.26l.47-1.47L17,36.55a1.13,1.13,0,0,1,.36-1.41,1,1,0,0,1,.45-.19.81.81,0,0,1,.82.4L21,39.71,22.46,35A1.12,1.12,0,0,1,23.34,34.17Z"/><polygon class="cls-3" points="17.83 42.36 7.24 36.6 4.72 31.99 15.31 37.75 17.83 42.36"/><path class="cls-3" d="M8.67,27.44,19.26,33.2a2.39,2.39,0,0,0-1.5-.26,3,3,0,0,0-1.34.56,3.45,3.45,0,0,0-1.11,4.25L4.72,32a3.44,3.44,0,0,1,1.12-4.24,2.94,2.94,0,0,1,1.34-.57A2.36,2.36,0,0,1,8.67,27.44Z"/><path class="cls-5" d="M53.47,5.84c4.79-.67,8.67,3,8.66,8.15l-.06,34.8c0,5.18-3.91,9.92-8.7,10.6L21.12,63.92c-4.8.67-8.67-3-8.67-8.15L12.52,21c0-5.17,3.9-9.91,8.7-10.59ZM59.75,33a2.27,2.27,0,0,0-1-1.42,3.29,3.29,0,0,0,.89-1.21,2.94,2.94,0,0,0-.07-2.56L58.1,25.3A2.08,2.08,0,0,0,56,24.24a2.78,2.78,0,0,0-1.79,1.09l-.09-2.66a2.3,2.3,0,0,0-1.67-2.28,4.75,4.75,0,0,0-1.8-.1,7,7,0,0,0-4.2,2.57,3.09,3.09,0,0,0-.29,3.77l1.15,1.49-.32,0a3.05,3.05,0,0,0-2.4,2.08A3.35,3.35,0,0,0,42,29.54a4.08,4.08,0,0,0-1.68.66A2.4,2.4,0,0,0,38.85,30a3,3,0,0,0-1.55.74v-.18a2.47,2.47,0,0,0-2.79-2.62,3.46,3.46,0,0,0-2.79,3.41v1.84a4.15,4.15,0,0,0-3.4-1,5.28,5.28,0,0,0-2.58,1.17,2.32,2.32,0,0,0-1.44-1.1,2.68,2.68,0,0,0-.94-.05,3.39,3.39,0,0,0-2.63,2.37l-.12.36-.39-.72a2.37,2.37,0,0,0-2.45-1.22,3,3,0,0,0-1.34.56,3.45,3.45,0,0,0-1.11,4.25l2.52,4.61a3.53,3.53,0,0,0-2.25,3.27,2.46,2.46,0,0,0,2.78,2.62l1-.14a4.86,4.86,0,0,0,3.8-3.42l.7-2.18a4.36,4.36,0,0,0,4.44,2.34A5.77,5.77,0,0,0,32,42.56,2.35,2.35,0,0,0,34.48,44,3.07,3.07,0,0,0,36,43.25v.17A2.46,2.46,0,0,0,38.82,46a3.47,3.47,0,0,0,2.8-3.41v-.34l.31,0c2.38-.33,4.29-2.94,4.61-6.11a2.27,2.27,0,0,0,.61-.15l.25-.09a3,3,0,0,0,.27,4,5.19,5.19,0,0,0,3.47,1l.27,0a3,3,0,0,0,1.89-1.16,3.63,3.63,0,0,0,.59-1.18,2.16,2.16,0,0,0,1.8.53,3,3,0,0,0,2-1.3l1.57-2.26a3.2,3.2,0,0,0,.5-2.54"/><path d="M42,31.55c1.54-.22,2.78,1.56,2.78,4s-1.26,4.53-2.8,4.74a2.16,2.16,0,0,1-2.16-1.31v4A1.15,1.15,0,0,1,38.83,44a.82.82,0,0,1-.93-.87l0-10A1.16,1.16,0,0,1,38.85,32a.83.83,0,0,1,.93.88v.61A3.13,3.13,0,0,1,42,31.55Zm.07,7c.91-.12,1.65-1.42,1.65-2.9s-.73-2.57-1.64-2.45-1.64,1.43-1.64,2.91.73,2.57,1.63,2.44"/><path class="cls-6" d="M47.51.88a7.42,7.42,0,0,0-4.63-.8L10.63,4.61c-4.8.68-8.69,5.42-8.7,10.6L1.87,50a8.12,8.12,0,0,0,4,7.35l10.59,5.76a8.12,8.12,0,0,1-4-7.35L12.52,21c0-5.17,3.9-9.91,8.7-10.59L53.47,5.84a7.42,7.42,0,0,1,4.63.8Z"/></g></g></svg>