<?xml version="1.0" ?><svg viewBox="0 0 64 64" xmlns="http://www.w3.org/2000/svg"><defs><style>.cls-1{isolation:isolate;}.cls-2{fill:#d6314e;}.cls-3{fill:#fff;}.cls-4{fill:#a0314e;}</style></defs><title/><g data-name="35-ask-fm" id="_35-ask-fm"><g class="cls-1"><polygon class="cls-2" points="55.12 37.1 44.53 31.34 45.77 31.17 56.36 36.93 55.12 37.1"/><polygon class="cls-2" points="56.36 36.93 45.77 31.17 46.4 25.73 56.99 31.49 56.36 36.93"/><polygon class="cls-3" points="55.12 37.1 44.53 31.34 45.16 25.91 55.74 31.67 55.12 37.1"/><path class="cls-2" d="M46.4,25.73c0-.07,0-1.16-.57-1.47L56.42,30c.57.31.57,1.4.57,1.47Z"/><path class="cls-3" d="M45,25.78l10.59,5.76.17.13L45.16,25.91Z"/><polygon class="cls-2" points="52.33 37.5 41.74 31.74 42.98 31.56 53.57 37.32 52.33 37.5"/><polygon class="cls-2" points="53.57 37.32 42.98 31.56 43.61 26.13 54.2 31.89 53.57 37.32"/><path class="cls-2" d="M45,25.78l10.59,5.76a.92.92,0,0,0-.51-.08,1.91,1.91,0,0,0-.87.43L43.61,26.13a1.91,1.91,0,0,1,.87-.43A.9.9,0,0,1,45,25.78Z"/><path class="cls-3" d="M45.83,24.26,56.42,30A.73.73,0,0,0,56,30a2.92,2.92,0,0,0-1.44.89L43.92,25.08a2.92,2.92,0,0,1,1.44-.89A.72.72,0,0,1,45.83,24.26Z"/><path class="cls-2" d="M43.63,24.83l10.59,5.76a.85.85,0,0,1,.29.25L43.92,25.08A.85.85,0,0,0,43.63,24.83Z"/><polygon class="cls-3" points="52.33 37.5 41.74 31.74 42.37 26.3 52.95 32.06 52.33 37.5"/><path class="cls-3" d="M42.2,26.18l10.59,5.76a.83.83,0,0,1,.16.12L42.37,26.3A.88.88,0,0,0,42.2,26.18Z"/><polygon class="cls-2" points="49.54 37.89 38.95 32.13 40.19 31.95 50.78 37.72 49.54 37.89"/><polygon class="cls-3" points="51.41 31.27 40.82 25.51 41.44 25.09 52.03 30.85 51.41 31.27"/><path class="cls-2" d="M42.2,26.18l10.59,5.76a.77.77,0,0,0-.51-.08,1.83,1.83,0,0,0-.87.42L40.82,26.52a1.83,1.83,0,0,1,.87-.42A.77.77,0,0,1,42.2,26.18Z"/><polygon class="cls-2" points="50.78 37.72 40.19 31.95 40.82 26.52 51.41 32.28 50.78 37.72"/><path class="cls-3" d="M43.63,24.83l10.59,5.76a1.63,1.63,0,0,0-1-.13,3.7,3.7,0,0,0-1.17.39L41.44,25.09a3.7,3.7,0,0,1,1.17-.39A1.62,1.62,0,0,1,43.63,24.83Z"/><polygon class="cls-2" points="51.41 31.27 40.82 25.51 40.82 25.18 51.41 30.94 51.41 31.27"/><polygon class="cls-3" points="49.54 37.89 38.95 32.13 39.58 26.69 50.16 32.45 49.54 37.89"/><path class="cls-3" d="M39.38,26.55,50,32.31a.85.85,0,0,1,.19.14L39.57,26.69A.85.85,0,0,0,39.38,26.55Z"/><path class="cls-2" d="M39.38,26.55,50,32.31a.65.65,0,0,0-.4-.07,1.07,1.07,0,0,0-.64.39L38.34,26.87a1.07,1.07,0,0,1,.64-.39A.65.65,0,0,1,39.38,26.55Z"/><path class="cls-2" d="M36.47,33.82c1.23-1.52,1.87-5.62,1.87-6.95l10.59,5.76c0,1.33-.64,5.43-1.88,6.95a1.92,1.92,0,0,1-1.2.74,1,1,0,0,1-.6-.08L34.66,34.48a1,1,0,0,0,.6.08A2,2,0,0,0,36.47,33.82Z"/><polygon class="cls-2" points="50.79 29.68 40.2 23.92 40.21 22.59 50.8 28.35 50.79 29.68"/><polygon class="cls-3" points="48.93 31.29 38.34 25.52 40.82 25.18 51.41 30.94 48.93 31.29"/><polygon class="cls-2" points="46.44 32.98 35.85 27.22 37.1 27.04 47.69 32.8 46.44 32.98"/><path class="cls-3" d="M45.25,40.24,34.66,34.48c-.37-.2-.35-.69.56-1.15,1.87-.94,1.88-6,1.88-6.29L47.68,32.8c0,.27,0,5.35-1.87,6.29C44.9,39.55,44.88,40,45.25,40.24Z"/><path class="cls-2" d="M40.2,23.92a2.4,2.4,0,0,1,.61.33l1.28.7L45.5,26.8l5.29,2.88c-.09,0-1.86.26-1.86,1.61L38.34,25.53C38.34,24.18,40.11,23.94,40.2,23.92Z"/><path class="cls-2" d="M43.43,38.61,32.84,32.85a1.34,1.34,0,0,0,.84.15,1.62,1.62,0,0,0,.86-.4A1.87,1.87,0,0,0,35,30.21L45.55,36a1.87,1.87,0,0,1-.42,2.39,1.65,1.65,0,0,1-.86.4A1.34,1.34,0,0,1,43.43,38.61Z"/><path class="cls-3" d="M43.43,38.61,32.84,32.85a1.32,1.32,0,0,1-.45-.4L43,38.21A1.23,1.23,0,0,0,43.43,38.61Z"/><polygon class="cls-3" points="46.44 32.98 35.85 27.22 35.86 25.88 46.45 31.64 46.44 32.98"/><polygon class="cls-3" points="46.45 31.64 35.86 25.88 37.1 25.7 47.69 31.46 46.45 31.64"/><path class="cls-3" d="M50.8,28.35v1.33c-.09,0-1.86.26-1.86,1.61l2.48-.35v.33l.62-.42a3.7,3.7,0,0,1,1.17-.39c1-.14,1.29.35,1.31.38A2.92,2.92,0,0,1,56,30c1-.15,1,1.46,1,1.54l-.63,5.44-1.24.18.63-5.44a.79.79,0,0,0-.68-.21,1.91,1.91,0,0,0-.87.43l-.63,5.43-1.24.18L53,32.06a.73.73,0,0,0-.67-.2,1.83,1.83,0,0,0-.87.42l-.63,5.44-1.24.17.62-5.44a.68.68,0,0,0-.59-.21,1.07,1.07,0,0,0-.64.39c0,1.33-.64,5.43-1.88,6.95a1.92,1.92,0,0,1-1.2.74c-.84.12-1.32-.59,0-1.23,1.87-.94,1.87-6,1.87-6.29L46.44,33V31.63l1.25-.17A3.2,3.2,0,0,1,50.8,28.35Z"/><path class="cls-3" d="M47.69,31.46,37.1,25.7a3.2,3.2,0,0,1,3.11-3.11L50.8,28.35A3.2,3.2,0,0,0,47.69,31.46Z"/><polygon class="cls-2" points="45.55 35.97 34.96 30.21 32.63 26.82 43.22 32.58 45.55 35.97"/><polygon class="cls-2" points="43.22 32.58 32.63 26.82 34.79 24.19 45.38 29.95 43.22 32.58"/><polygon class="cls-2" points="40.86 35.45 30.27 29.7 30.39 29.54 40.98 35.3 40.86 35.45"/><polygon class="cls-3" points="42.98 38.21 32.39 32.45 30.39 29.54 40.98 35.3 42.98 38.21"/><polygon class="cls-2" points="40.85 37.44 30.27 31.68 30.27 29.7 40.86 35.45 40.85 37.44"/><path class="cls-2" d="M34.79,21.83a1.35,1.35,0,0,0-.27-.2l10.59,5.76a1.35,1.35,0,0,1,.27.2,1.77,1.77,0,0,1,0,2.36L34.79,24.19A1.77,1.77,0,0,0,34.79,21.83Z"/><path class="cls-2" d="M38.47,39.19,27.89,33.43a1.33,1.33,0,0,0,.82.14,1.92,1.92,0,0,0,1.55-1.89l10.59,5.76a1.92,1.92,0,0,1-1.55,1.89A1.36,1.36,0,0,1,38.47,39.19Z"/><path class="cls-3" d="M34.52,21.63l10.59,5.76a1.37,1.37,0,0,0-.82-.14L33.7,21.49A1.37,1.37,0,0,1,34.52,21.63Z"/><path class="cls-3" d="M43.19,27.9,32.6,22.14a1.77,1.77,0,0,1,1.1-.65l10.59,5.76A1.77,1.77,0,0,0,43.19,27.9Z"/><path class="cls-3" d="M38.47,39.19,27.89,33.43a1.45,1.45,0,0,1-.72-1.32l10.59,5.76A1.46,1.46,0,0,0,38.47,39.19Z"/><polygon class="cls-3" points="40.87 30.72 30.28 24.96 32.6 22.14 43.19 27.9 40.87 30.72"/><polygon class="cls-2" points="40.87 30.72 30.28 24.96 30.28 23.65 40.87 29.41 40.87 30.72"/><path class="cls-2" d="M30.28,23.65a1.44,1.44,0,0,0-.72-1.31L40.15,28.1a1.44,1.44,0,0,1,.72,1.31Z"/><path class="cls-2" d="M22.46,34.58h0l10.59,5.76h0Z"/><polygon class="cls-3" points="37.76 37.88 27.17 32.12 27.18 24.08 37.77 29.84 37.76 37.88"/><path class="cls-2" d="M25.24,28.22,35.83,34a2.86,2.86,0,0,1,1.28,2.12,3.3,3.3,0,0,1-.69,2.33,5,5,0,0,1-3.35,1.9L22.53,34.6l10.54,5.73h0L22.48,34.57a5.06,5.06,0,0,0,3.36-1.9,3.35,3.35,0,0,0,.68-2.34A2.85,2.85,0,0,0,25.24,28.22Z"/><polygon class="cls-3" points="34.58 36.91 23.99 31.15 24.05 30.98 34.63 36.74 34.58 36.91"/><path class="cls-2" d="M25.24,28.22,25,28.09l10.59,5.76.21.13h0L25.24,28.22Z"/><path class="cls-3" d="M23.69,30.54,34.28,36.3l.09.06a.49.49,0,0,1,.26.38L24.05,31a.55.55,0,0,0-.26-.38Z"/><path class="cls-3" d="M29.56,22.34,40.15,28.1a1.35,1.35,0,0,0-.83-.15,1.93,1.93,0,0,0-1.55,1.89L27.18,24.08a1.94,1.94,0,0,1,1.55-1.89A1.35,1.35,0,0,1,29.56,22.34Z"/><path class="cls-3" d="M44.29,27.25a1.34,1.34,0,0,1,1.09.34,1.77,1.77,0,0,1,0,2.36l-2.16,2.63L45.55,36a1.87,1.87,0,0,1-.42,2.39,1.65,1.65,0,0,1-.86.4A1.32,1.32,0,0,1,43,38.21L41,35.3l-.12.16v2a1.92,1.92,0,0,1-1.55,1.89,1.37,1.37,0,0,1-1.54-1.46v-8A1.93,1.93,0,0,1,39.32,28a1.37,1.37,0,0,1,1.55,1.46v1.31l2.32-2.82A1.77,1.77,0,0,1,44.29,27.25Z"/><path class="cls-2" d="M26.16,24.39l10.58,5.76A1.38,1.38,0,0,1,36.82,32a1.4,1.4,0,0,1-.92.57,1.07,1.07,0,0,1-.66-.12L24.65,26.72a1.07,1.07,0,0,0,.66.12,1.49,1.49,0,0,0,.85-2.45Z"/><path class="cls-2" d="M26.16,24.39a5.1,5.1,0,0,0-.82-.55L35.93,29.6a4.61,4.61,0,0,1,.81.55h0L33.52,28.4l-7.36-4Z"/><path class="cls-3" d="M35.24,32.48,24.65,26.72l-.17-.11a2.27,2.27,0,0,0-.48-.33L34.59,32a2.56,2.56,0,0,1,.48.33Z"/><path class="cls-2" d="M19,34a5.74,5.74,0,0,0,3.46.61l10.59,5.76a5.73,5.73,0,0,1-3.46-.61Z"/><path class="cls-3" d="M30.92,37.28,20.33,31.52a3.49,3.49,0,0,0,2.15.37A2.31,2.31,0,0,0,24,31.15l10.59,5.76a2.33,2.33,0,0,1-1.51.74A3.49,3.49,0,0,1,30.92,37.28Z"/><path class="cls-2" d="M20.33,31.52a2.91,2.91,0,0,1-.46-.32L30.46,37a2.51,2.51,0,0,0,.46.32Z"/><path class="cls-2" d="M19.87,31.2l-.18-.12,10.59,5.76a1.88,1.88,0,0,1,.18.12l-5.29-2.88-4.69-2.54C20.3,31.44,20,31.32,19.87,31.2Z"/><path class="cls-2" d="M21.86,25.91a3.59,3.59,0,0,1,2.14.37L34.59,32a3.61,3.61,0,0,0-2.14-.37Z"/><path class="cls-2" d="M21.85,25.92h0l10.59,5.76h0Z"/><path class="cls-2" d="M29.84,35.21,19.25,29.45a6.54,6.54,0,0,0,2.64.72,4.66,4.66,0,0,1,1.8.37L34.28,36.3a4.66,4.66,0,0,0-1.8-.37A6.54,6.54,0,0,1,29.84,35.21Z"/><path class="cls-3" d="M31.15,32.76,20.56,27a4.57,4.57,0,0,0,1.82.47,6.37,6.37,0,0,1,2.65.62l10.59,5.76A6.41,6.41,0,0,0,33,33.23,4.53,4.53,0,0,1,31.15,32.76Z"/><path class="cls-2" d="M20.56,27l0,0,10.59,5.76,0,0Z"/><polygon class="cls-2" points="27.83 39.39 17.24 33.63 17.26 25.6 27.84 31.36 27.83 39.39"/><path class="cls-3" d="M29.59,39.73,19,34a5,5,0,0,1-.81-.55,1.4,1.4,0,0,1-.07-1.89A1.38,1.38,0,0,1,19,31a1,1,0,0,1,.66.11l10.59,5.76a1.07,1.07,0,0,0-.66-.11,1.48,1.48,0,0,0-.84,2.45A5,5,0,0,0,29.59,39.73Z"/><path class="cls-2" d="M20.53,27a1.81,1.81,0,0,1-.24-.23l10.59,5.76a1.3,1.3,0,0,0,.24.23C27.94,31,23.67,28.77,20.53,27Z"/><polygon class="cls-3" points="20.29 26.75 30.88 32.51 30.88 32.51 20.29 26.75 20.29 26.75"/><path class="cls-2" d="M20.29,26.75a2.31,2.31,0,0,1,1.56-.83l10.59,5.76a2.31,2.31,0,0,0-1.56.83l-9.35-5.09Z"/><path class="cls-3" d="M25.34,23.84,35.93,29.6a5.7,5.7,0,0,0-3.48-.6L21.86,23.24A5.7,5.7,0,0,1,25.34,23.84Z"/><path class="cls-2" d="M25.45,41.14,14.86,35.38a1.35,1.35,0,0,0,.83.15,1.92,1.92,0,0,0,1.55-1.9l10.59,5.76a1.93,1.93,0,0,1-1.55,1.9A1.35,1.35,0,0,1,25.45,41.14Z"/><path class="cls-3" d="M25.45,41.14,14.86,35.38a1.44,1.44,0,0,1-.72-1.27l10.59,5.76A1.42,1.42,0,0,0,25.45,41.14Z"/><path class="cls-3" d="M32.45,29a5.48,5.48,0,0,1,4.29,1.15A1.38,1.38,0,0,1,36.82,32a1.4,1.4,0,0,1-.92.57,1,1,0,0,1-.83-.23,3.38,3.38,0,0,0-2.61-.7,2.36,2.36,0,0,0-1.58.84,1,1,0,0,0,.24.23,4.42,4.42,0,0,0,1.85.49,5.91,5.91,0,0,1,2.86.75,2.86,2.86,0,0,1,1.28,2.12,3.3,3.3,0,0,1-.69,2.33,5,5,0,0,1-3.34,1.9,5.56,5.56,0,0,1-4.3-1.15,1.48,1.48,0,0,1,.84-2.45,1,1,0,0,1,.84.23,3.41,3.41,0,0,0,2.61.69,2.33,2.33,0,0,0,1.51-.74l.05-.17a.49.49,0,0,0-.26-.38,4.18,4.18,0,0,0-1.89-.43,6.49,6.49,0,0,1-2.73-.77,2.67,2.67,0,0,1-1.31-1.95A3,3,0,0,1,29,31.09,5.17,5.17,0,0,1,32.45,29Z"/><path class="cls-3" d="M29.84,35.21,19.25,29.45l-.09-.05a2.67,2.67,0,0,1-1.31-1.95,3,3,0,0,1,.51-2.12,5.17,5.17,0,0,1,3.5-2.09L32.45,29A5.17,5.17,0,0,0,29,31.09a3,3,0,0,0-.51,2.12,2.67,2.67,0,0,0,1.31,1.95Z"/><path class="cls-2" d="M17.26,25.6a1.44,1.44,0,0,0-.72-1.31l10.59,5.76a1.42,1.42,0,0,1,.71,1.31Z"/><path class="cls-3" d="M16.54,24.29l10.59,5.76a1.37,1.37,0,0,0-.83-.15L15.71,24.14A1.35,1.35,0,0,1,16.54,24.29Z"/><path class="cls-2" d="M19.81,41.48,9.22,35.72a3.15,3.15,0,0,0,2,.35,4.51,4.51,0,0,0,3-2l10.59,5.76a4.51,4.51,0,0,1-2.95,2A3.15,3.15,0,0,1,19.81,41.48Z"/><path class="cls-3" d="M21.6,38.43,11,32.67a1.28,1.28,0,0,0,.8.14l10.59,5.76A1.31,1.31,0,0,1,21.6,38.43Z"/><polygon class="cls-3" points="24.75 32.26 14.16 26.5 14.16 26.03 24.75 31.79 24.75 32.26"/><path class="cls-3" d="M12.63,28.59l10.59,5.76a2,2,0,0,1,.89,1.8,2.35,2.35,0,0,1-1.7,2.42L11.82,32.81a2.36,2.36,0,0,0,1.71-2.42A2,2,0,0,0,12.63,28.59Z"/><path class="cls-2" d="M12.53,28.54l.1.05,10.59,5.76-.1,0Z"/><path class="cls-3" d="M24.75,31.79,14.16,26a1.92,1.92,0,0,1,1.55-1.89L26.3,29.9A1.92,1.92,0,0,0,24.75,31.79Z"/><path class="cls-2" d="M11.83,28.45a1.26,1.26,0,0,1,.7.09l10.59,5.77a1.2,1.2,0,0,0-.71-.1Z"/><path class="cls-2" d="M13.18,25.72l10.59,5.76a3.63,3.63,0,0,1,1,.78L14.16,26.5A3.63,3.63,0,0,0,13.18,25.72Z"/><path class="cls-2" d="M11,32.67a2,2,0,0,1-.9-1.8l10.59,5.76a2,2,0,0,0,.89,1.8Z"/><path class="cls-2" d="M22.41,34.21c.95-.13,1.71.74,1.7,1.94a2.35,2.35,0,0,1-1.7,2.42c-.94.13-1.71-.73-1.7-1.94A2.36,2.36,0,0,1,22.41,34.21Z"/><path class="cls-2" d="M10.12,30.87a2.36,2.36,0,0,1,1.71-2.42l10.58,5.76a2.36,2.36,0,0,0-1.7,2.42Z"/><path class="cls-3" d="M19.81,41.48,9.22,35.72A4.88,4.88,0,0,1,7,31.31c0-3,1.89-5.62,4.2-5.95a3.13,3.13,0,0,1,2,.36l10.59,5.76a3.14,3.14,0,0,0-2-.36c-2.31.33-4.19,3-4.2,5.95A4.88,4.88,0,0,0,19.81,41.48Z"/><path class="cls-3" d="M26.3,29.9a1.36,1.36,0,0,1,1.54,1.46v8a1.93,1.93,0,0,1-1.55,1.9,1.37,1.37,0,0,1-1.55-1.42,4.51,4.51,0,0,1-2.95,2c-2.31.33-4.18-1.8-4.18-4.76s1.89-5.62,4.2-5.95a3.28,3.28,0,0,1,2.95,1.14v-.47A1.92,1.92,0,0,1,26.3,29.9Zm-3.89,8.67a2.35,2.35,0,0,0,1.7-2.42c0-1.2-.75-2.07-1.7-1.94a2.36,2.36,0,0,0-1.7,2.42c0,1.21.76,2.07,1.7,1.94"/><path class="cls-2" d="M53.47,5.84c4.79-.67,8.67,3,8.66,8.15L62.07,48.8c0,5.17-3.9,9.91-8.7,10.59L21.12,63.92c-4.8.67-8.67-3-8.66-8.15L12.52,21c0-5.17,3.9-9.91,8.7-10.59Zm2.89,31.09L57,31.49c0-.08,0-1.69-1-1.54a2.92,2.92,0,0,0-1.44.89s-.35-.52-1.31-.38a3.7,3.7,0,0,0-1.17.39l-.62.42v-.33l-2.48.35c0-1.35,1.77-1.59,1.86-1.61V28.35a3.2,3.2,0,0,0-3.11,3.11l-1.25.17V33l1.24-.18c0,.27,0,5.35-1.87,6.29-1.28.64-.8,1.35,0,1.23a1.92,1.92,0,0,0,1.2-.74c1.24-1.52,1.88-5.62,1.88-6.95a1.07,1.07,0,0,1,.64-.39.68.68,0,0,1,.59.21l-.62,5.44,1.24-.18.63-5.43a1.83,1.83,0,0,1,.87-.42.73.73,0,0,1,.67.2l-.62,5.44,1.24-.18.63-5.43a1.91,1.91,0,0,1,.87-.43.79.79,0,0,1,.68.21l-.63,5.44,1.24-.18M27.83,39.39v-8A1.36,1.36,0,0,0,26.3,29.9a1.92,1.92,0,0,0-1.55,1.89v.47a3.28,3.28,0,0,0-2.95-1.14c-2.31.33-4.19,3-4.2,5.95s1.87,5.09,4.18,4.76a4.51,4.51,0,0,0,2.95-2,1.37,1.37,0,0,0,1.55,1.42,1.93,1.93,0,0,0,1.55-1.9m3.29-6.65a1,1,0,0,1-.24-.23,2.36,2.36,0,0,1,1.57-.84,3.39,3.39,0,0,1,2.62.7,1,1,0,0,0,.83.23,1.4,1.4,0,0,0,.92-.57,1.38,1.38,0,0,0-.08-1.88A5.47,5.47,0,0,0,32.46,29,5.17,5.17,0,0,0,29,31.09a3,3,0,0,0-.51,2.12,2.67,2.67,0,0,0,1.31,1.95,6.49,6.49,0,0,0,2.73.77,4.18,4.18,0,0,1,1.89.43.49.49,0,0,1,.26.38l-.05.17a2.33,2.33,0,0,1-1.5.74A3.43,3.43,0,0,1,30.46,37a1,1,0,0,0-.84-.23,1.48,1.48,0,0,0-.84,2.45,5.55,5.55,0,0,0,4.29,1.15,5,5,0,0,0,3.35-1.9,3.3,3.3,0,0,0,.69-2.33A2.86,2.86,0,0,0,35.83,34,5.91,5.91,0,0,0,33,33.23a4.42,4.42,0,0,1-1.85-.49M43,38.21a1.32,1.32,0,0,0,1.29.55,1.65,1.65,0,0,0,.86-.4A1.87,1.87,0,0,0,45.55,36l-2.33-3.39L45.38,30a1.77,1.77,0,0,0,0-2.36,1.34,1.34,0,0,0-1.09-.34,1.77,1.77,0,0,0-1.1.65l-2.32,2.82V29.41A1.37,1.37,0,0,0,39.32,28a1.93,1.93,0,0,0-1.55,1.89v8a1.37,1.37,0,0,0,1.54,1.46,1.92,1.92,0,0,0,1.55-1.89v-2L41,35.3l2,2.91"/><path class="cls-4" d="M47.52.88a7.44,7.44,0,0,0-4.64-.8L10.63,4.61C5.83,5.29,1.94,10,1.93,15.2L1.87,50a8.11,8.11,0,0,0,4,7.35l10.59,5.76a8.11,8.11,0,0,1-4-7.35L12.52,21c0-5.17,3.9-9.91,8.7-10.59L53.47,5.84a7.44,7.44,0,0,1,4.64.8Z"/></g></g></svg>