<?xml version="1.0" ?><svg viewBox="0 0 64 64" xmlns="http://www.w3.org/2000/svg"><defs><style>.cls-1{isolation:isolate;}.cls-2{fill:#fff;}.cls-3{fill:#ff0100;}.cls-4{fill:#939598;}</style></defs><title/><g data-name="2-youtube" id="_2-youtube"><g class="cls-1"><path class="cls-2" d="M50.29,47.44,39.7,41.68a7.7,7.7,0,0,0,6.22-7.56L56.5,39.88A7.68,7.68,0,0,1,50.29,47.44Z"/><polygon class="cls-2" points="56.51 39.88 45.92 34.12 45.95 18.72 56.53 24.48 56.51 39.88"/><path class="cls-2" d="M43.07,13.47l10.59,5.76a5.78,5.78,0,0,1,2.87,5.25L46,18.72A5.81,5.81,0,0,0,43.07,13.47Z"/><path class="cls-3" d="M43.07,13.47l10.59,5.76a5.36,5.36,0,0,0-3.32-.57L39.75,12.9A5.36,5.36,0,0,1,43.07,13.47Z"/><polygon class="cls-3" points="32.32 42.08 21.73 36.32 31.67 28.43 42.25 34.19 32.32 42.08"/><polygon class="cls-2" points="24.24 51.1 13.65 45.34 39.7 41.68 50.29 47.44 24.24 51.1"/><path class="cls-2" d="M20.93,50.53,10.34,44.77a5.32,5.32,0,0,0,3.31.57L24.24,51.1A5.32,5.32,0,0,1,20.93,50.53Z"/><polygon class="cls-2" points="32.32 42.08 21.73 36.32 21.76 23.32 32.35 29.07 32.32 42.08"/><polygon class="cls-2" points="32.35 29.07 42.25 34.19 32.32 42.08 32.35 29.07"/><polygon class="cls-2" points="32.35 29.07 21.76 23.32 31.67 28.43 42.25 34.19 32.35 29.07"/><path class="cls-3" d="M20.93,50.53,10.34,44.77a5.78,5.78,0,0,1-2.87-5.25l10.58,5.76A5.81,5.81,0,0,0,20.93,50.53Z"/><polygon class="cls-3" points="24.29 22.32 13.71 16.56 39.75 12.9 50.34 18.66 24.29 22.32"/><polygon class="cls-3" points="18.05 45.28 7.47 39.52 7.5 24.12 18.08 29.88 18.05 45.28"/><path class="cls-3" d="M18.08,29.88,7.5,24.12a7.68,7.68,0,0,1,6.21-7.56l10.58,5.76A7.7,7.7,0,0,0,18.08,29.88Z"/><path class="cls-2" d="M53.47,5.84c4.79-.67,8.67,3,8.66,8.15l-.06,34.8c0,5.18-3.91,9.92-8.7,10.6L21.12,63.92c-4.8.67-8.67-3-8.67-8.15L12.52,21c0-5.17,3.9-9.91,8.7-10.59Zm3,34,0-15.4c0-3.7-2.76-6.3-6.19-5.82L24.29,22.32a7.7,7.7,0,0,0-6.21,7.56l0,15.4c0,3.69,2.77,6.3,6.19,5.82l26.05-3.66a7.68,7.68,0,0,0,6.21-7.56"/><path class="cls-3" d="M50.34,18.66c3.43-.48,6.2,2.12,6.19,5.82l0,15.4a7.68,7.68,0,0,1-6.21,7.56l-26,3.66c-3.42.48-6.19-2.13-6.19-5.82l0-15.4a7.7,7.7,0,0,1,6.21-7.56Zm-18,23.42,9.93-7.89-9.9-5.12,0,13"/><path class="cls-4" d="M47.51.88a7.42,7.42,0,0,0-4.63-.8L10.63,4.61c-4.8.68-8.69,5.42-8.7,10.6L1.87,50a8.12,8.12,0,0,0,4,7.35l10.59,5.76a8.12,8.12,0,0,1-4-7.35L12.52,21c0-5.17,3.9-9.91,8.7-10.59L53.47,5.84a7.42,7.42,0,0,1,4.63.8Z"/></g></g></svg>