<?xml version="1.0" ?><svg viewBox="0 0 64 64" xmlns="http://www.w3.org/2000/svg"><defs><style>.cls-1{isolation:isolate;}.cls-2{fill:#ec1821;}.cls-3{fill:#fff;}.cls-4{fill:#b81821;}</style></defs><title/><g data-name="31-bold" id="_31-bold"><g class="cls-1"><path class="cls-2" d="M39.84,37.51l.07-.13,10.58,5.76-.06.13Z"/><path class="cls-2" d="M35.8,42.82a18.34,18.34,0,0,0,4-5.31l10.59,5.76a18.34,18.34,0,0,1-4,5.31Z"/><path class="cls-2" d="M33.36,44.69a19.24,19.24,0,0,0,2.44-1.87L39,44.57l7.37,4a18.65,18.65,0,0,1-2.45,1.87Z"/><path class="cls-2" d="M26.68,47.19a16.83,16.83,0,0,0,6.68-2.5l10.58,5.76A16.71,16.71,0,0,1,37.26,53Z"/><path class="cls-2" d="M41.59,30.38a12.61,12.61,0,0,0-4.35-9.8l10.59,5.76a12.64,12.64,0,0,1,4.35,9.8,16,16,0,0,1-1.69,7L39.91,37.38A16,16,0,0,0,41.59,30.38Z"/><path class="cls-3" d="M31.8,46,21.21,40.27a8.85,8.85,0,0,0,5.48.9C31.81,40.45,36,36,36,31.16a7.23,7.23,0,0,0-3.82-6.5l10.59,5.76a7.2,7.2,0,0,1,3.81,6.5c0,4.8-4.19,9.29-9.31,10A8.85,8.85,0,0,1,31.8,46Z"/><path class="cls-2" d="M26.72,23.76a8.83,8.83,0,0,1,5.47.9l10.59,5.76a8.83,8.83,0,0,0-5.47-.9,8.53,8.53,0,0,0-1.24.26l-.32.06a2.38,2.38,0,0,1-1-.06L24.16,24a2.38,2.38,0,0,0,1,.06c.11,0,.21,0,.32-.06A8.82,8.82,0,0,1,26.72,23.76Z"/><path class="cls-3" d="M34.26,29.59,23.67,23.83a2.58,2.58,0,0,1-1.27-2,3.5,3.5,0,0,1,2.45-3.68,13.92,13.92,0,0,1,1.88-.38,13.57,13.57,0,0,1,8.43,1.41l10.59,5.76a14.51,14.51,0,0,0-10.31-1A3.5,3.5,0,0,0,33,27.56,2.53,2.53,0,0,0,34.26,29.59Z"/><path class="cls-2" d="M37.24,20.58c-.29-.25-.59-.48-.9-.7l10.59,5.76c.31.22.61.45.9.7l-5.29-2.88-1.39-.75-.69-.38-1.33-.73-1.28-.69C37.67,20.81,37.41,20.7,37.24,20.58Z"/><path class="cls-2" d="M36.34,19.88c-.38-.26-.77-.5-1.18-.73l10.59,5.77a12.81,12.81,0,0,1,1.18.72l-5.3-2.88-2.07-1.12-.67-.37-1.32-.72C37.2,20.35,36.7,20.1,36.34,19.88Z"/><path class="cls-2" d="M18.24,45.78a13.59,13.59,0,0,0,8.44,1.41L37.26,53a13.62,13.62,0,0,1-8.44-1.41Z"/><path class="cls-2" d="M20.22,39.63l10.59,5.76a8.39,8.39,0,0,0,1,.64L21.21,40.27A8.39,8.39,0,0,1,20.22,39.63Z"/><path class="cls-2" d="M20.22,39.63l-.11-.09L30.7,45.3l.11.09L20.67,39.87Z"/><path class="cls-2" d="M18.86,38.26,29.45,44A6.89,6.89,0,0,0,30.7,45.3L20.11,39.54A6.89,6.89,0,0,1,18.86,38.26Z"/><path class="cls-2" d="M18.86,38.26a6.63,6.63,0,0,1-.73-1.2l10.58,5.76a7.29,7.29,0,0,0,.74,1.2L23.53,40.8l-.27-.14-2.37-1.29-.6-.33-.3-.16-.3-.16-.28-.16A3.29,3.29,0,0,1,18.86,38.26Z"/><path class="cls-2" d="M23.67,23.82a2.3,2.3,0,0,0,.49.2l10.59,5.76a2.62,2.62,0,0,1-.49-.19Z"/><path class="cls-2" d="M17.4,33.86,28,39.62a7.63,7.63,0,0,0,.72,3.2L18.13,37.06A7.52,7.52,0,0,1,17.4,33.86Z"/><path class="cls-2" d="M17.4,33.86v-.08L28,39.54v.08Z"/><path class="cls-3" d="M28.82,51.54,18.24,45.78a12.44,12.44,0,0,1-6.42-11.22l10.59,5.76A12.45,12.45,0,0,0,28.82,51.54Z"/><polygon class="cls-2" points="27.99 39.54 17.4 33.78 17.43 15.37 28.02 21.13 27.99 39.54"/><path class="cls-2" d="M17.43,15.37A2.6,2.6,0,0,0,16.14,13l10.59,5.76A2.62,2.62,0,0,1,28,21.13Z"/><path class="cls-3" d="M16.14,13l10.59,5.76a2.4,2.4,0,0,0-1.49-.25L14.65,12.75A2.4,2.4,0,0,1,16.14,13Z"/><polygon class="cls-3" points="22.41 40.32 11.82 34.56 11.85 16.15 22.44 21.91 22.41 40.32"/><path class="cls-3" d="M22.44,21.91,11.85,16.15a3.46,3.46,0,0,1,2.8-3.4l10.59,5.76A3.45,3.45,0,0,0,22.44,21.91Z"/><path class="cls-2" d="M53.47,5.84c4.8-.67,8.68,3,8.67,8.15L62.07,48.8c0,5.17-3.9,9.91-8.7,10.59L21.12,63.92c-4.79.67-8.68-3-8.67-8.15L12.52,21c0-5.17,3.91-9.91,8.7-10.59ZM37.26,53c8.21-1.15,14.9-8.69,14.92-16.81S45.52,22.34,37.32,23.5a13.61,13.61,0,0,0-1.88.38A3.5,3.5,0,0,0,33,27.56a2.42,2.42,0,0,0,2.76,2.28l.32-.06a8.53,8.53,0,0,1,1.24-.26c5.13-.72,9.29,2.6,9.28,7.4s-4.19,9.29-9.31,10S28,44.33,28,39.54l0-18.41a2.45,2.45,0,0,0-2.78-2.62,3.45,3.45,0,0,0-2.8,3.4l0,18.41c0,8.12,6.65,13.79,14.85,12.63"/><path class="cls-3" d="M25.24,18.51A2.45,2.45,0,0,1,28,21.13l0,18.41c0,4.79,4.15,8.11,9.29,7.39s9.31-5.21,9.31-10-4.15-8.12-9.28-7.4a8.53,8.53,0,0,0-1.24.26l-.32.06A2.42,2.42,0,0,1,33,27.56a3.5,3.5,0,0,1,2.45-3.68,13.61,13.61,0,0,1,1.88-.38c8.2-1.16,14.87,4.52,14.86,12.64S45.47,51.8,37.26,53,22.39,48.44,22.41,40.32l0-18.41A3.45,3.45,0,0,1,25.24,18.51Z"/><path class="cls-4" d="M47.52.88a7.44,7.44,0,0,0-4.64-.8L10.63,4.61C5.84,5.29,1.94,10,1.93,15.2L1.86,50a8.14,8.14,0,0,0,4,7.35l10.59,5.76a8.12,8.12,0,0,1-4-7.35L12.52,21c0-5.17,3.91-9.91,8.7-10.59L53.47,5.84a7.44,7.44,0,0,1,4.64.8Z"/></g></g></svg>