<?xml version="1.0" ?><svg viewBox="0 0 64 64" xmlns="http://www.w3.org/2000/svg"><defs><style>.cls-1{isolation:isolate;}.cls-2{fill:#fff;}.cls-3{fill:#04acde;}.cls-4{fill:#a8cae1;}.cls-5{fill:#c1d8e9;}.cls-6{fill:#939598;}</style></defs><title/><g data-name="19-telegram" id="_19-telegram"><g class="cls-1"><path class="cls-2" d="M26.67,52.54c12-1.68,21.72-13.53,21.74-26.47L59,31.83c0,12.94-9.77,24.79-21.75,26.47Z"/><path class="cls-3" d="M43.46,46.89,32.87,41.13a.54.54,0,0,0,.33.06.75.75,0,0,0,.61-.62L44.4,46.33a.77.77,0,0,1-.61.62A.54.54,0,0,1,43.46,46.89Z"/><path class="cls-2" d="M43.46,46.89,32.87,41.13l0,0,10.58,5.76Z"/><path class="cls-2" d="M48.41,26.07c0-8.34-4-15.08-10.06-18.38l10.58,5.76C55,16.74,59,23.49,59,31.83Z"/><polygon class="cls-3" points="44.4 46.33 33.81 40.57 37.96 18.73 48.54 24.49 44.4 46.33"/><polygon class="cls-2" points="33.67 40.15 23.09 34.39 34.31 21.95 44.9 27.7 33.67 40.15"/><polygon class="cls-2" points="43.41 46.86 32.83 41.1 26.81 36.96 37.4 42.72 43.41 46.86"/><polygon class="cls-3" points="32.93 47.37 22.34 41.61 26.81 36.96 37.4 42.72 32.93 47.37"/><polygon class="cls-3" points="33.66 40.15 23.08 34.39 23.08 34.39 33.67 40.15 33.66 40.15"/><polygon class="cls-2" points="37.4 42.72 26.81 36.96 23.09 34.39 33.67 40.15 37.4 42.72"/><polygon class="cls-4" points="32.93 47.37 22.34 41.61 23.08 34.39 33.66 40.15 32.93 47.37"/><polygon class="cls-5" points="30.5 39.08 19.91 33.32 34.31 21.95 44.9 27.7 30.5 39.08"/><polygon class="cls-5" points="32.93 47.37 22.34 41.61 19.91 33.32 30.5 39.08 32.93 47.37"/><polygon class="cls-3" points="23.99 37.97 13.4 32.22 19.91 33.32 30.5 39.08 23.99 37.97"/><polygon class="cls-2" points="23.95 36.71 13.36 30.95 37.13 18.09 47.72 23.85 23.95 36.71"/><path class="cls-3" d="M38,18.73a.59.59,0,0,0-.28-.66l10.59,5.76a.58.58,0,0,1,.27.66Z"/><path class="cls-2" d="M37.68,18.07l10.59,5.76a.61.61,0,0,0-.33-.06L37.35,18A.59.59,0,0,1,37.68,18.07Z"/><path class="cls-2" d="M47.72,23.85,37.13,18.09a.74.74,0,0,1,.22-.08l10.59,5.76A.65.65,0,0,0,47.72,23.85Z"/><path class="cls-2" d="M15.07,50.55a18.56,18.56,0,0,0,11.6,2L37.25,58.3a18.61,18.61,0,0,1-11.59-2Z"/><polygon class="cls-4" points="33.66 40.15 37.4 42.72 32.93 47.37 33.66 40.15"/><polygon class="cls-3" points="33.66 40.15 33.67 40.15 33.67 40.15 33.66 40.15"/><polygon class="cls-5" points="44.9 27.7 33.67 40.15 32.93 47.37 30.5 39.08 44.9 27.7"/><path class="cls-3" d="M13.24,32.16l.16.05,9.35,5.09L24,38l-.17,0Z"/><path class="cls-3" d="M38.35,7.69l10.58,5.76a18.54,18.54,0,0,0-11.59-2L26.75,5.69A18.65,18.65,0,0,1,38.35,7.69Z"/><path class="cls-2" d="M23.82,37.92,13.24,32.16A.71.71,0,0,1,13.36,31L24,36.71A.72.72,0,0,0,23.82,37.92Z"/><path class="cls-3" d="M25.66,56.31,15.07,50.55C9,47.25,5,40.5,5,32.17,5,19.23,14.77,7.38,26.75,5.69l10.59,5.76C25.35,13.14,15.61,25,15.59,37.93,15.57,46.26,19.59,53,25.66,56.31Z"/><path class="cls-3" d="M37.34,11.45C49.32,9.77,59,18.89,59,31.83S49.23,56.62,37.25,58.3,15.57,50.87,15.59,37.93,25.35,13.14,37.34,11.45Zm11.2,13a.56.56,0,0,0-.6-.72.65.65,0,0,0-.22.08L24,36.71c-.56.3-.53,1.17,0,1.26l6.51,1.1,2.43,8.3,4.47-4.65,6,4.14a.53.53,0,0,0,.38.09.77.77,0,0,0,.61-.62l4.14-21.84"/><path class="cls-2" d="M53.47,5.84c4.8-.67,8.67,3,8.66,8.15l-.06,34.8c0,5.18-3.9,9.92-8.7,10.6L21.12,63.92c-4.79.67-8.67-3-8.67-8.15L12.52,21c0-5.19,3.91-9.93,8.7-10.6ZM37.25,58.3C49.23,56.62,59,44.77,59,31.83S49.32,9.77,37.34,11.45,15.61,25,15.59,37.93,25.27,60,37.25,58.3"/><path class="cls-2" d="M43.41,46.86a.53.53,0,0,0,.38.09.77.77,0,0,0,.61-.62l4.14-21.84a.6.6,0,0,0,0-.23.47.47,0,0,0,0-.17l0-.06L48.42,24l-.05-.06a.54.54,0,0,0-.43-.13.65.65,0,0,0-.22.08L24,36.71l-.1.06a.79.79,0,0,0-.28.83v0a.54.54,0,0,0,.15.22A.42.42,0,0,0,24,38l6.51,1.1L44.9,27.7,33.67,40.15l3.73,2.57h0Z"/><path class="cls-6" d="M47.52.88a7.44,7.44,0,0,0-4.64-.8L10.63,4.61c-4.79.68-8.69,5.42-8.7,10.6L1.87,50a8.11,8.11,0,0,0,4,7.35l10.59,5.76a8.13,8.13,0,0,1-4-7.35L12.52,21c0-5.19,3.91-9.93,8.7-10.6L53.47,5.84a7.45,7.45,0,0,1,4.64.8Z"/></g></g></svg>