<?xml version="1.0" ?><svg viewBox="0 0 64 64" xmlns="http://www.w3.org/2000/svg"><defs><style>.cls-1{isolation:isolate;}.cls-2{fill:#fff;}.cls-3{fill:#f91b45;}.cls-4{fill:#939598;}</style></defs><title/><g data-name="34-meetup" id="_34-meetup"><g class="cls-1"><path class="cls-2" d="M37,47a1.39,1.39,0,0,0,.91.16l9.35,5.09,1.24.67a1.39,1.39,0,0,1-.91-.16Z"/><path class="cls-2" d="M39.57,45a1.57,1.57,0,0,0-.79-1.44l10.59,5.76a1.59,1.59,0,0,1,.79,1.44,2.12,2.12,0,0,1-1.7,2.09L37.87,47.13A2.12,2.12,0,0,0,39.57,45Z"/><path class="cls-2" d="M46.84,28.91a1,1,0,0,0-.51-.93l10.59,5.76a1,1,0,0,1,.51.93A1.38,1.38,0,0,1,56.31,36L45.73,30.26A1.37,1.37,0,0,0,46.84,28.91Z"/><path class="cls-2" d="M45.14,30.16a1,1,0,0,0,.59.1l9.35,5.09,1.23.67a1,1,0,0,1-.58-.1Z"/><path class="cls-3" d="M38.78,43.6l10.59,5.76a1.52,1.52,0,0,0-.91-.16L37.87,43.44A1.52,1.52,0,0,1,38.78,43.6Z"/><path class="cls-2" d="M48.81,22.63,59.4,28.39v.1a1,1,0,0,1-.82,1L48,23.73a1,1,0,0,0,.82-1Z"/><path class="cls-3" d="M46.33,28l10.59,5.76a.88.88,0,0,0-.6-.1L45.73,27.88A.87.87,0,0,1,46.33,28Z"/><path class="cls-2" d="M47.56,23.65a.7.7,0,0,0,.43.08l10.59,5.76a.68.68,0,0,1-.43-.08Z"/><path class="cls-2" d="M48.81,22.63a.76.76,0,0,0-.37-.59L59,27.8a.75.75,0,0,1,.38.59Z"/><path class="cls-3" d="M47.55,52.73,37,47a1.58,1.58,0,0,1-.79-1.45,2.12,2.12,0,0,1,1.7-2.08L48.46,49.2a2.14,2.14,0,0,0-1.71,2.08A1.6,1.6,0,0,0,47.55,52.73Z"/><path class="cls-3" d="M48.46,49.2a1.5,1.5,0,0,1,1.7,1.6,2.12,2.12,0,0,1-1.7,2.09,1.51,1.51,0,0,1-1.71-1.61A2.14,2.14,0,0,1,48.46,49.2Z"/><path class="cls-3" d="M55.73,35.92,45.14,30.16a1,1,0,0,1-.51-.94,1.35,1.35,0,0,1,1.1-1.34l10.59,5.76A1.37,1.37,0,0,0,55.21,35,1,1,0,0,0,55.73,35.92Z"/><path class="cls-3" d="M56.32,33.64a1,1,0,0,1,1.11,1A1.38,1.38,0,0,1,56.31,36a1,1,0,0,1-1.1-1A1.37,1.37,0,0,1,56.32,33.64Z"/><path class="cls-3" d="M48.44,22,59,27.8a.7.7,0,0,0-.44-.07L48,22A.72.72,0,0,1,48.44,22Z"/><path class="cls-3" d="M58.15,29.41,47.56,23.65a.76.76,0,0,1-.38-.69A1,1,0,0,1,48,22l10.58,5.76a1,1,0,0,0-.81,1A.76.76,0,0,0,58.15,29.41Z"/><path class="cls-3" d="M58.58,27.73a.72.72,0,0,1,.82.76,1,1,0,0,1-.82,1,.72.72,0,0,1-.81-.77A1,1,0,0,1,58.58,27.73Z"/><path class="cls-2" d="M45.72,48.17,35.13,42.41C46.44,39.48,42,29.61,41.74,29.1l10.59,5.76C52.56,35.37,57,45.24,45.72,48.17Z"/><path class="cls-2" d="M30.32,47.12c3.46-.49,4.74-4.5,4.81-4.71l10.59,5.76c-.07.21-1.35,4.22-4.81,4.71Z"/><path class="cls-3" d="M36.15,36.33c.08-.55,0-.8-.19-.91l10.59,5.76c.19.11.27.36.18.91Z"/><path class="cls-2" d="M27.75,49.64a1,1,0,0,0-.5-.92l10.59,5.76a1,1,0,0,1,.5.92,1.34,1.34,0,0,1-1.09,1.33L26.66,51A1.35,1.35,0,0,0,27.75,49.64Z"/><path class="cls-2" d="M26.08,50.87a1,1,0,0,0,.58.1L36,56.06l1.24.67a.93.93,0,0,1-.58-.1Z"/><path class="cls-3" d="M27.25,48.72l10.59,5.76a1,1,0,0,0-.59-.1L26.67,48.62A1,1,0,0,1,27.25,48.72Z"/><path class="cls-2" d="M44.48,18.09a1.37,1.37,0,0,0-.67-1.23L54.4,22.62a1.34,1.34,0,0,1,.66,1.23,1.78,1.78,0,0,1-1.44,1.75L43,19.84A1.79,1.79,0,0,0,44.48,18.09Z"/><path class="cls-2" d="M42.25,19.71a1.27,1.27,0,0,0,.78.13L53.62,25.6a1.27,1.27,0,0,1-.78-.13Z"/><path class="cls-2" d="M40.93,21.83l10.59,5.76c1.51.82,4.28,3.05.81,7.27L41.74,29.1C45.21,24.88,42.44,22.65,40.93,21.83Z"/><path class="cls-3" d="M33.88,37.92c1.12-.16,2.12-.67,2.27-1.59l10.58,5.76c-.14.92-1.14,1.43-2.27,1.59a4.67,4.67,0,0,1-2.73-.37L31.14,37.55A4.69,4.69,0,0,0,33.88,37.92Z"/><path class="cls-2" d="M44.06,41,33.47,35.24c1,.53,2-.06,2.49.18l10.59,5.76C46.1,40.94,45,41.53,44.06,41Z"/><path class="cls-3" d="M36.67,56.63,26.08,50.87a1,1,0,0,1-.5-.92,1.35,1.35,0,0,1,1.09-1.33l10.58,5.76a1.35,1.35,0,0,0-1.08,1.33A1,1,0,0,0,36.67,56.63Z"/><ellipse class="cls-3" cx="37.25" cy="55.56" rx="1.22" ry="1.04" transform="translate(-29.35 61.73) rotate(-61.45)"/><path class="cls-3" d="M33.2,35.07l10.59,5.76.27.17L33.47,35.24Z"/><path class="cls-3" d="M43.81,16.86,54.4,22.62a1.27,1.27,0,0,0-.78-.13L43,16.73A1.27,1.27,0,0,1,43.81,16.86Z"/><path class="cls-2" d="M26.67,46.36a6.16,6.16,0,0,0,3.65.76l10.59,5.76a6.16,6.16,0,0,1-3.65-.76Z"/><path class="cls-3" d="M40.93,21.83l10.59,5.76a5.13,5.13,0,0,0-.81-.37L40.12,21.46A5.13,5.13,0,0,1,40.93,21.83Z"/><path class="cls-3" d="M52.84,25.47,42.25,19.71a1.35,1.35,0,0,1-.66-1.22A1.78,1.78,0,0,1,43,16.73l10.59,5.76a1.78,1.78,0,0,0-1.44,1.76A1.35,1.35,0,0,0,52.84,25.47Z"/><path class="cls-3" d="M53.62,22.49a1.27,1.27,0,0,1,1.44,1.36,1.78,1.78,0,0,1-1.44,1.75,1.27,1.27,0,0,1-1.44-1.35A1.78,1.78,0,0,1,53.62,22.49Z"/><path class="cls-2" d="M22.13,48.47a10.08,10.08,0,0,0,4.54-2.11l10.59,5.76a10.08,10.08,0,0,1-4.54,2.11Z"/><path class="cls-3" d="M33.2,35.07C31,33.81,37.77,23.89,35.56,21.85l10.58,5.76c2.22,2-4.51,12-2.35,13.22Z"/><path class="cls-3" d="M35.55,21.85a4.94,4.94,0,0,0-.9-.67l10.58,5.76a4.65,4.65,0,0,1,.91.67h0L35.56,21.85Z"/><path class="cls-2" d="M41.73,43.31,31.14,37.55a1.71,1.71,0,0,1-.54-.44c-1-1.33-1.19-3.87.75-7.82,1.73-3.5,1.48-4.05,1.09-4.26L43,30.79c.38.21.64.76-1.09,4.26-1.94,4-1.75,6.49-.75,7.82A1.6,1.6,0,0,0,41.73,43.31Z"/><path class="cls-3" d="M32.29,25l.15.07L43,30.79l-.15-.07Z"/><path class="cls-2" d="M19.17,48a4.63,4.63,0,0,0,3,.48l10.59,5.76a4.63,4.63,0,0,1-3-.48Z"/><path class="cls-2" d="M40.12,21.46c0-4.06-1.36-6.12-3.15-7.09l10.59,5.76c1.79,1,3.19,3,3.15,7.09Z"/><path class="cls-3" d="M32.1,24.94a.41.41,0,0,1,.19,0l10.59,5.76a.41.41,0,0,0-.19,0c-.85.12-1.87,2.86-3,5.61S37.29,41.83,36,42a1.05,1.05,0,0,1-.62-.12L24.78,36.14a1.06,1.06,0,0,0,.62.12c1.3-.19,2.55-3,3.7-5.71S31.26,25.06,32.1,24.94Z"/><path class="cls-3" d="M24.75,36.12l0,0L35.37,41.9l0,0Z"/><path class="cls-2" d="M41.2,27.4,30.61,21.63a1,1,0,0,0,.6.11h.15a3.24,3.24,0,0,0,1-.4,3,3,0,0,1,1-.41,2,2,0,0,1,1.22.26l10.58,5.76A1.93,1.93,0,0,0,44,26.68a3.15,3.15,0,0,0-1.05.41,3.1,3.1,0,0,1-1,.4H41.8A1.12,1.12,0,0,1,41.2,27.4Z"/><path class="cls-3" d="M30.61,21.64l-.09-.07,10.59,5.76a.31.31,0,0,0,.09.07Z"/><path class="cls-3" d="M30.52,21.57c-.31-.23-.39-.63-.74-.83L40.37,26.5c.35.2.43.6.74.83l-5.3-2.88L33.06,23l-1.31-.71C31.38,22,30.87,21.8,30.52,21.57Z"/><path class="cls-3" d="M29.78,20.74h0l10.58,5.76h0l-5.29-2.88-1.39-.76L33,22.49C31.93,21.91,30.85,21.34,29.78,20.74Z"/><path class="cls-2" d="M26,26.65l10.59,5.76c2.16,1.18-3.79,8.18-1.25,9.49L24.78,36.14C22.25,34.83,28.2,27.83,26,26.65Z"/><path class="cls-2" d="M29.77,20.73l10.58,5.76a1.12,1.12,0,0,0-.75-.09L29,20.64A1.15,1.15,0,0,1,29.77,20.73Z"/><path class="cls-3" d="M25.69,26.58a.44.44,0,0,1,.29.05l10.59,5.76a.44.44,0,0,0-.29,0c-1,.13-1.74,3.14-2.73,6.17s-2.21,6.1-4.06,6.36a2.1,2.1,0,0,1-1.15-.19L17.75,38.92a2.14,2.14,0,0,0,1.16.19c1.84-.26,3.06-3.33,4.05-6.36S24.72,26.71,25.69,26.58Z"/><path class="cls-3" d="M29.76,53.75,19.17,48c-1.43-.77-2.72-2.5-3.5-5.86l10.59,5.76C27,51.25,28.33,53,29.76,53.75Z"/><path class="cls-3" d="M17.43,38.79l.32.13,10.59,5.76L28,44.55Z"/><path class="cls-2" d="M13.73,45.58a1,1,0,0,0,.82-1l10.58,5.76a1,1,0,0,1-.81,1Z"/><path class="cls-2" d="M13.29,45.5a.73.73,0,0,0,.44.08l10.59,5.76a.73.73,0,0,1-.44-.08Z"/><path class="cls-2" d="M14.55,44.58a.78.78,0,0,0-.38-.69l10.59,5.76a.77.77,0,0,1,.37.69h0L14.55,44.58Z"/><path class="cls-3" d="M14.17,43.89l10.59,5.76a.66.66,0,0,0-.44-.07L13.74,43.82A.64.64,0,0,1,14.17,43.89Z"/><path class="cls-3" d="M37,14.37l10.59,5.76a8.3,8.3,0,0,0-5-.66,11.59,11.59,0,0,0-2.26.52L29.68,14.23a11.14,11.14,0,0,1,2.25-.52A8.3,8.3,0,0,1,37,14.37Z"/><path class="cls-2" d="M35.5,28.49,24.91,22.72a1.14,1.14,0,0,0,.79.13l.14,0c1.86-.37,1.09-1.72,2.89-2.14l.28-.05L39.6,26.4l-.28.05c-1.81.42-1,1.77-2.9,2.14l-.14,0A1.18,1.18,0,0,1,35.5,28.49Z"/><path class="cls-3" d="M23.88,51.26,13.29,45.5a.75.75,0,0,1-.37-.69,1,1,0,0,1,.82-1l10.58,5.76a1,1,0,0,0-.82,1A.76.76,0,0,0,23.88,51.26Z"/><path class="cls-3" d="M24.48,22.44,35.06,28.2c.16.11.3.21.44.29L24.91,22.72A3.87,3.87,0,0,1,24.48,22.44Z"/><path class="cls-3" d="M24.29,22.32l-.08,0L34.8,28l.08,0,.18.12L24.48,22.44Z"/><path class="cls-2" d="M28,44.55,17.43,38.79a2.21,2.21,0,0,1-1-1.75,4.79,4.79,0,0,1,.18-1.9L27.23,40.9a4.61,4.61,0,0,0-.18,1.9A2.18,2.18,0,0,0,28,44.55Z"/><path class="cls-2" d="M31.75,10A1.59,1.59,0,0,0,31,8.56l10.59,5.76a1.61,1.61,0,0,1,.79,1.44,2.12,2.12,0,0,1-1.71,2.09L30,12.09l10.59,5.76a1.47,1.47,0,0,1-.91-.15L29.14,11.94a1.43,1.43,0,0,0,.9.15A2.12,2.12,0,0,0,31.75,10Z"/><path class="cls-2" d="M23.66,47,13.08,41.24a8.59,8.59,0,0,0,2.59.89l10.59,5.76A8.7,8.7,0,0,1,23.66,47Z"/><path class="cls-3" d="M31,8.56l10.59,5.76a1.55,1.55,0,0,0-.91-.16L30.05,8.4A1.54,1.54,0,0,1,31,8.56Z"/><path class="cls-3" d="M39.72,17.7,29.14,11.94a1.62,1.62,0,0,1-.8-1.46A2.14,2.14,0,0,1,30.05,8.4l10.59,5.76a2.12,2.12,0,0,0-1.71,2.08A1.63,1.63,0,0,0,39.72,17.7Z"/><path class="cls-3" d="M40.64,14.16a1.51,1.51,0,0,1,1.7,1.6,2.12,2.12,0,0,1-1.71,2.09,1.51,1.51,0,0,1-1.7-1.61A2.12,2.12,0,0,1,40.64,14.16Z"/><polygon class="cls-2" points="27.23 40.9 16.64 35.14 19.35 25.58 29.94 31.34 27.23 40.9"/><path class="cls-2" d="M24.21,22.28,34.8,28a2.1,2.1,0,0,0-1.35-.22,3.14,3.14,0,0,0-.83.24l-.32.16a5.17,5.17,0,0,0-2.36,3.12L19.35,25.58a5.17,5.17,0,0,1,2.36-3.12L22,22.3a3.14,3.14,0,0,1,.83-.24A2.1,2.1,0,0,1,24.21,22.28Z"/><path class="cls-2" d="M39.6,26.4c1.46-.21.88,1.18,2.2,1.1H42a3.1,3.1,0,0,0,1-.4A3.15,3.15,0,0,1,44,26.68a2.63,2.63,0,0,1,2.12.93c2.22,2-4.51,12-2.35,13.22,1.43,1.13,3.26-.71,2.94,1.26-.14.92-1.14,1.43-2.27,1.59s-2.73-.11-3.27-.81c-1-1.33-1.19-3.87.75-7.82s1.38-4.14.94-4.33a.41.41,0,0,0-.19,0c-.85.12-1.87,2.86-3,5.61S37.29,41.83,36,42a1.05,1.05,0,0,1-.62-.12c-2.55-1.32,3.5-8.41,1.2-9.51a.44.44,0,0,0-.29,0c-1,.13-1.74,3.14-2.73,6.17s-2.21,6.1-4.06,6.36a2.1,2.1,0,0,1-1.15-.19,2,2,0,0,1-1.29-1.88,4.61,4.61,0,0,1,.18-1.9l2.71-9.56a5.17,5.17,0,0,1,2.36-3.12l.32-.16a3.14,3.14,0,0,1,.83-.24,2.15,2.15,0,0,1,1.43.26c.53.32.74.62,1.4.53l.14,0c1.87-.37,1.09-1.72,2.9-2.14Z"/><path class="cls-3" d="M23.66,47,13.08,41.24c-2.23-1.21-4.53-4-.88-10.08l10.59,5.76C19.14,43,21.44,45.79,23.66,47Z"/><path class="cls-3" d="M27.39,26.48,16.8,20.72c.09-.31,1.86-6.32,7.65-7.14a11.26,11.26,0,0,1,5.23.65L40.26,20A11.21,11.21,0,0,0,35,19.34C29.25,20.16,27.48,26.17,27.39,26.48Z"/><path class="cls-2" d="M10,31.13l10.59,5.76A2.13,2.13,0,0,1,18.84,39L8.25,33.21A2.12,2.12,0,0,0,10,31.13Z"/><path class="cls-2" d="M7.34,33.05a1.52,1.52,0,0,0,.91.16l9.35,5.08,1.24.68a1.52,1.52,0,0,1-.91-.16Z"/><path class="cls-2" d="M10,31.13a1.63,1.63,0,0,0-.79-1.45l10.59,5.76a1.63,1.63,0,0,1,.79,1.45L10,31.13Z"/><path class="cls-2" d="M16.28,17.51l10.59,5.76a1.5,1.5,0,0,1-1.21,1.48,1.09,1.09,0,0,1-.65-.11L14.42,18.88a1.09,1.09,0,0,0,.65.11A1.5,1.5,0,0,0,16.28,17.51Z"/><path class="cls-2" d="M16.28,17.51a1.12,1.12,0,0,0-.56-1l10.59,5.76a1.14,1.14,0,0,1,.56,1L16.28,17.51Z"/><path class="cls-3" d="M9.17,29.68l10.59,5.76a1.49,1.49,0,0,0-.92-.15L8.26,29.53A1.47,1.47,0,0,1,9.17,29.68Z"/><path class="cls-2" d="M20,9.49a1,1,0,0,0-.48-.9l10.58,5.76a1,1,0,0,1,.49.9,1.29,1.29,0,0,1-1.05,1.28.87.87,0,0,1-.56-.1L18.37,10.67a.87.87,0,0,0,.56.1A1.29,1.29,0,0,0,20,9.49Z"/><path class="cls-3" d="M15.72,16.48l10.59,5.76a1.09,1.09,0,0,0-.65-.11L15.07,16.37A1.09,1.09,0,0,1,15.72,16.48Z"/><path class="cls-3" d="M19.5,8.59l10.58,5.76a.87.87,0,0,0-.56-.09L18.94,8.5A.89.89,0,0,1,19.5,8.59Z"/><path class="cls-3" d="M17.93,38.81,7.34,33.05a1.59,1.59,0,0,1-.79-1.44,2.12,2.12,0,0,1,1.71-2.08l10.58,5.76a2.12,2.12,0,0,0-1.7,2.08A1.59,1.59,0,0,0,17.93,38.81Z"/><path class="cls-3" d="M25,24.64,14.42,18.88a1.14,1.14,0,0,1-.56-1,1.51,1.51,0,0,1,1.21-1.48l10.59,5.76a1.51,1.51,0,0,0-1.21,1.48A1.14,1.14,0,0,0,25,24.64Z"/><path class="cls-3" d="M29,16.43,18.37,10.67a1,1,0,0,1-.49-.89A1.29,1.29,0,0,1,18.94,8.5l10.58,5.76a1.29,1.29,0,0,0-1.05,1.28A1,1,0,0,0,29,16.43Z"/><path class="cls-3" d="M29.52,14.26a.93.93,0,0,1,1.05,1,1.29,1.29,0,0,1-1.05,1.28.93.93,0,0,1-1.05-1A1.29,1.29,0,0,1,29.52,14.26Z"/><path class="cls-3" d="M22.79,36.92,12.2,31.16c-.15-.42-3-8.37,4.6-10.44l10.59,5.76C19.79,28.55,22.64,36.5,22.79,36.92Z"/><path class="cls-2" d="M53.47,5.84c4.79-.67,8.68,3,8.67,8.15L62.07,48.8c0,5.17-3.91,9.91-8.7,10.59L21.12,63.92c-4.8.67-8.68-3-8.67-8.15L12.52,21c0-5.17,3.9-9.91,8.7-10.59Zm-1.14,29c4.43-5.39-1.32-7.53-1.62-7.64.07-7.76-5.1-8.19-8.19-7.75a11.59,11.59,0,0,0-2.26.52A11.21,11.21,0,0,0,35,19.34c-5.79.82-7.56,6.83-7.65,7.14-7.6,2.07-4.75,10-4.6,10.44-5.67,9.49,3,10.9,3.47,11,1.3,5.61,4,6.68,6.46,6.34a10.08,10.08,0,0,0,4.54-2.11,6.16,6.16,0,0,0,3.65.76c3.46-.49,4.74-4.5,4.81-4.71,11.31-2.93,6.84-12.8,6.61-13.31m-3.87,18a2.12,2.12,0,0,0,1.7-2.09,1.5,1.5,0,0,0-1.7-1.6,2.14,2.14,0,0,0-1.71,2.08,1.51,1.51,0,0,0,1.71,1.61M40.64,14.16a2.12,2.12,0,0,0-1.71,2.08,1.51,1.51,0,0,0,1.7,1.61,2.12,2.12,0,0,0,1.71-2.09,1.51,1.51,0,0,0-1.7-1.6M18.84,39a2.13,2.13,0,0,0,1.71-2.08,1.51,1.51,0,0,0-1.71-1.6,2.12,2.12,0,0,0-1.7,2.08,1.5,1.5,0,0,0,1.7,1.6M53.62,25.6a1.78,1.78,0,0,0,1.44-1.75,1.27,1.27,0,0,0-1.44-1.36,1.78,1.78,0,0,0-1.44,1.76,1.27,1.27,0,0,0,1.44,1.35m-28-3.47a1.51,1.51,0,0,0-1.21,1.48,1.07,1.07,0,0,0,1.21,1.14,1.5,1.5,0,0,0,1.21-1.48,1.07,1.07,0,0,0-1.21-1.14M56.31,36a1.38,1.38,0,0,0,1.12-1.35,1,1,0,0,0-1.11-1A1.37,1.37,0,0,0,55.21,35a1,1,0,0,0,1.1,1M37.25,56.73a1.34,1.34,0,0,0,1.09-1.33,1,1,0,0,0-1.09-1,1.35,1.35,0,0,0-1.08,1.33,1,1,0,0,0,1.08,1M29.52,14.26a1.29,1.29,0,0,0-1.05,1.28.93.93,0,0,0,1.05,1,1.29,1.29,0,0,0,1.05-1.28.93.93,0,0,0-1.05-1M58.58,29.49a1,1,0,0,0,.82-1,.72.72,0,0,0-.82-.76,1,1,0,0,0-.81,1,.72.72,0,0,0,.81.77M24.32,51.34a1,1,0,0,0,.81-1,.71.71,0,0,0-.81-.76,1,1,0,0,0-.82,1,.73.73,0,0,0,.82.77"/><path class="cls-3" d="M24.32,49.58a.71.71,0,0,1,.81.76,1,1,0,0,1-.81,1,.73.73,0,0,1-.82-.77A1,1,0,0,1,24.32,49.58Z"/><path class="cls-3" d="M18.84,35.29a1.51,1.51,0,0,1,1.71,1.6A2.13,2.13,0,0,1,18.84,39a1.5,1.5,0,0,1-1.7-1.6A2.12,2.12,0,0,1,18.84,35.29Z"/><path class="cls-3" d="M25.66,22.13a1.07,1.07,0,0,1,1.21,1.14,1.5,1.5,0,0,1-1.21,1.48,1.07,1.07,0,0,1-1.21-1.14A1.51,1.51,0,0,1,25.66,22.13Z"/><path class="cls-3" d="M50.71,27.22c.3.11,6,2.25,1.62,7.64.23.51,4.7,10.38-6.61,13.31-.07.21-1.35,4.22-4.81,4.71a6.16,6.16,0,0,1-3.65-.76,10.08,10.08,0,0,1-4.54,2.11c-2.42.34-5.16-.73-6.46-6.34-.46-.07-9.14-1.48-3.47-11-.15-.42-3-8.37,4.6-10.44.09-.31,1.86-6.32,7.65-7.14a11.21,11.21,0,0,1,5.22.65,11.59,11.59,0,0,1,2.26-.52C45.61,19,50.78,19.46,50.71,27.22Zm-4,14.87c.32-2-1.51-.13-2.94-1.26-2.16-1.26,4.57-11.18,2.35-13.22A2.63,2.63,0,0,0,44,26.68a3.15,3.15,0,0,0-1.05.41,3.1,3.1,0,0,1-1,.4H41.8c-1.32.08-.74-1.31-2.2-1.1l-.28.05c-1.81.42-1,1.77-2.9,2.14l-.14,0c-.66.09-.87-.21-1.4-.53a2.15,2.15,0,0,0-1.43-.26,3.14,3.14,0,0,0-.83.24l-.32.16a5.17,5.17,0,0,0-2.36,3.12L27.23,40.9a4.61,4.61,0,0,0-.18,1.9,2,2,0,0,0,1.29,1.88,2.1,2.1,0,0,0,1.15.19c1.85-.26,3.07-3.33,4.06-6.36s1.76-6,2.73-6.17a.44.44,0,0,1,.29,0c2.3,1.1-3.75,8.19-1.2,9.51A1.05,1.05,0,0,0,36,42c1.3-.19,2.55-3,3.69-5.71s2.16-5.49,3-5.61a.41.41,0,0,1,.19,0c.44.19,1,.39-.94,4.33s-1.75,6.49-.75,7.82c.54.7,2,1,3.27.81s2.13-.67,2.27-1.59"/><path class="cls-4" d="M47.52.88a7.44,7.44,0,0,0-4.64-.8L10.63,4.61C5.83,5.29,1.94,10,1.93,15.2L1.86,50a8.12,8.12,0,0,0,4,7.35l10.59,5.76a8.12,8.12,0,0,1-4-7.35L12.52,21c0-5.17,3.9-9.91,8.7-10.59L53.47,5.84a7.44,7.44,0,0,1,4.64.8Z"/></g></g></svg>