<?xml version="1.0" ?><svg viewBox="0 0 64 64" xmlns="http://www.w3.org/2000/svg" xmlns:xlink="http://www.w3.org/1999/xlink"><defs><style>.cls-1{isolation:isolate;}.cls-2{fill:#fff;}.cls-3{fill:#662d91;}.cls-4{fill:url(#linear-gradient);}.cls-5{fill:#4a1f4f;}</style><linearGradient gradientUnits="userSpaceOnUse" id="linear-gradient" x1="24.37" x2="52.86" y1="60.72" y2="3.74"><stop offset="0" stop-color="#361a40"/><stop offset="1" stop-color="#1f0e27"/></linearGradient></defs><title/><g data-name="27-ning" id="_27-ning"><g class="cls-1"><polygon class="cls-2" points="54.8 32.18 44.21 26.42 46.36 26.12 56.94 31.88 54.8 32.18"/><path class="cls-3" d="M44.88,30.86a5.52,5.52,0,0,0,2.18-4l10.59,5.76a5.53,5.53,0,0,1-2.19,4Z"/><path class="cls-3" d="M46.74,26.19,57.33,32l.15.11a.71.71,0,0,1,.17.58L47.06,26.88a.69.69,0,0,0-.17-.58A.58.58,0,0,0,46.74,26.19Z"/><path class="cls-2" d="M46.74,26.19,57.33,32a.59.59,0,0,0-.39-.07L46.36,26.12A.56.56,0,0,1,46.74,26.19Z"/><path class="cls-3" d="M46.14,24.6h0l10.58,5.76h0Z"/><polygon class="cls-3" points="54.8 33.73 44.21 27.97 45.45 27.8 56.04 33.56 54.8 33.73"/><path class="cls-3" d="M45.74,24.78a.85.85,0,0,0,.4-.18l10.58,5.76a.77.77,0,0,1-.39.18Z"/><path class="cls-3" d="M45.74,24.78h0l10.59,5.76h0L45.74,24.78Z"/><path class="cls-2" d="M53.14,35.46,42.56,29.7a1.54,1.54,0,0,0,.93.17,2.77,2.77,0,0,0,2-2.07L56,33.56a2.78,2.78,0,0,1-2,2.07A1.56,1.56,0,0,1,53.14,35.46Z"/><path class="cls-3" d="M43.83,27.91a.6.6,0,0,0,.38.06L54.8,33.73a.64.64,0,0,1-.39-.06Z"/><path class="cls-3" d="M45.35,24.72a.66.66,0,0,0,.39.06l10.59,5.76a.59.59,0,0,1-.39-.07Z"/><path class="cls-3" d="M43.48,31.42a3.44,3.44,0,0,0,1.4-.56l10.58,5.76a3.35,3.35,0,0,1-1.39.56L43.48,31.42l10.59,5.76a2.67,2.67,0,0,1-1.68-.31L41.8,31.11A2.68,2.68,0,0,0,43.48,31.42Z"/><path class="cls-2" d="M54.41,33.67,43.83,27.91a.67.67,0,0,1-.34-.61.89.89,0,0,1,.72-.88L54.8,32.18a.89.89,0,0,0-.72.87A.69.69,0,0,0,54.41,33.67Z"/><path class="cls-3" d="M46.35,23.5a3.3,3.3,0,0,0-.87-.91l10.59,5.76a3.13,3.13,0,0,1,.86.91.86.86,0,0,1-.21,1.1L46.14,24.6A.89.89,0,0,0,46.35,23.5Z"/><path class="cls-3" d="M45.48,22.59a1.67,1.67,0,0,0-.28-.18l10.59,5.76a2.2,2.2,0,0,1,.28.18l-5.29-2.88-1.39-.76L48,24l-1.31-.71C46.35,23.06,45.84,22.81,45.48,22.59Z"/><path class="cls-2" d="M55.94,30.47,45.35,24.72a.8.8,0,0,1-.21-.2,2,2,0,0,0-.72-.69L55,29.59a2,2,0,0,1,.72.69A.55.55,0,0,0,55.94,30.47Z"/><path class="cls-3" d="M39,32a.92.92,0,0,0,.48-.8L50.1,37a.91.91,0,0,1-.47.8Z"/><path class="cls-3" d="M43.5,23.66a1.42,1.42,0,0,1,.92.17L55,29.59a1.43,1.43,0,0,0-.93-.17c-1.19.16-2.16,1.69-2.17,3.4L41.33,27.06l10.58,5.76a2.94,2.94,0,0,0,1.23,2.64L42.56,29.7a2.92,2.92,0,0,1-1.23-2.64C41.33,25.35,42.3,23.83,43.5,23.66Z"/><polygon class="cls-3" points="50.1 36.95 39.52 31.19 39.53 23.44 50.12 29.2 50.1 36.95"/><path class="cls-2" d="M52.39,36.87,41.8,31.11a4.26,4.26,0,0,1-1.92-3.85c0-2.56,1.63-4.87,3.62-5.15l10.59,5.76c-2,.28-3.62,2.59-3.62,5.15A4.26,4.26,0,0,0,52.39,36.87Z"/><polygon class="cls-2" points="48.67 34.95 38.09 29.19 38.09 23.64 48.68 29.41 48.67 34.95"/><polygon class="cls-3" points="48.67 34.95 38.09 29.19 33.62 23.78 44.21 29.54 48.67 34.95"/><polygon class="cls-2" points="48.82 37.62 38.24 31.86 33.78 26.46 44.37 32.22 48.82 37.62"/><path class="cls-3" d="M49,37.77,38.41,32a.65.65,0,0,0,.39.06A.57.57,0,0,0,39,32l10.59,5.76a.62.62,0,0,1-.24.08A.64.64,0,0,1,49,37.77Z"/><path class="cls-2" d="M49,37.77,38.41,32a.8.8,0,0,1-.17-.15l10.58,5.76A.65.65,0,0,0,49,37.77Z"/><path class="cls-2" d="M45.2,22.41l10.59,5.76a2.7,2.7,0,0,0-1.7-.3L43.5,22.11A2.7,2.7,0,0,1,45.2,22.41Z"/><path class="cls-2" d="M54.09,27.87a2.84,2.84,0,0,1,2.84,1.39.86.86,0,0,1-.21,1.1.77.77,0,0,1-.39.18.59.59,0,0,1-.6-.26,1.69,1.69,0,0,0-1.65-.86c-1.19.16-2.16,1.69-2.17,3.4s1,3,2.16,2.81a2.78,2.78,0,0,0,2-2.07l-1.24.17a.64.64,0,0,1-.72-.68.89.89,0,0,1,.72-.87l2.14-.3a.6.6,0,0,1,.54.18.71.71,0,0,1,.17.58c-.24,2.33-1.78,4.28-3.58,4.54-2,.27-3.61-1.59-3.6-4.16S52.1,28.15,54.09,27.87Z"/><path class="cls-3" d="M39.53,23.44a.67.67,0,0,0-.33-.61l10.59,5.76a.67.67,0,0,1,.33.61Z"/><polygon class="cls-3" points="44.36 37.76 33.77 32 33.78 26.46 44.37 32.22 44.36 37.76"/><polygon class="cls-2" points="42.92 37.96 32.33 32.2 32.34 24.45 42.93 30.21 42.92 37.96"/><path class="cls-3" d="M33.05,32.88a.89.89,0,0,0,.72-.88l10.59,5.76a.9.9,0,0,1-.72.88Z"/><path class="cls-2" d="M39.2,22.83l10.59,5.76a.61.61,0,0,0-.38-.07.89.89,0,0,0-.73.88L38.1,23.65a.9.9,0,0,1,.72-.89A.68.68,0,0,1,39.2,22.83Z"/><path class="cls-3" d="M32.66,32.82a.65.65,0,0,0,.39.06l10.59,5.76a.57.57,0,0,1-.39-.07Z"/><path class="cls-2" d="M43.25,38.57,32.66,32.82a.69.69,0,0,1-.33-.62L42.92,38A.66.66,0,0,0,43.25,38.57Z"/><polygon class="cls-3" points="41.48 38.17 30.89 32.41 30.91 24.66 41.49 30.41 41.48 38.17"/><polygon class="cls-2" points="40.04 38.37 29.46 32.61 29.47 24.86 40.06 30.62 40.04 38.37"/><path class="cls-3" d="M30.18,33.29a.9.9,0,0,0,.71-.88l10.59,5.76a.89.89,0,0,1-.72.88Z"/><path class="cls-3" d="M29.79,33.22a.62.62,0,0,0,.39.07l10.58,5.76a.61.61,0,0,1-.38-.07Z"/><path class="cls-2" d="M40.38,39,29.79,33.22a.67.67,0,0,1-.33-.61L40,38.37A.66.66,0,0,0,40.38,39Z"/><path class="cls-3" d="M33.45,23.64,44,29.4a.55.55,0,0,1,.17.14L33.62,23.78A.46.46,0,0,0,33.45,23.64Z"/><path class="cls-2" d="M33.45,23.64,44,29.4a.59.59,0,0,0-.39-.07L33.06,23.57A.64.64,0,0,1,33.45,23.64Z"/><path class="cls-3" d="M27.54,33.61a.91.91,0,0,0,.48-.8l10.59,5.76a.93.93,0,0,1-.48.8Z"/><path class="cls-2" d="M43.42,29.41,32.83,23.65a.79.79,0,0,1,.23-.08l10.59,5.76A.63.63,0,0,0,43.42,29.41Z"/><path class="cls-2" d="M43.65,29.33a.59.59,0,0,1,.56.21L48.67,35V29.4a.89.89,0,0,1,.73-.88.64.64,0,0,1,.71.68l0,7.75a.91.91,0,0,1-.47.8.66.66,0,0,1-.81-.13l-4.45-5.4v5.54a.9.9,0,0,1-.72.88.63.63,0,0,1-.72-.68V30.21a.92.92,0,0,1,.49-.8A.63.63,0,0,1,43.65,29.33Z"/><path class="cls-2" d="M42.93,30.21,32.34,24.45a.92.92,0,0,1,.49-.8l10.59,5.76A.92.92,0,0,0,42.93,30.21Z"/><polygon class="cls-3" points="38.61 38.57 28.02 32.81 28.03 25.06 38.62 30.82 38.61 38.57"/><polygon class="cls-2" points="37.17 36.56 26.59 30.8 26.6 25.26 37.19 31.02 37.17 36.56"/><polygon class="cls-3" points="37.17 36.56 26.59 30.8 22.13 25.4 32.71 31.16 37.17 36.56"/><polygon class="cls-2" points="37.33 39.24 26.74 33.48 22.29 28.07 32.87 33.84 37.33 39.24"/><path class="cls-3" d="M37.5,39.38,26.91,33.62a.67.67,0,0,0,.39.07.75.75,0,0,0,.24-.08l10.59,5.76a.75.75,0,0,1-.24.08A.65.65,0,0,1,37.5,39.38Z"/><path class="cls-2" d="M37.5,39.38,26.91,33.62a.55.55,0,0,1-.17-.14l10.59,5.76A.55.55,0,0,0,37.5,39.38Z"/><path class="cls-3" d="M30.91,24.66a.69.69,0,0,0-.34-.62L41.16,29.8a.67.67,0,0,1,.33.61Z"/><path class="cls-2" d="M30.57,24,41.16,29.8a.6.6,0,0,0-.38-.06L30.19,24A.6.6,0,0,1,30.57,24Z"/><path class="cls-2" d="M40.06,30.62,29.47,24.86a.88.88,0,0,1,.72-.88l10.59,5.76A.88.88,0,0,0,40.06,30.62Z"/><path class="cls-2" d="M40.78,29.74a.62.62,0,0,1,.71.67v7.76a.89.89,0,0,1-.72.88.64.64,0,0,1-.72-.68l0-7.75A.88.88,0,0,1,40.78,29.74Z"/><path class="cls-3" d="M28,25.06a.66.66,0,0,0-.33-.61l10.59,5.76a.66.66,0,0,1,.33.61Z"/><polygon class="cls-3" points="32.86 39.38 22.27 33.62 22.29 28.07 32.87 33.84 32.86 39.38"/><polygon class="cls-2" points="31.42 39.58 20.83 33.82 20.85 26.07 31.43 31.83 31.42 39.58"/><path class="cls-3" d="M21.55,34.5a.91.91,0,0,0,.73-.88l10.58,5.76a.9.9,0,0,1-.72.88Z"/><path class="cls-2" d="M27.7,24.45l10.59,5.76a.61.61,0,0,0-.38-.07.89.89,0,0,0-.72.88L26.6,25.26a.89.89,0,0,1,.72-.88A.61.61,0,0,1,27.7,24.45Z"/><path class="cls-3" d="M21.17,34.43a.61.61,0,0,0,.38.07l10.59,5.76a.65.65,0,0,1-.39-.07Z"/><path class="cls-2" d="M31.75,40.19,21.17,34.43a.68.68,0,0,1-.34-.61l10.59,5.76A.67.67,0,0,0,31.75,40.19Z"/><path class="cls-3" d="M22,25.25,32.54,31a.61.61,0,0,1,.17.15L22.13,25.4A.65.65,0,0,0,22,25.25Z"/><path class="cls-3" d="M17.37,33.61a1.13,1.13,0,0,0,.65-.67L28.61,38.7a1.13,1.13,0,0,1-.65.67Z"/><path class="cls-3" d="M17.37,33.61,28,39.37l-.18,0L17.19,33.65Z"/><path class="cls-2" d="M22,25.25,32.54,31a.64.64,0,0,0-.39-.06L21.57,25.19A.62.62,0,0,1,22,25.25Z"/><path class="cls-3" d="M16.85,33.62a.66.66,0,0,0,.34,0l10.59,5.76a.66.66,0,0,1-.34,0Z"/><path class="cls-2" d="M31.92,31,21.33,25.26a.73.73,0,0,1,.24-.07L32.15,31A.75.75,0,0,0,31.92,31Z"/><path class="cls-3" d="M18,32.94a.91.91,0,0,0-.34-1.14l10.58,5.76a.9.9,0,0,1,.35,1.14Z"/><path class="cls-3" d="M27.3,39.32,16.71,33.57l.14,0,10.59,5.76A.35.35,0,0,1,27.3,39.32Z"/><path class="cls-2" d="M31.43,31.83,20.85,26.07a.94.94,0,0,1,.48-.81L31.92,31A1,1,0,0,0,31.43,31.83Z"/><path class="cls-2" d="M17.68,31.8l10.58,5.76a.31.31,0,0,0-.13-.06.83.83,0,0,0-.35,0L17.2,31.71a.79.79,0,0,1,.34,0A.42.42,0,0,1,17.68,31.8Z"/><path class="cls-2" d="M27.3,39.32,16.71,33.57a.94.94,0,0,1-.35-1.15L27,38.18A.91.91,0,0,0,27.3,39.32Z"/><path class="cls-3" d="M15.1,35.75a.73.73,0,0,0-.34-.39l10.58,5.76a.75.75,0,0,1,.35.39,1.13,1.13,0,0,1-.49,1.34L14.61,37.09A1.11,1.11,0,0,0,15.1,35.75Z"/><path class="cls-3" d="M24.38,42.89,13.79,37.13a.78.78,0,0,0,.48.08,1.16,1.16,0,0,0,.34-.12L25.2,42.85a1.16,1.16,0,0,1-.34.12A.84.84,0,0,1,24.38,42.89Z"/><path class="cls-2" d="M27.78,37.47a.83.83,0,0,1,.35,0,.88.88,0,0,1,.48,1.2,1.08,1.08,0,0,1-.83.71.66.66,0,0,1-.34,0,.88.88,0,0,1-.49-1.2A1.09,1.09,0,0,1,27.78,37.47Z"/><path class="cls-2" d="M27,38.18,16.36,32.42a1.09,1.09,0,0,1,.84-.71l10.58,5.76A1.09,1.09,0,0,0,27,38.18Z"/><path class="cls-2" d="M14.76,35.36l10.58,5.76a.79.79,0,0,0-.48-.09L14.27,35.27A.83.83,0,0,1,14.76,35.36Z"/><path class="cls-2" d="M24.38,42.89,13.79,37.13a.77.77,0,0,1-.35-.4L24,42.49A.77.77,0,0,0,24.38,42.89Z"/><path class="cls-2" d="M24,42.49,13.44,36.73a1.13,1.13,0,0,1,.49-1.34,1.16,1.16,0,0,1,.34-.12L24.86,41a1.16,1.16,0,0,0-.34.12A1.13,1.13,0,0,0,24,42.49Z"/><path class="cls-2" d="M24.86,41a.76.76,0,0,1,.83.48,1.13,1.13,0,0,1-.49,1.34,1.16,1.16,0,0,1-.34.12.76.76,0,0,1-.83-.48,1.13,1.13,0,0,1,.49-1.34A1.16,1.16,0,0,1,24.86,41Z"/><path class="cls-3" d="M14.87,32.94a1.07,1.07,0,0,0,.83-.72L26.29,38a1.07,1.07,0,0,1-.84.72Z"/><path class="cls-3" d="M27.31,34.87,16.72,29.12a.86.86,0,0,0,.48.08,1.06,1.06,0,0,0,.34-.12l10.59,5.76a1.16,1.16,0,0,1-.34.12A.79.79,0,0,1,27.31,34.87Z"/><path class="cls-3" d="M18,27.74a.73.73,0,0,0-.35-.4L28.27,33.1a.77.77,0,0,1,.35.4,1.13,1.13,0,0,1-.49,1.34L17.54,29.08A1.11,1.11,0,0,0,18,27.74Z"/><path class="cls-3" d="M14.52,32.92a.83.83,0,0,0,.35,0L25.45,38.7a.78.78,0,0,1-.34,0Z"/><path class="cls-3" d="M13.66,34.72a1.14,1.14,0,0,0,.48-1.34l10.59,5.76a1.14,1.14,0,0,1-.48,1.34Z"/><path class="cls-3" d="M14.39,32.86l.13.06,10.59,5.76L25,38.62Z"/><path class="cls-3" d="M15.7,32.22a.9.9,0,0,0-.34-1.13L26,36.84A.93.93,0,0,1,26.29,38Z"/><path class="cls-2" d="M17.68,27.34,28.27,33.1A.69.69,0,0,0,27.8,33L17.21,27.26A.75.75,0,0,1,17.68,27.34Z"/><path class="cls-2" d="M27.45,33.14,16.86,27.38a1.21,1.21,0,0,1,.35-.12L27.8,33A.91.91,0,0,0,27.45,33.14Z"/><path class="cls-3" d="M14.14,33.38a.73.73,0,0,0-.35-.4l10.59,5.76a.77.77,0,0,1,.35.4C21.56,37.41,16.56,36.07,14.14,33.38Z"/><path class="cls-3" d="M23.42,40.51,12.83,34.75a.8.8,0,0,0,.49.09,1.16,1.16,0,0,0,.34-.12l10.59,5.76a1.21,1.21,0,0,1-.35.12A.79.79,0,0,1,23.42,40.51Z"/><path class="cls-2" d="M15.36,31.09,26,36.84l-.14-.05a.71.71,0,0,0-.35,0L14.87,31a.69.69,0,0,1,.35,0A.42.42,0,0,1,15.36,31.09Z"/><path class="cls-2" d="M27.31,34.87,16.72,29.12a.79.79,0,0,1-.35-.41,1.12,1.12,0,0,1,.49-1.33l10.59,5.76A1.12,1.12,0,0,0,27,34.47.73.73,0,0,0,27.31,34.87Z"/><path class="cls-2" d="M27.8,33a.75.75,0,0,1,.82.48,1.13,1.13,0,0,1-.49,1.34,1.16,1.16,0,0,1-.34.12.76.76,0,0,1-.83-.49,1.12,1.12,0,0,1,.49-1.33A.91.91,0,0,1,27.8,33Z"/><path class="cls-2" d="M25,38.62,14.39,32.86A.92.92,0,0,1,14,31.72a1.07,1.07,0,0,1,.83-.72l10.59,5.76a1.06,1.06,0,0,0-.83.71A.93.93,0,0,0,25,38.62Z"/><path class="cls-2" d="M25.46,36.76a.71.71,0,0,1,.35,0A.88.88,0,0,1,26.29,38a1.07,1.07,0,0,1-.84.72.78.78,0,0,1-.34,0,.9.9,0,0,1-.48-1.21A1.06,1.06,0,0,1,25.46,36.76Z"/><path class="cls-2" d="M13.79,33l10.59,5.76a.72.72,0,0,0-.48-.08L13.31,32.9A.71.71,0,0,1,13.79,33Z"/><path class="cls-2" d="M23.42,40.51,12.83,34.75a.82.82,0,0,1-.35-.4l10.59,5.76A.77.77,0,0,0,23.42,40.51Z"/><path class="cls-3" d="M15.71,29.1a.79.79,0,0,0-.35-.39L26,34.47a.77.77,0,0,1,.34.39,1.12,1.12,0,0,1-.48,1.34L15.22,30.44A1.12,1.12,0,0,0,15.71,29.1Z"/><path class="cls-3" d="M25,36.24,14.39,30.48a.79.79,0,0,0,.48.09.93.93,0,0,0,.35-.13L25.81,36.2a.81.81,0,0,1-.35.12A.72.72,0,0,1,25,36.24Z"/><path class="cls-2" d="M23.07,40.11,12.48,34.35A1.13,1.13,0,0,1,13,33a.78.78,0,0,1,.34-.12L23.9,38.66a.78.78,0,0,0-.34.12A1.12,1.12,0,0,0,23.07,40.11Z"/><path class="cls-2" d="M15.36,28.71,26,34.47a.74.74,0,0,0-.49-.08L14.88,28.63A.72.72,0,0,1,15.36,28.71Z"/><path class="cls-3" d="M10.14,37.79a1.09,1.09,0,0,0,.84-.71l10.58,5.76a1.06,1.06,0,0,1-.83.71.66.66,0,0,1-.34,0l-.14-.05L9.66,37.71l.14,0A.66.66,0,0,0,10.14,37.79Z"/><path class="cls-3" d="M11,37.08a.93.93,0,0,0-.35-1.15l10.58,5.76a.9.9,0,0,1,.35,1.15Z"/><path class="cls-2" d="M25.12,34.51,14.53,28.75a.77.77,0,0,1,.35-.12l10.58,5.76A.78.78,0,0,0,25.12,34.51Z"/><path class="cls-2" d="M10.63,35.93l10.58,5.76-.13-.06L10.49,35.88Z"/><path class="cls-2" d="M25,36.24,14.39,30.48a.75.75,0,0,1-.34-.4,1.11,1.11,0,0,1,.48-1.33l10.59,5.76a1.13,1.13,0,0,0-.49,1.33A.82.82,0,0,0,25,36.24Z"/><path class="cls-2" d="M25.46,34.39a.75.75,0,0,1,.83.47,1.12,1.12,0,0,1-.48,1.34.81.81,0,0,1-.35.12.76.76,0,0,1-.83-.48,1.13,1.13,0,0,1,.49-1.33A.78.78,0,0,1,25.46,34.39Z"/><path class="cls-3" d="M11.94,34.43a.92.92,0,0,0-.34-1.14l10.59,5.76a.92.92,0,0,1,.34,1.14Z"/><path class="cls-3" d="M21.22,40.82,10.63,35.06a.42.42,0,0,0,.14.06.79.79,0,0,0,.34,0,1.09,1.09,0,0,0,.83-.72l10.59,5.76a1.09,1.09,0,0,1-.83.72,1,1,0,0,1-.34,0A.35.35,0,0,1,21.22,40.82Z"/><path class="cls-2" d="M20.74,41.61,10.15,35.85a.78.78,0,0,1,.34,0l10.59,5.75A.78.78,0,0,0,20.74,41.61Z"/><path class="cls-2" d="M11.6,33.29l10.59,5.76L22.05,39a.83.83,0,0,0-.35,0L11.11,33.21a.82.82,0,0,1,.35,0Z"/><path class="cls-2" d="M20.25,43.47,9.66,37.71a.92.92,0,0,1-.34-1.15,1.08,1.08,0,0,1,.83-.71l10.59,5.76a1.09,1.09,0,0,0-.84.71A.93.93,0,0,0,20.25,43.47Z"/><path class="cls-2" d="M20.74,41.61a.78.78,0,0,1,.34,0,.9.9,0,0,1,.48,1.21,1.06,1.06,0,0,1-.83.71.66.66,0,0,1-.34,0,.88.88,0,0,1-.49-1.2A1.09,1.09,0,0,1,20.74,41.61Z"/><path class="cls-2" d="M21.22,40.82,10.63,35.06a.91.91,0,0,1-.35-1.14l10.59,5.76A.92.92,0,0,0,21.22,40.82Z"/><path class="cls-2" d="M20.87,39.68,10.28,33.92a1.09,1.09,0,0,1,.83-.71L21.7,39A1.09,1.09,0,0,0,20.87,39.68Z"/><path class="cls-2" d="M21.7,39a.83.83,0,0,1,.35,0,.89.89,0,0,1,.48,1.2,1.09,1.09,0,0,1-.83.72,1,1,0,0,1-.34,0,.89.89,0,0,1-.49-1.2A1.09,1.09,0,0,1,21.7,39Z"/><path class="cls-3" d="M23.43,34.78,12.84,29l.14.06a1,1,0,0,0,.34,0,1.09,1.09,0,0,0,.83-.72l10.59,5.76a1.08,1.08,0,0,1-.83.71.83.83,0,0,1-.35,0Z"/><path class="cls-3" d="M14.15,28.39a.9.9,0,0,0-.35-1.14L24.39,33a.91.91,0,0,1,.35,1.14Z"/><path class="cls-2" d="M13.8,27.25,24.39,33a.31.31,0,0,0-.13-.06L13.67,27.19A.31.31,0,0,1,13.8,27.25Z"/><path class="cls-3" d="M15.12,25.75a.91.91,0,0,0-.34-1.14l10.59,5.76a.91.91,0,0,1,.34,1.14Z"/><path class="cls-3" d="M14.29,26.46a1.08,1.08,0,0,0,.83-.71l10.59,5.76a1.09,1.09,0,0,1-.84.71.74.74,0,0,1-.33,0l-.14-.06L13.81,26.38l.14.06A.77.77,0,0,0,14.29,26.46Z"/><path class="cls-2" d="M23.92,32.93,13.33,27.17a.78.78,0,0,1,.34,0L24.26,33A.78.78,0,0,0,23.92,32.93Z"/><path class="cls-2" d="M14.78,24.61l10.59,5.76a.47.47,0,0,0-.15-.06.79.79,0,0,0-.34,0L14.29,24.52a.83.83,0,0,1,.35,0A.35.35,0,0,1,14.78,24.61Z"/><path class="cls-2" d="M23.92,32.93a.78.78,0,0,1,.34,0,.89.89,0,0,1,.48,1.2,1.08,1.08,0,0,1-.83.71.83.83,0,0,1-.35,0,.89.89,0,0,1-.48-1.2A1.08,1.08,0,0,1,23.92,32.93Z"/><path class="cls-2" d="M23.43,34.78,12.84,29a.9.9,0,0,1-.34-1.14,1.06,1.06,0,0,1,.83-.71l10.59,5.76a1.08,1.08,0,0,0-.84.71A.91.91,0,0,0,23.43,34.78Z"/><path class="cls-3" d="M12,28.28,22.61,34a1.16,1.16,0,0,1-.56,1L11.47,29.29A1.13,1.13,0,0,0,12,28.28Z"/><path class="cls-3" d="M9.56,33.69a1.06,1.06,0,0,0,.34-.12l10.59,5.75a.78.78,0,0,1-.34.12.72.72,0,0,1-.48-.08L9.08,33.6A.79.79,0,0,0,9.56,33.69Z"/><path class="cls-3" d="M10.39,32.23a.77.77,0,0,0-.35-.4l10.59,5.76A.82.82,0,0,1,21,38a1.11,1.11,0,0,1-.49,1.33L9.9,33.57A1.13,1.13,0,0,0,10.39,32.23Z"/><path class="cls-2" d="M24.4,32.14,13.81,26.38a.92.92,0,0,1-.35-1.14L24.05,31A.91.91,0,0,0,24.4,32.14Z"/><path class="cls-3" d="M12,28.28A1,1,0,0,0,12,28l10.59,5.76a1.3,1.3,0,0,1,.07.33Z"/><path class="cls-2" d="M24.05,31,13.46,25.24a1.11,1.11,0,0,1,.83-.72l10.59,5.76A1.09,1.09,0,0,0,24.05,31Z"/><path class="cls-2" d="M24.88,30.28a.79.79,0,0,1,.34,0,.88.88,0,0,1,.49,1.2,1.09,1.09,0,0,1-.84.71.74.74,0,0,1-.33,0,.89.89,0,0,1-.49-1.2A1.09,1.09,0,0,1,24.88,30.28Z"/><path class="cls-2" d="M10,31.83l10.59,5.76a.77.77,0,0,0-.47-.09L9.57,31.75A.69.69,0,0,1,10,31.83Z"/><path class="cls-3" d="M12,28a.73.73,0,0,0-.34-.39L22.2,33.32a.73.73,0,0,1,.34.39l-5.29-2.88-4.06-2.2A4.8,4.8,0,0,1,12,28Z"/><path class="cls-3" d="M21.23,35.09,10.64,29.33a.72.72,0,0,0,.48.08.81.81,0,0,0,.35-.12l10.58,5.76a.78.78,0,0,1-.34.12A.72.72,0,0,1,21.23,35.09Z"/><path class="cls-2" d="M19.81,37.63,9.22,31.87a.77.77,0,0,1,.35-.12L20.16,37.5A.93.93,0,0,0,19.81,37.63Z"/><path class="cls-3" d="M7.23,35.05a.77.77,0,0,0,.35-.12l10.59,5.76a1,1,0,0,1-.35.12Z"/><path class="cls-2" d="M19.67,39.36,9.08,33.6a.77.77,0,0,1-.35-.4,1.12,1.12,0,0,1,.49-1.33l10.59,5.76A1.12,1.12,0,0,0,19.32,39,.73.73,0,0,0,19.67,39.36Z"/><path class="cls-2" d="M20.16,37.5A.77.77,0,0,1,21,38a1.11,1.11,0,0,1-.49,1.33.78.78,0,0,1-.34.12.75.75,0,0,1-.83-.48,1.12,1.12,0,0,1,.49-1.33A.93.93,0,0,1,20.16,37.5Z"/><path class="cls-3" d="M9.22,31.28a.66.66,0,0,0,.34,0l10.59,5.76a.66.66,0,0,1-.34,0Z"/><path class="cls-3" d="M10.39,30.6a.9.9,0,0,0-.34-1.14l10.59,5.75A.93.93,0,0,1,21,36.36a1.08,1.08,0,0,1-.83.71L9.56,31.31A1.06,1.06,0,0,0,10.39,30.6Z"/><path class="cls-2" d="M11.61,27.56,22.2,33.32a.76.76,0,0,0-.49-.08L11.12,27.48A.74.74,0,0,1,11.61,27.56Z"/><path class="cls-3" d="M19.67,37,9.08,31.23l.14.05L19.81,37A.35.35,0,0,1,19.67,37Z"/><path class="cls-2" d="M21.23,35.09,10.64,29.33a.82.82,0,0,1-.35-.4l10.59,5.76A.77.77,0,0,0,21.23,35.09Z"/><path class="cls-3" d="M8.07,33.59a.79.79,0,0,0-.35-.39L18.31,39a.73.73,0,0,1,.34.39,1.12,1.12,0,0,1-.48,1.34L7.58,34.93A1.14,1.14,0,0,0,8.07,33.59Z"/><path class="cls-3" d="M6.75,35a.73.73,0,0,0,.48.08l10.59,5.76a.78.78,0,0,1-.48-.08Z"/><path class="cls-2" d="M10.05,29.46l10.59,5.75-.14-.05a.79.79,0,0,0-.34,0L9.57,29.37a.79.79,0,0,1,.34,0A.35.35,0,0,1,10.05,29.46Z"/><path class="cls-2" d="M20.88,34.69,10.29,28.93a1.13,1.13,0,0,1,.49-1.33.82.82,0,0,1,.34-.12l10.59,5.76a.78.78,0,0,0-.34.12A1.11,1.11,0,0,0,20.88,34.69Z"/><path class="cls-2" d="M21.71,33.24a.76.76,0,0,1,.83.47,1.11,1.11,0,0,1-.49,1.34.78.78,0,0,1-.34.12.76.76,0,0,1-.83-.48,1.11,1.11,0,0,1,.49-1.33A.78.78,0,0,1,21.71,33.24Z"/><path class="cls-2" d="M7.72,33.2,18.31,39a.8.8,0,0,0-.49-.09L7.23,33.11A.8.8,0,0,1,7.72,33.2Z"/><path class="cls-2" d="M17.34,40.73,6.75,35a.82.82,0,0,1-.35-.4L17,40.33A.82.82,0,0,0,17.34,40.73Z"/><path class="cls-2" d="M19.67,37,9.08,31.22a.92.92,0,0,1-.35-1.14l10.59,5.76A.92.92,0,0,0,19.67,37Z"/><path class="cls-2" d="M19.32,35.84,8.73,30.08a1.11,1.11,0,0,1,.84-.71l10.59,5.76A1.09,1.09,0,0,0,19.32,35.84Z"/><path class="cls-2" d="M20.16,35.13a.79.79,0,0,1,.34,0,.88.88,0,0,1,.48,1.2,1.08,1.08,0,0,1-.83.71.66.66,0,0,1-.34,0,.88.88,0,0,1-.49-1.2A1.09,1.09,0,0,1,20.16,35.13Z"/><path class="cls-2" d="M17.48,39,6.89,33.23a1.16,1.16,0,0,1,.34-.12l10.59,5.76A1.16,1.16,0,0,0,17.48,39Z"/><path class="cls-2" d="M17,40.33,6.4,34.57a1.16,1.16,0,0,1,.49-1.34L17.48,39A1.14,1.14,0,0,0,17,40.33Z"/><path class="cls-2" d="M17.82,38.87a.76.76,0,0,1,.83.48,1.12,1.12,0,0,1-.48,1.34,1,1,0,0,1-.35.12.77.77,0,0,1-.83-.48A1.14,1.14,0,0,1,17.48,39,1.16,1.16,0,0,1,17.82,38.87Z"/><path class="cls-3" d="M10.65,25.19,21.24,31a.73.73,0,0,1,.34.39,1.12,1.12,0,0,1-.48,1.34L10.51,26.92A1.13,1.13,0,0,0,11,25.58.79.79,0,0,0,10.65,25.19Z"/><path class="cls-3" d="M20.27,32.72,9.68,27a.88.88,0,0,0,.49.08,1.16,1.16,0,0,0,.34-.12L21.1,32.68a1.12,1.12,0,0,1-.35.12A.86.86,0,0,1,20.27,32.72Z"/><path class="cls-2" d="M10.65,25.19,21.24,31a.79.79,0,0,0-.48-.09L10.17,25.1A.79.79,0,0,1,10.65,25.19Z"/><path class="cls-3" d="M17.48,36.33,6.9,30.58a.77.77,0,0,0,.34,0,1.07,1.07,0,0,0,.83-.72l10.59,5.76a1.07,1.07,0,0,1-.83.72A.82.82,0,0,1,17.48,36.33Z"/><path class="cls-3" d="M6.77,30.52l.13.06,10.58,5.75-.13,0Z"/><path class="cls-3" d="M8.07,29.88a.91.91,0,0,0-.34-1.14L18.32,34.5a.93.93,0,0,1,.34,1.14Z"/><path class="cls-2" d="M20.27,32.72,9.68,27a.79.79,0,0,1-.34-.4,1.1,1.1,0,0,1,.48-1.33,1,1,0,0,1,.35-.13l10.59,5.76a.93.93,0,0,0-.35.13,1.11,1.11,0,0,0-.49,1.33A.81.81,0,0,0,20.27,32.72Z"/><path class="cls-2" d="M20.76,30.86a.75.75,0,0,1,.82.48,1.07,1.07,0,0,1-.83,1.46.76.76,0,0,1-.83-.48A1.11,1.11,0,0,1,20.41,31,.93.93,0,0,1,20.76,30.86Z"/><path class="cls-2" d="M7.73,28.74,18.32,34.5l-.14,0a.7.7,0,0,0-.35,0L7.24,28.66a.69.69,0,0,1,.35,0Z"/><path class="cls-2" d="M17.35,36.28,6.77,30.52a.93.93,0,0,1-.36-1.15,1.09,1.09,0,0,1,.83-.71l10.59,5.76a1.09,1.09,0,0,0-.83.71A.93.93,0,0,0,17.35,36.28Z"/><path class="cls-4" d="M53.47,5.84c4.79-.67,8.67,3,8.66,8.15l-.06,34.8c0,5.18-3.91,9.92-8.7,10.6L21.12,63.92c-4.8.67-8.67-3-8.67-8.15L12.52,21c0-5.18,3.9-9.91,8.7-10.59Zm4.18,26.8a.71.71,0,0,0-.17-.58.6.6,0,0,0-.54-.18l-2.14.3a.89.89,0,0,0-.72.87.64.64,0,0,0,.72.68L56,33.56a2.78,2.78,0,0,1-2,2.07c-1.2.16-2.16-1.1-2.16-2.81s1-3.24,2.17-3.4a1.69,1.69,0,0,1,1.65.86.59.59,0,0,0,.6.26.77.77,0,0,0,.39-.18.86.86,0,0,0,.21-1.1,2.84,2.84,0,0,0-2.84-1.39c-2,.28-3.62,2.59-3.62,5.15s1.61,4.43,3.6,4.16c1.8-.26,3.34-2.21,3.58-4.54M50.1,37l0-7.75a.64.64,0,0,0-.71-.68.89.89,0,0,0-.73.88V35l-4.46-5.41a.59.59,0,0,0-.56-.21.63.63,0,0,0-.23.08.92.92,0,0,0-.49.8V38a.63.63,0,0,0,.72.68.9.9,0,0,0,.72-.88V32.22l4.45,5.4a.66.66,0,0,0,.81.13.91.91,0,0,0,.47-.8M38.61,38.57V30.82a.63.63,0,0,0-.71-.68.89.89,0,0,0-.72.88v5.54l-4.47-5.4a.59.59,0,0,0-.56-.21.75.75,0,0,0-.23.07,1,1,0,0,0-.49.81v7.75a.64.64,0,0,0,.72.68.9.9,0,0,0,.72-.88V33.83l4.46,5.41a.63.63,0,0,0,.56.21.75.75,0,0,0,.24-.08.93.93,0,0,0,.48-.8m2.87-.4V30.41a.62.62,0,0,0-.71-.67.88.88,0,0,0-.72.88l0,7.75a.64.64,0,0,0,.72.68.89.89,0,0,0,.72-.88M26.29,38a.88.88,0,0,0-.48-1.19.71.71,0,0,0-.35,0,1.06,1.06,0,0,0-.83.71.9.9,0,0,0,.48,1.21.78.78,0,0,0,.34,0,1.07,1.07,0,0,0,.84-.72m-.48-1.78a1.12,1.12,0,0,0,.48-1.34.75.75,0,0,0-.83-.47.78.78,0,0,0-.34.12,1.13,1.13,0,0,0-.49,1.33.76.76,0,0,0,.83.48.81.81,0,0,0,.35-.12m-4.25,6.64a.9.9,0,0,0-.48-1.21.78.78,0,0,0-.34,0,1.09,1.09,0,0,0-.84.71.88.88,0,0,0,.49,1.2.66.66,0,0,0,.34,0,1.06,1.06,0,0,0,.83-.71M20.41,31a1.11,1.11,0,0,0-.49,1.33.76.76,0,0,0,.83.48,1.07,1.07,0,0,0,.83-1.46.75.75,0,0,0-.82-.48.93.93,0,0,0-.35.13m7.72,3.85a1.13,1.13,0,0,0,.49-1.34A.75.75,0,0,0,27.8,33a.91.91,0,0,0-.35.12A1.12,1.12,0,0,0,27,34.47a.76.76,0,0,0,.83.49,1.16,1.16,0,0,0,.34-.12m-9.47.8a.88.88,0,0,0-.48-1.19.7.7,0,0,0-.35,0,1.09,1.09,0,0,0-.83.71.89.89,0,0,0,.48,1.2.82.82,0,0,0,.35,0,1.07,1.07,0,0,0,.83-.72M19.32,39a.75.75,0,0,0,.83.48.78.78,0,0,0,.34-.12A1.11,1.11,0,0,0,21,38a.77.77,0,0,0-.82-.49.93.93,0,0,0-.35.13A1.12,1.12,0,0,0,19.32,39m5.88,3.89a1.13,1.13,0,0,0,.49-1.34.76.76,0,0,0-.83-.48,1.16,1.16,0,0,0-.34.12A1.13,1.13,0,0,0,24,42.49a.76.76,0,0,0,.83.48,1.16,1.16,0,0,0,.34-.12m-3.15-7.8a1.11,1.11,0,0,0,.49-1.34.76.76,0,0,0-.83-.47.78.78,0,0,0-.34.12,1.11,1.11,0,0,0-.49,1.33.76.76,0,0,0,.83.48.78.78,0,0,0,.34-.12m1-1.41a.89.89,0,0,0,.48,1.2.83.83,0,0,0,.35,0,1.08,1.08,0,0,0,.83-.71.89.89,0,0,0-.48-1.2.78.78,0,0,0-.34,0,1.08,1.08,0,0,0-.84.71m-3.76,2.2a.88.88,0,0,0,.49,1.2.66.66,0,0,0,.34,0,1.08,1.08,0,0,0,.83-.71.88.88,0,0,0-.48-1.2.79.79,0,0,0-.34,0,1.09,1.09,0,0,0-.84.71M24.05,31a.89.89,0,0,0,.49,1.2.74.74,0,0,0,.33,0,1.09,1.09,0,0,0,.84-.71.88.88,0,0,0-.49-1.2.79.79,0,0,0-.34,0,1.09,1.09,0,0,0-.83.72m4.56,7.7a.88.88,0,0,0-.48-1.2.83.83,0,0,0-.35,0,1.09,1.09,0,0,0-.83.71.88.88,0,0,0,.49,1.2.66.66,0,0,0,.34,0,1.08,1.08,0,0,0,.83-.71m-10.44,2a1.12,1.12,0,0,0,.48-1.34.76.76,0,0,0-.83-.48,1.16,1.16,0,0,0-.34.12A1.14,1.14,0,0,0,17,40.33a.77.77,0,0,0,.83.48,1,1,0,0,0,.35-.12m4.9-.58a.76.76,0,0,0,.83.49,1.21,1.21,0,0,0,.35-.12,1.14,1.14,0,0,0,.48-1.34.76.76,0,0,0-.83-.48.78.78,0,0,0-.34.12,1.12,1.12,0,0,0-.49,1.33m-.54.08a.89.89,0,0,0-.48-1.2.83.83,0,0,0-.35,0,1.09,1.09,0,0,0-.83.71.89.89,0,0,0,.49,1.2,1,1,0,0,0,.34,0,1.09,1.09,0,0,0,.83-.72"/><path class="cls-2" d="M32.15,31a.59.59,0,0,1,.56.21l4.47,5.4V31a.89.89,0,0,1,.72-.88.63.63,0,0,1,.71.68v7.75a.93.93,0,0,1-.48.8.75.75,0,0,1-.24.08.63.63,0,0,1-.56-.21l-4.46-5.41v5.55a.9.9,0,0,1-.72.88.64.64,0,0,1-.72-.68V31.83a1,1,0,0,1,.49-.81A.75.75,0,0,1,32.15,31Z"/><path class="cls-2" d="M23.9,38.66a.76.76,0,0,1,.83.48,1.14,1.14,0,0,1-.48,1.34,1.21,1.21,0,0,1-.35.12.76.76,0,0,1-.83-.49,1.12,1.12,0,0,1,.49-1.33A.78.78,0,0,1,23.9,38.66Z"/><path class="cls-2" d="M17.83,34.42a.7.7,0,0,1,.35,0,.88.88,0,0,1,.48,1.19,1.07,1.07,0,0,1-.83.72.82.82,0,0,1-.35,0,.89.89,0,0,1-.48-1.2A1.09,1.09,0,0,1,17.83,34.42Z"/><path class="cls-5" d="M47.52.88a7.45,7.45,0,0,0-4.64-.8L10.63,4.61c-4.8.68-8.69,5.41-8.7,10.6L1.87,50a8.11,8.11,0,0,0,4,7.35l10.58,5.76a8.14,8.14,0,0,1-4-7.35L12.52,21c0-5.18,3.9-9.91,8.7-10.59L53.47,5.84a7.42,7.42,0,0,1,4.63.8Z"/></g></g></svg>