<?xml version="1.0" ?><svg viewBox="0 0 64 64" xmlns="http://www.w3.org/2000/svg" xmlns:xlink="http://www.w3.org/1999/xlink"><defs><style>.cls-1{isolation:isolate;}.cls-2{fill:#fff;}.cls-3{fill:#00bef9;}.cls-4{fill:url(#linear-gradient);}.cls-5{fill:#939598;}</style><linearGradient gradientUnits="userSpaceOnUse" id="linear-gradient" x1="48.97" x2="24.81" y1="16.74" y2="51.11"><stop offset="0" stop-color="#00c7f9"/><stop offset="1" stop-color="#0070fb"/></linearGradient></defs><title/><g data-name="8-messenger" id="_8-messenger"><g class="cls-1"><path class="cls-2" d="M26.68,46.2c10.37-1.46,18.78-11,18.8-21.25l10.59,5.76C56.05,41,47.63,50.5,37.27,52Z"/><path class="cls-2" d="M45.48,25a15.72,15.72,0,0,0-8.1-14.2L48,16.51a15.74,15.74,0,0,1,8.1,14.2Z"/><polygon class="cls-3" points="39.63 39.31 29.04 33.55 38.67 20.81 49.26 26.57 39.63 39.31"/><path class="cls-2" d="M21.48,46.2a18.48,18.48,0,0,0,5.2,0L37.27,52a18.48,18.48,0,0,1-5.2,0Z"/><polygon class="cls-2" points="40.26 33.2 29.67 27.43 38.67 20.81 49.26 26.57 40.26 33.2"/><polygon class="cls-2" points="25.79 56.64 15.2 50.88 21.48 46.2 32.06 51.96 25.79 56.64"/><polygon class="cls-3" points="25.36 41.31 14.77 35.55 23.88 28.97 34.46 34.73 25.36 41.31"/><polygon class="cls-2" points="39.63 39.31 29.04 33.55 23.88 28.97 34.46 34.73 39.63 39.31"/><polygon class="cls-3" points="25.79 56.64 15.2 50.88 15.22 43.93 25.8 49.69 25.79 56.64"/><polygon class="cls-3" points="40.26 33.2 29.67 27.43 24.71 22.77 35.3 28.54 40.26 33.2"/><polygon class="cls-2" points="25.36 41.31 14.77 35.55 24.71 22.77 35.3 28.54 25.36 41.31"/><path class="cls-3" d="M37.38,10.75,48,16.51a17.08,17.08,0,0,0-10.63-1.78L26.75,9A17.08,17.08,0,0,1,37.38,10.75Z"/><path class="cls-3" d="M25.8,49.69,15.22,43.93A15.76,15.76,0,0,1,7.93,30.22C8,19.94,16.38,10.42,26.75,9l10.59,5.76C27,16.18,18.54,25.7,18.52,36A15.78,15.78,0,0,0,25.8,49.69Z"/><path class="cls-2" d="M53.47,5.84c4.8-.67,8.68,3,8.67,8.15L62.07,48.8c0,5.17-3.9,9.91-8.7,10.59L21.12,63.92c-4.79.67-8.68-3-8.67-8.15L12.52,21c0-5.17,3.91-9.91,8.7-10.59ZM37.27,52c10.36-1.46,18.78-11,18.8-21.25s-8.37-17.44-18.73-16S18.54,25.7,18.52,36A15.78,15.78,0,0,0,25.8,49.69v7L32.07,52a18.48,18.48,0,0,0,5.2,0"/><path class="cls-4" d="M37.34,14.73c10.36-1.46,18.75,5.7,18.73,16S47.63,50.5,37.27,52a18.48,18.48,0,0,1-5.2,0l-6.28,4.68v-7A15.78,15.78,0,0,1,18.52,36C18.54,25.7,27,16.18,37.34,14.73Zm2.29,24.58,9.63-12.74-9,6.63-5-4.67L25.36,41.31l9.1-6.58,5.17,4.58"/><polygon class="cls-2" points="49.26 26.57 39.63 39.31 34.46 34.73 25.36 41.31 35.3 28.54 40.26 33.2 49.26 26.57"/><path class="cls-5" d="M47.52.88a7.44,7.44,0,0,0-4.64-.8L10.63,4.61C5.84,5.29,1.94,10,1.93,15.2L1.86,50a8.14,8.14,0,0,0,4,7.35l10.59,5.76a8.12,8.12,0,0,1-4-7.35L12.52,21c0-5.17,3.91-9.91,8.7-10.59L53.47,5.84a7.44,7.44,0,0,1,4.64.8Z"/></g></g></svg>