<?xml version="1.0" ?><svg viewBox="0 0 64 64" xmlns="http://www.w3.org/2000/svg"><defs><style>.cls-1{isolation:isolate;}.cls-2{fill:#e6734a;}.cls-3{fill:#e9e9e9;}.cls-4{fill:#939598;}</style></defs><title/><g data-name="25-photobucket" id="_25-photobucket"><g class="cls-1"><path class="cls-2" d="M53.37,56.71,42.78,51c4.8-.68,8.7-5.42,8.71-10.59l10.58,5.76C62.06,51.29,58.17,56,53.37,56.71Z"/><path class="cls-3" d="M51.53,43.92,41,38.16A1.16,1.16,0,0,0,41.88,37l10.59,5.76A1.16,1.16,0,0,1,51.53,43.92Z"/><polygon class="cls-3" points="42.29 45.21 31.7 39.45 40.95 38.16 51.53 43.91 42.29 45.21"/><polygon points="44.87 42.84 34.28 37.09 40.02 36.28 50.61 42.04 44.87 42.84"/><polygon class="cls-3" points="52.47 42.78 41.88 37.02 41.91 18.28 52.5 24.04 52.47 42.78"/><polygon points="50.61 42.04 40.02 36.28 40.05 19.55 50.64 25.31 50.61 42.04"/><polygon class="cls-3" points="46.7 40.02 36.11 34.26 36.22 34.05 46.81 39.81 46.7 40.02"/><polygon points="44.73 39.94 34.14 34.18 34.19 34.09 44.78 39.85 44.73 39.94"/><polygon points="45.53 38.25 34.95 32.49 35.03 32.27 45.62 38.03 45.53 38.25"/><polygon points="46.07 36.37 35.49 30.61 35.52 30.43 46.11 36.19 46.07 36.37"/><polygon points="46.22 35.4 35.64 29.64 35.66 29.4 46.25 35.16 46.22 35.4"/><path class="cls-3" d="M46.81,39.81,36.22,34.05a13.61,13.61,0,0,0,1.34-5.78,11.29,11.29,0,0,0-1.32-5.42l10.59,5.76A11.29,11.29,0,0,1,48.15,34,13.76,13.76,0,0,1,46.81,39.81Z"/><polygon points="45.12 39.19 34.54 33.43 34.66 33.18 45.24 38.94 45.12 39.19"/><polygon points="44.15 40.83 33.57 35.07 33.67 34.92 44.26 40.68 44.15 40.83"/><path class="cls-3" d="M45.64,41.84,35.05,36.08l.26-.42c.13-.19.26-.38.37-.57a9.33,9.33,0,0,0,.43-.83L46.7,40c-.14.28-.28.56-.43.83s-.24.38-.37.57Z"/><polygon points="43.62 41.53 33.04 35.77 33.09 35.7 43.68 41.46 43.62 41.53"/><path class="cls-3" d="M44.92,42.77,34.34,37c.09-.1.17-.21.26-.33l.45-.6,10.59,5.76-.46.6C45.09,42.56,45,42.67,44.92,42.77Z"/><polygon class="cls-3" points="44.87 42.84 34.28 37.09 34.34 37.01 44.92 42.77 44.87 42.84"/><path d="M44.78,39.85,34.19,34.09l.35-.66,10.58,5.76C45,39.41,44.9,39.63,44.78,39.85Z"/><path d="M44.26,40.68,33.67,34.92c.16-.24.32-.48.47-.74l10.59,5.76C44.58,40.2,44.42,40.44,44.26,40.68Z"/><path d="M45.24,38.94,34.66,33.18c.1-.22.2-.46.29-.69l10.58,5.76C45.44,38.48,45.35,38.71,45.24,38.94Z"/><path d="M43.68,41.46,33.09,35.7c.16-.2.33-.41.48-.63l10.58,5.76C44,41.05,43.84,41.25,43.68,41.46Z"/><path d="M45.62,38,35,32.27c.07-.21.15-.43.21-.66l10.59,5.76C45.77,37.6,45.69,37.81,45.62,38Z"/><path d="M45.83,37.37,35.24,31.61a2.45,2.45,0,0,0,.08-.29l10.59,5.76A2.45,2.45,0,0,1,45.83,37.37Z"/><path d="M43,42.2,32.44,36.44c.21-.22.4-.44.6-.67l10.58,5.76C43.43,41.76,43.24,42,43,42.2Z"/><polygon points="42.93 42.3 32.34 36.54 32.44 36.44 43.03 42.2 42.93 42.3"/><path d="M45.91,37.08,35.32,31.32c.06-.23.12-.47.17-.71l10.58,5.76C46,36.61,46,36.84,45.91,37.08Z"/><path d="M42.39,42.81,31.8,37.05c.19-.16.36-.33.54-.51L42.93,42.3Z"/><polygon points="42.25 42.93 31.66 37.17 31.8 37.05 42.39 42.81 42.25 42.93"/><path d="M46.11,36.19,35.52,30.43c0-.26.09-.52.12-.79L46.22,35.4C46.19,35.66,46.16,35.93,46.11,36.19Z"/><polygon class="cls-3" points="44.9 26.11 34.31 20.36 40.05 19.55 50.64 25.31 44.9 26.11"/><polygon points="42.33 24.47 31.74 18.71 40.99 17.41 51.57 23.17 42.33 24.47"/><path class="cls-3" d="M41.48,17.5l10.59,5.75a.89.89,0,0,1,.43.79L41.91,18.28A.84.84,0,0,0,41.48,17.5Z"/><path d="M46.25,35.16,35.66,29.4c0-.28,0-.58,0-.87s0-.59,0-.87l10.59,5.76c0,.28,0,.57,0,.87S46.27,34.88,46.25,35.16Z"/><polygon points="46.25 33.42 35.66 27.66 35.64 27.43 46.23 33.19 46.25 33.42"/><path d="M41.48,17.5l10.59,5.75a.82.82,0,0,0-.5-.08L41,17.41A.74.74,0,0,1,41.48,17.5Z"/><path d="M46.23,33.19,35.64,27.43c0-.26-.07-.52-.11-.76l10.59,5.76C46.16,32.67,46.2,32.93,46.23,33.19Z"/><polygon points="46.12 32.43 35.53 26.67 35.49 26.5 46.08 32.26 46.12 32.43"/><path d="M46.08,32.26,35.49,26.5c0-.23-.1-.44-.16-.66L45.92,31.6C46,31.82,46,32,46.08,32.26Z"/><path class="cls-3" d="M32.91,29.92a1,1,0,0,0,.65-.38L44.15,35.3a1,1,0,0,1-.66.38Z"/><path d="M45.92,31.6,35.33,25.84c0-.09,0-.18-.08-.28l10.59,5.76C45.87,31.41,45.9,31.51,45.92,31.6Z"/><path class="cls-3" d="M32.41,29.84a.75.75,0,0,0,.5.08l10.58,5.76A.74.74,0,0,1,43,35.6Z"/><path d="M45.84,31.32,35.25,25.56A5.89,5.89,0,0,0,35,25l10.59,5.76C45.7,30.92,45.78,31.12,45.84,31.32Z"/><polygon class="cls-3" points="46.83 28.61 36.24 22.85 36.13 22.67 46.72 28.43 46.83 28.61"/><polygon points="45.63 30.73 35.04 24.97 34.96 24.77 45.55 30.53 45.63 30.73"/><path d="M45.55,30.53,35,24.77c-.09-.21-.18-.41-.29-.61l10.59,5.76C45.36,30.12,45.46,30.32,45.55,30.53Z"/><path class="cls-3" d="M46.72,28.43,36.13,22.67a6.25,6.25,0,0,0-.43-.7l10.59,5.76A6.25,6.25,0,0,1,46.72,28.43Z"/><polygon points="45.26 29.92 34.67 24.16 34.55 23.95 45.14 29.71 45.26 29.92"/><path class="cls-3" d="M46.29,27.73,35.7,22a4.17,4.17,0,0,0-.36-.47l10.59,5.75C46.05,27.41,46.18,27.56,46.29,27.73Z"/><path d="M45.14,29.71,34.55,24c-.11-.19-.22-.39-.34-.57L44.8,29.14C44.92,29.32,45,29.52,45.14,29.71Z"/><polygon points="44.8 29.14 34.21 23.38 34.16 23.31 44.75 29.07 44.8 29.14"/><path class="cls-3" d="M45.93,27.25,35.34,21.5c-.09-.12-.17-.24-.26-.35l10.59,5.76Z"/><path d="M44.75,29.07,34.16,23.31a7.05,7.05,0,0,0-.47-.61l10.59,5.76A7.54,7.54,0,0,1,44.75,29.07Z"/><polygon points="44.28 28.46 33.69 22.7 33.59 22.59 44.18 28.34 44.28 28.46"/><path class="cls-3" d="M45.67,26.91,35.08,21.15l-.45-.48,10.58,5.76C45.36,26.59,45.52,26.74,45.67,26.91Z"/><path class="cls-3" d="M45.21,26.43,34.63,20.67c-.09-.08-.17-.17-.26-.26L45,26.17C45,26.25,45.12,26.35,45.21,26.43Z"/><polygon class="cls-3" points="44.95 26.17 34.37 20.41 34.31 20.36 44.9 26.11 44.95 26.17"/><path d="M44.18,28.34,33.59,22.58a5.79,5.79,0,0,0-.48-.51L43.7,27.83C43.86,28,44,28.16,44.18,28.34Z"/><polygon points="43.7 27.83 33.11 22.07 33.06 22.02 43.65 27.78 43.7 27.83"/><path d="M43.65,27.78,33.06,22c-.19-.17-.38-.33-.59-.49l10.58,5.76A7.11,7.11,0,0,1,43.65,27.78Z"/><polygon points="43.05 27.29 32.47 21.53 32.37 21.45 42.96 27.21 43.05 27.29"/><path class="cls-3" d="M32.25,46.63,21.67,40.87a9.31,9.31,0,0,0,5,.63,11.4,11.4,0,0,0,5-2l10.58,5.76a11.35,11.35,0,0,1-5,2A9.34,9.34,0,0,1,32.25,46.63Z"/><path d="M43,27.21,32.37,21.45l-.54-.35,10.59,5.76Z"/><polygon points="42.42 26.86 31.83 21.1 31.7 21.01 42.28 26.77 42.42 26.86"/><polygon class="cls-3" points="31.63 43.89 21.05 38.13 20.94 38.05 31.53 43.81 31.63 43.89"/><path d="M32.48,44.42,21.89,38.66a7.65,7.65,0,0,0,4.8.83,9.81,9.81,0,0,0,5-2.32l10.59,5.76a9.81,9.81,0,0,1-5,2.32A7.64,7.64,0,0,1,32.48,44.42Z"/><path class="cls-3" d="M33.84,28.79a6.7,6.7,0,0,0-3.32-6.05L41.11,28.5a6.7,6.7,0,0,1,3.32,6,1.26,1.26,0,0,1-.28.75L33.56,29.54A1.2,1.2,0,0,0,33.84,28.79Z"/><path d="M43,35.6,32.41,29.84a.87.87,0,0,1-.43-.79,5,5,0,0,0-2.45-4.47l10.58,5.76a4.91,4.91,0,0,1,2.45,4.47A.88.88,0,0,0,43,35.6Z"/><path d="M31.52,20.91,42.1,26.67l.18.1L31.69,21Z"/><path class="cls-3" d="M32.48,44.42,21.89,38.66l-.17-.09,10.59,5.76Z"/><polygon class="cls-3" points="32.31 44.33 21.72 38.57 21.58 38.48 32.17 44.24 32.31 44.33"/><path class="cls-3" d="M32.17,44.24,21.58,38.48l-.53-.35,10.58,5.76C31.8,44,32,44.13,32.17,44.24Z"/><path class="cls-3" d="M31.53,43.81,20.94,38.05a6.82,6.82,0,0,1-.58-.49l10.58,5.76C31.13,43.49,31.33,43.66,31.53,43.81Z"/><polygon class="cls-3" points="30.94 43.32 20.36 37.56 20.3 37.49 30.88 43.25 30.94 43.32"/><polygon points="29.69 44.98 19.1 39.22 19.05 39.17 29.64 44.93 29.69 44.98"/><path class="cls-3" d="M30.88,43.25,20.3,37.49c-.17-.15-.32-.31-.48-.48l10.59,5.76C30.56,42.94,30.72,43.1,30.88,43.25Z"/><polygon class="cls-3" points="30.41 42.77 19.82 37.01 19.72 36.88 30.3 42.63 30.41 42.77"/><path class="cls-3" d="M26.72,24.1a4.5,4.5,0,0,1,2.81.48l10.58,5.76a4.46,4.46,0,0,0-2.8-.48.82.82,0,0,1-.5-.09L26.22,24A.83.83,0,0,0,26.72,24.1Z"/><path class="cls-3" d="M30.3,42.64,19.72,36.88a4.64,4.64,0,0,1-.46-.61L29.84,42A7.47,7.47,0,0,0,30.3,42.64Z"/><polygon class="cls-3" points="29.84 42.03 19.26 36.27 19.2 36.19 29.79 41.95 29.84 42.03"/><path d="M30.52,22.74,41.11,28.5a6.06,6.06,0,0,0-3.8-.65L26.72,22.09A6.06,6.06,0,0,1,30.52,22.74Z"/><path class="cls-3" d="M29.79,42,19.2,36.19c-.12-.18-.23-.37-.34-.56l10.58,5.76C29.56,41.58,29.67,41.77,29.79,42Z"/><path d="M29.64,44.93,19.05,39.17c-.1-.09-.18-.19-.27-.28s-.3-.3-.44-.46-.19-.24-.28-.37-.24-.29-.35-.44L28.3,43.37c.11.16.22.3.34.45l.29.37c.14.16.28.31.43.46S29.54,44.84,29.64,44.93Z"/><path d="M36.81,29.77,26.22,24a.87.87,0,0,1-.43-.79,1.15,1.15,0,0,1,.93-1.13l10.59,5.76A1.15,1.15,0,0,0,36.38,29,.87.87,0,0,0,36.81,29.77Z"/><path d="M37.31,27.85c3.93-.55,7.12,2.45,7.12,6.7a1.16,1.16,0,0,1-.94,1.13.82.82,0,0,1-.93-.87c0-3.14-2.35-5.36-5.25-5a.82.82,0,0,1-.93-.88A1.15,1.15,0,0,1,37.31,27.85Z"/><polygon class="cls-3" points="29.44 41.39 18.86 35.63 18.75 35.41 29.33 41.17 29.44 41.39"/><path class="cls-3" d="M29.33,41.17,18.75,35.41a5.55,5.55,0,0,1-.29-.6L29,40.57C29.13,40.78,29.23,41,29.33,41.17Z"/><path d="M28.3,43.37,17.71,37.62c-.17-.25-.31-.5-.46-.75l10.59,5.76A8.23,8.23,0,0,0,28.3,43.37Z"/><polygon class="cls-3" points="29.04 40.57 18.46 34.81 18.38 34.6 28.96 40.36 29.04 40.57"/><polygon points="27.84 42.63 17.25 36.87 17.17 36.73 27.75 42.49 27.84 42.63"/><path class="cls-3" d="M29,40.36,18.37,34.6c-.08-.19-.14-.39-.21-.59s-.05-.18-.08-.27L28.67,39.5c0,.09,0,.19.08.27A5.89,5.89,0,0,0,29,40.36Z"/><path class="cls-3" d="M28.67,39.5,18.08,33.74c-.06-.21-.11-.43-.16-.66L28.5,38.84C28.56,39.07,28.61,39.28,28.67,39.5Z"/><polygon class="cls-3" points="28.5 38.84 17.92 33.08 17.89 32.91 28.47 38.67 28.5 38.84"/><polygon class="cls-3" points="23.01 47.92 12.42 42.16 21.67 40.87 32.25 46.63 23.01 47.92"/><path class="cls-3" d="M28.47,38.67,17.89,32.91c-.05-.25-.08-.5-.11-.76l10.58,5.76C28.39,38.17,28.42,38.42,28.47,38.67Z"/><polygon points="23.95 45.78 13.36 40.03 19.1 39.22 29.69 44.98 23.95 45.78"/><polygon class="cls-3" points="28.36 37.91 17.78 32.15 17.75 31.92 28.34 37.68 28.36 37.91"/><path class="cls-3" d="M28.34,37.68,17.76,31.92a8.27,8.27,0,0,1-.05-.86c0-.3,0-.59.05-.89l10.59,5.76a8.65,8.65,0,0,0-.05.88C28.3,37.1,28.32,37.4,28.34,37.68Z"/><polygon class="cls-3" points="28.35 35.93 17.76 30.17 17.78 29.94 28.37 35.7 28.35 35.93"/><path class="cls-3" d="M22.51,47.84,11.92,42.08a.77.77,0,0,0,.5.08L23,47.92A.77.77,0,0,1,22.51,47.84Z"/><path d="M22.51,47.84,11.92,42.08a.88.88,0,0,1-.42-.79l10.58,5.76A.87.87,0,0,0,22.51,47.84Z"/><path class="cls-3" d="M31.52,20.91,42.1,26.67a7.69,7.69,0,0,0-4.79-.83,9.74,9.74,0,0,0-5,2.33L21.75,22.41a9.77,9.77,0,0,1,5-2.33A7.7,7.7,0,0,1,31.52,20.91Z"/><polygon class="cls-3" points="32.2 28.29 21.61 22.53 21.75 22.41 32.34 28.17 32.2 28.29"/><path class="cls-3" d="M28.37,35.7,17.78,29.94c0-.27.06-.53.11-.79l10.59,5.76C28.43,35.17,28.4,35.43,28.37,35.7Z"/><polygon class="cls-3" points="28.48 34.91 17.89 29.15 17.92 28.97 28.51 34.73 28.48 34.91"/><path class="cls-3" d="M31.66,28.79,21.07,23l.54-.5L32.2,28.29Z"/><polygon class="cls-3" points="31.56 28.91 20.97 23.14 21.07 23.03 31.66 28.79 31.56 28.91"/><path class="cls-3" d="M28.51,34.73,17.92,29c.06-.24.11-.47.17-.71L28.68,34C28.62,34.26,28.56,34.49,28.51,34.73Z"/><polygon class="cls-3" points="30.91 29.64 20.32 23.88 20.38 23.81 30.97 29.57 30.91 29.64"/><path class="cls-3" d="M30.43,30.27,19.84,24.51c.16-.22.32-.42.48-.63l10.59,5.76C30.74,29.85,30.59,30.05,30.43,30.27Z"/><polygon class="cls-3" points="28.32 28.45 17.73 22.69 19.13 22.49 29.72 28.25 28.32 28.45"/><polygon points="29.67 28.32 19.08 22.56 19.13 22.49 29.72 28.25 29.67 28.32"/><path class="cls-3" d="M21,23.15l-.21.22,9,4.88-.93.13L31,29.57c.19-.23.39-.45.59-.67Z"/><path class="cls-3" d="M28.68,34,18.09,28.26c0-.1.05-.2.08-.3s.14-.43.22-.65L29,33.07c-.09.22-.15.43-.22.65S28.71,33.92,28.68,34Z"/><polygon class="cls-3" points="28.98 33.07 18.39 27.31 18.47 27.08 29.06 32.84 28.98 33.07"/><polygon class="cls-3" points="30.33 30.42 19.74 24.66 19.84 24.51 30.43 30.27 30.33 30.42"/><path class="cls-3" d="M29.06,32.84,18.47,27.08c.09-.23.19-.45.29-.68l10.59,5.76C29.24,32.39,29.15,32.61,29.06,32.84Z"/><polygon class="cls-3" points="29.35 32.16 18.76 26.4 18.87 26.15 29.46 31.91 29.35 32.16"/><path class="cls-3" d="M29.86,31.15,19.28,25.39c.14-.24.3-.49.46-.73l10.59,5.76C30.16,30.66,30,30.91,29.86,31.15Z"/><polygon class="cls-3" points="29.8 31.25 19.22 25.5 19.28 25.39 29.86 31.15 29.8 31.25"/><path class="cls-3" d="M29.46,31.91,18.87,26.15c.12-.22.23-.44.35-.65L29.8,31.25Z"/><path d="M32.29,25.88,21.71,20.12a11.54,11.54,0,0,1,5-2.05,9.39,9.39,0,0,1,5,.64l10.59,5.76a9.39,9.39,0,0,0-5-.64A11.63,11.63,0,0,0,32.29,25.88Z"/><path d="M29.39,28.68,18.81,22.92c.09-.13.17-.24.27-.36l10.59,5.76C29.57,28.44,29.48,28.55,29.39,28.68Z"/><path d="M28.67,29.7,18.08,23.94c.1-.15.19-.3.29-.44L29,29.25C28.86,29.4,28.77,29.55,28.67,29.7Z"/><path d="M28.33,30.25,17.74,24.49a6.26,6.26,0,0,1,.34-.55L28.67,29.7A6.26,6.26,0,0,0,28.33,30.25Z"/><path d="M27.86,31.12,17.28,25.36c.14-.29.29-.59.46-.87l10.59,5.76C28.15,30.53,28,30.83,27.86,31.12Z"/><polygon class="cls-3" points="24.59 28.97 14.01 23.21 17.73 22.69 28.32 28.45 24.59 28.97"/><path d="M29,29.25,18.37,23.5c.14-.2.29-.39.44-.58l10.58,5.76Z"/><path d="M27.75,42.49,17.17,36.73a11.31,11.31,0,0,1-1.32-5.41,13.59,13.59,0,0,1,1.34-5.79l10.58,5.76a13.58,13.58,0,0,0-1.33,5.79A11.42,11.42,0,0,0,27.75,42.49Z"/><polygon points="27.77 31.29 17.19 25.53 17.28 25.36 27.86 31.12 27.77 31.29"/><polygon points="29.25 26.31 18.66 20.55 21.7 20.12 32.29 25.88 29.25 26.31"/><polygon class="cls-3" points="29.25 26.31 18.66 20.55 18.66 18.88 29.25 24.64 29.25 26.31"/><polygon points="24.6 24.29 14.02 18.53 17.74 18 28.32 23.76 24.6 24.29"/><path class="cls-3" d="M18.23,18.09l10.59,5.76a.87.87,0,0,1,.43.79L18.66,18.88A.85.85,0,0,0,18.23,18.09Z"/><polygon points="27.39 26.57 16.8 20.81 16.8 20.14 27.39 25.9 27.39 26.57"/><polygon points="25.53 26.83 14.94 21.07 16.8 20.81 27.39 26.57 25.53 26.83"/><polygon class="cls-3" points="23.98 29.05 13.39 23.3 14.01 23.21 24.59 28.97 23.98 29.05"/><polygon class="cls-3" points="23.95 45.78 13.36 40.03 13.39 23.3 23.98 29.05 23.95 45.78"/><polygon class="cls-3" points="25.53 26.83 14.94 21.07 14.94 20.4 25.53 26.16 25.53 26.83"/><polygon class="cls-3" points="25.53 26.16 14.94 20.4 16.8 20.14 27.39 25.9 25.53 26.16"/><path d="M51.57,23.17a.82.82,0,0,1,.93.87l0,18.74a1.16,1.16,0,0,1-.94,1.14l-9.24,1.29a11.35,11.35,0,0,1-5,2,9.34,9.34,0,0,1-5-.63L23,47.92a.82.82,0,0,1-.93-.87l0-18.74a1.15,1.15,0,0,1,.93-1.13l.62-.09V25.42a1.15,1.15,0,0,1,.93-1.13l3.72-.53a.82.82,0,0,1,.93.88v1.67l3-.43a11.63,11.63,0,0,1,5-2.05,9.39,9.39,0,0,1,5,.64ZM44.73,39.94l.05-.09c.12-.22.23-.44.34-.66l.12-.25c.11-.23.2-.46.29-.69l.09-.22c.07-.22.15-.43.21-.66a2.45,2.45,0,0,0,.08-.29c.06-.24.12-.47.16-.71l0-.18c0-.26.08-.53.11-.79l0-.24c0-.28,0-.58,0-.87s0-.59,0-.87l0-.23c0-.26-.07-.52-.11-.76l0-.17c0-.23-.1-.44-.16-.66s-.05-.19-.08-.28-.14-.4-.21-.59l-.08-.2c-.09-.21-.19-.41-.29-.61l-.12-.21c-.11-.19-.22-.39-.34-.57l0-.07a7.54,7.54,0,0,0-.47-.61l-.1-.12c-.15-.18-.32-.35-.48-.51l-.05,0a7.11,7.11,0,0,0-.6-.49L43,27.21l-.54-.35-.14-.09a7.63,7.63,0,0,0-5-.93,9.74,9.74,0,0,0-5,2.33l-.14.12-.54.5-.1.11c-.2.22-.4.44-.59.67l-.06.07c-.17.21-.32.41-.48.63l-.1.15c-.17.24-.32.49-.47.73l-.06.1-.34.66-.11.25c-.11.23-.2.45-.29.68l-.08.23c-.09.22-.15.43-.22.65s-.05.2-.08.3-.12.47-.17.71l0,.18c-.05.26-.08.52-.11.79l0,.23a8.65,8.65,0,0,0-.05.88c0,.29,0,.59,0,.87l0,.23c0,.26.06.51.11.76l0,.17c.06.23.11.44.17.66s0,.19.08.27a5.89,5.89,0,0,0,.21.59l.08.21c.09.21.19.41.29.6l.11.22c.12.19.23.38.35.56l.05.08a7.47,7.47,0,0,0,.46.61l.11.13c.15.17.31.33.47.48l.06.07c.19.17.39.34.59.49l.1.08c.17.12.35.24.54.35l.14.09a7.69,7.69,0,0,0,5,.92,9.81,9.81,0,0,0,5-2.32l.14-.12.54-.51.1-.1c.21-.22.4-.44.59-.67l.06-.07c.16-.21.32-.41.47-.63l.11-.15c.16-.24.32-.48.47-.74M24,45.79,29.69,45l-.05,0c-.1-.09-.19-.19-.28-.28s-.29-.3-.43-.46l-.29-.37c-.12-.15-.23-.29-.34-.45a8.23,8.23,0,0,1-.46-.74l-.09-.14a11.42,11.42,0,0,1-1.31-5.41,13.58,13.58,0,0,1,1.33-5.79l.09-.17c.15-.29.29-.59.47-.87a6.26,6.26,0,0,1,.34-.55c.1-.15.19-.3.28-.45l.44-.57c.09-.13.18-.24.28-.36l0-.07-1.41.2L24.59,29l-.61.08,0,16.74M50.61,42l0-16.73-5.74.8.05.06c.09.08.17.18.26.26s.31.31.46.48l.26.34c.12.16.25.31.36.48a6.25,6.25,0,0,1,.43.7l.11.18A11.29,11.29,0,0,1,48.15,34a13.76,13.76,0,0,1-1.34,5.78L46.7,40c-.14.28-.28.56-.43.83s-.24.38-.37.57l-.26.42-.46.6c-.09.12-.17.23-.26.33l-.05.07,5.74-.8M25.53,26.16v.67l1.86-.26V25.9l-1.86.26"/><path class="cls-3" d="M45,26.17l-.05-.06,5.74-.8,0,16.73-5.74.8.05-.07c.09-.1.17-.21.26-.33l.46-.6.26-.42c.13-.19.25-.38.37-.57s.29-.55.43-.83l.11-.21A13.76,13.76,0,0,0,48.15,34a11.29,11.29,0,0,0-1.32-5.42l-.11-.18a6.25,6.25,0,0,0-.43-.7c-.11-.17-.24-.32-.36-.48l-.26-.34c-.15-.17-.31-.32-.46-.48S45,26.25,45,26.17Z"/><polygon class="cls-2" points="21.13 61.24 10.54 55.48 42.78 50.95 53.37 56.71 21.13 61.24"/><path class="cls-2" d="M16.49,60.44,5.9,54.68a7.44,7.44,0,0,0,4.64.8l10.59,5.76A7.44,7.44,0,0,1,16.49,60.44Z"/><path class="cls-3" d="M45.24,38.94l-.12.25c-.11.22-.22.44-.34.66l-.05.09c-.15.26-.31.5-.47.74l-.11.15c-.15.22-.31.42-.47.63l-.06.07c-.19.23-.38.45-.59.67l-.1.1-.54.51-.14.12a9.81,9.81,0,0,1-5,2.32,7.69,7.69,0,0,1-5-.92l-.14-.09c-.19-.11-.37-.23-.54-.35l-.1-.08c-.2-.15-.4-.32-.59-.49l-.06-.07c-.16-.15-.32-.31-.47-.48l-.11-.13a7.47,7.47,0,0,1-.46-.61L29.79,42c-.12-.18-.23-.37-.35-.56l-.11-.22c-.1-.19-.2-.39-.29-.6L29,40.36a5.89,5.89,0,0,1-.21-.59c0-.08-.05-.18-.08-.27s-.11-.43-.17-.66l0-.17c0-.25-.08-.5-.11-.76l0-.23c0-.28,0-.58,0-.87a8.65,8.65,0,0,1,.05-.88l0-.23c0-.27.06-.53.11-.79l0-.18c0-.24.11-.47.17-.71s.05-.2.08-.3.13-.43.22-.65l.08-.23c.09-.23.18-.45.29-.68l.11-.25.34-.66.06-.1c.15-.24.3-.49.47-.73l.1-.15c.16-.22.31-.42.48-.63l.06-.07c.19-.23.39-.45.59-.67l.1-.11.54-.5.14-.12a9.74,9.74,0,0,1,5-2.33,7.63,7.63,0,0,1,5,.93l.14.09.54.35.09.08a7.11,7.11,0,0,1,.6.49l.05,0c.16.16.33.33.48.51l.1.12a7.54,7.54,0,0,1,.47.61l0,.07c.12.18.23.38.34.57l.12.21c.1.2.2.4.29.61l.08.2c.07.19.15.39.21.59s.06.19.08.28.12.43.16.66l0,.17c0,.24.08.5.11.76l0,.23c0,.28,0,.57,0,.87s0,.59,0,.87l0,.24c0,.26-.06.53-.11.79l0,.18c0,.24-.1.47-.16.71a2.45,2.45,0,0,1-.08.29c-.06.23-.14.44-.21.66l-.09.22C45.44,38.48,45.35,38.71,45.24,38.94Zm-1.75-3.26a1.16,1.16,0,0,0,.94-1.13c0-4.25-3.19-7.25-7.12-6.7A1.15,1.15,0,0,0,36.38,29a.82.82,0,0,0,.93.88c2.9-.41,5.26,1.81,5.25,5a.82.82,0,0,0,.93.87"/><path class="cls-3" d="M5.9,54.68a7.58,7.58,0,0,1-3.35-3.8l10.59,5.76a7.54,7.54,0,0,0,3.35,3.8Z"/><polygon class="cls-2" points="12.46 55.77 1.87 50.01 1.87 47.33 12.46 53.09 12.46 55.77"/><path class="cls-2" d="M2.15,49.68l10.59,5.76a7.68,7.68,0,0,0,.4,1.2L2.55,50.88A8.89,8.89,0,0,1,2.15,49.68Z"/><path class="cls-2" d="M16.49,63.12,5.9,57.36a8.11,8.11,0,0,1-4-7.35l10.58,5.76A8.13,8.13,0,0,0,16.49,63.12Z"/><path class="cls-2" d="M2.15,49.68a9.89,9.89,0,0,1-.28-2.35l10.59,5.76a9.89,9.89,0,0,0,.28,2.35Z"/><path class="cls-2" d="M62.07,46.12v2.67c0,5.18-3.9,9.92-8.7,10.6L21.12,63.92c-4.79.67-8.67-3-8.67-8.15V53.09c0,5.18,3.87,8.82,8.67,8.15l32.24-4.53C58.17,56,62.06,51.29,62.07,46.12Z"/><path d="M18.23,18.09l10.59,5.76a.82.82,0,0,0-.5-.09L17.74,18A.8.8,0,0,1,18.23,18.09Z"/><path class="cls-3" d="M29.36,44.65c.09.09.18.19.28.28l.05,0L24,45.79l0-16.74.61-.08,3.72-.52,1.41-.2,0,.07c-.1.12-.19.23-.28.36l-.44.57c-.09.15-.18.3-.28.45a6.26,6.26,0,0,0-.34.55c-.18.28-.32.58-.47.87l-.09.17a13.58,13.58,0,0,0-1.33,5.79,11.42,11.42,0,0,0,1.31,5.41l.09.14a8.23,8.23,0,0,0,.46.74c.11.16.22.3.34.45l.29.37C29.07,44.35,29.21,44.5,29.36,44.65Z"/><polygon class="cls-3" points="27.39 25.9 27.39 26.57 25.53 26.83 25.53 26.16 27.39 25.9"/><polygon points="23.05 27.18 12.46 21.42 13.08 21.33 23.67 27.09 23.05 27.18"/><polygon points="22.08 47.05 11.5 41.29 11.53 22.55 22.12 28.31 22.08 47.05"/><polygon points="23.67 27.09 13.08 21.33 13.08 19.66 23.67 25.42 23.67 27.09"/><path d="M22.12,28.31,11.53,22.55a1.15,1.15,0,0,1,.93-1.13l10.59,5.76A1.15,1.15,0,0,0,22.12,28.31Z"/><path d="M23.67,25.42,13.08,19.66A1.15,1.15,0,0,1,14,18.53L24.6,24.29A1.15,1.15,0,0,0,23.67,25.42Z"/><path class="cls-4" d="M47.52.88a7.44,7.44,0,0,0-4.64-.8L10.63,4.61c-4.79.68-8.69,5.42-8.7,10.6L1.87,47.33l10.59,5.76L12.52,21c0-5.19,3.91-9.93,8.7-10.6L53.47,5.84a7.45,7.45,0,0,1,4.64.8Z"/><path class="cls-3" d="M53.47,5.84c4.8-.67,8.67,3,8.66,8.15l-.06,32.13c0,5.17-3.9,9.91-8.7,10.59L21.13,61.24c-4.8.67-8.68-3-8.67-8.15L12.52,21c0-5.19,3.91-9.93,8.7-10.6Zm-1,36.94L52.5,24a.82.82,0,0,0-.93-.87l-9.24,1.3a9.39,9.39,0,0,0-5-.64,11.63,11.63,0,0,0-5,2.05l-3,.43V24.64a.82.82,0,0,0-.93-.88l-3.72.53a1.15,1.15,0,0,0-.93,1.13v1.67l-.62.09a1.15,1.15,0,0,0-.93,1.13l0,18.74a.82.82,0,0,0,.93.87l9.24-1.29a9.34,9.34,0,0,0,5,.63,11.35,11.35,0,0,0,5-2l9.24-1.29a1.16,1.16,0,0,0,.94-1.14"/></g></g></svg>