<?xml version="1.0" ?><svg viewBox="0 0 64 64" xmlns="http://www.w3.org/2000/svg"><defs><style>.cls-1{isolation:isolate;}.cls-2{fill:#f8952d;}.cls-3{fill:#2b3639;}.cls-4{fill:#fff;}.cls-5{fill:#e76a2d;}</style></defs><title/><g data-name="36-hi-five" id="_36-hi-five"><g class="cls-1"><path class="cls-2" d="M46.85,28.15c-.17-2.41-1-3.69-2.05-4.27l10.59,5.76a3,3,0,0,1,.44.29h0c-.35-.21-.72-.39-1.08-.59l-.56-.3-3-1.61-6-3.26,10.59,5.76c.85.68,1.46,1.91,1.61,4,.35,5-3.53,7.92-7.43,8.47L39.42,36.62C43.32,36.07,47.2,33.19,46.85,28.15Z"/><path class="cls-3" d="M44.8,23.88l10.59,5.76a4.11,4.11,0,0,0-2.58-.35,12.56,12.56,0,0,0-4.67,1.91L37.55,25.44a12.56,12.56,0,0,1,4.67-1.91A4.11,4.11,0,0,1,44.8,23.88Z"/><polygon class="cls-2" points="48.76 28.43 38.18 22.67 45.62 21.63 56.21 27.39 48.76 28.43"/><polygon class="cls-3" points="45.05 24.94 34.46 19.18 45.63 17.61 56.21 23.37 45.05 24.94"/><polygon class="cls-2" points="56.21 27.39 45.62 21.63 45.63 17.61 56.21 23.37 56.21 27.39"/><path class="cls-3" d="M47.31,38.74,36.73,33a2.82,2.82,0,0,0,1.69.29c1.1-.15,2.22-1,2.22-3.58a2,2,0,0,0-.89-1.91l10.59,5.76a2,2,0,0,1,.89,1.91C51.22,38,50.11,38.88,49,39A2.87,2.87,0,0,1,47.31,38.74Z"/><path class="cls-2" d="M45,41.63,34.42,35.87a8.24,8.24,0,0,0,5,.75L50,42.38A8.24,8.24,0,0,1,45,41.63Z"/><path class="cls-2" d="M36.73,33c-.39-.21-.59-.48-.43-.67l10.59,5.76c-.16.19,0,.46.42.67Z"/><path class="cls-2" d="M49.21,33.36l-9.35-5.09,9.35,5.09Z"/><path class="cls-2" d="M38.62,27.6a1.78,1.78,0,0,1,1.13.18l10.59,5.76a1.78,1.78,0,0,0-1.13-.18L38.63,27.6l10.58,5.76h0a1.72,1.72,0,0,0-1.07.52L37.55,28.12A1.72,1.72,0,0,1,38.62,27.6Z"/><path class="cls-2" d="M36.3,32.31c.55-.67,1.11-2.42-.1-3.08L46.79,35c1.21.66.65,2.41.1,3.08h0L36.3,32.31Z"/><path class="cls-3" d="M45,41.63,34.42,35.87a5,5,0,0,1-1.85-1.7l10.59,5.76A5,5,0,0,0,45,41.63Z"/><polygon class="cls-2" points="48.14 31.2 37.55 25.44 38.18 22.67 48.76 28.43 48.14 31.2"/><polygon class="cls-2" points="41.91 42.85 31.33 37.09 31.33 33.41 41.92 39.17 41.91 42.85"/><polygon class="cls-4" points="40.69 39.34 30.1 33.58 31.33 33.41 41.92 39.17 40.69 39.34"/><path class="cls-3" d="M36.2,29.23,46.79,35a1.87,1.87,0,0,0-.52-.18,2,2,0,0,0-.74,0c-1.69.24-3.44,2.39-2.37,5.15L32.57,34.17C31.5,31.41,33.25,29.26,35,29a2,2,0,0,1,.74,0A1.8,1.8,0,0,1,36.2,29.23Z"/><polygon class="cls-2" points="43.79 33.82 33.2 28.06 37.55 28.12 48.14 33.88 43.79 33.82"/><polygon class="cls-2" points="40.69 39.34 30.1 33.58 30.11 28.14 40.7 33.9 40.69 39.34"/><path class="cls-3" d="M56.21,23.37v4l-7.45,1-.62,2.77a12.56,12.56,0,0,1,4.67-1.91c2.17-.31,4.33.47,4.63,4.62.35,5-3.53,7.92-7.43,8.47-2.77.39-5.56-.4-6.85-2.45-1.07-2.76.68-4.91,2.37-5.15a2,2,0,0,1,.74,0c1.86.41,1.24,2.51.62,3.26-.33.4.89,1.14,2.12,1s2.21-1,2.22-3.58c0-1.78-1.1-2.22-2-2.09a1.72,1.72,0,0,0-1.07.52l-4.35-.06,1.26-8.88Z"/><polygon class="cls-3" points="43.79 33.82 33.2 28.06 34.46 19.18 45.05 24.94 43.79 33.82"/><polygon class="cls-2" points="33.85 43.98 23.27 38.22 31.33 37.09 41.91 42.85 33.85 43.98"/><polygon class="cls-2" points="40.7 33.9 30.11 28.14 30.11 25.38 40.7 31.14 40.7 33.9"/><polygon class="cls-4" points="33.88 31.51 23.29 25.75 30.11 24.79 40.7 30.55 33.88 31.51"/><polygon class="cls-2" points="40.7 31.14 30.11 25.38 30.11 24.79 40.7 30.55 40.7 31.14"/><polygon class="cls-4" points="33.85 43.98 23.27 38.22 23.27 34.54 33.86 40.3 33.85 43.98"/><polygon class="cls-4" points="33.86 40.3 23.27 34.54 24.52 34.37 35.1 40.13 33.86 40.3"/><polygon class="cls-2" points="33.24 44.07 22.65 38.31 22.66 34.63 33.24 40.39 33.24 44.07"/><polygon class="cls-2" points="40.7 29.46 30.12 23.7 30.12 20.36 40.71 26.12 40.7 29.46"/><polygon class="cls-4" points="32 40.56 21.41 34.8 22.66 34.63 33.24 40.39 32 40.56"/><polygon class="cls-4" points="35.1 40.13 24.52 34.37 24.53 28.93 35.12 34.69 35.1 40.13"/><polygon class="cls-2" points="33.87 34.86 23.28 29.1 24.53 28.93 35.12 34.69 33.87 34.86"/><polygon class="cls-2" points="36.36 30.07 25.77 24.31 30.12 23.7 40.7 29.46 36.36 30.07"/><polygon class="cls-4" points="33.87 34.86 23.28 29.1 23.29 25.75 33.88 31.51 33.87 34.86"/><polygon class="cls-4" points="36.36 30.07 25.77 24.31 25.78 20.97 36.36 26.73 36.36 30.07"/><polygon class="cls-4" points="36.36 26.73 25.78 20.97 30.12 20.36 40.71 26.12 36.36 26.73"/><polygon class="cls-2" points="32 40.56 21.41 34.8 21.42 28.62 32.01 34.38 32 40.56"/><polygon class="cls-2" points="25.48 45.16 14.89 39.4 22.65 38.31 33.24 44.07 25.48 45.16"/><polygon class="cls-4" points="25.49 41.48 14.9 35.72 15.52 35.63 26.11 41.39 25.49 41.48"/><polygon class="cls-4" points="25.48 45.16 14.89 39.4 14.9 35.72 25.49 41.48 25.48 45.16"/><path class="cls-2" d="M21,27.12a3.56,3.56,0,0,0-1.13-.95l10.59,5.76a3.68,3.68,0,0,1,1.13,1L21,27.12l10.59,5.76a2.45,2.45,0,0,1,.46,1.5L21.42,28.62A2.39,2.39,0,0,0,21,27.12Z"/><polygon class="cls-2" points="24.86 45.24 14.28 39.48 14.28 35.8 24.87 41.56 24.86 45.24"/><polygon class="cls-4" points="24.25 41.65 13.66 35.89 14.28 35.8 24.87 41.56 24.25 41.65"/><path class="cls-4" d="M19.83,26.17l10.59,5.76a4.27,4.27,0,0,0-1.5-.47L18.33,25.7A4.27,4.27,0,0,1,19.83,26.17Z"/><polygon class="cls-4" points="26.11 41.39 15.52 35.63 15.53 30.11 26.12 35.87 26.11 41.39"/><path class="cls-4" d="M15.41,30,26,35.72c.08.05.11.14.12.14L15.53,30.1A.35.35,0,0,0,15.41,30Z"/><path class="cls-2" d="M15.24,29.93a.29.29,0,0,1,.17,0L26,35.72a.31.31,0,0,0-.17,0l-9.35-5.08Z"/><polygon class="cls-2" points="24.25 41.65 13.66 35.89 13.66 32.7 24.25 38.46 24.25 41.65"/><path class="cls-2" d="M24.25,38.46,13.66,32.7A3.12,3.12,0,0,1,14.17,31c.53-.82.87-1.06,1.07-1.09l10.59,5.76c-.2,0-.54.27-1.08,1.09A3.2,3.2,0,0,0,24.25,38.46Z"/><polygon class="cls-2" points="23.95 35.15 13.37 29.39 13.37 25.73 23.96 31.49 23.95 35.15"/><path class="cls-4" d="M24,35.15,13.36,29.39c.57-1.16,1.9-3.33,4.21-3.66a4.69,4.69,0,0,1,.76,0l10.59,5.76a4.86,4.86,0,0,0-.77,0C25.85,31.82,24.51,34,24,35.15Z"/><polygon class="cls-2" points="17.11 46.33 6.52 40.57 14.28 39.48 24.86 45.24 17.11 46.33"/><polygon class="cls-2" points="23.96 31.49 13.37 25.73 13.37 25.05 23.96 30.81 23.96 31.49"/><polygon class="cls-4" points="17.12 42.66 6.53 36.9 7.77 36.72 18.36 42.48 17.12 42.66"/><polygon class="cls-4" points="17.11 46.33 6.52 40.57 6.53 36.9 17.12 42.66 17.11 46.33"/><polygon class="cls-2" points="23.96 30.81 13.37 25.05 13.38 21.71 23.97 27.47 23.96 30.81"/><polygon class="cls-4" points="18.36 42.48 7.77 36.72 7.79 26.51 18.38 32.27 18.36 42.48"/><polygon class="cls-2" points="17.14 32.45 6.55 26.68 7.79 26.51 18.38 32.27 17.14 32.45"/><path class="cls-4" d="M24,27.47v7.68c.56-1.16,1.9-3.33,4.2-3.66a4.86,4.86,0,0,1,.77,0,3.85,3.85,0,0,1,2.63,1.42,2.45,2.45,0,0,1,.46,1.5v6.18l1.24-.17v3.68l-7.76,1.09V41.48l.62-.09V35.86a.27.27,0,0,0-.29-.17c-.2,0-.54.27-1.08,1.09a3.2,3.2,0,0,0-.5,1.68v3.19l.62-.09v3.68l-7.75,1.09V42.65l1.24-.17,0-10.21-1.24.18v-4Z"/><polygon class="cls-4" points="17.14 28.43 6.55 22.67 13.38 21.71 23.97 27.47 17.14 28.43"/><polygon class="cls-4" points="17.14 32.45 6.55 26.68 6.55 22.67 17.14 28.43 17.14 32.45"/><path class="cls-2" d="M53.47,5.84c4.79-.67,8.67,3,8.66,8.15L62.07,48.8c0,5.17-3.9,9.91-8.7,10.59L21.12,63.92c-4.8.67-8.67-3-8.66-8.15L12.52,21c0-5.17,3.9-9.91,8.7-10.59ZM33.24,44.07V40.39L32,40.56V34.38a2.45,2.45,0,0,0-.46-1.5,3.85,3.85,0,0,0-2.63-1.42,4.86,4.86,0,0,0-.77,0c-2.3.33-3.64,2.5-4.2,3.66V27.47l-6.83,1v4l1.24-.18,0,10.21-1.24.17v3.68l7.75-1.09V41.56l-.62.09V38.46a3.2,3.2,0,0,1,.5-1.68c.54-.82.88-1.06,1.08-1.09a.27.27,0,0,1,.29.17v5.53l-.62.09v3.68l7.76-1.09M50,42.38c3.9-.55,7.78-3.43,7.43-8.47-.3-4.15-2.46-4.93-4.63-4.62a12.56,12.56,0,0,0-4.67,1.91l.62-2.77,7.45-1v-4L45.05,24.94l-1.26,8.88,4.35.06a1.72,1.72,0,0,1,1.07-.52c.92-.13,2,.31,2,2.09C51.22,38,50.11,38.88,49,39s-2.45-.56-2.12-1c.62-.75,1.24-2.85-.62-3.26a2,2,0,0,0-.74,0c-1.69.24-3.44,2.39-2.37,5.15,1.29,2,4.08,2.84,6.85,2.45m-8.1.47V39.17l-1.23.17V30.55l-6.82,1v3.35l1.24-.17v5.44l-1.24.17V44l8.06-1.13M36.36,26.73v3.34l4.34-.61V26.12l-4.35.61"/><polygon class="cls-4" points="40.7 30.55 40.7 31.14 40.7 33.9 40.69 39.34 41.92 39.17 41.91 42.85 33.85 43.98 33.86 40.3 35.1 40.13 35.12 34.69 33.87 34.86 33.88 31.51 40.7 30.55"/><polygon class="cls-4" points="40.71 26.12 40.7 29.46 36.36 30.07 36.36 26.73 40.71 26.12"/><path class="cls-5" d="M47.52.88a7.44,7.44,0,0,0-4.64-.8L10.63,4.61C5.83,5.29,1.94,10,1.93,15.2L1.87,50a8.11,8.11,0,0,0,4,7.35l10.59,5.76a8.11,8.11,0,0,1-4-7.35L12.52,21c0-5.17,3.9-9.91,8.7-10.59L53.47,5.84a7.44,7.44,0,0,1,4.64.8Z"/></g></g></svg>