<?xml version="1.0" ?><svg viewBox="0 0 64 64" xmlns="http://www.w3.org/2000/svg"><defs><style>.cls-1{isolation:isolate;}.cls-2{fill:#fff;}.cls-3{fill:#343439;}</style></defs><title/><g data-name="22-vine" id="_22-vine"><g class="cls-1"><path d="M32.77,16.56l.06,0,.19.1.25.14-.56-.26Z"/><polygon points="50.95 37.21 40.36 31.45 40.37 26.06 50.95 31.82 50.95 37.21"/><path d="M37.55,12.6a5.81,5.81,0,0,0-1-.71l10.58,5.75a6.11,6.11,0,0,1,1,.72h0L37.55,12.6l10.59,5.76c2.66,2.24,3.43,6.29,2.08,10.85L39.63,23.45C41,18.9,40.21,14.84,37.55,12.6Z"/><path d="M41.33,20.85a82.11,82.11,0,0,0-8.06-4c-.09,0-.16-.09-.25-.14l-.25-.13a1.78,1.78,0,0,1,1.06.21Z"/><path d="M46.84,37.84,36.25,32.08A16.54,16.54,0,0,0,38,31.92a18.53,18.53,0,0,0,2.32-.47l10.58,5.76a18,18,0,0,1-2.31.47A17,17,0,0,1,46.84,37.84Z"/><path d="M49.92,29.9,39.34,24.14a4.19,4.19,0,0,0,.29-.69l10.59,5.76A4.23,4.23,0,0,1,49.92,29.9Z"/><path d="M28.14,45.19a63.68,63.68,0,0,0,8.11-13.11l10.59,5.76A63.68,63.68,0,0,1,38.73,51,2.87,2.87,0,0,1,37,52a2.14,2.14,0,0,1-1.32-.23L25.06,46a2.14,2.14,0,0,0,1.32.23A2.87,2.87,0,0,0,28.14,45.19Z"/><path class="cls-2" d="M44,31.82,33.43,26.06a7.76,7.76,0,0,0,4.64.51,14,14,0,0,0,2.3-.51L51,31.82a13.89,13.89,0,0,1-2.29.51A7.76,7.76,0,0,1,44,31.82Z"/><polygon points="47.24 30.13 36.65 24.37 39.34 24.14 49.92 29.9 47.24 30.13"/><path class="cls-2" d="M36.79,45.59,26.21,39.83a55.37,55.37,0,0,0,5.19-8.59L42,37A55.33,55.33,0,0,1,36.79,45.59Z"/><path d="M30.63,30.87c.25.13.51.26.77.37L42,37c-.26-.11-.52-.24-.77-.37Z"/><polygon class="cls-2" points="47.24 30.13 36.65 24.37 34.59 23.17 45.18 28.93 47.24 30.13"/><path d="M33,25.81l10.59,5.76.4.25L33.43,26.06Z"/><polygon class="cls-2" points="45.18 28.93 34.59 23.17 35.02 22.09 45.61 27.85 45.18 28.93"/><path d="M33,25.81a4.34,4.34,0,0,1-1.63-2.54,99.83,99.83,0,0,0,12.16,8.25l.06.05L33,25.81Z"/><path class="cls-2" d="M33.83,16.77l10.59,5.76a2.26,2.26,0,0,1,.37.26c1.11.93,1.41,2.81.82,5.06L35,22.09c.59-2.25.3-4.12-.82-5.06A2.26,2.26,0,0,0,33.83,16.77Z"/><path d="M33.27,16.83a82.11,82.11,0,0,1,8.06,4l3.09,1.68a1.78,1.78,0,0,0-1.06-.21Z"/><path d="M33.27,16.83h0c.37.18.85.46,1.21.65l1.26.69,1.3.71,1.31.71,5,2.73h0Z"/><path d="M32.71,16.57l.56.26c3.37,1.82,6.73,3.66,10.09,5.49a1.15,1.15,0,0,0-.48.17L32.29,16.73A1.26,1.26,0,0,1,32.71,16.57Z"/><path d="M32.29,16.73h0l10.59,5.76h0L32.29,16.73Z"/><path d="M31.08,20.46c0-1.84.47-3.27,1.21-3.73l10.59,5.76c-.75.46-1.21,1.89-1.21,3.73h0a1.54,1.54,0,0,0-.38-.2l-.39-.21-2.46-1.34-7.36-4,10.59,5.76c0,2.62.61,4.36,1.89,5.3A99.83,99.83,0,0,1,31.4,23.27,10.5,10.5,0,0,1,31.08,20.46Z"/><path class="cls-2" d="M36.51,11.88l10.58,5.76A6,6,0,0,0,43.37,17L32.78,11.21A6.06,6.06,0,0,1,36.51,11.88Z"/><path class="cls-2" d="M41.22,36.63,30.63,30.87c-.23-.13-.46-.27-.68-.42-2.55-1.83-3.84-4.94-3.84-9.29,0-5.85,2.93-8.27,4.18-9a6.43,6.43,0,0,1,2.49-.91L43.37,17a6.37,6.37,0,0,0-2.49.91c-1.25.77-4.17,3.19-4.18,9,0,4.35,1.29,7.46,3.84,9.29C40.76,36.36,41,36.5,41.22,36.63Z"/><path d="M36.79,45.59,26.21,39.83c-5.91-5.61-7.42-16.13-8.13-21.55L28.67,24C29.38,29.46,30.89,40,36.79,45.59Z"/><polygon class="cls-2" points="23.65 24.74 13.06 18.98 18.08 18.28 28.66 24.04 23.65 24.74"/><path class="cls-2" d="M43.37,17a6,6,0,0,1,4.77,1.39c2.66,2.24,3.43,6.29,2.08,10.85a4.23,4.23,0,0,1-.3.69l-2.68.23-2.06-1.2.43-1.08c.59-2.25.29-4.13-.82-5.06a1.85,1.85,0,0,0-1.43-.47,1.15,1.15,0,0,0-.48.17c-.75.46-1.21,1.89-1.21,3.73,0,2.66.63,4.41,1.95,5.35a7.22,7.22,0,0,0,5,.76A13.89,13.89,0,0,0,51,31.82v5.39a18,18,0,0,1-2.31.47,17,17,0,0,1-1.79.16A63.68,63.68,0,0,1,38.73,51,2.87,2.87,0,0,1,37,52a2.09,2.09,0,0,1-1.5-.34c-9-6.18-11.08-20.62-11.82-26.9l5-.7c.71,5.42,2.22,15.94,8.12,21.55A55.33,55.33,0,0,0,42,37a8.52,8.52,0,0,1-1.45-.79c-2.55-1.83-3.85-4.94-3.84-9.29,0-5.85,2.93-8.27,4.18-9A6.37,6.37,0,0,1,43.37,17Z"/><path class="cls-2" d="M35.65,51.75,25.06,46l-.18-.11C15.86,39.7,13.8,25.26,13.06,19l10.59,5.76c.74,6.28,2.8,20.72,11.82,26.9A.78.78,0,0,0,35.65,51.75Z"/><path class="cls-3" d="M47.52.88a7.45,7.45,0,0,0-4.64-.8L10.63,4.61c-4.8.68-8.69,5.41-8.7,10.6L1.87,50a8.11,8.11,0,0,0,4,7.35l10.58,5.76a8.14,8.14,0,0,1-4-7.35L12.52,21c0-5.18,3.9-9.91,8.7-10.59L53.47,5.84a7.42,7.42,0,0,1,4.63.8Z"/><path d="M53.47,5.84c4.79-.67,8.67,3,8.66,8.15l-.06,34.8c0,5.18-3.91,9.92-8.7,10.6L21.12,63.92c-4.8.67-8.67-3-8.67-8.15L12.52,21c0-5.18,3.9-9.91,8.7-10.59ZM50.94,37.21V31.82a13.89,13.89,0,0,1-2.29.51,7.22,7.22,0,0,1-5-.76c-1.32-.94-2-2.69-1.95-5.35,0-1.84.46-3.27,1.21-3.73a1.15,1.15,0,0,1,.48-.17,1.85,1.85,0,0,1,1.43.47c1.11.93,1.41,2.81.82,5.06l-.43,1.08,2.06,1.2,2.68-.23a4.23,4.23,0,0,0,.3-.69c1.35-4.56.58-8.61-2.08-10.85A6,6,0,0,0,43.37,17a6.37,6.37,0,0,0-2.49.91c-1.25.77-4.17,3.19-4.18,9,0,4.35,1.29,7.46,3.84,9.29A8.52,8.52,0,0,0,42,37a55.33,55.33,0,0,1-5.2,8.59C30.89,40,29.38,29.46,28.67,24l-5,.7c.74,6.28,2.8,20.72,11.82,26.9A2.09,2.09,0,0,0,37,52a2.87,2.87,0,0,0,1.76-1,63.68,63.68,0,0,0,8.11-13.11,17,17,0,0,0,1.79-.16,18,18,0,0,0,2.31-.47"/></g></g></svg>