<?xml version="1.0" ?><svg viewBox="0 0 64 64" xmlns="http://www.w3.org/2000/svg"><defs><style>.cls-1{isolation:isolate;}.cls-2{fill:#fff;}.cls-3{fill:#939598;}</style></defs><title/><g data-name="26-digg" id="_26-digg"><g class="cls-1"><polygon class="cls-2" points="56.49 46.9 45.91 41.14 45.92 35.12 56.51 40.88 56.49 46.9"/><polygon class="cls-2" points="56.51 40.88 45.92 35.12 45.92 33.11 56.51 38.87 56.51 40.88"/><polygon points="52.78 43.41 42.19 37.65 42.2 35.64 52.78 41.4 52.78 43.41"/><polygon class="cls-2" points="46.57 48.3 35.98 42.54 45.91 41.14 56.49 46.9 46.57 48.3"/><polygon points="50.31 37.73 39.72 31.97 42.2 31.62 52.79 37.38 50.31 37.73"/><polygon points="46.57 48.3 35.98 42.54 35.98 38.52 46.57 44.28 46.57 48.3"/><polygon points="46.57 44.28 35.98 38.52 42.19 37.65 52.78 43.41 46.57 44.28"/><polygon class="cls-2" points="56.51 38.87 45.92 33.11 45.95 19.05 56.54 24.81 56.51 38.87"/><polygon class="cls-2" points="46.58 42.27 35.99 36.51 42.2 35.64 52.78 41.4 46.58 42.27"/><polygon points="52.79 37.38 42.2 31.62 42.22 23.59 52.81 29.35 52.79 37.38"/><polygon class="cls-2" points="44.71 48.56 34.12 42.8 34.13 36.77 44.72 42.53 44.71 48.56"/><polygon class="cls-2" points="50.32 29.7 39.73 23.94 42.22 23.59 52.81 29.35 50.32 29.7"/><polygon class="cls-2" points="50.31 37.73 39.72 31.97 39.73 23.94 50.32 29.7 50.31 37.73"/><polygon points="46.58 42.27 35.99 36.51 36.02 20.45 46.61 26.21 46.58 42.27"/><polygon class="cls-2" points="44.72 42.53 34.13 36.77 34.13 34.77 44.72 40.53 44.72 42.53"/><polygon class="cls-2" points="52.81 29.35 52.79 37.38 50.31 37.73 50.32 29.7 52.81 29.35"/><polygon points="40.99 45.06 30.4 39.3 30.41 37.3 41 43.06 40.99 45.06"/><polygon class="cls-2" points="34.78 49.95 24.2 44.19 34.12 42.8 44.71 48.56 34.78 49.95"/><polygon points="46.61 26.21 36.02 20.45 45.95 19.05 56.54 24.81 46.61 26.21"/><polygon points="38.52 39.39 27.94 33.63 30.41 33.28 41 39.04 38.52 39.39"/><polygon points="34.78 49.95 24.2 44.19 24.2 40.18 34.79 45.94 34.78 49.95"/><polygon points="34.79 45.94 24.2 40.18 30.4 39.3 40.99 45.06 34.79 45.94"/><polygon class="cls-2" points="44.72 40.53 34.13 34.77 34.16 20.71 44.75 26.47 44.72 40.53"/><polygon class="cls-2" points="34.8 43.93 24.21 38.17 30.41 37.3 41 43.06 34.8 43.93"/><polygon points="41 39.04 30.41 33.28 30.43 25.25 41.02 31.01 41 39.04"/><polygon class="cls-2" points="41.02 31.01 41 39.04 38.52 39.39 38.54 31.36 41.02 31.01"/><polygon class="cls-2" points="38.52 39.39 27.94 33.63 27.95 25.6 38.54 31.36 38.52 39.39"/><polygon class="cls-2" points="38.54 31.36 27.95 25.6 30.43 25.25 41.02 31.01 38.54 31.36"/><polygon class="cls-2" points="29.21 44.71 18.63 38.95 22.35 38.43 32.94 44.19 29.21 44.71"/><polygon points="34.8 43.93 24.21 38.17 24.24 22.1 34.83 27.86 34.8 43.93"/><polygon points="34.83 27.86 24.24 22.1 34.16 20.71 44.75 26.47 34.83 27.86"/><path d="M34.83,27.86l9.92-1.39,0,14.06v8L34.78,50v-4l6.2-.87v-2l-6.2.87ZM41,39l0-8-2.48.35,0,8L41,39"/><polygon class="cls-2" points="32.94 44.19 22.35 38.43 22.38 22.36 32.97 28.12 32.94 44.19"/><polygon class="cls-2" points="32.97 26.12 22.38 20.36 22.39 16.34 32.98 22.1 32.97 26.12"/><polygon points="29.21 44.71 18.63 38.95 18.66 22.89 29.24 28.65 29.21 44.71"/><polygon points="32.97 28.12 32.94 44.19 29.21 44.71 29.24 28.65 32.97 28.12"/><polygon points="29.24 28.65 18.66 22.89 22.38 22.36 32.97 28.12 29.24 28.65"/><polygon class="cls-2" points="29.25 26.64 18.66 20.88 22.38 20.36 32.97 26.12 29.25 26.64"/><polygon class="cls-2" points="26.74 45.06 16.15 39.3 16.17 25.24 26.76 31 26.74 45.06"/><polygon class="cls-2" points="16.81 46.46 6.22 40.7 16.15 39.3 26.74 45.06 16.81 46.46"/><polygon points="20.54 41.92 9.95 36.16 12.43 35.81 23.02 41.57 20.54 41.92"/><polygon class="cls-2" points="26.76 31 16.17 25.24 16.18 23.23 26.77 29 26.76 31"/><polygon points="29.25 22.62 18.67 16.86 22.39 16.34 32.98 22.1 29.25 22.62"/><polygon points="29.25 26.64 18.66 20.88 18.67 16.86 29.25 22.62 29.25 26.64"/><polygon points="23.02 41.57 12.43 35.81 12.45 27.77 23.04 33.53 23.02 41.57"/><polygon class="cls-2" points="26.77 29 16.18 23.23 16.19 17.21 26.78 22.97 26.77 29"/><polygon class="cls-2" points="20.55 33.88 9.96 28.12 12.45 27.77 23.04 33.53 20.55 33.88"/><polygon class="cls-2" points="20.54 41.92 20.55 33.88 23.04 33.53 23.02 41.57 20.54 41.92"/><polygon class="cls-2" points="20.54 41.92 9.95 36.16 9.96 28.12 20.55 33.88 20.54 41.92"/><polygon points="23.06 23.49 12.47 17.73 16.19 17.21 26.78 22.97 23.06 23.49"/><polygon points="23.04 29.52 12.46 23.76 12.47 17.73 23.06 23.49 23.04 29.52"/><path d="M23.06,23.49,26.78,23v8l0,14.06-9.93,1.4,0-16.07,6.2-.87Zm0,18.08,0-8-2.49.35v8L23,41.57"/><polygon points="16.81 46.46 6.22 40.7 6.25 24.63 16.84 30.39 16.81 46.46"/><polygon points="16.84 30.39 6.25 24.63 12.46 23.76 23.04 29.52 16.84 30.39"/><path class="cls-2" d="M53.47,5.84c4.79-.67,8.68,3,8.67,8.15L62.07,48.8c0,5.17-3.91,9.91-8.7,10.59L21.12,63.92c-4.8.67-8.68-3-8.67-8.15L12.52,21c0-5.17,3.9-9.91,8.7-10.59ZM26.77,29V23l-3.72.52,0,6-6.2.87,0,16.07,9.93-1.4,0-14.06V29m29.74,9.87,0-14.06-9.93,1.4,0,16.06,6.2-.87v2l-6.21.87v4l9.92-1.4,0-6v-2M44.72,40.53l0-14.06-9.92,1.39,0,16.07,6.2-.87v2l-6.2.87v4l9.93-1.39v-8M32.94,44.19l0-16.07-3.73.53,0,16.06,3.73-.52m0-18.07v-4l-3.72.52v4L33,26.12"/><path d="M46.61,26.21l9.93-1.4,0,14.06v2l0,6-9.92,1.4v-4l6.21-.87v-2l-6.2.87Zm6.18,11.17,0-8-2.49.35v8l2.48-.35"/><polygon points="32.98 22.1 32.97 26.12 29.25 26.64 29.25 22.62 32.98 22.1"/><path class="cls-3" d="M47.52.88a7.44,7.44,0,0,0-4.64-.8L10.63,4.61C5.83,5.29,1.94,10,1.93,15.2L1.86,50a8.12,8.12,0,0,0,4,7.35l10.59,5.76a8.12,8.12,0,0,1-4-7.35L12.52,21c0-5.17,3.9-9.91,8.7-10.59L53.47,5.84a7.44,7.44,0,0,1,4.64.8Z"/></g></g></svg>