<?xml version="1.0" ?><svg viewBox="0 0 64 64" xmlns="http://www.w3.org/2000/svg"><defs><style>.cls-1{isolation:isolate;}.cls-2{fill:#e94b2e;}.cls-3{fill:#fff;}.cls-4{fill:#ca392e;}</style></defs><title/><g data-name="33-stumbleupon" id="_33-stumbleupon"><g class="cls-1"><polygon class="cls-2" points="55.27 37.71 44.68 31.95 44.69 26.59 55.28 32.35 55.27 37.71"/><path class="cls-2" d="M36.6,41.78c4.45-.62,8.07-5,8.08-9.83l10.59,5.76c0,4.8-3.63,9.21-8.08,9.83a6.82,6.82,0,0,1-4.3-.74L32.3,41A6.82,6.82,0,0,0,36.6,41.78Z"/><path class="cls-3" d="M46.22,40.68,35.63,34.92a1.55,1.55,0,0,0,1,.17,2.32,2.32,0,0,0,1.86-2.27l10.59,5.76a2.32,2.32,0,0,1-1.86,2.27A1.55,1.55,0,0,1,46.22,40.68Z"/><polygon class="cls-3" points="49.08 33.22 38.49 27.46 44.69 26.59 55.28 32.35 49.08 33.22"/><polygon class="cls-3" points="49.07 38.58 38.48 32.82 38.49 27.46 49.08 33.22 49.07 38.58"/><path class="cls-2" d="M46.22,40.68,35.63,34.92a1.74,1.74,0,0,1-.87-1.58L45.35,39.1A1.73,1.73,0,0,0,46.22,40.68Z"/><polygon class="cls-2" points="45.35 39.1 34.76 33.34 34.77 27.91 45.36 33.67 45.35 39.1"/><path class="cls-3" d="M42.89,46.8,32.3,41a7.54,7.54,0,0,1-3.75-6.82L39.14,40A7.54,7.54,0,0,0,42.89,46.8Z"/><polygon class="cls-2" points="45.37 28.98 34.78 23.21 34.78 22.63 45.37 28.39 45.37 28.98"/><polygon class="cls-3" points="41.32 35.32 30.73 29.56 34.77 27.91 45.36 33.67 41.32 35.32"/><polygon class="cls-2" points="41.33 30.63 30.74 24.87 34.78 23.21 45.37 28.98 41.33 30.63"/><polygon class="cls-3" points="39.14 39.98 28.55 34.22 28.56 28.69 39.15 34.45 39.14 39.98"/><path class="cls-3" d="M39.15,34.45l2.17.87,4-1.65V39.1a1.64,1.64,0,0,0,1.86,1.75,2.32,2.32,0,0,0,1.86-2.27V33.22l6.2-.87v5.36c0,4.8-3.63,9.21-8.08,9.83s-8.06-2.77-8-7.56Z"/><polygon class="cls-3" points="39.15 34.45 28.56 28.69 30.73 29.56 41.32 35.32 39.15 34.45"/><polygon class="cls-2" points="39.16 29.77 28.57 24.01 30.74 24.87 41.33 30.63 39.16 29.77"/><path class="cls-2" d="M32.43,16.81,43,22.57a7.87,7.87,0,0,1,2.36,5.82L34.78,22.63A7.9,7.9,0,0,0,32.43,16.81Z"/><polygon class="cls-3" points="39.16 29.77 28.57 24.01 28.57 23.5 39.16 29.26 39.16 29.77"/><path class="cls-3" d="M27.71,21.93l10.58,5.76a1.72,1.72,0,0,1,.87,1.57L28.57,23.5A1.73,1.73,0,0,0,27.71,21.93Z"/><path class="cls-2" d="M32.43,16.81a7,7,0,0,0-1.4-1l10.59,5.76a7,7,0,0,1,1.39,1l-2.54-1.38-4.13-2.25-1.53-.83-.5-.27-1-.53A7.4,7.4,0,0,1,32.43,16.81Z"/><path class="cls-2" d="M26.72,21.75a1.58,1.58,0,0,1,1,.18l10.58,5.76a1.56,1.56,0,0,0-1-.18Z"/><polygon class="cls-2" points="35.42 40.5 24.83 34.74 24.85 24.02 35.44 29.78 35.42 40.5"/><path class="cls-2" d="M24.85,24a2.32,2.32,0,0,1,1.87-2.27l9.35,5.09,1.23.67a2.32,2.32,0,0,0-1.86,2.27Z"/><path class="cls-2" d="M16.76,44.57c4.44-.62,8.06-5,8.07-9.83L35.42,40.5c0,4.8-3.63,9.21-8.08,9.83a6.86,6.86,0,0,1-4.29-.74L12.46,43.83A6.89,6.89,0,0,0,16.76,44.57Z"/><path class="cls-3" d="M26.37,43.47,15.78,37.71a1.55,1.55,0,0,0,1,.17,2.32,2.32,0,0,0,1.86-2.27l10.59,5.76a2.32,2.32,0,0,1-1.86,2.27A1.55,1.55,0,0,1,26.37,43.47Z"/><path class="cls-3" d="M31,15.8l10.59,5.76a7,7,0,0,0-4.3-.74L26.73,15.06A7,7,0,0,1,31,15.8Z"/><path class="cls-2" d="M15.78,37.71a1.76,1.76,0,0,1-.87-1.58l9.35,5.09,1.24.67a1.74,1.74,0,0,0,.87,1.58Z"/><polygon class="cls-3" points="29.22 41.37 18.63 35.61 18.65 24.89 29.24 30.66 29.22 41.37"/><polygon class="cls-2" points="25.5 41.89 14.91 36.13 14.92 30.78 25.51 36.54 25.5 41.89"/><path class="cls-3" d="M29.24,30.66,18.65,24.9c0-4.8,3.63-9.21,8.08-9.84l10.59,5.76C32.87,21.45,29.25,25.86,29.24,30.66Z"/><path class="cls-3" d="M23.05,49.59,12.46,43.83A7.54,7.54,0,0,1,8.71,37L19.3,42.77A7.51,7.51,0,0,0,23.05,49.59Z"/><polygon class="cls-3" points="19.31 37.41 8.72 31.65 14.92 30.78 25.51 36.54 19.31 37.41"/><polygon class="cls-3" points="19.3 42.77 8.71 37.01 8.72 31.65 19.31 37.41 19.3 42.77"/><path class="cls-3" d="M37.32,20.82c4.45-.62,8.06,2.77,8,7.57V29l-4,1.65-2.17-.86v-.51a1.65,1.65,0,0,0-1.86-1.75,2.32,2.32,0,0,0-1.86,2.27l0,10.72c0,4.8-3.63,9.21-8.08,9.83s-8-2.77-8-7.56V37.41l6.2-.87v5.35a1.65,1.65,0,0,0,1.86,1.75,2.32,2.32,0,0,0,1.86-2.27l0-10.71C29.25,25.86,32.87,21.45,37.32,20.82Z"/><path class="cls-2" d="M53.47,5.84c4.79-.67,8.68,3,8.67,8.15L62.07,48.8c0,5.17-3.91,9.91-8.7,10.59L21.12,63.92c-4.8.67-8.68-3-8.67-8.15L12.52,21c0-5.17,3.9-9.91,8.7-10.59ZM37.3,27.51a1.65,1.65,0,0,1,1.86,1.75v.51l2.17.86,4-1.65v-.59c0-4.8-3.6-8.19-8-7.57s-8.07,5-8.08,9.84l0,10.71a2.32,2.32,0,0,1-1.86,2.27,1.65,1.65,0,0,1-1.86-1.75V36.54l-6.2.87v5.36c0,4.79,3.6,8.19,8,7.56s8.07-5,8.08-9.83l0-10.72a2.32,2.32,0,0,1,1.86-2.27m18,10.2V32.35l-6.2.87v5.36a2.32,2.32,0,0,1-1.86,2.27,1.64,1.64,0,0,1-1.86-1.75V33.67l-4,1.65-2.17-.87V40c0,4.79,3.6,8.19,8,7.56s8.07-5,8.08-9.83"/><path class="cls-4" d="M47.52.88a7.44,7.44,0,0,0-4.64-.8L10.63,4.61C5.83,5.29,1.94,10,1.93,15.2L1.86,50a8.12,8.12,0,0,0,4,7.35l10.59,5.76a8.12,8.12,0,0,1-4-7.35L12.52,21c0-5.17,3.9-9.91,8.7-10.59L53.47,5.84a7.44,7.44,0,0,1,4.64.8Z"/></g></g></svg>