<?xml version="1.0" ?><svg viewBox="0 0 64 64" xmlns="http://www.w3.org/2000/svg"><defs><style>.cls-1{fill:#fff;}.cls-2{fill:#f9a42e;}.cls-3{fill:#ffcf36;}.cls-4{fill:#939598;}</style></defs><title/><g data-name="11-qzone" id="_11-qzone"><path class="cls-1" d="M48.65,52.86,38.06,47.1a.65.65,0,0,0,.24,0,.78.78,0,0,0,.62-.86L49.51,52a.8.8,0,0,1-.62.86A.65.65,0,0,1,48.65,52.86Z"/><polygon class="cls-1" points="49.51 52.02 38.92 46.26 37.98 39.38 48.57 45.13 49.51 52.02"/><polygon class="cls-1" points="48.26 42.86 37.67 37.1 40.57 33.56 51.16 39.32 48.26 42.86"/><polygon class="cls-2" points="50.33 39.44 39.74 33.68 40.57 33.56 51.16 39.32 50.33 39.44"/><path class="cls-1" d="M39.74,33.68a.18.18,0,0,0,0-.26L50.3,39.18a.18.18,0,0,1,0,.26Z"/><polygon class="cls-1" points="48.57 45.13 37.98 39.38 37.67 37.1 48.26 42.86 48.57 45.13"/><path class="cls-1" d="M39.71,33.43,50.3,39.19a.15.15,0,0,0-.09,0L39.62,33.41S39.69,33.41,39.71,33.43Z"/><polygon class="cls-1" points="47.81 39.57 37.22 33.81 37.16 33.37 47.75 39.13 47.81 39.57"/><polygon class="cls-1" points="37.27 49.38 26.68 43.62 38.06 47.1 48.65 52.86 37.27 49.38"/><polygon class="cls-1" points="25.86 56.06 15.28 50.3 26.68 43.62 37.27 49.38 25.86 56.06"/><path class="cls-3" d="M38,39.38c.42,0,.86.47,1.24.67l.64.35,3.41,1.86,5.3,2.88c-.07,0-3.15.71-6.91,1.23h0L31.07,40.61l10.59,5.76c-4.51.64-10,1-12.41-.28L18.66,40.33c2.41,1.31,7.9.92,12.41.28C34.83,40.09,37.91,39.39,38,39.38Z"/><path class="cls-2" d="M39.69,33.72l.05,0,10.59,5.76-.06,0A41.59,41.59,0,0,1,35,44.73a46.56,46.56,0,0,1-6.7.45L17.66,39.42a46.46,46.46,0,0,0,6.7-.45A41.55,41.55,0,0,0,39.69,33.72Z"/><polygon class="cls-1" points="47.75 39.13 37.16 33.37 45.59 22.27 56.17 28.03 47.75 39.13"/><polygon class="cls-3" points="43.98 26.11 33.39 20.35 45.25 21.21 55.83 26.97 43.98 26.11"/><path class="cls-1" d="M45.59,22.27a.68.68,0,0,0-.13-1L56.05,27a.67.67,0,0,1,.12,1Z"/><path class="cls-3" d="M45.46,21.27,56.05,27a.79.79,0,0,0-.22-.06L45.25,21.21A.65.65,0,0,1,45.46,21.27Z"/><path class="cls-3" d="M41.66,46.37h0l-9.35-5.08Z"/><path class="cls-1" d="M37,39.26,26.37,33.5a11.77,11.77,0,0,0,2.25.52,31.09,31.09,0,0,0,8.51-.19l.09,0c.76-.11,1.56-.24,2.4-.4l10.59,5.76c-.85.16-1.65.29-2.4.4h-.1a30.72,30.72,0,0,1-8.5.2A11.36,11.36,0,0,1,37,39.26Z"/><path class="cls-3" d="M28.62,34c2.54-2.73,7.79-8.52,7.08-8.78l9.35,5.09,1.24.67c.71.26-4.55,6-7.08,8.78Z"/><polygon class="cls-3" points="45.23 30.8 34.65 25.04 35 24.69 45.59 30.45 45.23 30.8"/><path class="cls-2" d="M45.23,30.8,34.65,25a7,7,0,0,1,1.05.2L46.29,31A7.16,7.16,0,0,0,45.23,30.8Z"/><path class="cls-3" d="M34.72,24.26,45.3,30l.29.16a.18.18,0,0,1,0,.27L35,24.69a.17.17,0,0,0,0-.26A2,2,0,0,0,34.72,24.26Z"/><polygon class="cls-2" points="36.94 38.98 26.35 33.22 34.65 25.04 45.23 30.8 36.94 38.98"/><path class="cls-1" d="M28.63,27.59l10.59,5.76.06,0a.18.18,0,0,1,0,.29L28.68,27.91a.18.18,0,0,0,0-.29Z"/><path class="cls-2" d="M28.63,27.59l9.64,5.24c-4.25-2.3-7.35-3.89-11.08-5.68A5.12,5.12,0,0,1,28.63,27.59Z"/><path class="cls-1" d="M36.94,39.25,26.36,33.49h0L37,39.26Z"/><path class="cls-2" d="M36.94,39.25,26.36,33.49a.17.17,0,0,1,0-.27L36.94,39A.17.17,0,0,0,36.94,39.25Z"/><polygon class="cls-2" points="36.07 36.61 25.49 30.85 25.53 30.81 36.12 36.57 36.07 36.61"/><path class="cls-1" d="M28.19,45.16,17.6,39.4a.16.16,0,0,1,0-.26c1-1.12,4.88-5.27,7.92-8.29a40.3,40.3,0,0,1,3.19-2.94l10.59,5.76a40.05,40.05,0,0,0-3.2,2.94c-3,3-6.88,7.17-7.91,8.29A.16.16,0,0,0,28.19,45.16Z"/><path class="cls-2" d="M24.54,29.89l10.59,5.75a2,2,0,0,1,1,.93L25.53,30.81A2,2,0,0,0,24.54,29.89Z"/><path class="cls-1" d="M34.72,24.26,45.3,30a10.85,10.85,0,0,0-6.75-.89L28,23.37A10.89,10.89,0,0,1,34.72,24.26Z"/><path class="cls-2" d="M18.66,40.33a2.41,2.41,0,0,1-1-.91L27,44.51l1.24.67a2.41,2.41,0,0,0,1,.91Z"/><path class="cls-3" d="M24.57,29.91l10.58,5.76c-2.41-1.31-8.32-1.93-8.33-1.93L16.23,28S22.15,28.6,24.57,29.91Z"/><path class="cls-2" d="M27.19,27.15s4,1.86,11.08,5.68l.95.52c-.67-.37-3.12-1.07-8.53-.31L20.1,27.28,30.69,33h0c-1.15.16-2.43.38-3.85.7L16.25,28c1.42-.31,2.71-.54,3.85-.7A23.15,23.15,0,0,1,27.19,27.15Z"/><path class="cls-2" d="M36.11,36.57c-.7-1.93-8.85-2.79-9.27-2.83,1.42-.32,2.7-.54,3.85-.7,5.6-.79,8,0,8.59.34a.18.18,0,0,1,0,.29,40.05,40.05,0,0,0-3.2,2.94Z"/><path class="cls-1" d="M26.74,33.72,16.15,28a.17.17,0,0,1,0-.28,25.34,25.34,0,0,1,11-4.21l10.59,5.76a25.34,25.34,0,0,0-11,4.21A.17.17,0,0,0,26.74,33.72Z"/><path class="cls-1" d="M37.74,29.23l.81-.1c4.09-.58,6.43.67,7,1.05a.18.18,0,0,1,0,.27l-.36.35L36.94,39c-.09.09-.09.24,0,.28a11.36,11.36,0,0,0,2.25.52,30.72,30.72,0,0,0,8.5-.2h.1c.75-.11,1.55-.24,2.4-.4.15,0,.21.16.12.27l-.06,0A41.59,41.59,0,0,1,35,44.73a46.56,46.56,0,0,1-6.7.45.16.16,0,0,1-.09-.28c1-1.12,4.87-5.27,7.91-8.29a40.05,40.05,0,0,1,3.2-2.94.18.18,0,0,0,0-.29c-.56-.34-3-1.13-8.59-.34-1.15.16-2.43.38-3.85.7a.16.16,0,0,1-.1-.3A25.34,25.34,0,0,1,37.74,29.23Z"/><path class="cls-2" d="M46.29,31a7.16,7.16,0,0,0-1.06-.2L36.94,39c-.09.09-.09.24,0,.28a11.36,11.36,0,0,0,2.25.52C41.74,37.05,47,31.26,46.29,31Z"/><path class="cls-1" d="M15,50.39a.78.78,0,0,0,.24-.09l10.58,5.76a.57.57,0,0,1-.24.08Z"/><path class="cls-1" d="M14.71,50.33a.59.59,0,0,0,.33.06l10.58,5.75h0a.49.49,0,0,1-.32,0Z"/><path class="cls-3" d="M25.3,56.09,14.71,50.33a.59.59,0,0,1-.28-.63L25,55.46A.59.59,0,0,0,25.3,56.09Z"/><path class="cls-1" d="M37.74,29.23,27.15,23.47l.81-.1,10.59,5.76Z"/><path class="cls-3" d="M17.66,39.42a6.76,6.76,0,0,1,1.24.67L23,42.3l5.29,2.88-.06,0L17.6,39.4Z"/><polygon class="cls-3" points="25.02 55.46 14.43 49.7 16.23 36.31 26.82 42.07 25.02 55.46"/><path class="cls-3" d="M16.21,28h0l10.59,5.76h0Z"/><path class="cls-3" d="M16.21,28l.07,0,.24.13,1,.54,9.28,5.05h-.06L16.15,28Z"/><path class="cls-3" d="M37.33,15.25a.52.52,0,0,1,.54.26L44,26.11,55.83,27A.63.63,0,0,1,56.17,28l-8.42,11.1.06.44a31.14,31.14,0,0,1-8.6.21C41.74,37.05,47,31.26,46.29,31a7.16,7.16,0,0,0-1.06-.2l.36-.35a.18.18,0,0,0,0-.27c-.61-.38-3-1.63-7-1.06l-.84.11a25.34,25.34,0,0,0-11,4.21c-.14.11-.07.32.08.3s8.59.9,9.29,2.83c-3.08,3.06-6.92,7.21-7.95,8.33a.16.16,0,0,0,.09.28c1.35,2.36,8.07,1.94,13.41,1.19,3.76-.52,6.84-1.22,6.91-1.23L49.51,52a.8.8,0,0,1-.62.86.65.65,0,0,1-.24,0L37.27,49.38,25.86,56.06a.57.57,0,0,1-.24.08.55.55,0,0,1-.6-.68l1.8-13.39-8.38-8.74a.74.74,0,0,1,.33-1.15L30.64,28l6.15-12.32A.73.73,0,0,1,37.33,15.25Z"/><path class="cls-1" d="M27.08,9.55l10.58,5.76a.57.57,0,0,1,.21.2L27.28,9.75A.48.48,0,0,0,27.08,9.55Z"/><path class="cls-3" d="M27.08,9.55l10.58,5.76a.53.53,0,0,0-.33-.06L26.74,9.49A.56.56,0,0,1,27.08,9.55Z"/><polygon class="cls-3" points="30.64 27.98 20.05 22.22 26.21 9.9 36.79 15.66 30.64 27.98"/><path class="cls-3" d="M36.79,15.66,26.21,9.9a.72.72,0,0,1,.53-.41l10.59,5.76A.73.73,0,0,0,36.79,15.66Z"/><polygon class="cls-3" points="26.82 42.07 16.23 36.31 7.85 27.57 18.44 33.33 26.82 42.07"/><polygon class="cls-3" points="18.77 32.18 8.19 26.42 20.05 22.22 30.64 27.98 18.77 32.18"/><path class="cls-3" d="M18.44,33.33,7.85,27.58a.74.74,0,0,1,.34-1.16l10.58,5.76A.74.74,0,0,0,18.44,33.33Z"/><path class="cls-1" d="M53.47,5.84c4.79-.67,8.67,3,8.66,8.15l-.07,34.8c0,5.18-3.9,9.92-8.69,10.6L21.12,63.92c-4.79.67-8.67-3-8.66-8.15L12.52,21c0-5.18,3.91-9.91,8.7-10.59ZM56.17,28A.63.63,0,0,0,55.83,27L44,26.11l-6.11-10.6a.52.52,0,0,0-.54-.26.73.73,0,0,0-.54.41L30.64,28l-11.87,4.2a.74.74,0,0,0-.33,1.15l8.38,8.74L25,55.46a.55.55,0,0,0,.6.68.57.57,0,0,0,.24-.08l11.41-6.68,11.38,3.48a.65.65,0,0,0,.24,0,.8.8,0,0,0,.62-.86l-.94-6.88-.31-2.28,2.9-3.54-.83.12c.09-.11,0-.29-.11-.27-.86.16-1.66.29-2.41.4l-.06-.44L56.17,28"/><path class="cls-2" d="M51.16,39.32l-2.9,3.54.31,2.28c-.07,0-3.15.71-6.91,1.23-5.34.75-12.06,1.17-13.41-1.19a46.56,46.56,0,0,0,6.7-.45,41.59,41.59,0,0,0,15.32-5.25l.06,0Z"/><path class="cls-4" d="M47.52.88a7.44,7.44,0,0,0-4.64-.8L10.63,4.61C5.84,5.29,2,10,1.94,15.21L1.87,50a8.12,8.12,0,0,0,4,7.35l10.59,5.76a8.11,8.11,0,0,1-4-7.35L12.52,21c0-5.18,3.91-9.91,8.7-10.59L53.47,5.84a7.42,7.42,0,0,1,4.63.8Z"/></g></svg>