<?xml version="1.0" ?><svg viewBox="0 0 64 64" xmlns="http://www.w3.org/2000/svg"><defs><style>.cls-1{isolation:isolate;}.cls-2{fill:#fff;}.cls-3{fill:#e65149;}.cls-4{fill:#d2453d;}.cls-5{fill:#939598;}</style></defs><title/><g data-name="15-google-plus" id="_15-google-plus"><g class="cls-1"><path class="cls-2" d="M40,41.31l.14-.18,10.59,5.76-.14.18Z"/><path class="cls-2" d="M40,41.31l10.59,5.76-.07.08L39.9,41.39Z"/><path class="cls-2" d="M39.8,41.5l.1-.11,10.58,5.76-.09.11Z"/><path class="cls-2" d="M39.77,41.54l0,0,10.59,5.76,0,0Z"/><path class="cls-2" d="M40.08,41.71,50.36,47.3c-.22.26-.44.52-.67.77L39.11,42.31c.22-.25.45-.51.66-.77Z"/><path class="cls-2" d="M45.16,29a22.77,22.77,0,0,0,.15-2.48l10.58,5.76a22.76,22.76,0,0,1-.14,2.48Z"/><polygon class="cls-3" points="55.7 35.1 45.12 29.34 40.35 24.86 50.94 30.62 55.7 35.1"/><path class="cls-2" d="M40.1,41.13A24,24,0,0,0,45.16,29l10.59,5.76a24,24,0,0,1-5.06,12.15Z"/><path class="cls-2" d="M28.46,48.85a21.36,21.36,0,0,0,10.65-6.54l10.58,5.76a21.29,21.29,0,0,1-10.64,6.54Z"/><path class="cls-3" d="M39.33,54.54,28.74,48.78c8.44-2.2,15.19-10.25,16.38-19.44L55.7,35.1C54.52,44.29,47.77,52.34,39.33,54.54Z"/><polygon class="cls-4" points="50.94 33.3 40.35 27.54 40.35 24.86 50.94 30.62 50.94 33.3"/><path class="cls-2" d="M26.67,49.2c.6-.09,1.2-.2,1.79-.35l10.59,5.76a17.88,17.88,0,0,1-1.8.35Z"/><polygon class="cls-4" points="48.15 33.69 37.56 27.93 40.35 27.54 50.94 33.3 48.15 33.69"/><polygon class="cls-4" points="48.14 36.7 37.55 30.94 37.56 27.93 48.15 33.69 48.14 36.7"/><polygon class="cls-4" points="45.66 37.05 35.07 31.29 37.55 30.94 48.14 36.7 45.66 37.05"/><polygon class="cls-2" points="48.15 31.01 37.56 25.25 40.35 24.86 50.94 30.62 48.15 31.01"/><polygon class="cls-2" points="45.66 37.05 35.07 31.29 35.07 28.28 45.66 34.04 45.66 37.05"/><path class="cls-2" d="M45.31,26.5c0-7.14-3.43-12.93-8.63-15.75L47.26,16.5c5.2,2.83,8.65,8.62,8.63,15.76Z"/><polygon class="cls-3" points="50.94 30.62 40.35 24.86 37.57 22.24 48.16 28 50.94 30.62"/><polygon class="cls-4" points="48.15 31.01 37.56 25.25 37.57 22.24 48.16 28 48.15 31.01"/><polygon class="cls-4" points="48.16 28 50.94 30.62 48.15 31.01 48.16 28"/><polygon class="cls-4" points="42.87 34.43 32.28 28.67 35.07 28.28 45.66 34.04 42.87 34.43"/><polygon class="cls-2" points="45.67 28.35 35.08 22.59 37.57 22.24 48.16 28 45.67 28.35"/><polygon class="cls-2" points="45.67 31.36 35.08 25.6 35.08 22.59 45.67 28.35 45.67 31.36"/><polygon class="cls-2" points="42.88 31.75 32.29 26 35.08 25.6 45.67 31.36 42.88 31.75"/><polygon class="cls-2" points="42.87 34.43 32.28 28.67 32.29 26 42.88 31.75 42.87 34.43"/><polygon class="cls-4" points="40.71 34.07 30.12 28.31 30.12 26.3 40.71 32.06 40.71 34.07"/><path class="cls-2" d="M16.73,47.49a16,16,0,0,0,9.94,1.71L37.25,55a16,16,0,0,1-9.93-1.71Z"/><path class="cls-4" d="M21.42,38.56a10.44,10.44,0,0,0,8.7-10.25l10.59,5.76A10.45,10.45,0,0,1,32,44.32Z"/><path class="cls-4" d="M21.17,38.59l.25,0L32,44.32l-.25,0-.14,0h-.21L20.82,38.63H21Zm10.15,5.72h0m0,0h0"/><polygon class="cls-4" points="32.64 37.21 22.05 31.45 26.01 30.89 36.59 36.65 32.64 37.21"/><polygon class="cls-3" points="42.87 32.28 32.29 26.52 26.99 21.53 37.58 27.29 42.87 32.28"/><polygon class="cls-2" points="32.64 33.19 22.06 27.43 30.12 26.3 40.71 32.06 32.64 33.19"/><polygon class="cls-4" points="35.19 30.71 24.61 24.95 26.99 21.53 37.58 27.29 35.19 30.71"/><polygon class="cls-4" points="39.33 54.54 28.74 48.78 17.25 37.97 27.84 43.73 39.33 54.54"/><path class="cls-4" d="M17.25,38a7,7,0,0,0,3.57.66l10.59,5.76a7,7,0,0,1-3.57-.66Z"/><path class="cls-2" d="M29.6,39.94,19,34.18a3.82,3.82,0,0,0,2.42.37A5.82,5.82,0,0,0,26,30.89l10.58,5.76A5.82,5.82,0,0,1,32,40.31,3.79,3.79,0,0,1,29.6,39.94Z"/><path class="cls-2" d="M24.1,24.63l10.58,5.76a3.36,3.36,0,0,1,.51.32L24.6,25A3.08,3.08,0,0,0,24.1,24.63Z"/><polygon class="cls-2" points="32.64 37.21 22.05 31.45 22.06 27.43 32.64 33.19 32.64 37.21"/><path class="cls-4" d="M21.44,24.17a4.3,4.3,0,0,1,2.66.46l10.58,5.76A4.27,4.27,0,0,0,32,29.93Z"/><path class="cls-4" d="M19,34.18c-1.21-.65-1.92-2.08-1.91-4L27.68,35.9c0,2,.71,3.38,1.92,4Z"/><path class="cls-4" d="M17.1,30.14c0-2.58,1.36-5.55,4.34-6L32,29.93c-3,.42-4.34,3.39-4.35,6Z"/><path class="cls-2" d="M27.62,43.62,17,37.86c-2.26-1.23-3.67-3.82-3.66-7.2,0-5.34,3.47-9.86,8.07-10.51L32,25.91c-4.6.65-8.07,5.17-8.08,10.51C24,39.8,25.36,42.39,27.62,43.62Z"/><path class="cls-3" d="M17,37.86l.21.11,10.59,5.76-.22-.11Z"/><path class="cls-3" d="M27,21.53a7.36,7.36,0,0,0-.88-.57L36.7,26.72a8.25,8.25,0,0,1,.88.57C34.4,25.56,30,23.49,27,21.53Z"/><path class="cls-2" d="M26.11,21,36.7,26.72A7.57,7.57,0,0,0,32,25.91L21.45,20.15A7.57,7.57,0,0,1,26.11,21Z"/><path class="cls-4" d="M37.58,27.29l5.29,5v2.15L45.66,34v3l2.48-.35v-3l2.79-.39V30.62L55.7,35.1c-1.18,9.19-7.93,17.24-16.37,19.44L27.84,43.73a7,7,0,0,0,3.57.66h.21l.14,0,.25,0a10.45,10.45,0,0,0,8.7-10.25v-2l-8.07,1.13v4l4-.56A5.82,5.82,0,0,1,32,40.31c-2.63.37-4.33-1.37-4.33-4.41,0-2.58,1.37-5.55,4.35-6a4.21,4.21,0,0,1,3.16.78Z"/><path class="cls-3" d="M8.1,31.73q0-1,.09-1.95l10.59,5.76q-.09,1-.09,2c0,7.14,3.43,12.93,8.63,15.76L16.73,47.49C11.53,44.66,8.09,38.88,8.1,31.73Z"/><path class="cls-3" d="M8.19,29.78C9.11,19.48,17.08,10.4,26.74,9L37.33,14.8C27.66,16.15,19.7,25.24,18.78,35.54Z"/><path class="cls-3" d="M37.33,14.8c10.27-1.45,18.58,6.38,18.56,17.46S47.53,53.51,37.25,55,18.67,48.58,18.69,37.49,27.06,16.24,37.33,14.8Zm2,39.74c8.44-2.2,15.19-10.25,16.37-19.44l-4.76-4.48L48.16,28l-2.49.35v3l-2.79.39v.53l-5.29-5A7.43,7.43,0,0,0,32,25.91c-4.6.65-8.07,5.17-8.08,10.51,0,3.49,1.5,6.13,3.88,7.31L39.33,54.54"/><polygon class="cls-2" points="48.16 28 48.15 31.01 50.94 30.62 50.94 33.3 48.15 33.69 48.14 36.7 45.66 37.05 45.66 34.04 42.87 34.43 42.88 31.75 45.67 31.36 45.67 28.35 48.16 28"/><path class="cls-3" d="M26.74,9a15.87,15.87,0,0,1,9.94,1.71L47.26,16.5a15.9,15.9,0,0,0-9.93-1.7Z"/><path class="cls-2" d="M32,25.91a7.43,7.43,0,0,1,5.54,1.38l-2.39,3.42A4.21,4.21,0,0,0,32,29.93c-3,.42-4.34,3.39-4.35,6,0,3,1.7,4.78,4.33,4.41a5.82,5.82,0,0,0,4.58-3.66l-4,.56v-4l8.07-1.13v2A10.45,10.45,0,0,1,32,44.32l-.19,0h-.06l-.14,0h-.21a7,7,0,0,1-3.57-.66C25.46,42.55,24,39.91,24,36.42,24,31.08,27.44,26.56,32,25.91Z"/><path class="cls-5" d="M47.52.88a7.45,7.45,0,0,0-4.64-.8L10.63,4.61c-4.8.68-8.69,5.41-8.7,10.6L1.87,50a8.11,8.11,0,0,0,4,7.35l10.58,5.76a8.14,8.14,0,0,1-4-7.35L12.52,21c0-5.18,3.9-9.91,8.7-10.59L53.47,5.84a7.42,7.42,0,0,1,4.63.8Z"/><path class="cls-2" d="M53.47,5.84c4.79-.67,8.67,3,8.66,8.15l-.06,34.8c0,5.18-3.91,9.92-8.7,10.6L21.12,63.92c-4.8.67-8.67-3-8.67-8.15L12.52,21c0-5.18,3.9-9.91,8.7-10.59ZM37.25,55c10.28-1.45,18.62-11.61,18.64-22.7S47.6,13.35,37.33,14.8,18.71,26.41,18.69,37.49,27,56.4,37.25,55"/></g></g></svg>