<?xml version="1.0" ?><svg viewBox="0 0 64 64" xmlns="http://www.w3.org/2000/svg"><defs><style>.cls-1{isolation:isolate;}.cls-2{fill:#00afed;}.cls-3{fill:#fff;}.cls-4{fill:#00afee;}.cls-5{fill:#0078de;}</style></defs><title/><g data-name="17-skype" id="_17-skype"><g class="cls-1"><path class="cls-2" d="M34.82,47c5.29-.83,9.52-6.12,9.45-11.81l10.58,5.76c.08,5.69-4.15,11-9.44,11.81Z"/><path class="cls-2" d="M34.66,47l.16,0,10.59,5.76-.17,0Z"/><path class="cls-2" d="M44.27,35.16a10,10,0,0,0-1.21-4.7l10.59,5.75a10,10,0,0,1,1.2,4.71Z"/><path class="cls-2" d="M30,46.33a8.2,8.2,0,0,0,4.65.67l10.58,5.76a8.23,8.23,0,0,1-4.65-.67Z"/><path class="cls-3" d="M26.73,40.86a12.38,12.38,0,0,0,1.52-.3l10.59,5.76a12.38,12.38,0,0,1-1.52.3Z"/><path class="cls-3" d="M35.42,33.36c0-2.89-1.25-4.46-2.84-5.33l10.59,5.76c1.59.86,2.84,2.44,2.83,5.33,0,3.26-2.93,6.13-7.16,7.2L28.25,40.56C32.48,39.49,35.41,36.62,35.42,33.36Z"/><path class="cls-3" d="M24.25,40.84a8.18,8.18,0,0,0,2.48,0l10.59,5.76a8.18,8.18,0,0,1-2.48,0Z"/><path class="cls-2" d="M35.37,12.79,46,18.55a14.34,14.34,0,0,1,3.18,2.36c3.95,3.87,5.45,9.64,4.52,15.3L43.06,30.46C44,24.79,42.5,19,38.55,15.15A14.81,14.81,0,0,0,35.37,12.79Z"/><path class="cls-3" d="M42.71,29.4,32.12,23.64a1.53,1.53,0,0,0,1,.18,2,2,0,0,0,.75-.28,2.31,2.31,0,0,0,1-2.78l10.59,5.76a2.33,2.33,0,0,1-1,2.78,2.09,2.09,0,0,1-.75.28A1.59,1.59,0,0,1,42.71,29.4Z"/><path class="cls-4" d="M42.71,29.4,32.12,23.64a1.54,1.54,0,0,1-.69-.75L42,28.65A1.6,1.6,0,0,0,42.71,29.4Z"/><path class="cls-3" d="M22,40.07a7.38,7.38,0,0,0,2.21.77L34.84,46.6a7.28,7.28,0,0,1-2.21-.77Z"/><path class="cls-4" d="M34.6,42.14,24,36.38a4.27,4.27,0,0,0,2.73.46c2.79-.39,5-1.9,5-3a2.13,2.13,0,0,0-1.13-2.16l10.59,5.75a2.12,2.12,0,0,1,1.12,2.17c0,1-2.17,2.57-5,3A4.31,4.31,0,0,1,34.6,42.14Z"/><path class="cls-3" d="M34.82,20.76a5.48,5.48,0,0,0-1.73-2.05l10.59,5.76a5.6,5.6,0,0,1,1.73,2.05C42.23,24.8,37.28,23.42,34.82,20.76Z"/><path class="cls-2" d="M28.63,51.2,18,45.44A14.58,14.58,0,0,0,27.1,47,16.62,16.62,0,0,0,30,46.33l10.58,5.76a16.51,16.51,0,0,1-2.9.69A14.58,14.58,0,0,1,28.63,51.2Z"/><path class="cls-4" d="M32.31,18.21,42.89,24a8.72,8.72,0,0,0-5.53-.78L26.77,17.43A8.76,8.76,0,0,1,32.31,18.21Z"/><path class="cls-3" d="M33.09,18.71a5.27,5.27,0,0,0-.46-.31l10.59,5.76.46.31-5.3-2.88-.69-.38L35,19.74l-.64-.36C34,19.18,33.44,18.94,33.09,18.71Z"/><path class="cls-4" d="M30.34,21.89l10.59,5.76a2.55,2.55,0,0,1,1.08,1L31.43,22.89A2.69,2.69,0,0,0,30.34,21.89Z"/><path class="cls-3" d="M32.63,18.4a3.37,3.37,0,0,0-.32-.19L42.89,24l.33.19-5.29-2.88-3.41-1.86-1.28-.69Z"/><path class="cls-3" d="M26.48,31a9.15,9.15,0,0,1,4.09.72l10.59,5.75a9.33,9.33,0,0,0-4.09-.71A9.84,9.84,0,0,1,36,36.7l-5.29-2.88-5.3-2.88A10,10,0,0,0,26.48,31Z"/><path class="cls-3" d="M22.4,34.89a1.58,1.58,0,0,0-.31-.4l10.59,5.76a1.68,1.68,0,0,1,.3.39,4.45,4.45,0,0,0,1.62,1.5L24,36.38A4.39,4.39,0,0,1,22.4,34.89Z"/><path class="cls-3" d="M22.09,34.49a1.72,1.72,0,0,0-.32-.23L32.35,40a2,2,0,0,1,.33.24l-5.3-2.88-2.74-1.49L22.7,34.82A5.92,5.92,0,0,1,22.09,34.49Z"/><path class="cls-4" d="M34.58,32.1,24,26.34A7.34,7.34,0,0,0,27,27,12.14,12.14,0,0,1,32.58,28l10.59,5.76a12.16,12.16,0,0,0-5.56-1.08A7.42,7.42,0,0,1,34.58,32.1Z"/><path class="cls-3" d="M22,30a8.65,8.65,0,0,0,3.36.92l2.55,1.39,8,4.37a8.71,8.71,0,0,1-3.37-.92Z"/><path class="cls-4" d="M32.63,45.83,22,40.07a7.79,7.79,0,0,1-2.9-2.77,2.28,2.28,0,0,1,.73-2.83,2,2,0,0,1,.9-.39,1.56,1.56,0,0,1,1,.18L32.35,40a1.59,1.59,0,0,0-1-.17,2,2,0,0,0-.91.39,2.27,2.27,0,0,0-.72,2.83A7.7,7.7,0,0,0,32.63,45.83Z"/><path class="cls-3" d="M24,26.34a2.42,2.42,0,0,1-.41-.27l10.59,5.75a2.21,2.21,0,0,0,.4.28Z"/><path class="cls-3" d="M26.77,21.45a5.61,5.61,0,0,1,3.57.44l10.59,5.76a5.63,5.63,0,0,0-3.58-.44c-3.64.51-3.65,2.16-3.65,3.6a1.29,1.29,0,0,0,.48,1L23.59,26.07a1.33,1.33,0,0,1-.48-1C23.12,23.61,23.12,22,26.77,21.45Z"/><path class="cls-4" d="M32.58,35.78,22,30a4.87,4.87,0,0,1-2.61-4.44c0-5.88,4-7.68,7.38-8.15l10.59,5.76C34,23.66,30,25.46,30,31.33A4.88,4.88,0,0,0,32.58,35.78Z"/><path class="cls-4" d="M37.36,23.19c6.18-.87,8,3.17,8,3.33a2.33,2.33,0,0,1-1,2.78,2.09,2.09,0,0,1-.75.28A1.59,1.59,0,0,1,42,28.65c-.07-.14-1.08-1.95-4.66-1.44s-3.65,2.16-3.65,3.6c0,1.7,3,1.89,3.91,1.9,2.51,0,8.41.14,8.39,6.41,0,3.64-3.65,6.79-8.68,7.5a7.53,7.53,0,0,1-7.59-3.56,2.27,2.27,0,0,1,.72-2.83,2,2,0,0,1,.91-.39,1.57,1.57,0,0,1,1.62.8,4.37,4.37,0,0,0,4.34,2c2.79-.39,5-1.91,5-3,0-1.47-.39-2.8-5.21-2.88-6.41-.1-7.09-3.83-7.09-5.43C30,25.46,34,23.66,37.36,23.19Z"/><path class="cls-3" d="M35.37,12.79,46,18.55A14.63,14.63,0,0,0,36.89,17a16.37,16.37,0,0,0-2.89.68L23.41,11.9a16.58,16.58,0,0,1,2.89-.68A14.67,14.67,0,0,1,35.37,12.79Z"/><path class="cls-3" d="M28.63,51.2,18,45.44a14.15,14.15,0,0,1-3.17-2.35,17.34,17.34,0,0,1-4.51-15.32l10.58,5.76a17.34,17.34,0,0,0,4.51,15.32A14.44,14.44,0,0,0,28.63,51.2Z"/><path class="cls-3" d="M20.94,33.53,10.36,27.77a9.9,9.9,0,0,1-1.21-5.06c.12-5.65,4.39-10.74,9.59-11.47l.2,0a8.1,8.1,0,0,1,4.47.68L34,17.66A8.14,8.14,0,0,0,29.52,17l-.19,0c-5.2.73-9.48,5.82-9.59,11.47A9.9,9.9,0,0,0,20.94,33.53Z"/><path class="cls-3" d="M54.85,40.92c.08,5.69-4.15,11-9.44,11.81l-.17,0a8.23,8.23,0,0,1-4.65-.67,16.51,16.51,0,0,1-2.9.69,14.4,14.4,0,0,1-12.24-3.93,17.34,17.34,0,0,1-4.51-15.32,9.9,9.9,0,0,1-1.2-5.06c.11-5.65,4.39-10.74,9.59-11.47l.19,0a8.14,8.14,0,0,1,4.48.68A16.37,16.37,0,0,1,36.89,17a14.38,14.38,0,0,1,12.24,3.93c3.95,3.87,5.45,9.64,4.52,15.3A10,10,0,0,1,54.85,40.92Zm-17.53,5.7c5-.71,8.68-3.86,8.68-7.5,0-6.27-5.88-6.37-8.39-6.41-.92,0-3.91-.2-3.91-1.9,0-1.44,0-3.09,3.65-3.6s4.59,1.3,4.66,1.44a1.59,1.59,0,0,0,1.69.93,2.09,2.09,0,0,0,.75-.28,2.33,2.33,0,0,0,1-2.78c-.07-.16-1.87-4.2-8-3.33C34,23.66,30,25.46,30,31.33c0,1.6.68,5.33,7.09,5.43,4.82.08,5.22,1.41,5.21,2.88,0,1-2.17,2.57-5,3a4.37,4.37,0,0,1-4.34-2,1.57,1.57,0,0,0-1.62-.8,2,2,0,0,0-.91.39,2.27,2.27,0,0,0-.72,2.83,7.53,7.53,0,0,0,7.59,3.56"/><path class="cls-5" d="M47.52.88a7.44,7.44,0,0,0-4.64-.8L10.63,4.61C5.84,5.29,2,10,1.94,15.21L1.87,50a8.12,8.12,0,0,0,4,7.35l10.59,5.76a8.11,8.11,0,0,1-4-7.35L12.52,21c0-5.18,3.91-9.91,8.7-10.59L53.47,5.84a7.42,7.42,0,0,1,4.63.8Z"/><path class="cls-2" d="M53.47,5.84c4.79-.67,8.67,3,8.66,8.15l-.07,34.8c0,5.18-3.9,9.92-8.69,10.6L21.12,63.92c-4.79.67-8.67-3-8.66-8.15L12.52,21c0-5.18,3.91-9.91,8.7-10.59ZM45.41,52.73c5.29-.83,9.52-6.12,9.44-11.81a10,10,0,0,0-1.2-4.71c.93-5.66-.57-11.43-4.52-15.3A14.38,14.38,0,0,0,36.89,17a16.37,16.37,0,0,0-2.89.68A8.14,8.14,0,0,0,29.52,17l-.19,0c-5.2.73-9.48,5.82-9.59,11.47a9.9,9.9,0,0,0,1.2,5.06,17.34,17.34,0,0,0,4.51,15.32,14.4,14.4,0,0,0,12.24,3.93,16.51,16.51,0,0,0,2.9-.69,8.23,8.23,0,0,0,4.65.67l.17,0"/></g></g></svg>