<?xml version="1.0" ?><svg viewBox="0 0 64 64" xmlns="http://www.w3.org/2000/svg"><defs><style>.cls-1{isolation:isolate;}.cls-2{fill:#00cf2e;}.cls-3{fill:#fff;}.cls-4{fill:#00812e;}</style></defs><title/><g data-name="5-line" id="_5-line"><g class="cls-1"><path class="cls-2" d="M26.32,47.69C30.7,45,45.61,34.3,45.63,23.45l10.59,5.76c0,10.85-14.93,21.53-19.31,24.24Z"/><path class="cls-3" d="M38.18,30.19a1.16,1.16,0,0,0,.93-1.14L49.7,34.81A1.17,1.17,0,0,1,48.76,36Z"/><polygon class="cls-2" points="45.98 34.33 35.39 28.57 38.18 28.18 48.77 33.94 45.98 34.33"/><path class="cls-3" d="M39.11,29.05a.88.88,0,0,0-.43-.79L49.26,34a.88.88,0,0,1,.44.79h0L39.11,29.05Z"/><path class="cls-2" d="M38.68,28.26,49.26,34a.74.74,0,0,0-.49-.08L38.18,28.18A.84.84,0,0,1,38.68,28.26Z"/><path class="cls-3" d="M38.18,26.17A1.16,1.16,0,0,0,39.12,25L49.7,30.79a1.16,1.16,0,0,1-.93,1.14Z"/><path class="cls-2" d="M26.07,47.79a.53.53,0,0,0,.25-.1l10.59,5.76a.57.57,0,0,1-.25.1Z"/><polygon class="cls-2" points="45.98 30.31 35.4 24.55 38.19 24.16 48.77 29.92 45.98 30.31"/><path class="cls-3" d="M39.12,25a.88.88,0,0,0-.44-.79L49.27,30a.86.86,0,0,1,.43.78h0L39.12,25Z"/><path class="cls-2" d="M25.74,47.73a.52.52,0,0,0,.33.06l10.59,5.76a.52.52,0,0,1-.33-.06Z"/><path class="cls-2" d="M38.68,24.25,49.27,30a.82.82,0,0,0-.5-.09L38.19,24.16A.8.8,0,0,1,38.68,24.25Z"/><polygon class="cls-3" points="45.04 36.47 34.45 30.71 38.18 30.19 48.76 35.95 45.04 36.47"/><path class="cls-3" d="M34,30.62a.82.82,0,0,0,.5.09L45,36.47a.8.8,0,0,1-.49-.09Z"/><path class="cls-3" d="M38.19,22.15A1.15,1.15,0,0,0,39.12,21l10.59,5.76a1.15,1.15,0,0,1-.93,1.13Z"/><polygon class="cls-3" points="45.98 34.33 35.39 28.57 35.39 26.56 45.98 32.32 45.98 34.33"/><polygon class="cls-3" points="45.98 32.32 35.39 26.56 38.18 26.17 48.77 31.93 45.98 32.32"/><path class="cls-2" d="M44.55,36.38,34,30.62a.86.86,0,0,1-.43-.78L44.11,35.6A.87.87,0,0,0,44.55,36.38Z"/><polygon class="cls-3" points="45.99 28.31 35.4 22.55 38.19 22.15 48.78 27.91 45.99 28.31"/><polygon class="cls-2" points="45.06 26.43 34.47 20.67 38.2 20.15 48.78 25.91 45.06 26.43"/><path class="cls-3" d="M39.12,21a.87.87,0,0,0-.43-.79L49.28,26a.87.87,0,0,1,.43.79h0L39.12,21Z"/><path class="cls-2" d="M38.69,20.23,49.28,26a.76.76,0,0,0-.5-.08L38.19,20.15A.75.75,0,0,1,38.69,20.23Z"/><path class="cls-3" d="M36.33,53.49,25.74,47.73a.59.59,0,0,1-.27-.68,18.72,18.72,0,0,0,.28-2.74,2.15,2.15,0,0,0-.34-1.19L36,48.88a2.15,2.15,0,0,1,.34,1.19,20.21,20.21,0,0,1-.28,2.74A.59.59,0,0,0,36.33,53.49Z"/><path class="cls-3" d="M42.24,36.81,31.65,31.05a1.18,1.18,0,0,0,.63-1l10.59,5.76A1.18,1.18,0,0,1,42.24,36.81Z"/><path class="cls-3" d="M24.87,42.61l10.59,5.76a1.46,1.46,0,0,1,.54.51L25.41,43.12A1.46,1.46,0,0,0,24.87,42.61Z"/><polygon class="cls-3" points="45.98 30.31 35.4 24.55 35.4 22.55 45.99 28.31 45.98 30.31"/><polygon class="cls-2" points="44.11 35.59 33.53 29.84 33.54 21.8 44.13 27.56 44.11 35.59"/><polygon class="cls-3" points="42.87 35.77 32.28 30.01 32.3 21.98 42.89 27.74 42.87 35.77"/><polygon class="cls-2" points="41.2 36.61 30.61 30.85 26.71 25.77 37.3 31.53 41.2 36.61"/><path class="cls-3" d="M41.44,36.82,30.86,31.06a.8.8,0,0,0,.49.09,1.18,1.18,0,0,0,.3-.1l10.59,5.76a.86.86,0,0,1-.3.09A.77.77,0,0,1,41.44,36.82Z"/><path class="cls-2" d="M41.44,36.82,30.86,31.06a.72.72,0,0,1-.25-.21L41.2,36.61A.79.79,0,0,0,41.44,36.82Z"/><path class="cls-2" d="M24,42.42a1.6,1.6,0,0,1,.84.19l10.59,5.76a1.61,1.61,0,0,0-.85-.19Z"/><path class="cls-2" d="M45.63,23.45c0-4.32-2.76-8.48-7.18-10.88L49,18.33c4.42,2.4,7.18,6.56,7.18,10.88Z"/><path class="cls-2" d="M44.13,27.56,33.54,21.8a1.15,1.15,0,0,1,.93-1.13l10.59,5.76A1.15,1.15,0,0,0,44.13,27.56Z"/><path class="cls-2" d="M48.78,25.91a.81.81,0,0,1,.93.87,1.15,1.15,0,0,1-.93,1.13l-2.79.4v2l2.79-.39a.82.82,0,0,1,.93.87,1.16,1.16,0,0,1-.93,1.14L46,32.32v2l2.79-.39a.82.82,0,0,1,.93.87A1.17,1.17,0,0,1,48.76,36L45,36.47a.82.82,0,0,1-.93-.87l0-8a1.15,1.15,0,0,1,.93-1.13Z"/><path class="cls-3" d="M31.87,21.19,42.45,27a.88.88,0,0,1,.44.79L32.3,22A.87.87,0,0,0,31.87,21.19Z"/><path class="cls-3" d="M35.86,37.6,25.27,31.84a.78.78,0,0,0,.5.09,1.16,1.16,0,0,0,.93-1.14l10.59,5.76a1.16,1.16,0,0,1-.93,1.14A.85.85,0,0,1,35.86,37.6Z"/><polygon class="cls-2" points="41.02 33.02 30.43 27.26 30.44 22.24 41.03 28 41.02 33.02"/><path class="cls-2" d="M31.87,21.19,42.45,27a.8.8,0,0,0-.49-.09A1.16,1.16,0,0,0,41,28L30.44,22.24a1.15,1.15,0,0,1,.93-1.13A.77.77,0,0,1,31.87,21.19Z"/><path class="cls-2" d="M35.86,37.6,25.27,31.84a.86.86,0,0,1-.43-.78l10.59,5.76A.86.86,0,0,0,35.86,37.6Z"/><polygon class="cls-3" points="37.29 36.55 26.7 30.8 26.71 25.77 37.3 31.53 37.29 36.55"/><path class="cls-3" d="M32.76,38,22.17,32.28a.85.85,0,0,0,.5.09,1.16,1.16,0,0,0,.93-1.14L34.19,37a1.17,1.17,0,0,1-.93,1.14A.82.82,0,0,1,32.76,38Z"/><path class="cls-2" d="M32.76,38,22.17,32.28a.87.87,0,0,1-.43-.79l10.59,5.76A.87.87,0,0,0,32.76,38Z"/><polygon class="cls-3" points="41.02 33.02 30.43 27.26 26.53 22.19 37.12 27.95 41.02 33.02"/><path class="cls-3" d="M26.29,22l10.58,5.76a.75.75,0,0,1,.25.22L26.53,22.19A.83.83,0,0,0,26.29,22Z"/><path class="cls-3" d="M20.19,32.71a1.15,1.15,0,0,0,.93-1.13l10.59,5.76a1.15,1.15,0,0,1-.93,1.13Z"/><path class="cls-2" d="M26.29,22l10.58,5.76a.76.76,0,0,0-.49-.08L25.79,21.89A.77.77,0,0,1,26.29,22Z"/><polygon class="cls-2" points="35.43 36.82 24.84 31.06 24.86 23.02 35.45 28.78 35.43 36.82"/><polygon class="cls-3" points="34.19 36.99 23.6 31.23 23.61 23.2 34.2 28.96 34.19 36.99"/><polygon class="cls-2" points="32.33 37.25 21.74 31.49 21.75 23.46 32.34 29.22 32.33 37.25"/><polygon class="cls-2" points="27.99 36.86 17.4 31.1 20.19 30.71 30.78 36.47 27.99 36.86"/><path class="cls-3" d="M21.12,31.58a.87.87,0,0,0-.43-.79l10.59,5.76a.87.87,0,0,1,.43.79h0L21.12,31.58Z"/><path class="cls-2" d="M15.33,40.51A16.94,16.94,0,0,0,24,42.42l10.58,5.76a16.93,16.93,0,0,1-8.69-1.92Z"/><path class="cls-2" d="M35.45,28.78,24.86,23a1.19,1.19,0,0,1,.64-1,.81.81,0,0,1,.29-.09l10.59,5.76a.75.75,0,0,0-.29.09A1.19,1.19,0,0,0,35.45,28.78Z"/><path class="cls-2" d="M20.69,30.79l10.59,5.76a.77.77,0,0,0-.5-.08L20.19,30.71A.75.75,0,0,1,20.69,30.79Z"/><path class="cls-3" d="M23.62,23.2a.88.88,0,0,0-.44-.79l10.59,5.76a.87.87,0,0,1,.43.79Z"/><path class="cls-2" d="M23.18,22.41l10.59,5.76a.75.75,0,0,0-.5-.08L22.69,22.33A.74.74,0,0,1,23.18,22.41Z"/><polygon class="cls-3" points="27.06 39 16.47 33.24 20.19 32.71 30.78 38.47 27.06 39"/><path class="cls-2" d="M32.34,29.22,21.75,23.46a1.16,1.16,0,0,1,.94-1.13l10.58,5.76A1.15,1.15,0,0,0,32.34,29.22Z"/><path class="cls-3" d="M16,33.15a.85.85,0,0,0,.5.09L27.06,39a.82.82,0,0,1-.5-.09Z"/><path class="cls-2" d="M26.56,38.91,16,33.15a.87.87,0,0,1-.43-.79l10.59,5.76A.87.87,0,0,0,26.56,38.91Z"/><polygon class="cls-3" points="27.99 36.86 17.4 31.1 17.42 24.07 28 29.83 27.99 36.86"/><path class="cls-3" d="M17,23.28,27.57,29a.87.87,0,0,1,.43.79L17.42,24.07A.88.88,0,0,0,17,23.28Z"/><path class="cls-2" d="M17,23.28,27.57,29a.74.74,0,0,0-.49-.08L16.49,23.2A.74.74,0,0,1,17,23.28Z"/><polygon class="cls-2" points="26.13 38.12 15.54 32.36 15.56 24.33 26.14 30.09 26.13 38.12"/><path class="cls-2" d="M26.14,30.09,15.56,24.33a1.14,1.14,0,0,1,.93-1.13L27.08,29A1.15,1.15,0,0,0,26.14,30.09Z"/><path class="cls-3" d="M25.92,46.26,15.33,40.51A13.08,13.08,0,0,1,8.42,28.68c0-8.87,8.36-16.56,18.63-18l10.59,5.76C27.36,17.88,19,25.57,19,34.44A13.06,13.06,0,0,0,25.92,46.26Z"/><path class="cls-3" d="M37.64,16.43C48.18,15,56.23,21.85,56.22,29.21c0,10.85-14.93,21.53-19.31,24.24a.57.57,0,0,1-.25.1.56.56,0,0,1-.6-.74,20.21,20.21,0,0,0,.28-2.74A2.15,2.15,0,0,0,36,48.88a1.53,1.53,0,0,0-1.39-.7C25.48,48.47,19,42.63,19,34.44,19,25.57,27.36,17.88,37.64,16.43Zm5.23,19.34,0-8a.83.83,0,0,0-.93-.88A1.16,1.16,0,0,0,41,28v5L37.12,28a.77.77,0,0,0-.74-.3.75.75,0,0,0-.29.09,1.19,1.19,0,0,0-.64,1l0,8a.82.82,0,0,0,.93.87,1.16,1.16,0,0,0,.93-1.14v-5l3.9,5.08a.75.75,0,0,0,.74.29.86.86,0,0,0,.3-.09,1.18,1.18,0,0,0,.63-1m-12.09,2.7a1.15,1.15,0,0,0,.93-1.13.82.82,0,0,0-.93-.87L28,36.86v-7a.81.81,0,0,0-.92-.87,1.15,1.15,0,0,0-.94,1.13v8a.82.82,0,0,0,.93.88l3.72-.53m18-8.55L46,30.31v-2l2.79-.4a1.15,1.15,0,0,0,.93-1.13.81.81,0,0,0-.93-.87l-3.72.52a1.15,1.15,0,0,0-.93,1.13l0,8a.82.82,0,0,0,.93.87L48.76,36a1.17,1.17,0,0,0,.94-1.14.82.82,0,0,0-.93-.87L46,34.33v-2l2.79-.39a1.16,1.16,0,0,0,.93-1.14.82.82,0,0,0-.93-.87M34.19,37V29a.81.81,0,0,0-.93-.87,1.15,1.15,0,0,0-.93,1.13v8a.82.82,0,0,0,.93.88A1.17,1.17,0,0,0,34.19,37"/><path class="cls-2" d="M36.38,27.65a.77.77,0,0,1,.74.3L41,33V28A1.16,1.16,0,0,1,42,26.86a.83.83,0,0,1,.93.88l0,8a1.18,1.18,0,0,1-.63,1,.86.86,0,0,1-.3.09.75.75,0,0,1-.74-.29l-3.9-5.08v5a1.16,1.16,0,0,1-.93,1.14.82.82,0,0,1-.93-.87l0-8a1.19,1.19,0,0,1,.64-1A.75.75,0,0,1,36.38,27.65Z"/><path class="cls-2" d="M33.27,28.09a.81.81,0,0,1,.93.87v8a1.17,1.17,0,0,1-.93,1.14.82.82,0,0,1-.93-.88v-8A1.15,1.15,0,0,1,33.27,28.09Z"/><path class="cls-3" d="M38.45,12.57,49,18.33a18.41,18.41,0,0,0-11.4-1.9L27.05,10.67A18.41,18.41,0,0,1,38.45,12.57Z"/><path class="cls-2" d="M53.47,5.84c4.79-.67,8.67,3,8.66,8.15l-.07,34.8c0,5.19-3.9,9.92-8.69,10.6L21.12,63.92c-4.79.67-8.67-3-8.66-8.15L12.52,21c0-5.17,3.91-9.91,8.7-10.59ZM36.91,53.45c4.38-2.71,19.29-13.39,19.31-24.24,0-7.36-8-14.26-18.58-12.78C27.36,17.88,19,25.57,19,34.44c0,8.19,6.47,14,15.6,13.74a1.53,1.53,0,0,1,1.39.7,2.15,2.15,0,0,1,.34,1.19,20.21,20.21,0,0,1-.28,2.74.56.56,0,0,0,.6.74.57.57,0,0,0,.25-.1"/><path class="cls-2" d="M27.08,29a.81.81,0,0,1,.92.87v7l2.79-.39a.82.82,0,0,1,.93.87,1.15,1.15,0,0,1-.93,1.13L27.06,39a.82.82,0,0,1-.93-.88v-8A1.15,1.15,0,0,1,27.08,29Z"/><path class="cls-4" d="M47.51.88a7.41,7.41,0,0,0-4.63-.8L10.63,4.61C5.84,5.29,2,10,1.94,15.21L1.87,50a8.12,8.12,0,0,0,4,7.35l10.58,5.76a8.12,8.12,0,0,1-4-7.35L12.52,21c0-5.17,3.91-9.91,8.7-10.59L53.47,5.84a7.42,7.42,0,0,1,4.63.8Z"/></g></g></svg>