<?xml version="1.0" ?><svg viewBox="0 0 64 64" xmlns="http://www.w3.org/2000/svg" xmlns:xlink="http://www.w3.org/1999/xlink"><defs><style>.cls-1{isolation:isolate;}.cls-2{fill:#f9ed32;}.cls-3{fill:#ffa82d;}.cls-4{fill:#ff0117;}.cls-5{fill:#fff;}.cls-6{fill:url(#linear-gradient);}.cls-7{fill:#f7941d;}</style><linearGradient gradientUnits="userSpaceOnUse" id="linear-gradient" x1="14.4" x2="63.33" y1="60.81" y2="5.38"><stop offset="0" stop-color="#ffeda5"/><stop offset="0.11" stop-color="#ffea96"/><stop offset="0.52" stop-color="#ffe063"/><stop offset="0.83" stop-color="#ffd943"/><stop offset="1" stop-color="#ffd737"/></linearGradient></defs><title/><g data-name="16-weibo" id="_16-weibo"><g class="cls-1"><path class="cls-2" d="M47.17,22.42a2.08,2.08,0,0,0,.59-.9l10.58,5.76a2,2,0,0,1-.58.9Z"/><path class="cls-2" d="M46.29,22.85a1.7,1.7,0,0,0,.88-.43l10.59,5.76a1.73,1.73,0,0,1-.88.43,1.51,1.51,0,0,1-.52,0,1.43,1.43,0,0,1-.31-.12L45.46,22.7a1.17,1.17,0,0,0,.31.12A1.53,1.53,0,0,0,46.29,22.85Z"/><path class="cls-2" d="M42,31.16A4.09,4.09,0,0,0,39.9,27l10.59,5.76a4.11,4.11,0,0,1,2.06,4.21Z"/><path class="cls-2" d="M48.42,17.3c0-4.35-2.06-7.87-5.16-9.55l10.59,5.76C57,15.19,59,18.71,59,23.06a14.2,14.2,0,0,1-.67,4.22L47.76,21.52A14.19,14.19,0,0,0,48.42,17.3Z"/><path class="cls-3" d="M56.05,28.46,45.46,22.7a1.55,1.55,0,0,1-.63-1.88,10.55,10.55,0,0,0,.49-3.09,7.67,7.67,0,0,0-3.72-6.92l10.58,5.76a7.61,7.61,0,0,1,3.72,6.92,10.22,10.22,0,0,1-.48,3.09A1.56,1.56,0,0,0,56.05,28.46Z"/><path class="cls-2" d="M41.05,21.38a1.89,1.89,0,0,0,1.46-1.31l9.35,5.09,1.23.67a1.87,1.87,0,0,1-1.46,1.31L41.05,21.38l10.58,5.76a1.3,1.3,0,0,1-.52,0L40.53,21.36A1.3,1.3,0,0,0,41.05,21.38Z"/><path class="cls-2" d="M40.52,21.36h0l10.58,5.76h0L40.52,21.36Z"/><path class="cls-2" d="M40.21,21.24a1.66,1.66,0,0,0,.31.12l10.59,5.76A1.66,1.66,0,0,1,50.8,27Z"/><path class="cls-4" d="M39.9,27l10.59,5.76A6.4,6.4,0,0,0,47.6,32L37,26.27A6.4,6.4,0,0,1,39.9,27Z"/><path class="cls-2" d="M25.69,46.86c9.5-2.23,15.92-9.12,16.27-15.7l10.59,5.76c-.35,6.58-6.77,13.47-16.28,15.7Z"/><path class="cls-4" d="M47.48,32,36.89,26.24a.27.27,0,0,0,.12,0L47.6,32A.21.21,0,0,1,47.48,32Z"/><path class="cls-2" d="M36.89,26.24a.32.32,0,0,1-.13-.38l10.59,5.76a.32.32,0,0,0,.13.38Z"/><path class="cls-2" d="M23.14,47.34c.86-.12,1.72-.28,2.55-.48l10.58,5.76c-.83.19-1.68.36-2.55.48Z"/><path class="cls-4" d="M23.89,44.45C30.76,42.83,36,37.71,35.65,33l10.59,5.76c.38,4.7-4.89,9.82-11.76,11.44Z"/><path class="cls-4" d="M35.65,33A6,6,0,0,0,32.3,28.2L42.89,34a6,6,0,0,1,3.35,4.81Z"/><path class="cls-2" d="M42.85,17.91a5.38,5.38,0,0,0-2.64-4.86l10.58,5.76a5.34,5.34,0,0,1,2.64,4.86,7,7,0,0,1-.34,2.16L42.51,20.07A7.66,7.66,0,0,0,42.85,17.91Z"/><path class="cls-3" d="M50.8,27,40.21,21.24a1.57,1.57,0,0,1-.63-1.88,3.18,3.18,0,0,0,.16-1,2.49,2.49,0,0,0-1.19-2.25l10.58,5.76a2.48,2.48,0,0,1,1.2,2.25,3.18,3.18,0,0,1-.16,1A1.56,1.56,0,0,0,50.8,27Z"/><path class="cls-4" d="M22.2,44.76c.56-.07,1.12-.18,1.69-.31l10.59,5.76c-.57.13-1.13.24-1.69.31Z"/><path class="cls-4" d="M22.08,44.78l.12,0,10.59,5.76-.12,0Z"/><path class="cls-2" d="M36.07,18.84,46.65,24.6l.06,0c2.17,1.29,1.06,5.64.64,7L36.76,25.86c.42-1.35,1.54-5.7-.63-7Z"/><path class="cls-5" d="M22.86,43c3.65-.86,6.4-4.26,6.13-7.61l10.59,5.76c.27,3.35-2.48,6.75-6.13,7.61Z"/><path class="cls-5" d="M22.18,43.17a5.79,5.79,0,0,0,.68-.13L33.45,48.8a5.79,5.79,0,0,1-.68.13Z"/><path class="cls-2" d="M37.28,15.88a2.08,2.08,0,0,1,1.27.22l10.58,5.76a2,2,0,0,0-1.26-.22,2.23,2.23,0,0,0-.64.19h0L36.66,16.08l10.57,5.75a1.66,1.66,0,0,1-.42.12L36.22,16.19a1.66,1.66,0,0,0,.42-.12A2.23,2.23,0,0,1,37.28,15.88Z"/><path class="cls-2" d="M36.22,16.19h0L46.81,22h0L36.22,16.19Z"/><path class="cls-4" d="M20.37,44.92a14.41,14.41,0,0,0,1.71-.14l10.59,5.76a14.58,14.58,0,0,1-1.72.14L25.66,47.8Z"/><path class="cls-5" d="M20.64,43.22a7.28,7.28,0,0,0,1.54,0l10.59,5.76a7.3,7.3,0,0,1-1.54,0Z"/><path class="cls-2" d="M35.39,16.05a1.39,1.39,0,0,0,.83.14L46.81,22A1.31,1.31,0,0,1,46,21.8Z"/><path class="cls-3" d="M40.21,13.05l10.58,5.76a4.59,4.59,0,0,0-2.91-.51L37.29,12.54A4.7,4.7,0,0,1,40.21,13.05Z"/><path d="M23.66,36.48a.63.63,0,0,0,.41.07l10.59,5.76a.63.63,0,0,1-.41-.07Z"/><path d="M24.84,35.61a.72.72,0,0,0-.36-.65l10.59,5.76a.73.73,0,0,1,.36.65,1,1,0,0,1-.77.94L24.07,36.55A1,1,0,0,0,24.84,35.61Z"/><path class="cls-5" d="M29,35.43a4.93,4.93,0,0,0-2.59-4L37,37.17a4.94,4.94,0,0,1,2.59,4Z"/><path class="cls-5" d="M19.77,43.08a6.07,6.07,0,0,0,.87.14L31.23,49a6.07,6.07,0,0,1-.87-.14Z"/><path class="cls-5" d="M24.48,35l10.59,5.76a.7.7,0,0,0-.41-.07L24.07,34.89A.7.7,0,0,1,24.48,35Z"/><path class="cls-5" d="M34.25,42.24,23.66,36.48a.72.72,0,0,1-.36-.65,1,1,0,0,1,.77-.94l10.59,5.76a1,1,0,0,0-.77.94A.7.7,0,0,0,34.25,42.24Z"/><path class="cls-5" d="M34.66,40.65a.68.68,0,0,1,.77.72,1,1,0,0,1-.77.94.68.68,0,0,1-.77-.72A1,1,0,0,1,34.66,40.65Z"/><path class="cls-3" d="M46,21.8,35.39,16.05a1.39,1.39,0,0,1-.66-.87A1.94,1.94,0,0,1,35.81,13a5.32,5.32,0,0,1,1.48-.43L47.88,18.3a5.32,5.32,0,0,0-1.48.43,1.94,1.94,0,0,0-1.08,2.21A1.34,1.34,0,0,0,46,21.8Z"/><path class="cls-3" d="M47.88,18.3c3.06-.43,5.56,2,5.55,5.37a7,7,0,0,1-.34,2.16,1.87,1.87,0,0,1-1.46,1.31,1.3,1.3,0,0,1-.52,0,1.51,1.51,0,0,1-.94-2,3.18,3.18,0,0,0,.16-1,2.26,2.26,0,0,0-2.46-2.47,2.23,2.23,0,0,0-.64.19,1.66,1.66,0,0,1-.42.12,1.33,1.33,0,0,1-1.49-1,1.94,1.94,0,0,1,1.08-2.21A5.32,5.32,0,0,1,47.88,18.3Z"/><path class="cls-5" d="M18.35,42.55a6,6,0,0,0,1.42.53l10.59,5.76a5.87,5.87,0,0,1-1.42-.53Z"/><path d="M19.45,40.24a1.65,1.65,0,0,0,1,.18l9.35,5.08,1.24.67A1.58,1.58,0,0,1,30,46Z"/><path d="M22.38,38.09a1.77,1.77,0,0,0-.89-1.61l10.59,5.76A1.79,1.79,0,0,1,33,43.85a2.36,2.36,0,0,1-1.91,2.32L20.47,40.42A2.37,2.37,0,0,0,22.38,38.09Z"/><path class="cls-3" d="M43.26,7.75l10.59,5.76a9.07,9.07,0,0,0-5.66-1L37.6,6.76A9.07,9.07,0,0,1,43.26,7.75Z"/><path class="cls-5" d="M21.49,36.48l10.59,5.76a1.65,1.65,0,0,0-1-.18L20.48,36.3A1.63,1.63,0,0,1,21.49,36.48Z"/><path class="cls-2" d="M37.59,10.11a6.51,6.51,0,0,1,4,.7l10.58,5.76a6.41,6.41,0,0,0-4-.7,7.37,7.37,0,0,0-2,.59,1.79,1.79,0,0,1-.42.12,1.3,1.3,0,0,1-.83-.15L34.31,10.67a1.3,1.3,0,0,0,.83.15,1.66,1.66,0,0,0,.42-.12A7.47,7.47,0,0,1,37.59,10.11Z"/><path class="cls-5" d="M30,46,19.45,40.24a1.78,1.78,0,0,1-.88-1.61,2.36,2.36,0,0,1,1.91-2.33l10.58,5.76a2.36,2.36,0,0,0-1.9,2.33A1.74,1.74,0,0,0,30,46Z"/><path d="M39.58,41.19c.27,3.35-2.48,6.75-6.13,7.61a5.79,5.79,0,0,1-.68.13c-3.36.47-6.17-1.5-6.42-4.64-.27-3.35,2.48-6.76,6.13-7.61a5.79,5.79,0,0,1,.68-.13C36.52,36.08,39.32,38.05,39.58,41.19Zm-8.52,5A2.36,2.36,0,0,0,33,43.85a1.69,1.69,0,0,0-1.91-1.79,2.36,2.36,0,0,0-1.9,2.33,1.66,1.66,0,0,0,1.9,1.78m3.6-3.86a1,1,0,0,0,.77-.94.68.68,0,0,0-.77-.72,1,1,0,0,0-.77.94.68.68,0,0,0,.77.72"/><path class="cls-2" d="M12.38,45.93c3.11,1.7,7,1.93,10.76,1.41L33.72,53.1c-3.73.52-7.64.28-10.75-1.41Z"/><path class="cls-4" d="M14.13,43.64a12.21,12.21,0,0,0,6.24,1.28l1.88,1,1.34.73,7.36,4a12.28,12.28,0,0,1-6.23-1.28Z"/><path d="M28.94,48.31,18.35,42.55a4.94,4.94,0,0,1-2.59-4c-.27-3.35,2.48-6.75,6.13-7.61a5.79,5.79,0,0,1,.68-.13,6.21,6.21,0,0,1,3.83.62L37,37.17a6.22,6.22,0,0,0-3.83-.62,5.79,5.79,0,0,0-.68.13c-3.65.85-6.4,4.26-6.13,7.61A4.92,4.92,0,0,0,28.94,48.31Z"/><path class="cls-5" d="M24.72,49.4,14.13,43.64a6,6,0,0,1-3.36-4.8C10.39,34.13,15.66,29,22.53,27.4c.57-.14,1.14-.24,1.69-.32A13.33,13.33,0,0,1,32.3,28.2L42.89,34a13.33,13.33,0,0,0-8.08-1.12c-.56.08-1.12.18-1.69.32C26.25,34.77,21,39.89,21.36,44.6A6,6,0,0,0,24.72,49.4Z"/><path class="cls-5" d="M46.24,38.77c.38,4.7-4.89,9.82-11.76,11.44-.57.13-1.13.24-1.69.31-6.12.86-11.08-1.6-11.43-5.92-.38-4.71,4.89-9.83,11.76-11.44.57-.14,1.13-.24,1.69-.32C40.93,32,45.9,34.45,46.24,38.77Zm-12.79,10c3.65-.86,6.4-4.26,6.13-7.61-.26-3.14-3.06-5.11-6.42-4.64a5.79,5.79,0,0,0-.68.13c-3.65.85-6.4,4.26-6.13,7.61.25,3.14,3.06,5.11,6.42,4.64a5.79,5.79,0,0,0,.68-.13"/><ellipse class="cls-5" cx="31.06" cy="44.12" rx="2.14" ry="1.83" transform="translate(-22.54 50.32) rotate(-61.45)"/><path class="cls-4" d="M37.61,27.37,27,21.61a.25.25,0,0,0,.17,0,.24.24,0,0,0,.13-.05c1.29-.81,4.42-2.64,6.79-3a3.19,3.19,0,0,1,2,.23L46.65,24.6a3.19,3.19,0,0,0-2-.23c-2.37.34-5.49,2.17-6.78,3a.27.27,0,0,1-.13,0A.25.25,0,0,1,37.61,27.37Z"/><path class="cls-3" d="M44.9,16.43,34.31,10.67a1.34,1.34,0,0,1-.66-.86,2,2,0,0,1,1.08-2.22,10.94,10.94,0,0,1,2.87-.83l10.59,5.76a11,11,0,0,0-2.88.83,2,2,0,0,0-1.07,2.22A1.3,1.3,0,0,0,44.9,16.43Z"/><path class="cls-2" d="M37.61,27.37,27,21.61a.28.28,0,0,1-.13-.33c.33-1.55.89-5.16-.91-6.14L36.57,20.9c1.8,1,1.24,4.59.91,6.14A.28.28,0,0,0,37.61,27.37Z"/><path class="cls-4" d="M26,15.14,36.57,20.9A2.56,2.56,0,0,0,35,20.69a7,7,0,0,0-1.92.62L22.49,15.55a7.43,7.43,0,0,1,1.93-.62A2.54,2.54,0,0,1,26,15.14Z"/><path class="cls-4" d="M23,51.69,12.38,45.93a8,8,0,0,1-.74-.44c-4.77-3.09-4.55-9.27-2.3-14.94a31.29,31.29,0,0,1,13.15-15l10.59,5.76a31.29,31.29,0,0,0-13.15,15c-2.25,5.67-2.47,11.85,2.3,14.94A8,8,0,0,0,23,51.69Z"/><path class="cls-6" d="M53.47,5.84c4.79-.67,8.67,3,8.66,8.15l-.06,34.8c0,5.18-3.91,9.92-8.7,10.6L21.12,63.92c-4.8.67-8.67-3-8.67-8.15L12.52,21c0-5.17,3.9-9.91,8.7-10.59Zm-.92,31.08C52.79,32.44,48.86,32,47.6,32a.3.3,0,0,1-.25-.41c.42-1.35,1.53-5.7-.64-7a3.13,3.13,0,0,0-2-.26c-2.37.34-5.49,2.17-6.78,3a.27.27,0,0,1-.13,0,.28.28,0,0,1-.3-.36c.4-1.89,1.14-6.86-2.48-6.35a7,7,0,0,0-1.92.62,31.29,31.29,0,0,0-13.15,15c-2.25,5.67-2.47,11.85,2.3,14.94,3.21,2.09,7.46,2.42,11.49,1.85.87-.12,1.72-.29,2.55-.48,9.51-2.23,15.93-9.12,16.28-15.7m5.79-9.64A14.2,14.2,0,0,0,59,23.06c0-6.65-4.85-11.38-10.82-10.54a11,11,0,0,0-2.88.83,2,2,0,0,0-1.07,2.22,1.33,1.33,0,0,0,1.49,1,1.79,1.79,0,0,0,.42-.12,7.37,7.37,0,0,1,2-.59c4.26-.6,7.73,2.82,7.72,7.62a10.22,10.22,0,0,1-.48,3.09,1.42,1.42,0,0,0,1.46,2,1.89,1.89,0,0,0,1.46-1.33m-5.25-1.45a7,7,0,0,0,.34-2.16c0-3.39-2.49-5.8-5.55-5.37a5.32,5.32,0,0,0-1.48.43,1.94,1.94,0,0,0-1.08,2.21,1.33,1.33,0,0,0,1.49,1,1.66,1.66,0,0,0,.42-.12,2.23,2.23,0,0,1,.64-.19,2.26,2.26,0,0,1,2.46,2.47,3.18,3.18,0,0,1-.16,1,1.51,1.51,0,0,0,.94,2,1.3,1.3,0,0,0,.52,0,1.87,1.87,0,0,0,1.46-1.31"/><path class="cls-3" d="M48.19,12.52c6-.84,10.83,3.89,10.82,10.54a14.2,14.2,0,0,1-.67,4.22,1.89,1.89,0,0,1-1.46,1.33,1.42,1.42,0,0,1-1.46-2,10.22,10.22,0,0,0,.48-3.09c0-4.8-3.46-8.22-7.72-7.62a7.37,7.37,0,0,0-2,.59,1.79,1.79,0,0,1-.42.12,1.33,1.33,0,0,1-1.49-1,2,2,0,0,1,1.07-2.22A11,11,0,0,1,48.19,12.52Z"/><path class="cls-4" d="M47.6,32c1.26,0,5.19.41,4.95,4.89-.35,6.58-6.77,13.47-16.28,15.7-.83.19-1.68.36-2.55.48-4,.57-8.28.24-11.49-1.85-4.77-3.09-4.55-9.27-2.3-14.94a31.29,31.29,0,0,1,13.15-15A7,7,0,0,1,35,20.69c3.62-.51,2.88,4.46,2.48,6.35a.28.28,0,0,0,.3.36.27.27,0,0,0,.13,0c1.29-.81,4.41-2.64,6.78-3a3.13,3.13,0,0,1,2,.26c2.17,1.29,1.06,5.64.64,7A.3.3,0,0,0,47.6,32ZM34.48,50.21c6.87-1.62,12.14-6.74,11.76-11.44-.34-4.32-5.31-6.79-11.43-5.93-.56.08-1.12.18-1.69.32C26.25,34.77,21,39.89,21.36,44.6c.35,4.32,5.31,6.78,11.43,5.92.56-.07,1.12-.18,1.69-.31"/><path class="cls-7" d="M47.51.88a7.42,7.42,0,0,0-4.63-.8L10.63,4.61c-4.8.68-8.69,5.42-8.7,10.6L1.87,50a8.12,8.12,0,0,0,4,7.35l10.59,5.76a8.12,8.12,0,0,1-4-7.35L12.52,21c0-5.17,3.9-9.91,8.7-10.59L53.47,5.84a7.42,7.42,0,0,1,4.63.8Z"/></g></g></svg>