<?xml version="1.0" ?><svg viewBox="0 0 64 64" xmlns="http://www.w3.org/2000/svg"><defs><style>.cls-1{isolation:isolate;}.cls-2{fill:#fff;}.cls-3{fill:#ffae30;}.cls-4{fill:#231f20;}.cls-5{fill:#f22128;}.cls-6{fill:#939598;}</style></defs><title/><g data-name="10-qq" id="_10-qq"><g class="cls-1"><path class="cls-2" d="M43.66,40.66a.4.4,0,0,0,.3-.29l10.58,5.76a.39.39,0,0,1-.29.29Z"/><path class="cls-2" d="M43.5,40.63a.41.41,0,0,0,.16,0l10.59,5.76a.41.41,0,0,1-.16,0Z"/><path class="cls-2" d="M39.38,49.12c.46-.64,0-1.16-.72-1.57l10.59,5.76c.76.41,1.18.93.72,1.57s-2.4,1-4.67,1.35a38,38,0,0,1-6.61.41L28.1,50.88a38.15,38.15,0,0,0,6.62-.41C37,50.16,39,49.68,39.38,49.12Z"/><path class="cls-3" d="M38.66,47.55l10.59,5.76a10.89,10.89,0,0,0-2.67-.89L36,46.66A10.75,10.75,0,0,1,38.66,47.55Z"/><path class="cls-2" d="M41.62,28.28,52.21,34c1.48,3.91,3.15,9.31,2.33,12.09L44,40.37C44.77,37.59,43.1,32.19,41.62,28.28Z"/><path class="cls-4" d="M54.09,46.39,43.5,40.63l0,0a11,11,0,0,1-3.33-3.71l10.59,5.76a10.87,10.87,0,0,0,3.33,3.71Z"/><path class="cls-2" d="M36,46.66a15.53,15.53,0,0,0,4.15-9.76l10.59,5.76a15.53,15.53,0,0,1-4.15,9.76Z"/><path class="cls-3" d="M28.1,50.88A14.88,14.88,0,0,0,36,46.66l9.36,5.08,1.23.68a14.92,14.92,0,0,1-7.89,4.22Z"/><path class="cls-3" d="M46.58,52.42c1.77.4,4.29,1.2,3.39,2.46-.41.56-2.4,1-4.67,1.35a38,38,0,0,1-6.61.41A14.92,14.92,0,0,0,46.58,52.42Z"/><path class="cls-2" d="M41,26.78l5.3,2.88,5.29,2.88c.19.46.39,1,.59,1.5L41.62,28.28C41.42,27.75,41.22,27.24,41,26.78Z"/><path class="cls-2" d="M40.9,26.45l10.58,5.76c.05.1.09.21.14.33L41,26.78C41,26.66,40.94,26.55,40.9,26.45Z"/><path class="cls-4" d="M38.81,29.42c1.09-.42,2-.82,2.81-1.14L52.21,34c-.76.32-1.72.72-2.81,1.14Z"/><path class="cls-2" d="M26.66,51.13c.5-.07,1-.15,1.44-.25l10.59,5.76c-.46.1-.94.18-1.44.25Z"/><path class="cls-2" d="M25.28,51.26c.44,0,.9-.06,1.38-.13l10.59,5.76a13.83,13.83,0,0,1-1.39.13Z"/><path class="cls-4" d="M38.81,29.42,49.4,35.18c-.71.28-1.47.57-2.27.85L36.54,30.27C37.34,30,38.11,29.7,38.81,29.42Z"/><path class="cls-2" d="M40.9,26.45c-.68-1.66-1.16-2.7-1.19-2.76L50.3,29.45c0,.06.51,1.1,1.18,2.76L41.55,26.8l-.33-.18,0,0,0,0,0,0-.05,0,0,0A.39.39,0,0,1,40.9,26.45Z"/><path class="cls-4" d="M51.62,32.54,41,26.78c-.72-1.78-1.28-3-1.32-3.08L50.3,29.45C50.33,29.53,50.9,30.76,51.62,32.54Z"/><polygon class="cls-4" points="50.3 29.45 50.3 29.46 50.3 29.46 50.3 29.45"/><polygon class="cls-4" points="50.3 29.45 39.71 23.69 39.7 23.53 50.29 29.29 50.3 29.45"/><path class="cls-2" d="M39.71,23.69v-.17L50.3,29.28v.17Z"/><path class="cls-4" d="M26.66,49.57C37.45,48.05,37,34.85,36.54,30.27l5.3,2.88,4,2.21,1.24.67c.48,4.58.91,17.78-9.88,19.3a10,10,0,0,1-3.54-.09L23.13,49.48A9.75,9.75,0,0,0,26.66,49.57Z"/><path class="cls-2" d="M26.7,32.92a52.05,52.05,0,0,0,9.84-2.65L47.13,36a52.15,52.15,0,0,1-9.85,2.65Z"/><path class="cls-2" d="M24.34,33.16c.81-.06,1.6-.14,2.36-.24l10.58,5.76c-.76.1-1.54.18-2.35.24Z"/><polygon class="cls-2" points="34.92 44.98 24.33 39.22 24.34 33.16 34.93 38.92 34.92 44.98"/><path class="cls-2" d="M29.23,45.41,18.64,39.65a9.93,9.93,0,0,0,3.55-.06c1.17-.16,2.09-.36,2.14-.37L34.92,45c-.05,0-1,.21-2.14.37A9.93,9.93,0,0,1,29.23,45.41Z"/><polygon class="cls-5" points="29.23 45.41 18.64 39.65 18.65 33.16 29.24 38.92 29.23 45.41"/><path class="cls-2" d="M21.34,48.82c-5.26-2.86-4.88-12-4.49-15.77l10.59,5.76c-.4,3.74-.77,12.91,4.48,15.77Z"/><path class="cls-2" d="M16.85,33.05l1.8.11,10.59,5.76-1.8-.11Z"/><path class="cls-4" d="M13.69,32.73c.94.12,2,.23,3.16.32l10.59,5.76c-1.15-.09-2.23-.2-3.16-.32Z"/><path class="cls-4" d="M13.69,32.73a1.74,1.74,0,0,1,.26.15L16,34l2.3,1.25,6,3.26-1.91-.26L11.79,32.47C12.33,32.56,13,32.64,13.69,32.73Z"/><path class="cls-5" d="M24.3,32.94,13.72,27.18c2.15.53,6.22,1,13,.05s10.83-2.57,13-3.7l10.59,5.76c-2.16,1.13-6.23,2.75-13,3.7S26.46,33.47,24.3,32.94Z"/><path class="cls-5" d="M50.29,29.29v.16c0,.06.58,1.25,1.32,3.09.19.46.39,1,.59,1.5-1.25.53-3,1.26-5.08,2a52.15,52.15,0,0,1-9.85,2.65c-.76.1-1.54.18-2.35.24V45c-.05,0-1,.21-2.14.37a9.93,9.93,0,0,1-3.55.06V38.92l-1.8-.11c-2-.16-3.82-.39-5.07-.58,1-2.86,1.9-5,1.93-5.12v-.17c2.16.53,6.23,1,13,.05S48.13,30.42,50.29,29.29Z"/><path class="cls-4" d="M50.42,29.73l0-.06-.1-.21h0Z"/><path class="cls-2" d="M39.71,23.49,50.3,29.25v0L39.71,23.52Z"/><path class="cls-4" d="M21.34,48.82a6.56,6.56,0,0,0,1.79.66l10.58,5.76a6.69,6.69,0,0,1-1.79-.66Z"/><path class="cls-2" d="M18.61,52.74a40.79,40.79,0,0,0,6.67-1.48L35.86,57A40.4,40.4,0,0,1,29.2,58.5c-2.08.29-3.92.38-4.53,0L14.09,52.8C14.69,53.12,16.54,53,18.61,52.74Z"/><path class="cls-3" d="M19.39,50a10.91,10.91,0,0,0,5.89,1.23l9.35,5.09,1.23.67A10.9,10.9,0,0,1,30,55.79Z"/><path class="cls-4" d="M30,55.79,19.39,50a10.18,10.18,0,0,1-1.51-1l10.58,5.76A10.29,10.29,0,0,0,30,55.79Z"/><path class="cls-3" d="M28.46,54.78A10.5,10.5,0,0,0,35.86,57,40.4,40.4,0,0,1,29.2,58.5c-2.27.32-4.26.4-4.66,0C23.54,57.35,26.73,55.61,28.46,54.78Z"/><path class="cls-3" d="M24.67,58.55,14.09,52.8,14,52.69c-1-1.1,2.19-2.84,3.93-3.67l10.58,5.76c-1.73.83-4.92,2.57-3.92,3.67A.45.45,0,0,0,24.67,58.55Z"/><path class="cls-4" d="M34.32,20.88a1.6,1.6,0,0,0-.27-.16l10.59,5.75.27.17a.35.35,0,0,1,0,.56c-1.08.78-4.48,3.1-7.56,3.53s-6.48-.93-7.56-1.4h0L19.13,23.56h0c1.08.47,4.48,1.84,7.56,1.4s6.49-2.75,7.57-3.53A.36.36,0,0,0,34.32,20.88Z"/><path class="cls-3" d="M34.05,20.72l10.59,5.75c-.83-.45-2.81-1-7.33-.34L26.72,20.37C31.24,19.73,33.22,20.26,34.05,20.72Z"/><path class="cls-2" d="M39.71,23.49c0-9.85-3.23-14.07-6.45-15.82l10.59,5.76c3.22,1.75,6.42,6,6.45,15.82Z"/><path class="cls-4" d="M30.1,18.88c1.16-.16,2.17-1.86,2.28-3.86L43,20.78c-.11,2-1.12,3.69-2.29,3.86Z"/><path class="cls-4" d="M30,18.89h.09l10.58,5.76H40.6Z"/><path class="cls-2" d="M42.25,21.44,31.66,15.68a.51.51,0,0,0,0-.71l10.59,5.76A.52.52,0,0,1,42.25,21.44Z"/><path class="cls-2" d="M41.67,21.59,31.08,15.83a.36.36,0,0,0,.25,0,.49.49,0,0,0,.33-.19l10.59,5.76a.49.49,0,0,1-.33.19A.36.36,0,0,1,41.67,21.59Z"/><path d="M41.67,21.59,31.08,15.83a.18.18,0,0,1-.07-.05l10.58,5.76Z"/><path class="cls-4" d="M29.34,18.75a1.18,1.18,0,0,0,.67.14L40.6,24.65a1.23,1.23,0,0,1-.68-.14Z"/><path class="cls-2" d="M31.45,14.8,42,20.56l.2.17L31.65,15Z"/><path class="cls-4" d="M29.3,18.73l0,0,10.58,5.76,0,0Z"/><path d="M30.74,15.58l10.59,5.76a1.13,1.13,0,0,1,.26.2L31,15.78A1.17,1.17,0,0,0,30.74,15.58Z"/><path class="cls-2" d="M31.45,14.8a1.2,1.2,0,0,0-.21-.13l10.59,5.76a1.2,1.2,0,0,1,.21.13l-9.12-5-.73-.4-.1,0C31.88,15,31.66,14.93,31.45,14.8Z"/><path class="cls-2" d="M30.74,15.58l10.59,5.76a.62.62,0,0,0-.39-.08l-.09,0L30.26,15.52l.09,0A.62.62,0,0,1,30.74,15.58Z"/><path d="M31.24,14.67l10.59,5.76a1.47,1.47,0,0,0-.91-.18L30.33,14.49A1.46,1.46,0,0,1,31.24,14.67Z"/><path class="cls-2" d="M29.37,16.37a1.84,1.84,0,0,1,.89-.85l10.59,5.76a1.92,1.92,0,0,0-.9.85.5.5,0,0,1-.39.29.43.43,0,0,1-.25,0L28.73,16.63a.39.39,0,0,0,.24,0A.53.53,0,0,0,29.37,16.37Z"/><path class="cls-2" d="M28.73,16.63h0l10.58,5.76h0Z"/><path class="cls-2" d="M28.28,17.34l10.59,5.75a2.37,2.37,0,0,0,1,1.4L29.3,18.73A2.39,2.39,0,0,1,28.28,17.34Z"/><path class="cls-2" d="M28.24,17.21,38.83,23s0,.08,0,.12L28.28,17.34A.5.5,0,0,0,28.24,17.21Z"/><path class="cls-2" d="M28.24,17.21l0-.11L38.8,22.86l0,.11-9.19-5-.33-.18-.37-.2-.18-.1-.27-.14-.17-.1Z"/><path class="cls-4" d="M32.38,15c.09-1.61-.44-2.93-1.25-3.38L41.72,17.4c.81.44,1.34,1.77,1.25,3.38Z"/><path d="M39.31,22.39,28.73,16.63a.49.49,0,0,1-.15-.67l10.59,5.76A.49.49,0,0,0,39.31,22.39Z"/><path d="M39.17,21.72,28.58,16a3,3,0,0,1,1.57-1.43l.18,0,10.59,5.76-.18,0A3,3,0,0,0,39.17,21.72Z"/><path d="M40.92,20.25a1.57,1.57,0,0,1,1.32.48.52.52,0,0,1,0,.71.49.49,0,0,1-.33.19.39.39,0,0,1-.33-.09.77.77,0,0,0-.65-.28l-.09,0a1.92,1.92,0,0,0-.9.85.5.5,0,0,1-.39.29.43.43,0,0,1-.25,0,.49.49,0,0,1-.14-.67,3,3,0,0,1,1.57-1.43Z"/><path class="cls-2" d="M30.43,11.49a1.22,1.22,0,0,1,.7.15L41.72,17.4a1.25,1.25,0,0,0-.71-.15Z"/><path class="cls-2" d="M28.05,15.36a6.29,6.29,0,0,1,.53-2.21l10.59,5.76a6.08,6.08,0,0,0-.53,2.21,5.35,5.35,0,0,0,.16,1.74L28.21,17.1A6,6,0,0,1,28.05,15.36Z"/><path class="cls-2" d="M30.35,11.5h.08L41,17.25h-.08a2.62,2.62,0,0,0-1.76,1.65L28.58,13.15A2.61,2.61,0,0,1,30.35,11.5Z"/><path class="cls-2" d="M41,17.25c1.19-.1,2.08,1.49,2,3.53s-1.12,3.69-2.29,3.86H40.6c-1.2.09-2.08-1.49-2-3.53s1.13-3.7,2.29-3.86Zm1.24,4.19a.52.52,0,0,0,0-.71,1.57,1.57,0,0,0-1.32-.48l-.18,0a3,3,0,0,0-1.57,1.43.49.49,0,0,0,.14.67.43.43,0,0,0,.25,0,.5.5,0,0,0,.39-.29,1.92,1.92,0,0,1,.9-.85l.09,0a.77.77,0,0,1,.65.28.39.39,0,0,0,.33.09.49.49,0,0,0,.33-.19"/><path class="cls-4" d="M28.46,54.78,17.88,49a14.39,14.39,0,0,1-4.65-8.34l10.59,5.76A14.35,14.35,0,0,0,28.46,54.78Z"/><path class="cls-2" d="M10.77,44.4a16,16,0,0,0,2.46-3.72l10.59,5.76a16,16,0,0,1-2.47,3.72Z"/><path class="cls-2" d="M47.13,36c.48,4.58.91,17.78-9.88,19.3s-10.31-11.8-9.81-16.52l1.8.11v6.49a9.93,9.93,0,0,0,3.55-.06C34,45.19,34.87,45,34.92,45V38.92c.81-.06,1.59-.14,2.35-.24A52.15,52.15,0,0,0,47.13,36Z"/><path class="cls-2" d="M9.88,45.33c.22-.21.53-.52.89-.93l10.58,5.76a12.47,12.47,0,0,1-.88.93Z"/><path class="cls-2" d="M9.69,45.43a.32.32,0,0,0,.19-.1l10.59,5.76a.32.32,0,0,1-.19.1Z"/><path class="cls-2" d="M9.53,45.4a.23.23,0,0,0,.16,0l10.59,5.76a.22.22,0,0,1-.16,0Z"/><path class="cls-3" d="M29.72,29.32,19.13,23.56a.35.35,0,0,1,0-.54c.64-.64,2.51-1.93,7.61-2.65l10.59,5.76c-5.1.72-7,2-7.61,2.65A.35.35,0,0,0,29.72,29.32Z"/><path class="cls-4" d="M23.34,19.83l.09,0L34,25.57l-.09,0Z"/><path class="cls-4" d="M23.43,19.81c1.2-.24,2.08-2.06,2-4.08L36,21.49c.1,2-.78,3.84-2,4.08Z"/><path class="cls-2" d="M23.88,17.74a.46.46,0,0,0,.28.06l10.59,5.76a.46.46,0,0,1-.28-.06Z"/><path class="cls-4" d="M22.51,19.67a1.34,1.34,0,0,0,.83.16l10.59,5.76a1.34,1.34,0,0,1-.83-.16Z"/><path class="cls-2" d="M25,16.26A1.42,1.42,0,0,0,24.46,15l10.59,5.76A1.42,1.42,0,0,1,35.56,22c0,.79-.36,1.47-.81,1.54L24.16,17.8C24.61,17.74,25,17.05,25,16.26Z"/><path class="cls-4" d="M25.41,15.73A3.68,3.68,0,0,0,24,12.67l10.59,5.76A3.71,3.71,0,0,1,36,21.49Z"/><path d="M24.46,15l10.59,5.76a.49.49,0,0,0-.29-.06L24.17,15A.49.49,0,0,1,24.46,15Z"/><path d="M34.47,23.5,23.88,17.74a1.41,1.41,0,0,1-.51-1.25c0-.79.36-1.47.8-1.54l10.59,5.76c-.44.07-.8.75-.8,1.54A1.41,1.41,0,0,0,34.47,23.5Z"/><path class="cls-2" d="M36,21.49c.1,2-.78,3.84-2,4.08l-.09,0c-1.16.16-2.17-1.25-2.27-3.22s.78-3.84,2-4.08l.08,0C34.88,18.11,35.89,19.52,36,21.49Zm-1.25,2.07c.45-.07.81-.75.81-1.54s-.36-1.37-.8-1.31-.8.75-.8,1.54.35,1.37.79,1.31"/><path class="cls-3" d="M37.31,26.13c5.1-.72,7,.05,7.6.51a.35.35,0,0,1,0,.56c-1.08.78-4.48,3.1-7.56,3.53s-6.48-.93-7.56-1.4a.34.34,0,0,1,0-.55C30.34,28.14,32.21,26.85,37.31,26.13Z"/><path class="cls-4" d="M27.14,6.58a10.24,10.24,0,0,1,6.12,1.09l10.59,5.76a10.24,10.24,0,0,0-6.12-1.09l-.4.07L26.74,6.65Z"/><path class="cls-2" d="M33.1,25.43,22.51,19.67a3.67,3.67,0,0,1-1.44-3.06c-.1-2,.78-3.84,2-4.08l.08,0a1.37,1.37,0,0,1,.84.16l10.59,5.76a1.38,1.38,0,0,0-.84-.16l-.08,0c-1.2.24-2.08,2.07-2,4.08A3.67,3.67,0,0,0,33.1,25.43Z"/><polygon class="cls-5" points="24.3 33.11 13.71 27.35 13.72 27.18 24.3 32.94 24.3 33.11"/><path class="cls-4" d="M13.71,27.35C13.74,9.4,24.16,7,26.35,6.69l10.58,5.76c-2.17.31-12.52,2.7-12.63,20.46L13.75,27.17,24.3,32.91v.19C22,31.83,16,28.6,13.71,27.35Z"/><path class="cls-4" d="M37.73,12.34l-.4.07-.4,0c-2.17.31-12.54,2.7-12.63,20.49h0c2.16.53,6.23,1,13,.05s10.84-2.57,13-3.7v.16C50.33,11.51,39.91,12,37.73,12.34Zm.91,8.78c.11-2,1.13-3.7,2.29-3.86H41c1.19-.1,2.08,1.49,2,3.53s-1.12,3.69-2.29,3.86H40.6c-1.2.09-2.08-1.49-2-3.53m-5-2.83.08,0c1.16-.16,2.17,1.25,2.28,3.22s-.78,3.84-2,4.08l-.09,0c-1.16.16-2.17-1.25-2.27-3.22s.78-3.84,2-4.08M44.86,27.2c-1.08.78-4.48,3.1-7.56,3.53s-6.48-.93-7.56-1.4a.34.34,0,0,1,0-.55c.64-.64,2.51-1.93,7.61-2.65s7,.05,7.6.51a.35.35,0,0,1,0,.56M24.3,33.09h0v0Z"/><path d="M34.76,20.71c.44-.06.8.53.8,1.31s-.36,1.47-.81,1.54S34,23,34,22.25,34.32,20.78,34.76,20.71Z"/><path class="cls-4" d="M36.93,12.45,26.35,6.69l.39,0,10.59,5.76Z"/><path class="cls-4" d="M12.55,30.32l10.59,5.76C21.57,40.33,19,48,20,51a.26.26,0,0,0,.13.17L9.53,45.4a.26.26,0,0,1-.13-.17C8.45,42.22,11,34.57,12.55,30.32Z"/><path class="cls-4" d="M12.55,30.32c.65-1.75,1.14-2.92,1.16-3l9.35,5.08,1.24.68s-.51,1.22-1.16,3Z"/><path class="cls-5" d="M22.37,38.23,11.79,32.47c1-2.86,1.89-5,1.92-5.12L24.3,33.11C24.27,33.18,23.37,35.37,22.37,38.23Z"/><path class="cls-4" d="M52.21,34c1.48,3.91,3.15,9.31,2.33,12.09a.39.39,0,0,1-.29.29.32.32,0,0,1-.19-.05,10.87,10.87,0,0,1-3.33-3.71,15.53,15.53,0,0,1-4.15,9.76,14.92,14.92,0,0,1-7.89,4.22c-.46.1-.94.18-1.44.25a13.83,13.83,0,0,1-1.39.13,10.5,10.5,0,0,1-7.4-2.24,14.35,14.35,0,0,1-4.64-8.34,16.42,16.42,0,0,1-3.35,4.65.32.32,0,0,1-.19.1A.26.26,0,0,1,20,51c-1.34-4.25,4.24-17.71,4.31-17.88,0,.07-.93,2.26-1.93,5.12,1.25.19,3,.42,5.07.58-.5,4.72-1,18,9.81,16.52S47.61,40.61,47.13,36C49.17,35.3,51,34.57,52.21,34Z"/><path class="cls-2" d="M53.47,5.84c4.79-.67,8.67,3,8.66,8.15l-.06,34.8c0,5.18-3.91,9.92-8.7,10.6L21.12,63.92c-4.8.67-8.67-3-8.67-8.15L12.52,21c0-5.18,3.9-9.91,8.7-10.59Zm1.07,40.29c.82-2.78-.85-8.18-2.33-12.09-.2-.53-.4-1-.59-1.5-.74-1.85-1.29-3-1.32-3.09,0-17.94-10.39-17.41-12.57-17.11l-.4.07-.4,0c-2.18.31-12.6,2.71-12.63,20.65C24.23,33.28,18.65,46.74,20,51a.26.26,0,0,0,.29.2.32.32,0,0,0,.19-.1,16.42,16.42,0,0,0,3.35-4.65,14.35,14.35,0,0,0,4.64,8.34c-1.73.83-4.92,2.57-3.92,3.67.4.45,2.39.37,4.66,0A40.4,40.4,0,0,0,35.86,57a13.83,13.83,0,0,0,1.39-.13c.5-.07,1-.15,1.44-.25a38,38,0,0,0,6.61-.41c2.27-.31,4.26-.79,4.67-1.35.9-1.26-1.62-2.06-3.39-2.46a15.53,15.53,0,0,0,4.15-9.76,10.87,10.87,0,0,0,3.33,3.71.32.32,0,0,0,.19.05.39.39,0,0,0,.29-.29"/><path class="cls-4" d="M51.62,32.54c-.56-1.39-1-2.44-1.22-2.87l0,.06C50.63,30.19,51.08,31.21,51.62,32.54Z"/><path class="cls-6" d="M47.52.88a7.45,7.45,0,0,0-4.64-.8L10.63,4.61c-4.8.68-8.69,5.41-8.7,10.6L1.87,50a8.11,8.11,0,0,0,4,7.35l10.58,5.76a8.14,8.14,0,0,1-4-7.35L12.52,21c0-5.18,3.9-9.91,8.7-10.59L53.47,5.84a7.42,7.42,0,0,1,4.63.8Z"/></g></g></svg>